G04 #@! TF.GenerationSoftware,KiCad,Pcbnew,5.0.2-bee76a0~70~ubuntu18.04.1*
G04 #@! TF.CreationDate,2020-02-25T15:21:58-05:00*
G04 #@! TF.ProjectId,led-display,6c65642d-6469-4737-906c-61792e6b6963,rev?*
G04 #@! TF.SameCoordinates,Original*
G04 #@! TF.FileFunction,Legend,Bot*
G04 #@! TF.FilePolarity,Positive*
%FSLAX46Y46*%
G04 Gerber Fmt 4.6, Leading zero omitted, Abs format (unit mm)*
G04 Created by KiCad (PCBNEW 5.0.2-bee76a0~70~ubuntu18.04.1) date Tue 25 Feb 2020 03:21:58 PM EST*
%MOMM*%
%LPD*%
G01*
G04 APERTURE LIST*
%ADD10C,0.120000*%
%ADD11C,0.150000*%
G04 APERTURE END LIST*
D10*
G04 #@! TO.C,J1*
X145990000Y-64710000D02*
X151190000Y-64710000D01*
X145990000Y-82550000D02*
X145990000Y-64710000D01*
X151190000Y-85150000D02*
X151190000Y-64710000D01*
X145990000Y-82550000D02*
X148590000Y-82550000D01*
X148590000Y-82550000D02*
X148590000Y-85150000D01*
X148590000Y-85150000D02*
X151190000Y-85150000D01*
X145990000Y-83820000D02*
X145990000Y-85150000D01*
X145990000Y-85150000D02*
X147320000Y-85150000D01*
G04 #@! TO.C,J2*
X44510000Y-64710000D02*
X43180000Y-64710000D01*
X44510000Y-66040000D02*
X44510000Y-64710000D01*
X41910000Y-64710000D02*
X39310000Y-64710000D01*
X41910000Y-67310000D02*
X41910000Y-64710000D01*
X44510000Y-67310000D02*
X41910000Y-67310000D01*
X39310000Y-64710000D02*
X39310000Y-85150000D01*
X44510000Y-67310000D02*
X44510000Y-85150000D01*
X44510000Y-85150000D02*
X39310000Y-85150000D01*
G04 #@! TO.C,U1*
X91500000Y-43450000D02*
G75*
G03X91500000Y-45450000I0J-1000000D01*
G01*
X91500000Y-45450000D02*
X91500000Y-50510000D01*
X91500000Y-50510000D02*
X55820000Y-50510000D01*
X55820000Y-50510000D02*
X55820000Y-38390000D01*
X55820000Y-38390000D02*
X91500000Y-38390000D01*
X91500000Y-38390000D02*
X91500000Y-43450000D01*
G04 #@! TO.C,U4*
X132140000Y-38390000D02*
X132140000Y-43450000D01*
X96460000Y-38390000D02*
X132140000Y-38390000D01*
X96460000Y-50510000D02*
X96460000Y-38390000D01*
X132140000Y-50510000D02*
X96460000Y-50510000D01*
X132140000Y-45450000D02*
X132140000Y-50510000D01*
X132140000Y-43450000D02*
G75*
G03X132140000Y-45450000I0J-1000000D01*
G01*
G04 #@! TO.C,D2*
X48776253Y-172287019D02*
G75*
G03X48835772Y-174355000I-1151253J-1067981D01*
G01*
G04 #@! TO.C,D3*
X50681253Y-56082019D02*
G75*
G03X50740772Y-58150000I-1151253J-1067981D01*
G01*
G04 #@! TO.C,D4*
X49411253Y-75132019D02*
G75*
G03X49470772Y-77200000I-1151253J-1067981D01*
G01*
G04 #@! TO.C,D5*
X48776253Y-99262019D02*
G75*
G03X48835772Y-101330000I-1151253J-1067981D01*
G01*
G04 #@! TO.C,D6*
X48776253Y-115137019D02*
G75*
G03X48835772Y-117205000I-1151253J-1067981D01*
G01*
G04 #@! TO.C,D7*
X48776253Y-134822019D02*
G75*
G03X48835772Y-136890000I-1151253J-1067981D01*
G01*
G04 #@! TO.C,D8*
X48776253Y-153872019D02*
G75*
G03X48835772Y-155940000I-1151253J-1067981D01*
G01*
G04 #@! TO.C,D9*
X67826253Y-56082019D02*
G75*
G03X67885772Y-58150000I-1151253J-1067981D01*
G01*
G04 #@! TO.C,D10*
X67826253Y-74497019D02*
G75*
G03X67885772Y-76565000I-1151253J-1067981D01*
G01*
G04 #@! TO.C,D11*
X73541253Y-119582019D02*
G75*
G03X73600772Y-121650000I-1151253J-1067981D01*
G01*
G04 #@! TO.C,D12*
X74176253Y-134187019D02*
G75*
G03X74235772Y-136255000I-1151253J-1067981D01*
G01*
G04 #@! TO.C,D13*
X73541253Y-157047019D02*
G75*
G03X73600772Y-159115000I-1151253J-1067981D01*
G01*
G04 #@! TO.C,D14*
X73541253Y-172287019D02*
G75*
G03X73600772Y-174355000I-1151253J-1067981D01*
G01*
G04 #@! TO.C,D15*
X86876253Y-56082019D02*
G75*
G03X86935772Y-58150000I-1151253J-1067981D01*
G01*
G04 #@! TO.C,D16*
X86876253Y-74497019D02*
G75*
G03X86935772Y-76565000I-1151253J-1067981D01*
G01*
G04 #@! TO.C,D17*
X86876253Y-94182019D02*
G75*
G03X86935772Y-96250000I-1151253J-1067981D01*
G01*
G04 #@! TO.C,D18*
X99576253Y-115137019D02*
G75*
G03X99635772Y-117205000I-1151253J-1067981D01*
G01*
G04 #@! TO.C,D19*
X99576253Y-134187019D02*
G75*
G03X99635772Y-136255000I-1151253J-1067981D01*
G01*
G04 #@! TO.C,D20*
X99576253Y-153237019D02*
G75*
G03X99635772Y-155305000I-1151253J-1067981D01*
G01*
G04 #@! TO.C,D21*
X99576253Y-172287019D02*
G75*
G03X99635772Y-174355000I-1151253J-1067981D01*
G01*
G04 #@! TO.C,D22*
X105926253Y-56082019D02*
G75*
G03X105985772Y-58150000I-1151253J-1067981D01*
G01*
G04 #@! TO.C,D23*
X105926253Y-74497019D02*
G75*
G03X105985772Y-76565000I-1151253J-1067981D01*
G01*
G04 #@! TO.C,D24*
X105926253Y-93547019D02*
G75*
G03X105985772Y-95615000I-1151253J-1067981D01*
G01*
G04 #@! TO.C,D25*
X124976253Y-115772019D02*
G75*
G03X125035772Y-117840000I-1151253J-1067981D01*
G01*
G04 #@! TO.C,D26*
X124976253Y-134187019D02*
G75*
G03X125035772Y-136255000I-1151253J-1067981D01*
G01*
G04 #@! TO.C,D27*
X124976253Y-153237019D02*
G75*
G03X125035772Y-155305000I-1151253J-1067981D01*
G01*
G04 #@! TO.C,D28*
X124976253Y-172287019D02*
G75*
G03X125035772Y-174355000I-1151253J-1067981D01*
G01*
G04 #@! TO.C,D29*
X124976253Y-55447019D02*
G75*
G03X125035772Y-57515000I-1151253J-1067981D01*
G01*
G04 #@! TO.C,D30*
X124976253Y-74497019D02*
G75*
G03X125035772Y-76565000I-1151253J-1067981D01*
G01*
G04 #@! TO.C,D31*
X124976253Y-93547019D02*
G75*
G03X125035772Y-95615000I-1151253J-1067981D01*
G01*
G04 #@! TO.C,J1*
D11*
X148923333Y-85602380D02*
X148923333Y-86316666D01*
X148970952Y-86459523D01*
X149066190Y-86554761D01*
X149209047Y-86602380D01*
X149304285Y-86602380D01*
X147923333Y-86602380D02*
X148494761Y-86602380D01*
X148209047Y-86602380D02*
X148209047Y-85602380D01*
X148304285Y-85745238D01*
X148399523Y-85840476D01*
X148494761Y-85888095D01*
G04 #@! TO.C,J2*
X42243333Y-63162380D02*
X42243333Y-63876666D01*
X42290952Y-64019523D01*
X42386190Y-64114761D01*
X42529047Y-64162380D01*
X42624285Y-64162380D01*
X41814761Y-63257619D02*
X41767142Y-63210000D01*
X41671904Y-63162380D01*
X41433809Y-63162380D01*
X41338571Y-63210000D01*
X41290952Y-63257619D01*
X41243333Y-63352857D01*
X41243333Y-63448095D01*
X41290952Y-63590952D01*
X41862380Y-64162380D01*
X41243333Y-64162380D01*
G04 #@! TO.C,U1*
X91952380Y-43688095D02*
X92761904Y-43688095D01*
X92857142Y-43735714D01*
X92904761Y-43783333D01*
X92952380Y-43878571D01*
X92952380Y-44069047D01*
X92904761Y-44164285D01*
X92857142Y-44211904D01*
X92761904Y-44259523D01*
X91952380Y-44259523D01*
X92952380Y-45259523D02*
X92952380Y-44688095D01*
X92952380Y-44973809D02*
X91952380Y-44973809D01*
X92095238Y-44878571D01*
X92190476Y-44783333D01*
X92238095Y-44688095D01*
G04 #@! TO.C,U4*
X132592380Y-43688095D02*
X133401904Y-43688095D01*
X133497142Y-43735714D01*
X133544761Y-43783333D01*
X133592380Y-43878571D01*
X133592380Y-44069047D01*
X133544761Y-44164285D01*
X133497142Y-44211904D01*
X133401904Y-44259523D01*
X132592380Y-44259523D01*
X132925714Y-45164285D02*
X133592380Y-45164285D01*
X132544761Y-44926190D02*
X133259047Y-44688095D01*
X133259047Y-45307142D01*
G04 #@! TO.C,D2*
X49633095Y-176416594D02*
X49633095Y-175416594D01*
X49395000Y-175416594D01*
X49252142Y-175464214D01*
X49156904Y-175559452D01*
X49109285Y-175654690D01*
X49061666Y-175845166D01*
X49061666Y-175988023D01*
X49109285Y-176178499D01*
X49156904Y-176273737D01*
X49252142Y-176368975D01*
X49395000Y-176416594D01*
X49633095Y-176416594D01*
X48680714Y-175511833D02*
X48633095Y-175464214D01*
X48537857Y-175416594D01*
X48299761Y-175416594D01*
X48204523Y-175464214D01*
X48156904Y-175511833D01*
X48109285Y-175607071D01*
X48109285Y-175702309D01*
X48156904Y-175845166D01*
X48728333Y-176416594D01*
X48109285Y-176416594D01*
X52403095Y-173521666D02*
X51926904Y-173521666D01*
X52498333Y-173807380D02*
X52165000Y-172807380D01*
X51831666Y-173807380D01*
G04 #@! TO.C,D3*
X51538095Y-60211594D02*
X51538095Y-59211594D01*
X51300000Y-59211594D01*
X51157142Y-59259214D01*
X51061904Y-59354452D01*
X51014285Y-59449690D01*
X50966666Y-59640166D01*
X50966666Y-59783023D01*
X51014285Y-59973499D01*
X51061904Y-60068737D01*
X51157142Y-60163975D01*
X51300000Y-60211594D01*
X51538095Y-60211594D01*
X50633333Y-59211594D02*
X50014285Y-59211594D01*
X50347619Y-59592547D01*
X50204761Y-59592547D01*
X50109523Y-59640166D01*
X50061904Y-59687785D01*
X50014285Y-59783023D01*
X50014285Y-60021118D01*
X50061904Y-60116356D01*
X50109523Y-60163975D01*
X50204761Y-60211594D01*
X50490476Y-60211594D01*
X50585714Y-60163975D01*
X50633333Y-60116356D01*
X54308095Y-57316666D02*
X53831904Y-57316666D01*
X54403333Y-57602380D02*
X54070000Y-56602380D01*
X53736666Y-57602380D01*
G04 #@! TO.C,D4*
X50268095Y-79261594D02*
X50268095Y-78261594D01*
X50030000Y-78261594D01*
X49887142Y-78309214D01*
X49791904Y-78404452D01*
X49744285Y-78499690D01*
X49696666Y-78690166D01*
X49696666Y-78833023D01*
X49744285Y-79023499D01*
X49791904Y-79118737D01*
X49887142Y-79213975D01*
X50030000Y-79261594D01*
X50268095Y-79261594D01*
X48839523Y-78594928D02*
X48839523Y-79261594D01*
X49077619Y-78213975D02*
X49315714Y-78928261D01*
X48696666Y-78928261D01*
X53038095Y-76366666D02*
X52561904Y-76366666D01*
X53133333Y-76652380D02*
X52800000Y-75652380D01*
X52466666Y-76652380D01*
G04 #@! TO.C,D5*
X49633095Y-103391594D02*
X49633095Y-102391594D01*
X49395000Y-102391594D01*
X49252142Y-102439214D01*
X49156904Y-102534452D01*
X49109285Y-102629690D01*
X49061666Y-102820166D01*
X49061666Y-102963023D01*
X49109285Y-103153499D01*
X49156904Y-103248737D01*
X49252142Y-103343975D01*
X49395000Y-103391594D01*
X49633095Y-103391594D01*
X48156904Y-102391594D02*
X48633095Y-102391594D01*
X48680714Y-102867785D01*
X48633095Y-102820166D01*
X48537857Y-102772547D01*
X48299761Y-102772547D01*
X48204523Y-102820166D01*
X48156904Y-102867785D01*
X48109285Y-102963023D01*
X48109285Y-103201118D01*
X48156904Y-103296356D01*
X48204523Y-103343975D01*
X48299761Y-103391594D01*
X48537857Y-103391594D01*
X48633095Y-103343975D01*
X48680714Y-103296356D01*
X52403095Y-100496666D02*
X51926904Y-100496666D01*
X52498333Y-100782380D02*
X52165000Y-99782380D01*
X51831666Y-100782380D01*
G04 #@! TO.C,D6*
X49633095Y-119266594D02*
X49633095Y-118266594D01*
X49395000Y-118266594D01*
X49252142Y-118314214D01*
X49156904Y-118409452D01*
X49109285Y-118504690D01*
X49061666Y-118695166D01*
X49061666Y-118838023D01*
X49109285Y-119028499D01*
X49156904Y-119123737D01*
X49252142Y-119218975D01*
X49395000Y-119266594D01*
X49633095Y-119266594D01*
X48204523Y-118266594D02*
X48395000Y-118266594D01*
X48490238Y-118314214D01*
X48537857Y-118361833D01*
X48633095Y-118504690D01*
X48680714Y-118695166D01*
X48680714Y-119076118D01*
X48633095Y-119171356D01*
X48585476Y-119218975D01*
X48490238Y-119266594D01*
X48299761Y-119266594D01*
X48204523Y-119218975D01*
X48156904Y-119171356D01*
X48109285Y-119076118D01*
X48109285Y-118838023D01*
X48156904Y-118742785D01*
X48204523Y-118695166D01*
X48299761Y-118647547D01*
X48490238Y-118647547D01*
X48585476Y-118695166D01*
X48633095Y-118742785D01*
X48680714Y-118838023D01*
X52403095Y-116371666D02*
X51926904Y-116371666D01*
X52498333Y-116657380D02*
X52165000Y-115657380D01*
X51831666Y-116657380D01*
G04 #@! TO.C,D7*
X49633095Y-138951594D02*
X49633095Y-137951594D01*
X49395000Y-137951594D01*
X49252142Y-137999214D01*
X49156904Y-138094452D01*
X49109285Y-138189690D01*
X49061666Y-138380166D01*
X49061666Y-138523023D01*
X49109285Y-138713499D01*
X49156904Y-138808737D01*
X49252142Y-138903975D01*
X49395000Y-138951594D01*
X49633095Y-138951594D01*
X48728333Y-137951594D02*
X48061666Y-137951594D01*
X48490238Y-138951594D01*
X52403095Y-136056666D02*
X51926904Y-136056666D01*
X52498333Y-136342380D02*
X52165000Y-135342380D01*
X51831666Y-136342380D01*
G04 #@! TO.C,D8*
X49633095Y-158001594D02*
X49633095Y-157001594D01*
X49395000Y-157001594D01*
X49252142Y-157049214D01*
X49156904Y-157144452D01*
X49109285Y-157239690D01*
X49061666Y-157430166D01*
X49061666Y-157573023D01*
X49109285Y-157763499D01*
X49156904Y-157858737D01*
X49252142Y-157953975D01*
X49395000Y-158001594D01*
X49633095Y-158001594D01*
X48490238Y-157430166D02*
X48585476Y-157382547D01*
X48633095Y-157334928D01*
X48680714Y-157239690D01*
X48680714Y-157192071D01*
X48633095Y-157096833D01*
X48585476Y-157049214D01*
X48490238Y-157001594D01*
X48299761Y-157001594D01*
X48204523Y-157049214D01*
X48156904Y-157096833D01*
X48109285Y-157192071D01*
X48109285Y-157239690D01*
X48156904Y-157334928D01*
X48204523Y-157382547D01*
X48299761Y-157430166D01*
X48490238Y-157430166D01*
X48585476Y-157477785D01*
X48633095Y-157525404D01*
X48680714Y-157620642D01*
X48680714Y-157811118D01*
X48633095Y-157906356D01*
X48585476Y-157953975D01*
X48490238Y-158001594D01*
X48299761Y-158001594D01*
X48204523Y-157953975D01*
X48156904Y-157906356D01*
X48109285Y-157811118D01*
X48109285Y-157620642D01*
X48156904Y-157525404D01*
X48204523Y-157477785D01*
X48299761Y-157430166D01*
X52403095Y-155106666D02*
X51926904Y-155106666D01*
X52498333Y-155392380D02*
X52165000Y-154392380D01*
X51831666Y-155392380D01*
G04 #@! TO.C,D9*
X68683095Y-60211594D02*
X68683095Y-59211594D01*
X68445000Y-59211594D01*
X68302142Y-59259214D01*
X68206904Y-59354452D01*
X68159285Y-59449690D01*
X68111666Y-59640166D01*
X68111666Y-59783023D01*
X68159285Y-59973499D01*
X68206904Y-60068737D01*
X68302142Y-60163975D01*
X68445000Y-60211594D01*
X68683095Y-60211594D01*
X67635476Y-60211594D02*
X67445000Y-60211594D01*
X67349761Y-60163975D01*
X67302142Y-60116356D01*
X67206904Y-59973499D01*
X67159285Y-59783023D01*
X67159285Y-59402071D01*
X67206904Y-59306833D01*
X67254523Y-59259214D01*
X67349761Y-59211594D01*
X67540238Y-59211594D01*
X67635476Y-59259214D01*
X67683095Y-59306833D01*
X67730714Y-59402071D01*
X67730714Y-59640166D01*
X67683095Y-59735404D01*
X67635476Y-59783023D01*
X67540238Y-59830642D01*
X67349761Y-59830642D01*
X67254523Y-59783023D01*
X67206904Y-59735404D01*
X67159285Y-59640166D01*
X71453095Y-57316666D02*
X70976904Y-57316666D01*
X71548333Y-57602380D02*
X71215000Y-56602380D01*
X70881666Y-57602380D01*
G04 #@! TO.C,D10*
X69159285Y-78626594D02*
X69159285Y-77626594D01*
X68921190Y-77626594D01*
X68778333Y-77674214D01*
X68683095Y-77769452D01*
X68635476Y-77864690D01*
X68587857Y-78055166D01*
X68587857Y-78198023D01*
X68635476Y-78388499D01*
X68683095Y-78483737D01*
X68778333Y-78578975D01*
X68921190Y-78626594D01*
X69159285Y-78626594D01*
X67635476Y-78626594D02*
X68206904Y-78626594D01*
X67921190Y-78626594D02*
X67921190Y-77626594D01*
X68016428Y-77769452D01*
X68111666Y-77864690D01*
X68206904Y-77912309D01*
X67016428Y-77626594D02*
X66921190Y-77626594D01*
X66825952Y-77674214D01*
X66778333Y-77721833D01*
X66730714Y-77817071D01*
X66683095Y-78007547D01*
X66683095Y-78245642D01*
X66730714Y-78436118D01*
X66778333Y-78531356D01*
X66825952Y-78578975D01*
X66921190Y-78626594D01*
X67016428Y-78626594D01*
X67111666Y-78578975D01*
X67159285Y-78531356D01*
X67206904Y-78436118D01*
X67254523Y-78245642D01*
X67254523Y-78007547D01*
X67206904Y-77817071D01*
X67159285Y-77721833D01*
X67111666Y-77674214D01*
X67016428Y-77626594D01*
X71453095Y-75731666D02*
X70976904Y-75731666D01*
X71548333Y-76017380D02*
X71215000Y-75017380D01*
X70881666Y-76017380D01*
G04 #@! TO.C,D11*
X74874285Y-123711594D02*
X74874285Y-122711594D01*
X74636190Y-122711594D01*
X74493333Y-122759214D01*
X74398095Y-122854452D01*
X74350476Y-122949690D01*
X74302857Y-123140166D01*
X74302857Y-123283023D01*
X74350476Y-123473499D01*
X74398095Y-123568737D01*
X74493333Y-123663975D01*
X74636190Y-123711594D01*
X74874285Y-123711594D01*
X73350476Y-123711594D02*
X73921904Y-123711594D01*
X73636190Y-123711594D02*
X73636190Y-122711594D01*
X73731428Y-122854452D01*
X73826666Y-122949690D01*
X73921904Y-122997309D01*
X72398095Y-123711594D02*
X72969523Y-123711594D01*
X72683809Y-123711594D02*
X72683809Y-122711594D01*
X72779047Y-122854452D01*
X72874285Y-122949690D01*
X72969523Y-122997309D01*
X77168095Y-120816666D02*
X76691904Y-120816666D01*
X77263333Y-121102380D02*
X76930000Y-120102380D01*
X76596666Y-121102380D01*
G04 #@! TO.C,D12*
X75509285Y-138316594D02*
X75509285Y-137316594D01*
X75271190Y-137316594D01*
X75128333Y-137364214D01*
X75033095Y-137459452D01*
X74985476Y-137554690D01*
X74937857Y-137745166D01*
X74937857Y-137888023D01*
X74985476Y-138078499D01*
X75033095Y-138173737D01*
X75128333Y-138268975D01*
X75271190Y-138316594D01*
X75509285Y-138316594D01*
X73985476Y-138316594D02*
X74556904Y-138316594D01*
X74271190Y-138316594D02*
X74271190Y-137316594D01*
X74366428Y-137459452D01*
X74461666Y-137554690D01*
X74556904Y-137602309D01*
X73604523Y-137411833D02*
X73556904Y-137364214D01*
X73461666Y-137316594D01*
X73223571Y-137316594D01*
X73128333Y-137364214D01*
X73080714Y-137411833D01*
X73033095Y-137507071D01*
X73033095Y-137602309D01*
X73080714Y-137745166D01*
X73652142Y-138316594D01*
X73033095Y-138316594D01*
X77803095Y-135421666D02*
X77326904Y-135421666D01*
X77898333Y-135707380D02*
X77565000Y-134707380D01*
X77231666Y-135707380D01*
G04 #@! TO.C,D13*
X74874285Y-161176594D02*
X74874285Y-160176594D01*
X74636190Y-160176594D01*
X74493333Y-160224214D01*
X74398095Y-160319452D01*
X74350476Y-160414690D01*
X74302857Y-160605166D01*
X74302857Y-160748023D01*
X74350476Y-160938499D01*
X74398095Y-161033737D01*
X74493333Y-161128975D01*
X74636190Y-161176594D01*
X74874285Y-161176594D01*
X73350476Y-161176594D02*
X73921904Y-161176594D01*
X73636190Y-161176594D02*
X73636190Y-160176594D01*
X73731428Y-160319452D01*
X73826666Y-160414690D01*
X73921904Y-160462309D01*
X73017142Y-160176594D02*
X72398095Y-160176594D01*
X72731428Y-160557547D01*
X72588571Y-160557547D01*
X72493333Y-160605166D01*
X72445714Y-160652785D01*
X72398095Y-160748023D01*
X72398095Y-160986118D01*
X72445714Y-161081356D01*
X72493333Y-161128975D01*
X72588571Y-161176594D01*
X72874285Y-161176594D01*
X72969523Y-161128975D01*
X73017142Y-161081356D01*
X77168095Y-158281666D02*
X76691904Y-158281666D01*
X77263333Y-158567380D02*
X76930000Y-157567380D01*
X76596666Y-158567380D01*
G04 #@! TO.C,D14*
X74874285Y-176416594D02*
X74874285Y-175416594D01*
X74636190Y-175416594D01*
X74493333Y-175464214D01*
X74398095Y-175559452D01*
X74350476Y-175654690D01*
X74302857Y-175845166D01*
X74302857Y-175988023D01*
X74350476Y-176178499D01*
X74398095Y-176273737D01*
X74493333Y-176368975D01*
X74636190Y-176416594D01*
X74874285Y-176416594D01*
X73350476Y-176416594D02*
X73921904Y-176416594D01*
X73636190Y-176416594D02*
X73636190Y-175416594D01*
X73731428Y-175559452D01*
X73826666Y-175654690D01*
X73921904Y-175702309D01*
X72493333Y-175749928D02*
X72493333Y-176416594D01*
X72731428Y-175368975D02*
X72969523Y-176083261D01*
X72350476Y-176083261D01*
X77168095Y-173521666D02*
X76691904Y-173521666D01*
X77263333Y-173807380D02*
X76930000Y-172807380D01*
X76596666Y-173807380D01*
G04 #@! TO.C,D15*
X88209285Y-60211594D02*
X88209285Y-59211594D01*
X87971190Y-59211594D01*
X87828333Y-59259214D01*
X87733095Y-59354452D01*
X87685476Y-59449690D01*
X87637857Y-59640166D01*
X87637857Y-59783023D01*
X87685476Y-59973499D01*
X87733095Y-60068737D01*
X87828333Y-60163975D01*
X87971190Y-60211594D01*
X88209285Y-60211594D01*
X86685476Y-60211594D02*
X87256904Y-60211594D01*
X86971190Y-60211594D02*
X86971190Y-59211594D01*
X87066428Y-59354452D01*
X87161666Y-59449690D01*
X87256904Y-59497309D01*
X85780714Y-59211594D02*
X86256904Y-59211594D01*
X86304523Y-59687785D01*
X86256904Y-59640166D01*
X86161666Y-59592547D01*
X85923571Y-59592547D01*
X85828333Y-59640166D01*
X85780714Y-59687785D01*
X85733095Y-59783023D01*
X85733095Y-60021118D01*
X85780714Y-60116356D01*
X85828333Y-60163975D01*
X85923571Y-60211594D01*
X86161666Y-60211594D01*
X86256904Y-60163975D01*
X86304523Y-60116356D01*
X90503095Y-57316666D02*
X90026904Y-57316666D01*
X90598333Y-57602380D02*
X90265000Y-56602380D01*
X89931666Y-57602380D01*
G04 #@! TO.C,D16*
X88209285Y-78626594D02*
X88209285Y-77626594D01*
X87971190Y-77626594D01*
X87828333Y-77674214D01*
X87733095Y-77769452D01*
X87685476Y-77864690D01*
X87637857Y-78055166D01*
X87637857Y-78198023D01*
X87685476Y-78388499D01*
X87733095Y-78483737D01*
X87828333Y-78578975D01*
X87971190Y-78626594D01*
X88209285Y-78626594D01*
X86685476Y-78626594D02*
X87256904Y-78626594D01*
X86971190Y-78626594D02*
X86971190Y-77626594D01*
X87066428Y-77769452D01*
X87161666Y-77864690D01*
X87256904Y-77912309D01*
X85828333Y-77626594D02*
X86018809Y-77626594D01*
X86114047Y-77674214D01*
X86161666Y-77721833D01*
X86256904Y-77864690D01*
X86304523Y-78055166D01*
X86304523Y-78436118D01*
X86256904Y-78531356D01*
X86209285Y-78578975D01*
X86114047Y-78626594D01*
X85923571Y-78626594D01*
X85828333Y-78578975D01*
X85780714Y-78531356D01*
X85733095Y-78436118D01*
X85733095Y-78198023D01*
X85780714Y-78102785D01*
X85828333Y-78055166D01*
X85923571Y-78007547D01*
X86114047Y-78007547D01*
X86209285Y-78055166D01*
X86256904Y-78102785D01*
X86304523Y-78198023D01*
X90503095Y-75731666D02*
X90026904Y-75731666D01*
X90598333Y-76017380D02*
X90265000Y-75017380D01*
X89931666Y-76017380D01*
G04 #@! TO.C,D17*
X88209285Y-98311594D02*
X88209285Y-97311594D01*
X87971190Y-97311594D01*
X87828333Y-97359214D01*
X87733095Y-97454452D01*
X87685476Y-97549690D01*
X87637857Y-97740166D01*
X87637857Y-97883023D01*
X87685476Y-98073499D01*
X87733095Y-98168737D01*
X87828333Y-98263975D01*
X87971190Y-98311594D01*
X88209285Y-98311594D01*
X86685476Y-98311594D02*
X87256904Y-98311594D01*
X86971190Y-98311594D02*
X86971190Y-97311594D01*
X87066428Y-97454452D01*
X87161666Y-97549690D01*
X87256904Y-97597309D01*
X86352142Y-97311594D02*
X85685476Y-97311594D01*
X86114047Y-98311594D01*
X90503095Y-95416666D02*
X90026904Y-95416666D01*
X90598333Y-95702380D02*
X90265000Y-94702380D01*
X89931666Y-95702380D01*
G04 #@! TO.C,D18*
X100909285Y-119266594D02*
X100909285Y-118266594D01*
X100671190Y-118266594D01*
X100528333Y-118314214D01*
X100433095Y-118409452D01*
X100385476Y-118504690D01*
X100337857Y-118695166D01*
X100337857Y-118838023D01*
X100385476Y-119028499D01*
X100433095Y-119123737D01*
X100528333Y-119218975D01*
X100671190Y-119266594D01*
X100909285Y-119266594D01*
X99385476Y-119266594D02*
X99956904Y-119266594D01*
X99671190Y-119266594D02*
X99671190Y-118266594D01*
X99766428Y-118409452D01*
X99861666Y-118504690D01*
X99956904Y-118552309D01*
X98814047Y-118695166D02*
X98909285Y-118647547D01*
X98956904Y-118599928D01*
X99004523Y-118504690D01*
X99004523Y-118457071D01*
X98956904Y-118361833D01*
X98909285Y-118314214D01*
X98814047Y-118266594D01*
X98623571Y-118266594D01*
X98528333Y-118314214D01*
X98480714Y-118361833D01*
X98433095Y-118457071D01*
X98433095Y-118504690D01*
X98480714Y-118599928D01*
X98528333Y-118647547D01*
X98623571Y-118695166D01*
X98814047Y-118695166D01*
X98909285Y-118742785D01*
X98956904Y-118790404D01*
X99004523Y-118885642D01*
X99004523Y-119076118D01*
X98956904Y-119171356D01*
X98909285Y-119218975D01*
X98814047Y-119266594D01*
X98623571Y-119266594D01*
X98528333Y-119218975D01*
X98480714Y-119171356D01*
X98433095Y-119076118D01*
X98433095Y-118885642D01*
X98480714Y-118790404D01*
X98528333Y-118742785D01*
X98623571Y-118695166D01*
X103203095Y-116371666D02*
X102726904Y-116371666D01*
X103298333Y-116657380D02*
X102965000Y-115657380D01*
X102631666Y-116657380D01*
G04 #@! TO.C,D19*
X100909285Y-138316594D02*
X100909285Y-137316594D01*
X100671190Y-137316594D01*
X100528333Y-137364214D01*
X100433095Y-137459452D01*
X100385476Y-137554690D01*
X100337857Y-137745166D01*
X100337857Y-137888023D01*
X100385476Y-138078499D01*
X100433095Y-138173737D01*
X100528333Y-138268975D01*
X100671190Y-138316594D01*
X100909285Y-138316594D01*
X99385476Y-138316594D02*
X99956904Y-138316594D01*
X99671190Y-138316594D02*
X99671190Y-137316594D01*
X99766428Y-137459452D01*
X99861666Y-137554690D01*
X99956904Y-137602309D01*
X98909285Y-138316594D02*
X98718809Y-138316594D01*
X98623571Y-138268975D01*
X98575952Y-138221356D01*
X98480714Y-138078499D01*
X98433095Y-137888023D01*
X98433095Y-137507071D01*
X98480714Y-137411833D01*
X98528333Y-137364214D01*
X98623571Y-137316594D01*
X98814047Y-137316594D01*
X98909285Y-137364214D01*
X98956904Y-137411833D01*
X99004523Y-137507071D01*
X99004523Y-137745166D01*
X98956904Y-137840404D01*
X98909285Y-137888023D01*
X98814047Y-137935642D01*
X98623571Y-137935642D01*
X98528333Y-137888023D01*
X98480714Y-137840404D01*
X98433095Y-137745166D01*
X103203095Y-135421666D02*
X102726904Y-135421666D01*
X103298333Y-135707380D02*
X102965000Y-134707380D01*
X102631666Y-135707380D01*
G04 #@! TO.C,D20*
X100909285Y-157366594D02*
X100909285Y-156366594D01*
X100671190Y-156366594D01*
X100528333Y-156414214D01*
X100433095Y-156509452D01*
X100385476Y-156604690D01*
X100337857Y-156795166D01*
X100337857Y-156938023D01*
X100385476Y-157128499D01*
X100433095Y-157223737D01*
X100528333Y-157318975D01*
X100671190Y-157366594D01*
X100909285Y-157366594D01*
X99956904Y-156461833D02*
X99909285Y-156414214D01*
X99814047Y-156366594D01*
X99575952Y-156366594D01*
X99480714Y-156414214D01*
X99433095Y-156461833D01*
X99385476Y-156557071D01*
X99385476Y-156652309D01*
X99433095Y-156795166D01*
X100004523Y-157366594D01*
X99385476Y-157366594D01*
X98766428Y-156366594D02*
X98671190Y-156366594D01*
X98575952Y-156414214D01*
X98528333Y-156461833D01*
X98480714Y-156557071D01*
X98433095Y-156747547D01*
X98433095Y-156985642D01*
X98480714Y-157176118D01*
X98528333Y-157271356D01*
X98575952Y-157318975D01*
X98671190Y-157366594D01*
X98766428Y-157366594D01*
X98861666Y-157318975D01*
X98909285Y-157271356D01*
X98956904Y-157176118D01*
X99004523Y-156985642D01*
X99004523Y-156747547D01*
X98956904Y-156557071D01*
X98909285Y-156461833D01*
X98861666Y-156414214D01*
X98766428Y-156366594D01*
X103203095Y-154471666D02*
X102726904Y-154471666D01*
X103298333Y-154757380D02*
X102965000Y-153757380D01*
X102631666Y-154757380D01*
G04 #@! TO.C,D21*
X100909285Y-176416594D02*
X100909285Y-175416594D01*
X100671190Y-175416594D01*
X100528333Y-175464214D01*
X100433095Y-175559452D01*
X100385476Y-175654690D01*
X100337857Y-175845166D01*
X100337857Y-175988023D01*
X100385476Y-176178499D01*
X100433095Y-176273737D01*
X100528333Y-176368975D01*
X100671190Y-176416594D01*
X100909285Y-176416594D01*
X99956904Y-175511833D02*
X99909285Y-175464214D01*
X99814047Y-175416594D01*
X99575952Y-175416594D01*
X99480714Y-175464214D01*
X99433095Y-175511833D01*
X99385476Y-175607071D01*
X99385476Y-175702309D01*
X99433095Y-175845166D01*
X100004523Y-176416594D01*
X99385476Y-176416594D01*
X98433095Y-176416594D02*
X99004523Y-176416594D01*
X98718809Y-176416594D02*
X98718809Y-175416594D01*
X98814047Y-175559452D01*
X98909285Y-175654690D01*
X99004523Y-175702309D01*
X103203095Y-173521666D02*
X102726904Y-173521666D01*
X103298333Y-173807380D02*
X102965000Y-172807380D01*
X102631666Y-173807380D01*
G04 #@! TO.C,D22*
X107259285Y-60211594D02*
X107259285Y-59211594D01*
X107021190Y-59211594D01*
X106878333Y-59259214D01*
X106783095Y-59354452D01*
X106735476Y-59449690D01*
X106687857Y-59640166D01*
X106687857Y-59783023D01*
X106735476Y-59973499D01*
X106783095Y-60068737D01*
X106878333Y-60163975D01*
X107021190Y-60211594D01*
X107259285Y-60211594D01*
X106306904Y-59306833D02*
X106259285Y-59259214D01*
X106164047Y-59211594D01*
X105925952Y-59211594D01*
X105830714Y-59259214D01*
X105783095Y-59306833D01*
X105735476Y-59402071D01*
X105735476Y-59497309D01*
X105783095Y-59640166D01*
X106354523Y-60211594D01*
X105735476Y-60211594D01*
X105354523Y-59306833D02*
X105306904Y-59259214D01*
X105211666Y-59211594D01*
X104973571Y-59211594D01*
X104878333Y-59259214D01*
X104830714Y-59306833D01*
X104783095Y-59402071D01*
X104783095Y-59497309D01*
X104830714Y-59640166D01*
X105402142Y-60211594D01*
X104783095Y-60211594D01*
X109553095Y-57316666D02*
X109076904Y-57316666D01*
X109648333Y-57602380D02*
X109315000Y-56602380D01*
X108981666Y-57602380D01*
G04 #@! TO.C,D23*
X107259285Y-78626594D02*
X107259285Y-77626594D01*
X107021190Y-77626594D01*
X106878333Y-77674214D01*
X106783095Y-77769452D01*
X106735476Y-77864690D01*
X106687857Y-78055166D01*
X106687857Y-78198023D01*
X106735476Y-78388499D01*
X106783095Y-78483737D01*
X106878333Y-78578975D01*
X107021190Y-78626594D01*
X107259285Y-78626594D01*
X106306904Y-77721833D02*
X106259285Y-77674214D01*
X106164047Y-77626594D01*
X105925952Y-77626594D01*
X105830714Y-77674214D01*
X105783095Y-77721833D01*
X105735476Y-77817071D01*
X105735476Y-77912309D01*
X105783095Y-78055166D01*
X106354523Y-78626594D01*
X105735476Y-78626594D01*
X105402142Y-77626594D02*
X104783095Y-77626594D01*
X105116428Y-78007547D01*
X104973571Y-78007547D01*
X104878333Y-78055166D01*
X104830714Y-78102785D01*
X104783095Y-78198023D01*
X104783095Y-78436118D01*
X104830714Y-78531356D01*
X104878333Y-78578975D01*
X104973571Y-78626594D01*
X105259285Y-78626594D01*
X105354523Y-78578975D01*
X105402142Y-78531356D01*
X109553095Y-75731666D02*
X109076904Y-75731666D01*
X109648333Y-76017380D02*
X109315000Y-75017380D01*
X108981666Y-76017380D01*
G04 #@! TO.C,D24*
X107259285Y-97676594D02*
X107259285Y-96676594D01*
X107021190Y-96676594D01*
X106878333Y-96724214D01*
X106783095Y-96819452D01*
X106735476Y-96914690D01*
X106687857Y-97105166D01*
X106687857Y-97248023D01*
X106735476Y-97438499D01*
X106783095Y-97533737D01*
X106878333Y-97628975D01*
X107021190Y-97676594D01*
X107259285Y-97676594D01*
X106306904Y-96771833D02*
X106259285Y-96724214D01*
X106164047Y-96676594D01*
X105925952Y-96676594D01*
X105830714Y-96724214D01*
X105783095Y-96771833D01*
X105735476Y-96867071D01*
X105735476Y-96962309D01*
X105783095Y-97105166D01*
X106354523Y-97676594D01*
X105735476Y-97676594D01*
X104878333Y-97009928D02*
X104878333Y-97676594D01*
X105116428Y-96628975D02*
X105354523Y-97343261D01*
X104735476Y-97343261D01*
X109553095Y-94781666D02*
X109076904Y-94781666D01*
X109648333Y-95067380D02*
X109315000Y-94067380D01*
X108981666Y-95067380D01*
G04 #@! TO.C,D25*
X126309285Y-119901594D02*
X126309285Y-118901594D01*
X126071190Y-118901594D01*
X125928333Y-118949214D01*
X125833095Y-119044452D01*
X125785476Y-119139690D01*
X125737857Y-119330166D01*
X125737857Y-119473023D01*
X125785476Y-119663499D01*
X125833095Y-119758737D01*
X125928333Y-119853975D01*
X126071190Y-119901594D01*
X126309285Y-119901594D01*
X125356904Y-118996833D02*
X125309285Y-118949214D01*
X125214047Y-118901594D01*
X124975952Y-118901594D01*
X124880714Y-118949214D01*
X124833095Y-118996833D01*
X124785476Y-119092071D01*
X124785476Y-119187309D01*
X124833095Y-119330166D01*
X125404523Y-119901594D01*
X124785476Y-119901594D01*
X123880714Y-118901594D02*
X124356904Y-118901594D01*
X124404523Y-119377785D01*
X124356904Y-119330166D01*
X124261666Y-119282547D01*
X124023571Y-119282547D01*
X123928333Y-119330166D01*
X123880714Y-119377785D01*
X123833095Y-119473023D01*
X123833095Y-119711118D01*
X123880714Y-119806356D01*
X123928333Y-119853975D01*
X124023571Y-119901594D01*
X124261666Y-119901594D01*
X124356904Y-119853975D01*
X124404523Y-119806356D01*
X128603095Y-117006666D02*
X128126904Y-117006666D01*
X128698333Y-117292380D02*
X128365000Y-116292380D01*
X128031666Y-117292380D01*
G04 #@! TO.C,D26*
X126309285Y-138316594D02*
X126309285Y-137316594D01*
X126071190Y-137316594D01*
X125928333Y-137364214D01*
X125833095Y-137459452D01*
X125785476Y-137554690D01*
X125737857Y-137745166D01*
X125737857Y-137888023D01*
X125785476Y-138078499D01*
X125833095Y-138173737D01*
X125928333Y-138268975D01*
X126071190Y-138316594D01*
X126309285Y-138316594D01*
X125356904Y-137411833D02*
X125309285Y-137364214D01*
X125214047Y-137316594D01*
X124975952Y-137316594D01*
X124880714Y-137364214D01*
X124833095Y-137411833D01*
X124785476Y-137507071D01*
X124785476Y-137602309D01*
X124833095Y-137745166D01*
X125404523Y-138316594D01*
X124785476Y-138316594D01*
X123928333Y-137316594D02*
X124118809Y-137316594D01*
X124214047Y-137364214D01*
X124261666Y-137411833D01*
X124356904Y-137554690D01*
X124404523Y-137745166D01*
X124404523Y-138126118D01*
X124356904Y-138221356D01*
X124309285Y-138268975D01*
X124214047Y-138316594D01*
X124023571Y-138316594D01*
X123928333Y-138268975D01*
X123880714Y-138221356D01*
X123833095Y-138126118D01*
X123833095Y-137888023D01*
X123880714Y-137792785D01*
X123928333Y-137745166D01*
X124023571Y-137697547D01*
X124214047Y-137697547D01*
X124309285Y-137745166D01*
X124356904Y-137792785D01*
X124404523Y-137888023D01*
X128603095Y-135421666D02*
X128126904Y-135421666D01*
X128698333Y-135707380D02*
X128365000Y-134707380D01*
X128031666Y-135707380D01*
G04 #@! TO.C,D27*
X126309285Y-157366594D02*
X126309285Y-156366594D01*
X126071190Y-156366594D01*
X125928333Y-156414214D01*
X125833095Y-156509452D01*
X125785476Y-156604690D01*
X125737857Y-156795166D01*
X125737857Y-156938023D01*
X125785476Y-157128499D01*
X125833095Y-157223737D01*
X125928333Y-157318975D01*
X126071190Y-157366594D01*
X126309285Y-157366594D01*
X125356904Y-156461833D02*
X125309285Y-156414214D01*
X125214047Y-156366594D01*
X124975952Y-156366594D01*
X124880714Y-156414214D01*
X124833095Y-156461833D01*
X124785476Y-156557071D01*
X124785476Y-156652309D01*
X124833095Y-156795166D01*
X125404523Y-157366594D01*
X124785476Y-157366594D01*
X124452142Y-156366594D02*
X123785476Y-156366594D01*
X124214047Y-157366594D01*
X128603095Y-154471666D02*
X128126904Y-154471666D01*
X128698333Y-154757380D02*
X128365000Y-153757380D01*
X128031666Y-154757380D01*
G04 #@! TO.C,D28*
X126309285Y-176416594D02*
X126309285Y-175416594D01*
X126071190Y-175416594D01*
X125928333Y-175464214D01*
X125833095Y-175559452D01*
X125785476Y-175654690D01*
X125737857Y-175845166D01*
X125737857Y-175988023D01*
X125785476Y-176178499D01*
X125833095Y-176273737D01*
X125928333Y-176368975D01*
X126071190Y-176416594D01*
X126309285Y-176416594D01*
X125356904Y-175511833D02*
X125309285Y-175464214D01*
X125214047Y-175416594D01*
X124975952Y-175416594D01*
X124880714Y-175464214D01*
X124833095Y-175511833D01*
X124785476Y-175607071D01*
X124785476Y-175702309D01*
X124833095Y-175845166D01*
X125404523Y-176416594D01*
X124785476Y-176416594D01*
X124214047Y-175845166D02*
X124309285Y-175797547D01*
X124356904Y-175749928D01*
X124404523Y-175654690D01*
X124404523Y-175607071D01*
X124356904Y-175511833D01*
X124309285Y-175464214D01*
X124214047Y-175416594D01*
X124023571Y-175416594D01*
X123928333Y-175464214D01*
X123880714Y-175511833D01*
X123833095Y-175607071D01*
X123833095Y-175654690D01*
X123880714Y-175749928D01*
X123928333Y-175797547D01*
X124023571Y-175845166D01*
X124214047Y-175845166D01*
X124309285Y-175892785D01*
X124356904Y-175940404D01*
X124404523Y-176035642D01*
X124404523Y-176226118D01*
X124356904Y-176321356D01*
X124309285Y-176368975D01*
X124214047Y-176416594D01*
X124023571Y-176416594D01*
X123928333Y-176368975D01*
X123880714Y-176321356D01*
X123833095Y-176226118D01*
X123833095Y-176035642D01*
X123880714Y-175940404D01*
X123928333Y-175892785D01*
X124023571Y-175845166D01*
X128603095Y-173521666D02*
X128126904Y-173521666D01*
X128698333Y-173807380D02*
X128365000Y-172807380D01*
X128031666Y-173807380D01*
G04 #@! TO.C,D29*
X126309285Y-59576594D02*
X126309285Y-58576594D01*
X126071190Y-58576594D01*
X125928333Y-58624214D01*
X125833095Y-58719452D01*
X125785476Y-58814690D01*
X125737857Y-59005166D01*
X125737857Y-59148023D01*
X125785476Y-59338499D01*
X125833095Y-59433737D01*
X125928333Y-59528975D01*
X126071190Y-59576594D01*
X126309285Y-59576594D01*
X125356904Y-58671833D02*
X125309285Y-58624214D01*
X125214047Y-58576594D01*
X124975952Y-58576594D01*
X124880714Y-58624214D01*
X124833095Y-58671833D01*
X124785476Y-58767071D01*
X124785476Y-58862309D01*
X124833095Y-59005166D01*
X125404523Y-59576594D01*
X124785476Y-59576594D01*
X124309285Y-59576594D02*
X124118809Y-59576594D01*
X124023571Y-59528975D01*
X123975952Y-59481356D01*
X123880714Y-59338499D01*
X123833095Y-59148023D01*
X123833095Y-58767071D01*
X123880714Y-58671833D01*
X123928333Y-58624214D01*
X124023571Y-58576594D01*
X124214047Y-58576594D01*
X124309285Y-58624214D01*
X124356904Y-58671833D01*
X124404523Y-58767071D01*
X124404523Y-59005166D01*
X124356904Y-59100404D01*
X124309285Y-59148023D01*
X124214047Y-59195642D01*
X124023571Y-59195642D01*
X123928333Y-59148023D01*
X123880714Y-59100404D01*
X123833095Y-59005166D01*
X128603095Y-56681666D02*
X128126904Y-56681666D01*
X128698333Y-56967380D02*
X128365000Y-55967380D01*
X128031666Y-56967380D01*
G04 #@! TO.C,D30*
X126309285Y-78626594D02*
X126309285Y-77626594D01*
X126071190Y-77626594D01*
X125928333Y-77674214D01*
X125833095Y-77769452D01*
X125785476Y-77864690D01*
X125737857Y-78055166D01*
X125737857Y-78198023D01*
X125785476Y-78388499D01*
X125833095Y-78483737D01*
X125928333Y-78578975D01*
X126071190Y-78626594D01*
X126309285Y-78626594D01*
X125404523Y-77626594D02*
X124785476Y-77626594D01*
X125118809Y-78007547D01*
X124975952Y-78007547D01*
X124880714Y-78055166D01*
X124833095Y-78102785D01*
X124785476Y-78198023D01*
X124785476Y-78436118D01*
X124833095Y-78531356D01*
X124880714Y-78578975D01*
X124975952Y-78626594D01*
X125261666Y-78626594D01*
X125356904Y-78578975D01*
X125404523Y-78531356D01*
X124166428Y-77626594D02*
X124071190Y-77626594D01*
X123975952Y-77674214D01*
X123928333Y-77721833D01*
X123880714Y-77817071D01*
X123833095Y-78007547D01*
X123833095Y-78245642D01*
X123880714Y-78436118D01*
X123928333Y-78531356D01*
X123975952Y-78578975D01*
X124071190Y-78626594D01*
X124166428Y-78626594D01*
X124261666Y-78578975D01*
X124309285Y-78531356D01*
X124356904Y-78436118D01*
X124404523Y-78245642D01*
X124404523Y-78007547D01*
X124356904Y-77817071D01*
X124309285Y-77721833D01*
X124261666Y-77674214D01*
X124166428Y-77626594D01*
X128603095Y-75731666D02*
X128126904Y-75731666D01*
X128698333Y-76017380D02*
X128365000Y-75017380D01*
X128031666Y-76017380D01*
G04 #@! TO.C,D31*
X126309285Y-97676594D02*
X126309285Y-96676594D01*
X126071190Y-96676594D01*
X125928333Y-96724214D01*
X125833095Y-96819452D01*
X125785476Y-96914690D01*
X125737857Y-97105166D01*
X125737857Y-97248023D01*
X125785476Y-97438499D01*
X125833095Y-97533737D01*
X125928333Y-97628975D01*
X126071190Y-97676594D01*
X126309285Y-97676594D01*
X125404523Y-96676594D02*
X124785476Y-96676594D01*
X125118809Y-97057547D01*
X124975952Y-97057547D01*
X124880714Y-97105166D01*
X124833095Y-97152785D01*
X124785476Y-97248023D01*
X124785476Y-97486118D01*
X124833095Y-97581356D01*
X124880714Y-97628975D01*
X124975952Y-97676594D01*
X125261666Y-97676594D01*
X125356904Y-97628975D01*
X125404523Y-97581356D01*
X123833095Y-97676594D02*
X124404523Y-97676594D01*
X124118809Y-97676594D02*
X124118809Y-96676594D01*
X124214047Y-96819452D01*
X124309285Y-96914690D01*
X124404523Y-96962309D01*
X128603095Y-94781666D02*
X128126904Y-94781666D01*
X128698333Y-95067380D02*
X128365000Y-94067380D01*
X128031666Y-95067380D01*
G04 #@! TD*
M02*
