M48
;DRILL file {KiCad 5.0.2-bee76a0~70~ubuntu18.04.1} date Tue 25 Feb 2020 03:22:01 PM EST
;FORMAT={-:-/ absolute / inch / decimal}
FMAT,2
INCH,TZ
T1C0.0669
T2C0.1201
T3C0.1575
%
G90
G05
T1
X3.05Y-4.9
X3.45Y-4.9
X3.55Y-3.3
X3.95Y-3.3
X3.05Y-7.15
X3.45Y-7.15
X2.05Y-7.15
X2.45Y-7.15
X2.8Y-2.55
X3.2Y-2.55
X5.05Y-2.55
X5.45Y-2.55
X5.05Y-5.65
X5.45Y-5.65
X3.55Y-4.05
X3.95Y-4.05
X2.05Y-3.3
X2.45Y-3.3
X5.05Y-3.3
X5.45Y-3.3
X4.05Y-7.15
X4.45Y-7.15
X5.05Y-4.9
X5.45Y-4.9
X4.05Y-5.65
X4.45Y-5.65
X2.05Y-5.65
X2.45Y-5.65
X4.05Y-6.4
X4.45Y-6.4
X5.05Y-4.05
X5.45Y-4.05
X2.05Y-4.9
X2.45Y-4.9
X5.05Y-6.4
X5.45Y-6.4
X2.05Y-2.55
X2.45Y-2.55
X5.05Y-7.15
X5.45Y-7.15
X4.3Y-2.55
X4.7Y-2.55
X2.425Y-4.05
X2.825Y-4.05
X2.8Y-3.3
X3.2Y-3.3
X4.3Y-4.05
X4.7Y-4.05
X3.05Y-6.4
X3.45Y-6.4
X3.55Y-2.55
X3.95Y-2.55
X3.05Y-5.65
X3.45Y-5.65
X4.05Y-4.9
X4.45Y-4.9
X4.3Y-3.3
X4.7Y-3.3
X2.05Y-6.4
X2.45Y-6.4
T2
X2.1565Y-3.7744
X3.0935Y-3.7744
T3
X5.25Y-7.15
X4.5Y-2.55
X2.1565Y-4.3744
X2.625Y-4.05
X3.0935Y-4.3744
X3.Y-3.3
X4.5Y-4.05
X3.25Y-6.4
X3.75Y-2.55
X3.25Y-5.65
X4.25Y-4.9
X4.5Y-3.3
X2.25Y-6.4
X3.25Y-4.9
X3.75Y-3.3
X3.25Y-7.15
X2.25Y-7.15
X3.Y-2.55
X5.25Y-2.55
X5.25Y-5.65
X3.75Y-4.05
X2.25Y-3.3
X5.25Y-3.3
X4.25Y-7.15
X5.25Y-4.9
X4.25Y-5.65
X2.25Y-5.65
X4.25Y-6.4
X5.25Y-4.05
X2.25Y-4.9
X5.25Y-6.4
X2.25Y-2.55
T0
M30
