M48
;DRILL file {KiCad 5.0.2-bee76a0~70~ubuntu18.04.1} date Tue 25 Feb 2020 03:22:01 PM EST
;FORMAT={-:-/ absolute / inch / decimal}
FMAT,2
INCH,TZ
T1C0.0100
T2C0.0315
T3C0.0354
T4C0.0394
T5C0.0591
T6C0.0709
T7C0.1260
%
G90
G05
T1
X1.6Y-2.16
X1.67Y-2.13
X1.81Y-3.05
X1.81Y-4.75
X1.9Y-3.39
X2.06Y-3.52
X2.1175Y-1.54
X2.25Y-1.775
X2.34Y-2.69
X2.3475Y-2.7425
X2.35Y-1.1125
X2.35Y-1.8
X2.3525Y-1.16
X2.36Y-3.41
X2.4Y-1.625
X2.45Y-1.8125
X2.48Y-2.88
X2.5Y-1.7
X2.55Y-1.825
X2.5875Y-1.5675
X2.625Y-3.1875
X2.65Y-1.75
X2.7275Y-1.915
X2.765Y-1.0875
X2.85Y-1.675
X2.85Y-1.865
X2.95Y-1.3425
X3.05Y-1.625
X3.15Y-1.875
X3.225Y-1.1185
X3.2275Y-1.075
X3.25Y-1.3625
X3.25Y-1.7
X3.3475Y-1.915
X3.45Y-1.0532
X3.48Y-1.89
X3.5Y-1.3325
X3.6Y-1.3625
X3.8Y-1.8875
X3.85Y-1.775
X3.9Y-1.675
X3.95Y-1.75
X3.95Y-1.8
X3.9875Y-1.7
X4.05Y-1.7
X4.05Y-1.8125
X4.1Y-1.575
X4.15Y-1.7
X4.15Y-1.825
X4.25Y-1.725
X4.25Y-1.8
X4.3505Y-1.125
X4.3625Y-1.9
X4.45Y-1.825
X4.5025Y-1.5675
X4.54Y-1.0325
X4.65Y-1.825
X4.75Y-1.875
X4.7625Y-1.0875
X4.85Y-1.675
X4.95Y-1.5775
X5.05Y-1.6625
X5.15Y-1.3625
X5.15Y-1.7125
X5.3Y-1.704
X5.35Y-1.6625
X5.445Y-2.13
X5.55Y-1.675
X5.6325Y-2.16
X5.6875Y-3.225
X5.7125Y-1.7
X5.7125Y-3.1375
X5.725Y-3.05
X5.7375Y-1.725
X5.7625Y-1.75
X5.85Y-1.85
X5.8625Y-1.9
X5.875Y-1.775
X5.875Y-1.825
X5.875Y-1.875
X5.9Y-1.75
X5.9Y-1.8
X5.9Y-1.925
X5.9625Y-2.65
X5.9634Y-2.7634
T2
X5.Y-0.95
X5.Y-1.25
X5.1Y-0.95
X5.1Y-1.25
X5.2Y-0.95
X5.2Y-1.25
X5.3Y-0.95
X5.3Y-1.25
X5.4Y-0.95
X5.4Y-1.25
X5.5Y-0.95
X5.5Y-1.25
X5.6Y-0.95
X5.6Y-1.25
X5.7Y-0.95
X5.7Y-1.25
X1.8Y-0.95
X1.8Y-1.25
X1.9Y-0.95
X1.9Y-1.25
X2.Y-0.95
X2.Y-1.25
X2.1Y-0.95
X2.1Y-1.25
X2.2Y-0.95
X2.2Y-1.25
X2.3Y-0.95
X2.3Y-1.25
X2.4Y-0.95
X2.4Y-1.25
X2.5Y-0.95
X2.5Y-1.25
X2.9Y-1.25
X3.0969Y-1.25
X1.6Y-1.2
X1.6Y-1.5
X3.4Y-0.95
X3.4Y-1.25
X3.5Y-0.95
X3.5Y-1.25
X3.6Y-0.95
X3.6Y-1.25
X3.7Y-0.95
X3.7Y-1.25
X3.8Y-0.95
X3.8Y-1.25
X3.9Y-0.95
X3.9Y-1.25
X4.Y-0.95
X4.Y-1.25
X4.1Y-0.95
X4.1Y-1.25
X3.85Y-1.45
X3.85Y-2.05
X3.95Y-1.45
X3.95Y-2.05
X4.05Y-1.45
X4.05Y-2.05
X4.15Y-1.45
X4.15Y-2.05
X4.25Y-1.45
X4.25Y-2.05
X4.35Y-1.45
X4.35Y-2.05
X4.45Y-1.45
X4.45Y-2.05
X4.55Y-1.45
X4.55Y-2.05
X4.65Y-1.45
X4.65Y-2.05
X4.75Y-1.45
X4.75Y-2.05
X4.85Y-1.45
X4.85Y-2.05
X4.95Y-1.45
X4.95Y-2.05
X5.05Y-1.45
X5.05Y-2.05
X5.15Y-1.45
X5.15Y-2.05
X4.4531Y-1.25
X4.65Y-1.25
X2.25Y-1.45
X2.25Y-2.05
X2.35Y-1.45
X2.35Y-2.05
X2.45Y-1.45
X2.45Y-2.05
X2.55Y-1.45
X2.55Y-2.05
X2.65Y-1.45
X2.65Y-2.05
X2.75Y-1.45
X2.75Y-2.05
X2.85Y-1.45
X2.85Y-2.05
X2.95Y-1.45
X2.95Y-2.05
X3.05Y-1.45
X3.05Y-2.05
X3.15Y-1.45
X3.15Y-2.05
X3.25Y-1.45
X3.25Y-2.05
X3.35Y-1.45
X3.35Y-2.05
X3.45Y-1.45
X3.45Y-2.05
X3.55Y-1.45
X3.55Y-2.05
X1.5531Y-2.4
X1.75Y-2.4
T3
X1.9Y-1.5
X2.Y-1.5
T4
X4.875Y-5.325
X4.975Y-5.325
X2.85Y-4.75
X2.95Y-4.75
X1.875Y-6.1
X1.975Y-6.1
X1.9Y-3.
X2.Y-3.
X2.85Y-6.225
X2.95Y-6.225
X1.875Y-5.35
X1.975Y-5.35
X3.875Y-6.825
X3.975Y-6.825
X3.875Y-4.575
X3.975Y-4.575
X1.6Y-2.6
X1.6Y-2.7
X1.6Y-2.8
X1.6Y-2.9
X1.6Y-3.
X1.6Y-3.1
X1.6Y-3.2
X1.6Y-3.3
X1.7Y-2.6
X1.7Y-2.7
X1.7Y-2.8
X1.7Y-2.9
X1.7Y-3.
X1.7Y-3.1
X1.7Y-3.2
X1.7Y-3.3
X1.875Y-4.575
X1.975Y-4.575
X1.875Y-6.825
X1.975Y-6.825
X3.375Y-2.25
X3.475Y-2.25
X4.125Y-2.25
X4.225Y-2.25
X3.375Y-2.975
X3.475Y-2.975
X5.8Y-2.6
X5.8Y-2.7
X5.8Y-2.8
X5.8Y-2.9
X5.8Y-3.
X5.8Y-3.1
X5.8Y-3.2
X5.8Y-3.3
X5.9Y-2.6
X5.9Y-2.7
X5.9Y-2.8
X5.9Y-2.9
X5.9Y-3.
X5.9Y-3.1
X5.9Y-3.2
X5.9Y-3.3
X3.375Y-3.75
X3.475Y-3.75
X4.875Y-6.825
X4.975Y-6.825
X4.875Y-4.6
X4.975Y-4.6
X2.85Y-6.825
X2.95Y-6.825
X4.875Y-3.725
X4.975Y-3.725
X2.625Y-2.975
X2.725Y-2.975
X4.875Y-2.975
X4.975Y-2.975
X3.875Y-5.325
X3.975Y-5.325
X1.95Y-2.25
X2.05Y-2.25
X2.875Y-5.325
X2.975Y-5.325
X3.875Y-6.075
X3.975Y-6.075
X2.625Y-2.25
X2.725Y-2.25
X4.125Y-2.975
X4.225Y-2.975
X4.875Y-2.225
X4.975Y-2.225
X4.875Y-6.075
X4.975Y-6.075
X1.875Y-3.95
X1.975Y-3.95
X4.125Y-3.725
X4.225Y-3.725
T5
X2.1Y-5.55
X2.35Y-5.45
X4.1Y-6.3
X4.35Y-6.2
X5.1Y-3.95
X5.35Y-3.85
X2.1Y-4.8
X2.35Y-4.7
X5.1Y-6.3
X5.35Y-6.2
X2.1Y-2.45
X2.35Y-2.35
X5.1Y-7.05
X5.35Y-6.95
X4.35Y-2.45
X4.6Y-2.35
X2.475Y-3.95
X2.725Y-3.85
X2.85Y-3.2
X3.1Y-3.1
X4.35Y-3.95
X4.6Y-3.85
X3.1Y-6.3
X3.35Y-6.2
X3.6Y-2.45
X3.85Y-2.35
X3.1Y-5.55
X3.35Y-5.45
X4.1Y-4.8
X4.35Y-4.7
X4.35Y-3.2
X4.6Y-3.1
X2.1Y-6.3
X2.35Y-6.2
X3.1Y-4.8
X3.35Y-4.7
X3.6Y-3.2
X3.85Y-3.1
X3.1Y-7.05
X3.35Y-6.95
X2.1Y-7.05
X2.35Y-6.95
X2.85Y-2.45
X3.1Y-2.35
X5.1Y-2.45
X5.35Y-2.35
X5.1Y-5.55
X5.35Y-5.45
X3.6Y-3.95
X3.85Y-3.85
X2.1Y-3.2
X2.35Y-3.1
X5.1Y-3.2
X5.35Y-3.1
X4.1Y-7.05
X4.35Y-6.95
X5.1Y-4.8
X5.35Y-4.7
X4.1Y-5.55
X4.35Y-5.45
T6
X1.6Y-2.
X1.785Y-2.
X1.9701Y-2.
X5.45Y-2.
X5.635Y-2.
X5.8201Y-2.
T7
X1.6Y-1.
X1.6Y-7.5
X5.9Y-1.
X5.9Y-7.5
X5.9Y-4.05
X1.6Y-4.05
T0
M30
