G04 #@! TF.GenerationSoftware,KiCad,Pcbnew,5.0.2-bee76a0~70~ubuntu18.04.1*
G04 #@! TF.CreationDate,2020-02-25T15:21:58-05:00*
G04 #@! TF.ProjectId,led-display,6c65642d-6469-4737-906c-61792e6b6963,rev?*
G04 #@! TF.SameCoordinates,Original*
G04 #@! TF.FileFunction,Legend,Top*
G04 #@! TF.FilePolarity,Positive*
%FSLAX46Y46*%
G04 Gerber Fmt 4.6, Leading zero omitted, Abs format (unit mm)*
G04 Created by KiCad (PCBNEW 5.0.2-bee76a0~70~ubuntu18.04.1) date Tue 25 Feb 2020 03:21:58 PM EST*
%MOMM*%
%LPD*%
G01*
G04 APERTURE LIST*
%ADD10C,0.254000*%
%ADD11C,0.120000*%
%ADD12C,0.150000*%
G04 APERTURE END LIST*
D10*
X54102000Y-184996666D02*
X52578000Y-187282666D01*
X79290333Y-185081333D02*
X79459666Y-185081333D01*
X79629000Y-185166000D01*
X79713666Y-185250666D01*
X79798333Y-185420000D01*
X79883000Y-185758666D01*
X79883000Y-186182000D01*
X79798333Y-186520666D01*
X79713666Y-186690000D01*
X79629000Y-186774666D01*
X79459666Y-186859333D01*
X79290333Y-186859333D01*
X79121000Y-186774666D01*
X79036333Y-186690000D01*
X78951666Y-186520666D01*
X78867000Y-186182000D01*
X78867000Y-185758666D01*
X78951666Y-185420000D01*
X79036333Y-185250666D01*
X79121000Y-185166000D01*
X79290333Y-185081333D01*
X104775000Y-186690000D02*
X104859666Y-186774666D01*
X104775000Y-186859333D01*
X104690333Y-186774666D01*
X104775000Y-186690000D01*
X104775000Y-186859333D01*
X129582333Y-186859333D02*
X128989666Y-186012666D01*
X128566333Y-186859333D02*
X128566333Y-185081333D01*
X129243666Y-185081333D01*
X129413000Y-185166000D01*
X129497666Y-185250666D01*
X129582333Y-185420000D01*
X129582333Y-185674000D01*
X129497666Y-185843333D01*
X129413000Y-185928000D01*
X129243666Y-186012666D01*
X128566333Y-186012666D01*
X131614333Y-184996666D02*
X130090333Y-187282666D01*
X132122333Y-186774666D02*
X132376333Y-186859333D01*
X132799666Y-186859333D01*
X132969000Y-186774666D01*
X133053666Y-186690000D01*
X133138333Y-186520666D01*
X133138333Y-186351333D01*
X133053666Y-186182000D01*
X132969000Y-186097333D01*
X132799666Y-186012666D01*
X132461000Y-185928000D01*
X132291666Y-185843333D01*
X132207000Y-185758666D01*
X132122333Y-185589333D01*
X132122333Y-185420000D01*
X132207000Y-185250666D01*
X132291666Y-185166000D01*
X132461000Y-185081333D01*
X132884333Y-185081333D01*
X133138333Y-185166000D01*
X130217333Y-166666333D02*
X131318000Y-166666333D01*
X130725333Y-167343666D01*
X130979333Y-167343666D01*
X131148666Y-167428333D01*
X131233333Y-167513000D01*
X131318000Y-167682333D01*
X131318000Y-168105666D01*
X131233333Y-168275000D01*
X131148666Y-168359666D01*
X130979333Y-168444333D01*
X130471333Y-168444333D01*
X130302000Y-168359666D01*
X130217333Y-168275000D01*
X103632000Y-166835666D02*
X103716666Y-166751000D01*
X103886000Y-166666333D01*
X104309333Y-166666333D01*
X104478666Y-166751000D01*
X104563333Y-166835666D01*
X104648000Y-167005000D01*
X104648000Y-167174333D01*
X104563333Y-167428333D01*
X103547333Y-168444333D01*
X104648000Y-168444333D01*
X79883000Y-168444333D02*
X78867000Y-168444333D01*
X79375000Y-168444333D02*
X79375000Y-166666333D01*
X79205666Y-166920333D01*
X79036333Y-167089666D01*
X78867000Y-167174333D01*
X53382333Y-166666333D02*
X54567666Y-168444333D01*
X54567666Y-166666333D02*
X53382333Y-168444333D01*
X53297666Y-148717000D02*
X54652333Y-148717000D01*
X53975000Y-149394333D02*
X53975000Y-148039666D01*
X79713666Y-148209000D02*
X79713666Y-149394333D01*
X79290333Y-147531666D02*
X78867000Y-148801666D01*
X79967666Y-148801666D01*
X105198333Y-147616333D02*
X104351666Y-147616333D01*
X104267000Y-148463000D01*
X104351666Y-148378333D01*
X104521000Y-148293666D01*
X104944333Y-148293666D01*
X105113666Y-148378333D01*
X105198333Y-148463000D01*
X105283000Y-148632333D01*
X105283000Y-149055666D01*
X105198333Y-149225000D01*
X105113666Y-149309666D01*
X104944333Y-149394333D01*
X104521000Y-149394333D01*
X104351666Y-149309666D01*
X104267000Y-149225000D01*
X130513666Y-147616333D02*
X130175000Y-147616333D01*
X130005666Y-147701000D01*
X129921000Y-147785666D01*
X129751666Y-148039666D01*
X129667000Y-148378333D01*
X129667000Y-149055666D01*
X129751666Y-149225000D01*
X129836333Y-149309666D01*
X130005666Y-149394333D01*
X130344333Y-149394333D01*
X130513666Y-149309666D01*
X130598333Y-149225000D01*
X130683000Y-149055666D01*
X130683000Y-148632333D01*
X130598333Y-148463000D01*
X130513666Y-148378333D01*
X130344333Y-148293666D01*
X130005666Y-148293666D01*
X129836333Y-148378333D01*
X129751666Y-148463000D01*
X129667000Y-148632333D01*
X129836333Y-130344333D02*
X130175000Y-130344333D01*
X130344333Y-130259666D01*
X130429000Y-130175000D01*
X130598333Y-129921000D01*
X130683000Y-129582333D01*
X130683000Y-128905000D01*
X130598333Y-128735666D01*
X130513666Y-128651000D01*
X130344333Y-128566333D01*
X130005666Y-128566333D01*
X129836333Y-128651000D01*
X129751666Y-128735666D01*
X129667000Y-128905000D01*
X129667000Y-129328333D01*
X129751666Y-129497666D01*
X129836333Y-129582333D01*
X130005666Y-129667000D01*
X130344333Y-129667000D01*
X130513666Y-129582333D01*
X130598333Y-129497666D01*
X130683000Y-129328333D01*
X103970666Y-129328333D02*
X103801333Y-129243666D01*
X103716666Y-129159000D01*
X103632000Y-128989666D01*
X103632000Y-128905000D01*
X103716666Y-128735666D01*
X103801333Y-128651000D01*
X103970666Y-128566333D01*
X104309333Y-128566333D01*
X104478666Y-128651000D01*
X104563333Y-128735666D01*
X104648000Y-128905000D01*
X104648000Y-128989666D01*
X104563333Y-129159000D01*
X104478666Y-129243666D01*
X104309333Y-129328333D01*
X103970666Y-129328333D01*
X103801333Y-129413000D01*
X103716666Y-129497666D01*
X103632000Y-129667000D01*
X103632000Y-130005666D01*
X103716666Y-130175000D01*
X103801333Y-130259666D01*
X103970666Y-130344333D01*
X104309333Y-130344333D01*
X104478666Y-130259666D01*
X104563333Y-130175000D01*
X104648000Y-130005666D01*
X104648000Y-129667000D01*
X104563333Y-129497666D01*
X104478666Y-129413000D01*
X104309333Y-129328333D01*
X78782333Y-128566333D02*
X79967666Y-128566333D01*
X79205666Y-130344333D01*
X53297666Y-129667000D02*
X54652333Y-129667000D01*
X128058333Y-88773000D02*
X128651000Y-88773000D01*
X128905000Y-89704333D02*
X128058333Y-89704333D01*
X128058333Y-87926333D01*
X128905000Y-87926333D01*
X129667000Y-89027000D02*
X131021666Y-89027000D01*
X130344333Y-89704333D02*
X130344333Y-88349666D01*
X109093000Y-107823000D02*
X109685666Y-107823000D01*
X109939666Y-108754333D02*
X109093000Y-108754333D01*
X109093000Y-106976333D01*
X109939666Y-106976333D01*
X110701666Y-107823000D02*
X111294333Y-107823000D01*
X111548333Y-108754333D02*
X110701666Y-108754333D01*
X110701666Y-106976333D01*
X111548333Y-106976333D01*
X112141000Y-106976333D02*
X113326333Y-108754333D01*
X113326333Y-106976333D02*
X112141000Y-108754333D01*
X90847333Y-108585000D02*
X90762666Y-108669666D01*
X90508666Y-108754333D01*
X90339333Y-108754333D01*
X90085333Y-108669666D01*
X89916000Y-108500333D01*
X89831333Y-108331000D01*
X89746666Y-107992333D01*
X89746666Y-107738333D01*
X89831333Y-107399666D01*
X89916000Y-107230333D01*
X90085333Y-107061000D01*
X90339333Y-106976333D01*
X90508666Y-106976333D01*
X90762666Y-107061000D01*
X90847333Y-107145666D01*
X91609333Y-108754333D02*
X91609333Y-106976333D01*
X91609333Y-107823000D02*
X92625333Y-107823000D01*
X92625333Y-108754333D02*
X92625333Y-106976333D01*
X93387333Y-108669666D02*
X93641333Y-108754333D01*
X94064666Y-108754333D01*
X94234000Y-108669666D01*
X94318666Y-108585000D01*
X94403333Y-108415666D01*
X94403333Y-108246333D01*
X94318666Y-108077000D01*
X94234000Y-107992333D01*
X94064666Y-107907666D01*
X93726000Y-107823000D01*
X93556666Y-107738333D01*
X93472000Y-107653666D01*
X93387333Y-107484333D01*
X93387333Y-107315000D01*
X93472000Y-107145666D01*
X93556666Y-107061000D01*
X93726000Y-106976333D01*
X94149333Y-106976333D01*
X94403333Y-107061000D01*
X62357000Y-107823000D02*
X62949666Y-107823000D01*
X63203666Y-108754333D02*
X62357000Y-108754333D01*
X62357000Y-106976333D01*
X63203666Y-106976333D01*
X63965666Y-108754333D02*
X63965666Y-106976333D01*
X64981666Y-108754333D01*
X64981666Y-106976333D01*
X65574333Y-106976333D02*
X66590333Y-106976333D01*
X66082333Y-108754333D02*
X66082333Y-106976333D01*
X67183000Y-107823000D02*
X67775666Y-107823000D01*
X68029666Y-108754333D02*
X67183000Y-108754333D01*
X67183000Y-106976333D01*
X68029666Y-106976333D01*
X69807666Y-108754333D02*
X69215000Y-107907666D01*
X68791666Y-108754333D02*
X68791666Y-106976333D01*
X69469000Y-106976333D01*
X69638333Y-107061000D01*
X69723000Y-107145666D01*
X69807666Y-107315000D01*
X69807666Y-107569000D01*
X69723000Y-107738333D01*
X69638333Y-107823000D01*
X69469000Y-107907666D01*
X68791666Y-107907666D01*
X129286000Y-108585000D02*
X129201333Y-108669666D01*
X128947333Y-108754333D01*
X128778000Y-108754333D01*
X128524000Y-108669666D01*
X128354666Y-108500333D01*
X128270000Y-108331000D01*
X128185333Y-107992333D01*
X128185333Y-107738333D01*
X128270000Y-107399666D01*
X128354666Y-107230333D01*
X128524000Y-107061000D01*
X128778000Y-106976333D01*
X128947333Y-106976333D01*
X129201333Y-107061000D01*
X129286000Y-107145666D01*
X130894666Y-108754333D02*
X130048000Y-108754333D01*
X130048000Y-106976333D01*
X131318000Y-108754333D02*
X132249333Y-107569000D01*
X131318000Y-107569000D02*
X132249333Y-108754333D01*
X110066666Y-89704333D02*
X109474000Y-88857666D01*
X109050666Y-89704333D02*
X109050666Y-87926333D01*
X109728000Y-87926333D01*
X109897333Y-88011000D01*
X109982000Y-88095666D01*
X110066666Y-88265000D01*
X110066666Y-88519000D01*
X109982000Y-88688333D01*
X109897333Y-88773000D01*
X109728000Y-88857666D01*
X109050666Y-88857666D01*
X111844666Y-89535000D02*
X111760000Y-89619666D01*
X111506000Y-89704333D01*
X111336666Y-89704333D01*
X111082666Y-89619666D01*
X110913333Y-89450333D01*
X110828666Y-89281000D01*
X110744000Y-88942333D01*
X110744000Y-88688333D01*
X110828666Y-88349666D01*
X110913333Y-88180333D01*
X111082666Y-88011000D01*
X111336666Y-87926333D01*
X111506000Y-87926333D01*
X111760000Y-88011000D01*
X111844666Y-88095666D01*
X113453333Y-89704333D02*
X112606666Y-89704333D01*
X112606666Y-87926333D01*
X89323333Y-89619666D02*
X89577333Y-89704333D01*
X90000666Y-89704333D01*
X90170000Y-89619666D01*
X90254666Y-89535000D01*
X90339333Y-89365666D01*
X90339333Y-89196333D01*
X90254666Y-89027000D01*
X90170000Y-88942333D01*
X90000666Y-88857666D01*
X89662000Y-88773000D01*
X89492666Y-88688333D01*
X89408000Y-88603666D01*
X89323333Y-88434333D01*
X89323333Y-88265000D01*
X89408000Y-88095666D01*
X89492666Y-88011000D01*
X89662000Y-87926333D01*
X90085333Y-87926333D01*
X90339333Y-88011000D01*
X90847333Y-87926333D02*
X91863333Y-87926333D01*
X91355333Y-89704333D02*
X91355333Y-87926333D01*
X92794666Y-87926333D02*
X93133333Y-87926333D01*
X93302666Y-88011000D01*
X93472000Y-88180333D01*
X93556666Y-88519000D01*
X93556666Y-89111666D01*
X93472000Y-89450333D01*
X93302666Y-89619666D01*
X93133333Y-89704333D01*
X92794666Y-89704333D01*
X92625333Y-89619666D01*
X92456000Y-89450333D01*
X92371333Y-89111666D01*
X92371333Y-88519000D01*
X92456000Y-88180333D01*
X92625333Y-88011000D01*
X92794666Y-87926333D01*
X73321333Y-89704333D02*
X72728666Y-88857666D01*
X72305333Y-89704333D02*
X72305333Y-87926333D01*
X72982666Y-87926333D01*
X73152000Y-88011000D01*
X73236666Y-88095666D01*
X73321333Y-88265000D01*
X73321333Y-88519000D01*
X73236666Y-88688333D01*
X73152000Y-88773000D01*
X72982666Y-88857666D01*
X72305333Y-88857666D01*
X74083333Y-89704333D02*
X74083333Y-87926333D01*
X74506666Y-87926333D01*
X74760666Y-88011000D01*
X74930000Y-88180333D01*
X75014666Y-88349666D01*
X75099333Y-88688333D01*
X75099333Y-88942333D01*
X75014666Y-89281000D01*
X74930000Y-89450333D01*
X74760666Y-89619666D01*
X74506666Y-89704333D01*
X74083333Y-89704333D01*
X52324000Y-87926333D02*
X53509333Y-89704333D01*
X53509333Y-87926333D02*
X52324000Y-89704333D01*
X55541333Y-88519000D02*
X54186666Y-89027000D01*
X55541333Y-89535000D01*
X56388000Y-88519000D02*
X57742666Y-89027000D01*
X56388000Y-89535000D01*
X58928000Y-88857666D02*
X58928000Y-89704333D01*
X58335333Y-87926333D02*
X58928000Y-88857666D01*
X59520666Y-87926333D01*
X129921000Y-69469000D02*
X129921000Y-70908333D01*
X129836333Y-71077666D01*
X129751666Y-71162333D01*
X129582333Y-71247000D01*
X129328333Y-71247000D01*
X129159000Y-71162333D01*
X129921000Y-70569666D02*
X129751666Y-70654333D01*
X129413000Y-70654333D01*
X129243666Y-70569666D01*
X129159000Y-70485000D01*
X129074333Y-70315666D01*
X129074333Y-69807666D01*
X129159000Y-69638333D01*
X129243666Y-69553666D01*
X129413000Y-69469000D01*
X129751666Y-69469000D01*
X129921000Y-69553666D01*
X110786333Y-69469000D02*
X111463666Y-69469000D01*
X111040333Y-70654333D02*
X111040333Y-69130333D01*
X111125000Y-68961000D01*
X111294333Y-68876333D01*
X111463666Y-68876333D01*
X90297000Y-68961000D02*
X90127666Y-68876333D01*
X89873666Y-68876333D01*
X89619666Y-68961000D01*
X89450333Y-69130333D01*
X89365666Y-69299666D01*
X89281000Y-69638333D01*
X89281000Y-69892333D01*
X89365666Y-70231000D01*
X89450333Y-70400333D01*
X89619666Y-70569666D01*
X89873666Y-70654333D01*
X90043000Y-70654333D01*
X90297000Y-70569666D01*
X90381666Y-70485000D01*
X90381666Y-69892333D01*
X90043000Y-69892333D01*
X90889666Y-68876333D02*
X91905666Y-68876333D01*
X91397666Y-70654333D02*
X91397666Y-68876333D01*
X92837000Y-68876333D02*
X93175666Y-68876333D01*
X93345000Y-68961000D01*
X93514333Y-69130333D01*
X93599000Y-69469000D01*
X93599000Y-70061666D01*
X93514333Y-70400333D01*
X93345000Y-70569666D01*
X93175666Y-70654333D01*
X92837000Y-70654333D01*
X92667666Y-70569666D01*
X92498333Y-70400333D01*
X92413666Y-70061666D01*
X92413666Y-69469000D01*
X92498333Y-69130333D01*
X92667666Y-68961000D01*
X92837000Y-68876333D01*
X70993000Y-69723000D02*
X71247000Y-69807666D01*
X71331666Y-69892333D01*
X71416333Y-70061666D01*
X71416333Y-70315666D01*
X71331666Y-70485000D01*
X71247000Y-70569666D01*
X71077666Y-70654333D01*
X70400333Y-70654333D01*
X70400333Y-68876333D01*
X70993000Y-68876333D01*
X71162333Y-68961000D01*
X71247000Y-69045666D01*
X71331666Y-69215000D01*
X71331666Y-69384333D01*
X71247000Y-69553666D01*
X71162333Y-69638333D01*
X70993000Y-69723000D01*
X70400333Y-69723000D01*
X72093666Y-70569666D02*
X72347666Y-70654333D01*
X72771000Y-70654333D01*
X72940333Y-70569666D01*
X73025000Y-70485000D01*
X73109666Y-70315666D01*
X73109666Y-70146333D01*
X73025000Y-69977000D01*
X72940333Y-69892333D01*
X72771000Y-69807666D01*
X72432333Y-69723000D01*
X72263000Y-69638333D01*
X72178333Y-69553666D01*
X72093666Y-69384333D01*
X72093666Y-69215000D01*
X72178333Y-69045666D01*
X72263000Y-68961000D01*
X72432333Y-68876333D01*
X72855666Y-68876333D01*
X73109666Y-68961000D01*
X73617666Y-68876333D02*
X74633666Y-68876333D01*
X74125666Y-70654333D02*
X74125666Y-68876333D01*
X51308000Y-70569666D02*
X51562000Y-70654333D01*
X51985333Y-70654333D01*
X52154666Y-70569666D01*
X52239333Y-70485000D01*
X52324000Y-70315666D01*
X52324000Y-70146333D01*
X52239333Y-69977000D01*
X52154666Y-69892333D01*
X51985333Y-69807666D01*
X51646666Y-69723000D01*
X51477333Y-69638333D01*
X51392666Y-69553666D01*
X51308000Y-69384333D01*
X51308000Y-69215000D01*
X51392666Y-69045666D01*
X51477333Y-68961000D01*
X51646666Y-68876333D01*
X52070000Y-68876333D01*
X52324000Y-68961000D01*
X53001333Y-70569666D02*
X53255333Y-70654333D01*
X53678666Y-70654333D01*
X53848000Y-70569666D01*
X53932666Y-70485000D01*
X54017333Y-70315666D01*
X54017333Y-70146333D01*
X53932666Y-69977000D01*
X53848000Y-69892333D01*
X53678666Y-69807666D01*
X53340000Y-69723000D01*
X53170666Y-69638333D01*
X53086000Y-69553666D01*
X53001333Y-69384333D01*
X53001333Y-69215000D01*
X53086000Y-69045666D01*
X53170666Y-68961000D01*
X53340000Y-68876333D01*
X53763333Y-68876333D01*
X54017333Y-68961000D01*
X54525333Y-68876333D02*
X55541333Y-68876333D01*
X55033333Y-70654333D02*
X55033333Y-68876333D01*
X142206738Y-184390090D02*
X143851690Y-184390090D01*
X144045214Y-184293328D01*
X144141976Y-184196566D01*
X144238738Y-184003042D01*
X144238738Y-183615995D01*
X144141976Y-183422471D01*
X144045214Y-183325709D01*
X143851690Y-183228947D01*
X142206738Y-183228947D01*
X144238738Y-182261328D02*
X142206738Y-182261328D01*
X142206738Y-181487233D01*
X142303500Y-181293709D01*
X142400261Y-181196947D01*
X142593785Y-181100185D01*
X142884071Y-181100185D01*
X143077595Y-181196947D01*
X143174357Y-181293709D01*
X143271119Y-181487233D01*
X143271119Y-182261328D01*
X144045214Y-179068185D02*
X144141976Y-179164947D01*
X144238738Y-179455233D01*
X144238738Y-179648757D01*
X144141976Y-179939042D01*
X143948452Y-180132566D01*
X143754928Y-180229328D01*
X143367880Y-180326090D01*
X143077595Y-180326090D01*
X142690547Y-180229328D01*
X142497023Y-180132566D01*
X142303500Y-179939042D01*
X142206738Y-179648757D01*
X142206738Y-179455233D01*
X142303500Y-179164947D01*
X142400261Y-179068185D01*
X142206738Y-177810280D02*
X142206738Y-177423233D01*
X142303500Y-177229709D01*
X142497023Y-177036185D01*
X142884071Y-176939423D01*
X143561404Y-176939423D01*
X143948452Y-177036185D01*
X144141976Y-177229709D01*
X144238738Y-177423233D01*
X144238738Y-177810280D01*
X144141976Y-178003804D01*
X143948452Y-178197328D01*
X143561404Y-178294090D01*
X142884071Y-178294090D01*
X142497023Y-178197328D01*
X142303500Y-178003804D01*
X142206738Y-177810280D01*
X142303500Y-173455995D02*
X142206738Y-173649519D01*
X142206738Y-173939804D01*
X142303500Y-174230090D01*
X142497023Y-174423614D01*
X142690547Y-174520376D01*
X143077595Y-174617138D01*
X143367880Y-174617138D01*
X143754928Y-174520376D01*
X143948452Y-174423614D01*
X144141976Y-174230090D01*
X144238738Y-173939804D01*
X144238738Y-173746280D01*
X144141976Y-173455995D01*
X144045214Y-173359233D01*
X143367880Y-173359233D01*
X143367880Y-173746280D01*
X144238738Y-172488376D02*
X142884071Y-172488376D01*
X143271119Y-172488376D02*
X143077595Y-172391614D01*
X142980833Y-172294852D01*
X142884071Y-172101328D01*
X142884071Y-171907804D01*
X144238738Y-170359614D02*
X143174357Y-170359614D01*
X142980833Y-170456376D01*
X142884071Y-170649900D01*
X142884071Y-171036947D01*
X142980833Y-171230471D01*
X144141976Y-170359614D02*
X144238738Y-170553138D01*
X144238738Y-171036947D01*
X144141976Y-171230471D01*
X143948452Y-171327233D01*
X143754928Y-171327233D01*
X143561404Y-171230471D01*
X143464642Y-171036947D01*
X143464642Y-170553138D01*
X143367880Y-170359614D01*
X142884071Y-169391995D02*
X144916071Y-169391995D01*
X142980833Y-169391995D02*
X142884071Y-169198471D01*
X142884071Y-168811423D01*
X142980833Y-168617900D01*
X143077595Y-168521138D01*
X143271119Y-168424376D01*
X143851690Y-168424376D01*
X144045214Y-168521138D01*
X144141976Y-168617900D01*
X144238738Y-168811423D01*
X144238738Y-169198471D01*
X144141976Y-169391995D01*
X144238738Y-167553519D02*
X142206738Y-167553519D01*
X144238738Y-166682661D02*
X143174357Y-166682661D01*
X142980833Y-166779423D01*
X142884071Y-166972947D01*
X142884071Y-167263233D01*
X142980833Y-167456757D01*
X143077595Y-167553519D01*
X144238738Y-165715042D02*
X142884071Y-165715042D01*
X142206738Y-165715042D02*
X142303500Y-165811804D01*
X142400261Y-165715042D01*
X142303500Y-165618280D01*
X142206738Y-165715042D01*
X142400261Y-165715042D01*
X144141976Y-163876566D02*
X144238738Y-164070090D01*
X144238738Y-164457138D01*
X144141976Y-164650661D01*
X144045214Y-164747423D01*
X143851690Y-164844185D01*
X143271119Y-164844185D01*
X143077595Y-164747423D01*
X142980833Y-164650661D01*
X142884071Y-164457138D01*
X142884071Y-164070090D01*
X142980833Y-163876566D01*
X144141976Y-163102471D02*
X144238738Y-162908947D01*
X144238738Y-162521900D01*
X144141976Y-162328376D01*
X143948452Y-162231614D01*
X143851690Y-162231614D01*
X143658166Y-162328376D01*
X143561404Y-162521900D01*
X143561404Y-162812185D01*
X143464642Y-163005709D01*
X143271119Y-163102471D01*
X143174357Y-163102471D01*
X142980833Y-163005709D01*
X142884071Y-162812185D01*
X142884071Y-162521900D01*
X142980833Y-162328376D01*
X144141976Y-159909328D02*
X144238738Y-159619042D01*
X144238738Y-159135233D01*
X144141976Y-158941709D01*
X144045214Y-158844947D01*
X143851690Y-158748185D01*
X143658166Y-158748185D01*
X143464642Y-158844947D01*
X143367880Y-158941709D01*
X143271119Y-159135233D01*
X143174357Y-159522280D01*
X143077595Y-159715804D01*
X142980833Y-159812566D01*
X142787309Y-159909328D01*
X142593785Y-159909328D01*
X142400261Y-159812566D01*
X142303500Y-159715804D01*
X142206738Y-159522280D01*
X142206738Y-159038471D01*
X142303500Y-158748185D01*
X142884071Y-158070852D02*
X144238738Y-157587042D01*
X142884071Y-157103233D02*
X144238738Y-157587042D01*
X144722547Y-157780566D01*
X144819309Y-157877328D01*
X144916071Y-158070852D01*
X144141976Y-156425900D02*
X144238738Y-156232376D01*
X144238738Y-155845328D01*
X144141976Y-155651804D01*
X143948452Y-155555042D01*
X143851690Y-155555042D01*
X143658166Y-155651804D01*
X143561404Y-155845328D01*
X143561404Y-156135614D01*
X143464642Y-156329138D01*
X143271119Y-156425900D01*
X143174357Y-156425900D01*
X142980833Y-156329138D01*
X142884071Y-156135614D01*
X142884071Y-155845328D01*
X142980833Y-155651804D01*
X142884071Y-154974471D02*
X142884071Y-154200376D01*
X142206738Y-154684185D02*
X143948452Y-154684185D01*
X144141976Y-154587423D01*
X144238738Y-154393900D01*
X144238738Y-154200376D01*
X144141976Y-152748947D02*
X144238738Y-152942471D01*
X144238738Y-153329519D01*
X144141976Y-153523042D01*
X143948452Y-153619804D01*
X143174357Y-153619804D01*
X142980833Y-153523042D01*
X142884071Y-153329519D01*
X142884071Y-152942471D01*
X142980833Y-152748947D01*
X143174357Y-152652185D01*
X143367880Y-152652185D01*
X143561404Y-153619804D01*
X144238738Y-151781328D02*
X142884071Y-151781328D01*
X143077595Y-151781328D02*
X142980833Y-151684566D01*
X142884071Y-151491042D01*
X142884071Y-151200757D01*
X142980833Y-151007233D01*
X143174357Y-150910471D01*
X144238738Y-150910471D01*
X143174357Y-150910471D02*
X142980833Y-150813709D01*
X142884071Y-150620185D01*
X142884071Y-150329900D01*
X142980833Y-150136376D01*
X143174357Y-150039614D01*
X144238738Y-150039614D01*
X144141976Y-149168757D02*
X144238738Y-148975233D01*
X144238738Y-148588185D01*
X144141976Y-148394661D01*
X143948452Y-148297900D01*
X143851690Y-148297900D01*
X143658166Y-148394661D01*
X143561404Y-148588185D01*
X143561404Y-148878471D01*
X143464642Y-149071995D01*
X143271119Y-149168757D01*
X143174357Y-149168757D01*
X142980833Y-149071995D01*
X142884071Y-148878471D01*
X142884071Y-148588185D01*
X142980833Y-148394661D01*
X147540738Y-183228947D02*
X146573119Y-183906280D01*
X147540738Y-184390090D02*
X145508738Y-184390090D01*
X145508738Y-183615995D01*
X145605500Y-183422471D01*
X145702261Y-183325709D01*
X145895785Y-183228947D01*
X146186071Y-183228947D01*
X146379595Y-183325709D01*
X146476357Y-183422471D01*
X146573119Y-183615995D01*
X146573119Y-184390090D01*
X147443976Y-181583995D02*
X147540738Y-181777519D01*
X147540738Y-182164566D01*
X147443976Y-182358090D01*
X147250452Y-182454852D01*
X146476357Y-182454852D01*
X146282833Y-182358090D01*
X146186071Y-182164566D01*
X146186071Y-181777519D01*
X146282833Y-181583995D01*
X146476357Y-181487233D01*
X146669880Y-181487233D01*
X146863404Y-182454852D01*
X146186071Y-180906661D02*
X146186071Y-180132566D01*
X145508738Y-180616376D02*
X147250452Y-180616376D01*
X147443976Y-180519614D01*
X147540738Y-180326090D01*
X147540738Y-180132566D01*
X147540738Y-179455233D02*
X146186071Y-179455233D01*
X146573119Y-179455233D02*
X146379595Y-179358471D01*
X146282833Y-179261709D01*
X146186071Y-179068185D01*
X146186071Y-178874661D01*
X147540738Y-177907042D02*
X147443976Y-178100566D01*
X147347214Y-178197328D01*
X147153690Y-178294090D01*
X146573119Y-178294090D01*
X146379595Y-178197328D01*
X146282833Y-178100566D01*
X146186071Y-177907042D01*
X146186071Y-177616757D01*
X146282833Y-177423233D01*
X146379595Y-177326471D01*
X146573119Y-177229709D01*
X147153690Y-177229709D01*
X147347214Y-177326471D01*
X147443976Y-177423233D01*
X147540738Y-177616757D01*
X147540738Y-177907042D01*
X146766642Y-176358852D02*
X146766642Y-174810661D01*
X145702261Y-173939804D02*
X145605500Y-173843042D01*
X145508738Y-173649519D01*
X145508738Y-173165709D01*
X145605500Y-172972185D01*
X145702261Y-172875423D01*
X145895785Y-172778661D01*
X146089309Y-172778661D01*
X146379595Y-172875423D01*
X147540738Y-174036566D01*
X147540738Y-172778661D01*
X145508738Y-170940185D02*
X145508738Y-171907804D01*
X146476357Y-172004566D01*
X146379595Y-171907804D01*
X146282833Y-171714280D01*
X146282833Y-171230471D01*
X146379595Y-171036947D01*
X146476357Y-170940185D01*
X146669880Y-170843423D01*
X147153690Y-170843423D01*
X147347214Y-170940185D01*
X147443976Y-171036947D01*
X147540738Y-171230471D01*
X147540738Y-171714280D01*
X147443976Y-171907804D01*
X147347214Y-172004566D01*
X147540738Y-168424376D02*
X145508738Y-168424376D01*
X145508738Y-167940566D01*
X145605500Y-167650280D01*
X145799023Y-167456757D01*
X145992547Y-167359995D01*
X146379595Y-167263233D01*
X146669880Y-167263233D01*
X147056928Y-167359995D01*
X147250452Y-167456757D01*
X147443976Y-167650280D01*
X147540738Y-167940566D01*
X147540738Y-168424376D01*
X147540738Y-166392376D02*
X146186071Y-166392376D01*
X145508738Y-166392376D02*
X145605500Y-166489138D01*
X145702261Y-166392376D01*
X145605500Y-166295614D01*
X145508738Y-166392376D01*
X145702261Y-166392376D01*
X147443976Y-165521519D02*
X147540738Y-165327995D01*
X147540738Y-164940947D01*
X147443976Y-164747423D01*
X147250452Y-164650661D01*
X147153690Y-164650661D01*
X146960166Y-164747423D01*
X146863404Y-164940947D01*
X146863404Y-165231233D01*
X146766642Y-165424757D01*
X146573119Y-165521519D01*
X146476357Y-165521519D01*
X146282833Y-165424757D01*
X146186071Y-165231233D01*
X146186071Y-164940947D01*
X146282833Y-164747423D01*
X146186071Y-163779804D02*
X148218071Y-163779804D01*
X146282833Y-163779804D02*
X146186071Y-163586280D01*
X146186071Y-163199233D01*
X146282833Y-163005709D01*
X146379595Y-162908947D01*
X146573119Y-162812185D01*
X147153690Y-162812185D01*
X147347214Y-162908947D01*
X147443976Y-163005709D01*
X147540738Y-163199233D01*
X147540738Y-163586280D01*
X147443976Y-163779804D01*
X147540738Y-161651042D02*
X147443976Y-161844566D01*
X147250452Y-161941328D01*
X145508738Y-161941328D01*
X147540738Y-160006090D02*
X146476357Y-160006090D01*
X146282833Y-160102852D01*
X146186071Y-160296376D01*
X146186071Y-160683423D01*
X146282833Y-160876947D01*
X147443976Y-160006090D02*
X147540738Y-160199614D01*
X147540738Y-160683423D01*
X147443976Y-160876947D01*
X147250452Y-160973709D01*
X147056928Y-160973709D01*
X146863404Y-160876947D01*
X146766642Y-160683423D01*
X146766642Y-160199614D01*
X146669880Y-160006090D01*
X146186071Y-159231995D02*
X147540738Y-158748185D01*
X146186071Y-158264376D02*
X147540738Y-158748185D01*
X148024547Y-158941709D01*
X148121309Y-159038471D01*
X148218071Y-159231995D01*
X147540738Y-153232757D02*
X146573119Y-153910090D01*
X147540738Y-154393900D02*
X145508738Y-154393900D01*
X145508738Y-153619804D01*
X145605500Y-153426280D01*
X145702261Y-153329519D01*
X145895785Y-153232757D01*
X146186071Y-153232757D01*
X146379595Y-153329519D01*
X146476357Y-153426280D01*
X146573119Y-153619804D01*
X146573119Y-154393900D01*
X147443976Y-151587804D02*
X147540738Y-151781328D01*
X147540738Y-152168376D01*
X147443976Y-152361900D01*
X147250452Y-152458661D01*
X146476357Y-152458661D01*
X146282833Y-152361900D01*
X146186071Y-152168376D01*
X146186071Y-151781328D01*
X146282833Y-151587804D01*
X146476357Y-151491042D01*
X146669880Y-151491042D01*
X146863404Y-152458661D01*
X146186071Y-150813709D02*
X147540738Y-150329900D01*
X146186071Y-149846090D01*
X147540738Y-146459423D02*
X147540738Y-147620566D01*
X147540738Y-147039995D02*
X145508738Y-147039995D01*
X145799023Y-147233519D01*
X145992547Y-147427042D01*
X146089309Y-147620566D01*
X147347214Y-145588566D02*
X147443976Y-145491804D01*
X147540738Y-145588566D01*
X147443976Y-145685328D01*
X147347214Y-145588566D01*
X147540738Y-145588566D01*
X145508738Y-144233900D02*
X145508738Y-144040376D01*
X145605500Y-143846852D01*
X145702261Y-143750090D01*
X145895785Y-143653328D01*
X146282833Y-143556566D01*
X146766642Y-143556566D01*
X147153690Y-143653328D01*
X147347214Y-143750090D01*
X147443976Y-143846852D01*
X147540738Y-144040376D01*
X147540738Y-144233900D01*
X147443976Y-144427423D01*
X147347214Y-144524185D01*
X147153690Y-144620947D01*
X146766642Y-144717709D01*
X146282833Y-144717709D01*
X145895785Y-144620947D01*
X145702261Y-144524185D01*
X145605500Y-144427423D01*
X145508738Y-144233900D01*
X145702261Y-139686090D02*
X145605500Y-139589328D01*
X145508738Y-139395804D01*
X145508738Y-138911995D01*
X145605500Y-138718471D01*
X145702261Y-138621709D01*
X145895785Y-138524947D01*
X146089309Y-138524947D01*
X146379595Y-138621709D01*
X147540738Y-139782852D01*
X147540738Y-138524947D01*
X145508738Y-137267042D02*
X145508738Y-137073519D01*
X145605500Y-136879995D01*
X145702261Y-136783233D01*
X145895785Y-136686471D01*
X146282833Y-136589709D01*
X146766642Y-136589709D01*
X147153690Y-136686471D01*
X147347214Y-136783233D01*
X147443976Y-136879995D01*
X147540738Y-137073519D01*
X147540738Y-137267042D01*
X147443976Y-137460566D01*
X147347214Y-137557328D01*
X147153690Y-137654090D01*
X146766642Y-137750852D01*
X146282833Y-137750852D01*
X145895785Y-137654090D01*
X145702261Y-137557328D01*
X145605500Y-137460566D01*
X145508738Y-137267042D01*
X145702261Y-135815614D02*
X145605500Y-135718852D01*
X145508738Y-135525328D01*
X145508738Y-135041519D01*
X145605500Y-134847995D01*
X145702261Y-134751233D01*
X145895785Y-134654471D01*
X146089309Y-134654471D01*
X146379595Y-134751233D01*
X147540738Y-135912376D01*
X147540738Y-134654471D01*
X145508738Y-133396566D02*
X145508738Y-133203042D01*
X145605500Y-133009519D01*
X145702261Y-132912757D01*
X145895785Y-132815995D01*
X146282833Y-132719233D01*
X146766642Y-132719233D01*
X147153690Y-132815995D01*
X147347214Y-132912757D01*
X147443976Y-133009519D01*
X147540738Y-133203042D01*
X147540738Y-133396566D01*
X147443976Y-133590090D01*
X147347214Y-133686852D01*
X147153690Y-133783614D01*
X146766642Y-133880376D01*
X146282833Y-133880376D01*
X145895785Y-133783614D01*
X145702261Y-133686852D01*
X145605500Y-133590090D01*
X145508738Y-133396566D01*
X146766642Y-131848376D02*
X146766642Y-130300185D01*
X145508738Y-128945519D02*
X145508738Y-128751995D01*
X145605500Y-128558471D01*
X145702261Y-128461709D01*
X145895785Y-128364947D01*
X146282833Y-128268185D01*
X146766642Y-128268185D01*
X147153690Y-128364947D01*
X147347214Y-128461709D01*
X147443976Y-128558471D01*
X147540738Y-128751995D01*
X147540738Y-128945519D01*
X147443976Y-129139042D01*
X147347214Y-129235804D01*
X147153690Y-129332566D01*
X146766642Y-129429328D01*
X146282833Y-129429328D01*
X145895785Y-129332566D01*
X145702261Y-129235804D01*
X145605500Y-129139042D01*
X145508738Y-128945519D01*
X145702261Y-127494090D02*
X145605500Y-127397328D01*
X145508738Y-127203804D01*
X145508738Y-126719995D01*
X145605500Y-126526471D01*
X145702261Y-126429709D01*
X145895785Y-126332947D01*
X146089309Y-126332947D01*
X146379595Y-126429709D01*
X147540738Y-127590852D01*
X147540738Y-126332947D01*
X146476357Y-120817519D02*
X146476357Y-120140185D01*
X147540738Y-119849899D02*
X147540738Y-120817519D01*
X145508738Y-120817519D01*
X145508738Y-119849899D01*
X147347214Y-118979042D02*
X147443976Y-118882280D01*
X147540738Y-118979042D01*
X147443976Y-119075804D01*
X147347214Y-118979042D01*
X147540738Y-118979042D01*
X147540738Y-116463233D02*
X145508738Y-116463233D01*
X146476357Y-116463233D02*
X146476357Y-115302090D01*
X147540738Y-115302090D02*
X145508738Y-115302090D01*
X147540738Y-113463614D02*
X146476357Y-113463614D01*
X146282833Y-113560376D01*
X146186071Y-113753899D01*
X146186071Y-114140947D01*
X146282833Y-114334471D01*
X147443976Y-113463614D02*
X147540738Y-113657138D01*
X147540738Y-114140947D01*
X147443976Y-114334471D01*
X147250452Y-114431233D01*
X147056928Y-114431233D01*
X146863404Y-114334471D01*
X146766642Y-114140947D01*
X146766642Y-113657138D01*
X146669880Y-113463614D01*
X146186071Y-112689519D02*
X146186071Y-111625138D01*
X147540738Y-112689519D01*
X147540738Y-111625138D01*
X147443976Y-110076947D02*
X147540738Y-110270471D01*
X147540738Y-110657519D01*
X147443976Y-110851042D01*
X147250452Y-110947804D01*
X146476357Y-110947804D01*
X146282833Y-110851042D01*
X146186071Y-110657519D01*
X146186071Y-110270471D01*
X146282833Y-110076947D01*
X146476357Y-109980185D01*
X146669880Y-109980185D01*
X146863404Y-110947804D01*
X146186071Y-109109328D02*
X147540738Y-109109328D01*
X146379595Y-109109328D02*
X146282833Y-109012566D01*
X146186071Y-108819042D01*
X146186071Y-108528757D01*
X146282833Y-108335233D01*
X146476357Y-108238471D01*
X147540738Y-108238471D01*
D11*
G04 #@! TO.C,U2*
X44390000Y-26940000D02*
G75*
G02X44390000Y-28940000I0J-1000000D01*
G01*
X44390000Y-28940000D02*
X44390000Y-30190000D01*
X44390000Y-30190000D02*
X64830000Y-30190000D01*
X64830000Y-30190000D02*
X64830000Y-25690000D01*
X64830000Y-25690000D02*
X44390000Y-25690000D01*
X44390000Y-25690000D02*
X44390000Y-26940000D01*
G04 #@! TO.C,U5*
X125670000Y-26940000D02*
G75*
G02X125670000Y-28940000I0J-1000000D01*
G01*
X125670000Y-28940000D02*
X125670000Y-30190000D01*
X125670000Y-30190000D02*
X146110000Y-30190000D01*
X146110000Y-30190000D02*
X146110000Y-25690000D01*
X146110000Y-25690000D02*
X125670000Y-25690000D01*
X125670000Y-25690000D02*
X125670000Y-26940000D01*
D12*
G04 #@! TO.C,SW2*
X150430000Y-52800000D02*
X136430000Y-52800000D01*
X150430000Y-48800000D02*
X150430000Y-52800000D01*
X136430000Y-48800000D02*
X150430000Y-48800000D01*
X136430000Y-52800000D02*
X136430000Y-48800000D01*
G04 #@! TO.C,SW1*
X52640000Y-52800000D02*
X38640000Y-52800000D01*
X52640000Y-48800000D02*
X52640000Y-52800000D01*
X38640000Y-48800000D02*
X52640000Y-48800000D01*
X38640000Y-52800000D02*
X38640000Y-48800000D01*
D11*
G04 #@! TO.C,C1*
X120230000Y-30380000D02*
X120230000Y-33120000D01*
X110990000Y-30380000D02*
X110990000Y-33120000D01*
X110990000Y-33120000D02*
X120230000Y-33120000D01*
X110990000Y-30380000D02*
X120230000Y-30380000D01*
G04 #@! TO.C,C2*
X46570000Y-62330000D02*
X37330000Y-62330000D01*
X46570000Y-59590000D02*
X37330000Y-59590000D01*
X46570000Y-62330000D02*
X46570000Y-59590000D01*
X37330000Y-62330000D02*
X37330000Y-59590000D01*
G04 #@! TO.C,C3*
X71540000Y-30380000D02*
X80780000Y-30380000D01*
X71540000Y-33120000D02*
X80780000Y-33120000D01*
X71540000Y-30380000D02*
X71540000Y-33120000D01*
X80780000Y-30380000D02*
X80780000Y-33120000D01*
G04 #@! TO.C,D1*
X47470000Y-36640000D02*
X51590000Y-36640000D01*
X47470000Y-39560000D02*
X51590000Y-39560000D01*
X47470000Y-36640000D02*
X47470000Y-37020000D01*
X47470000Y-39180000D02*
X47470000Y-39560000D01*
X51590000Y-36640000D02*
X51590000Y-37275000D01*
X51590000Y-38925000D02*
X51590000Y-39560000D01*
X47590000Y-36640000D02*
X47590000Y-37020000D01*
X47590000Y-39180000D02*
X47590000Y-39560000D01*
X47710000Y-36640000D02*
X47710000Y-37020000D01*
X47710000Y-39180000D02*
X47710000Y-39560000D01*
G04 #@! TO.C,R1*
X39600000Y-37560000D02*
X39270000Y-37560000D01*
X39270000Y-37560000D02*
X39270000Y-31020000D01*
X39270000Y-31020000D02*
X39600000Y-31020000D01*
X41680000Y-37560000D02*
X42010000Y-37560000D01*
X42010000Y-37560000D02*
X42010000Y-31020000D01*
X42010000Y-31020000D02*
X41680000Y-31020000D01*
G04 #@! TO.C,SW3*
X50165000Y-57785000D02*
X64135000Y-57785000D01*
X64135000Y-57785000D02*
X64135000Y-71755000D01*
X64135000Y-71755000D02*
X50165000Y-71755000D01*
X50165000Y-71755000D02*
X50165000Y-57785000D01*
G04 #@! TO.C,SW4*
X50165000Y-76835000D02*
X64135000Y-76835000D01*
X64135000Y-76835000D02*
X64135000Y-90805000D01*
X64135000Y-90805000D02*
X50165000Y-90805000D01*
X50165000Y-90805000D02*
X50165000Y-76835000D01*
G04 #@! TO.C,SW5*
X59690000Y-95885000D02*
X73660000Y-95885000D01*
X73660000Y-95885000D02*
X73660000Y-109855000D01*
X73660000Y-109855000D02*
X59690000Y-109855000D01*
X59690000Y-109855000D02*
X59690000Y-95885000D01*
G04 #@! TO.C,SW6*
X50165000Y-117475000D02*
X64135000Y-117475000D01*
X64135000Y-117475000D02*
X64135000Y-131445000D01*
X64135000Y-131445000D02*
X50165000Y-131445000D01*
X50165000Y-131445000D02*
X50165000Y-117475000D01*
G04 #@! TO.C,SW7*
X50165000Y-136525000D02*
X64135000Y-136525000D01*
X64135000Y-136525000D02*
X64135000Y-150495000D01*
X64135000Y-150495000D02*
X50165000Y-150495000D01*
X50165000Y-150495000D02*
X50165000Y-136525000D01*
G04 #@! TO.C,SW8*
X50165000Y-155575000D02*
X64135000Y-155575000D01*
X64135000Y-155575000D02*
X64135000Y-169545000D01*
X64135000Y-169545000D02*
X50165000Y-169545000D01*
X50165000Y-169545000D02*
X50165000Y-155575000D01*
G04 #@! TO.C,SW9*
X50165000Y-174625000D02*
X64135000Y-174625000D01*
X64135000Y-174625000D02*
X64135000Y-188595000D01*
X64135000Y-188595000D02*
X50165000Y-188595000D01*
X50165000Y-188595000D02*
X50165000Y-174625000D01*
G04 #@! TO.C,SW10*
X69215000Y-57785000D02*
X83185000Y-57785000D01*
X83185000Y-57785000D02*
X83185000Y-71755000D01*
X83185000Y-71755000D02*
X69215000Y-71755000D01*
X69215000Y-71755000D02*
X69215000Y-57785000D01*
G04 #@! TO.C,SW11*
X69215000Y-90805000D02*
X69215000Y-76835000D01*
X83185000Y-90805000D02*
X69215000Y-90805000D01*
X83185000Y-76835000D02*
X83185000Y-90805000D01*
X69215000Y-76835000D02*
X83185000Y-76835000D01*
G04 #@! TO.C,SW12*
X75565000Y-131445000D02*
X75565000Y-117475000D01*
X89535000Y-131445000D02*
X75565000Y-131445000D01*
X89535000Y-117475000D02*
X89535000Y-131445000D01*
X75565000Y-117475000D02*
X89535000Y-117475000D01*
G04 #@! TO.C,SW13*
X75565000Y-150495000D02*
X75565000Y-136525000D01*
X89535000Y-150495000D02*
X75565000Y-150495000D01*
X89535000Y-136525000D02*
X89535000Y-150495000D01*
X75565000Y-136525000D02*
X89535000Y-136525000D01*
G04 #@! TO.C,SW14*
X75565000Y-169545000D02*
X75565000Y-155575000D01*
X89535000Y-169545000D02*
X75565000Y-169545000D01*
X89535000Y-155575000D02*
X89535000Y-169545000D01*
X75565000Y-155575000D02*
X89535000Y-155575000D01*
G04 #@! TO.C,SW15*
X75565000Y-188595000D02*
X75565000Y-174625000D01*
X89535000Y-188595000D02*
X75565000Y-188595000D01*
X89535000Y-174625000D02*
X89535000Y-188595000D01*
X75565000Y-174625000D02*
X89535000Y-174625000D01*
G04 #@! TO.C,SW16*
X88265000Y-71755000D02*
X88265000Y-57785000D01*
X102235000Y-71755000D02*
X88265000Y-71755000D01*
X102235000Y-57785000D02*
X102235000Y-71755000D01*
X88265000Y-57785000D02*
X102235000Y-57785000D01*
G04 #@! TO.C,SW17*
X88265000Y-76835000D02*
X102235000Y-76835000D01*
X102235000Y-76835000D02*
X102235000Y-90805000D01*
X102235000Y-90805000D02*
X88265000Y-90805000D01*
X88265000Y-90805000D02*
X88265000Y-76835000D01*
G04 #@! TO.C,SW18*
X88265000Y-109855000D02*
X88265000Y-95885000D01*
X102235000Y-109855000D02*
X88265000Y-109855000D01*
X102235000Y-95885000D02*
X102235000Y-109855000D01*
X88265000Y-95885000D02*
X102235000Y-95885000D01*
G04 #@! TO.C,SW19*
X100965000Y-117475000D02*
X114935000Y-117475000D01*
X114935000Y-117475000D02*
X114935000Y-131445000D01*
X114935000Y-131445000D02*
X100965000Y-131445000D01*
X100965000Y-131445000D02*
X100965000Y-117475000D01*
G04 #@! TO.C,SW20*
X100965000Y-136525000D02*
X114935000Y-136525000D01*
X114935000Y-136525000D02*
X114935000Y-150495000D01*
X114935000Y-150495000D02*
X100965000Y-150495000D01*
X100965000Y-150495000D02*
X100965000Y-136525000D01*
G04 #@! TO.C,SW21*
X100965000Y-155575000D02*
X114935000Y-155575000D01*
X114935000Y-155575000D02*
X114935000Y-169545000D01*
X114935000Y-169545000D02*
X100965000Y-169545000D01*
X100965000Y-169545000D02*
X100965000Y-155575000D01*
G04 #@! TO.C,SW22*
X100965000Y-174625000D02*
X114935000Y-174625000D01*
X114935000Y-174625000D02*
X114935000Y-188595000D01*
X114935000Y-188595000D02*
X100965000Y-188595000D01*
X100965000Y-188595000D02*
X100965000Y-174625000D01*
G04 #@! TO.C,SW23*
X107315000Y-57785000D02*
X121285000Y-57785000D01*
X121285000Y-57785000D02*
X121285000Y-71755000D01*
X121285000Y-71755000D02*
X107315000Y-71755000D01*
X107315000Y-71755000D02*
X107315000Y-57785000D01*
G04 #@! TO.C,SW24*
X107315000Y-90805000D02*
X107315000Y-76835000D01*
X121285000Y-90805000D02*
X107315000Y-90805000D01*
X121285000Y-76835000D02*
X121285000Y-90805000D01*
X107315000Y-76835000D02*
X121285000Y-76835000D01*
G04 #@! TO.C,SW25*
X107315000Y-95885000D02*
X121285000Y-95885000D01*
X121285000Y-95885000D02*
X121285000Y-109855000D01*
X121285000Y-109855000D02*
X107315000Y-109855000D01*
X107315000Y-109855000D02*
X107315000Y-95885000D01*
G04 #@! TO.C,SW26*
X126365000Y-131445000D02*
X126365000Y-117475000D01*
X140335000Y-131445000D02*
X126365000Y-131445000D01*
X140335000Y-117475000D02*
X140335000Y-131445000D01*
X126365000Y-117475000D02*
X140335000Y-117475000D01*
G04 #@! TO.C,SW27*
X126365000Y-150495000D02*
X126365000Y-136525000D01*
X140335000Y-150495000D02*
X126365000Y-150495000D01*
X140335000Y-136525000D02*
X140335000Y-150495000D01*
X126365000Y-136525000D02*
X140335000Y-136525000D01*
G04 #@! TO.C,SW28*
X126365000Y-169545000D02*
X126365000Y-155575000D01*
X140335000Y-169545000D02*
X126365000Y-169545000D01*
X140335000Y-155575000D02*
X140335000Y-169545000D01*
X126365000Y-155575000D02*
X140335000Y-155575000D01*
G04 #@! TO.C,SW29*
X126365000Y-188595000D02*
X126365000Y-174625000D01*
X140335000Y-188595000D02*
X126365000Y-188595000D01*
X140335000Y-174625000D02*
X140335000Y-188595000D01*
X126365000Y-174625000D02*
X140335000Y-174625000D01*
G04 #@! TO.C,SW30*
X126365000Y-71755000D02*
X126365000Y-57785000D01*
X140335000Y-71755000D02*
X126365000Y-71755000D01*
X140335000Y-57785000D02*
X140335000Y-71755000D01*
X126365000Y-57785000D02*
X140335000Y-57785000D01*
G04 #@! TO.C,SW31*
X126365000Y-76835000D02*
X140335000Y-76835000D01*
X140335000Y-76835000D02*
X140335000Y-90805000D01*
X140335000Y-90805000D02*
X126365000Y-90805000D01*
X126365000Y-90805000D02*
X126365000Y-76835000D01*
G04 #@! TO.C,SW32*
X126365000Y-109855000D02*
X126365000Y-95885000D01*
X140335000Y-109855000D02*
X126365000Y-109855000D01*
X140335000Y-95885000D02*
X140335000Y-109855000D01*
X126365000Y-95885000D02*
X140335000Y-95885000D01*
G04 #@! TO.C,U3*
X85030000Y-25690000D02*
X85030000Y-26940000D01*
X105470000Y-25690000D02*
X85030000Y-25690000D01*
X105470000Y-30190000D02*
X105470000Y-25690000D01*
X85030000Y-30190000D02*
X105470000Y-30190000D01*
X85030000Y-28940000D02*
X85030000Y-30190000D01*
X85030000Y-26940000D02*
G75*
G02X85030000Y-28940000I0J-1000000D01*
G01*
G04 #@! TO.C,U2*
D12*
X42842380Y-28701904D02*
X43651904Y-28701904D01*
X43747142Y-28654285D01*
X43794761Y-28606666D01*
X43842380Y-28511428D01*
X43842380Y-28320952D01*
X43794761Y-28225714D01*
X43747142Y-28178095D01*
X43651904Y-28130476D01*
X42842380Y-28130476D01*
X42937619Y-27701904D02*
X42890000Y-27654285D01*
X42842380Y-27559047D01*
X42842380Y-27320952D01*
X42890000Y-27225714D01*
X42937619Y-27178095D01*
X43032857Y-27130476D01*
X43128095Y-27130476D01*
X43270952Y-27178095D01*
X43842380Y-27749523D01*
X43842380Y-27130476D01*
G04 #@! TO.C,U5*
X124122380Y-28701904D02*
X124931904Y-28701904D01*
X125027142Y-28654285D01*
X125074761Y-28606666D01*
X125122380Y-28511428D01*
X125122380Y-28320952D01*
X125074761Y-28225714D01*
X125027142Y-28178095D01*
X124931904Y-28130476D01*
X124122380Y-28130476D01*
X124122380Y-27178095D02*
X124122380Y-27654285D01*
X124598571Y-27701904D01*
X124550952Y-27654285D01*
X124503333Y-27559047D01*
X124503333Y-27320952D01*
X124550952Y-27225714D01*
X124598571Y-27178095D01*
X124693809Y-27130476D01*
X124931904Y-27130476D01*
X125027142Y-27178095D01*
X125074761Y-27225714D01*
X125122380Y-27320952D01*
X125122380Y-27559047D01*
X125074761Y-27654285D01*
X125027142Y-27701904D01*
G04 #@! TO.C,SW2*
X135834761Y-52133333D02*
X135882380Y-51990476D01*
X135882380Y-51752380D01*
X135834761Y-51657142D01*
X135787142Y-51609523D01*
X135691904Y-51561904D01*
X135596666Y-51561904D01*
X135501428Y-51609523D01*
X135453809Y-51657142D01*
X135406190Y-51752380D01*
X135358571Y-51942857D01*
X135310952Y-52038095D01*
X135263333Y-52085714D01*
X135168095Y-52133333D01*
X135072857Y-52133333D01*
X134977619Y-52085714D01*
X134930000Y-52038095D01*
X134882380Y-51942857D01*
X134882380Y-51704761D01*
X134930000Y-51561904D01*
X134882380Y-51228571D02*
X135882380Y-50990476D01*
X135168095Y-50800000D01*
X135882380Y-50609523D01*
X134882380Y-50371428D01*
X134977619Y-50038095D02*
X134930000Y-49990476D01*
X134882380Y-49895238D01*
X134882380Y-49657142D01*
X134930000Y-49561904D01*
X134977619Y-49514285D01*
X135072857Y-49466666D01*
X135168095Y-49466666D01*
X135310952Y-49514285D01*
X135882380Y-50085714D01*
X135882380Y-49466666D01*
G04 #@! TO.C,SW1*
X38044761Y-52133333D02*
X38092380Y-51990476D01*
X38092380Y-51752380D01*
X38044761Y-51657142D01*
X37997142Y-51609523D01*
X37901904Y-51561904D01*
X37806666Y-51561904D01*
X37711428Y-51609523D01*
X37663809Y-51657142D01*
X37616190Y-51752380D01*
X37568571Y-51942857D01*
X37520952Y-52038095D01*
X37473333Y-52085714D01*
X37378095Y-52133333D01*
X37282857Y-52133333D01*
X37187619Y-52085714D01*
X37140000Y-52038095D01*
X37092380Y-51942857D01*
X37092380Y-51704761D01*
X37140000Y-51561904D01*
X37092380Y-51228571D02*
X38092380Y-50990476D01*
X37378095Y-50800000D01*
X38092380Y-50609523D01*
X37092380Y-50371428D01*
X38092380Y-49466666D02*
X38092380Y-50038095D01*
X38092380Y-49752380D02*
X37092380Y-49752380D01*
X37235238Y-49847619D01*
X37330476Y-49942857D01*
X37378095Y-50038095D01*
G04 #@! TO.C,C1*
X115443333Y-29607142D02*
X115395714Y-29654761D01*
X115252857Y-29702380D01*
X115157619Y-29702380D01*
X115014761Y-29654761D01*
X114919523Y-29559523D01*
X114871904Y-29464285D01*
X114824285Y-29273809D01*
X114824285Y-29130952D01*
X114871904Y-28940476D01*
X114919523Y-28845238D01*
X115014761Y-28750000D01*
X115157619Y-28702380D01*
X115252857Y-28702380D01*
X115395714Y-28750000D01*
X115443333Y-28797619D01*
X116395714Y-29702380D02*
X115824285Y-29702380D01*
X116110000Y-29702380D02*
X116110000Y-28702380D01*
X116014761Y-28845238D01*
X115919523Y-28940476D01*
X115824285Y-28988095D01*
G04 #@! TO.C,C2*
X41783333Y-63817142D02*
X41735714Y-63864761D01*
X41592857Y-63912380D01*
X41497619Y-63912380D01*
X41354761Y-63864761D01*
X41259523Y-63769523D01*
X41211904Y-63674285D01*
X41164285Y-63483809D01*
X41164285Y-63340952D01*
X41211904Y-63150476D01*
X41259523Y-63055238D01*
X41354761Y-62960000D01*
X41497619Y-62912380D01*
X41592857Y-62912380D01*
X41735714Y-62960000D01*
X41783333Y-63007619D01*
X42164285Y-63007619D02*
X42211904Y-62960000D01*
X42307142Y-62912380D01*
X42545238Y-62912380D01*
X42640476Y-62960000D01*
X42688095Y-63007619D01*
X42735714Y-63102857D01*
X42735714Y-63198095D01*
X42688095Y-63340952D01*
X42116666Y-63912380D01*
X42735714Y-63912380D01*
G04 #@! TO.C,C3*
X75993333Y-29607142D02*
X75945714Y-29654761D01*
X75802857Y-29702380D01*
X75707619Y-29702380D01*
X75564761Y-29654761D01*
X75469523Y-29559523D01*
X75421904Y-29464285D01*
X75374285Y-29273809D01*
X75374285Y-29130952D01*
X75421904Y-28940476D01*
X75469523Y-28845238D01*
X75564761Y-28750000D01*
X75707619Y-28702380D01*
X75802857Y-28702380D01*
X75945714Y-28750000D01*
X75993333Y-28797619D01*
X76326666Y-28702380D02*
X76945714Y-28702380D01*
X76612380Y-29083333D01*
X76755238Y-29083333D01*
X76850476Y-29130952D01*
X76898095Y-29178571D01*
X76945714Y-29273809D01*
X76945714Y-29511904D01*
X76898095Y-29607142D01*
X76850476Y-29654761D01*
X76755238Y-29702380D01*
X76469523Y-29702380D01*
X76374285Y-29654761D01*
X76326666Y-29607142D01*
G04 #@! TO.C,D1*
X48791904Y-36092380D02*
X48791904Y-35092380D01*
X49030000Y-35092380D01*
X49172857Y-35140000D01*
X49268095Y-35235238D01*
X49315714Y-35330476D01*
X49363333Y-35520952D01*
X49363333Y-35663809D01*
X49315714Y-35854285D01*
X49268095Y-35949523D01*
X49172857Y-36044761D01*
X49030000Y-36092380D01*
X48791904Y-36092380D01*
X50315714Y-36092380D02*
X49744285Y-36092380D01*
X50030000Y-36092380D02*
X50030000Y-35092380D01*
X49934761Y-35235238D01*
X49839523Y-35330476D01*
X49744285Y-35378095D01*
G04 #@! TO.C,R1*
X38722380Y-34456666D02*
X38246190Y-34790000D01*
X38722380Y-35028095D02*
X37722380Y-35028095D01*
X37722380Y-34647142D01*
X37770000Y-34551904D01*
X37817619Y-34504285D01*
X37912857Y-34456666D01*
X38055714Y-34456666D01*
X38150952Y-34504285D01*
X38198571Y-34551904D01*
X38246190Y-34647142D01*
X38246190Y-35028095D01*
X38722380Y-33504285D02*
X38722380Y-34075714D01*
X38722380Y-33790000D02*
X37722380Y-33790000D01*
X37865238Y-33885238D01*
X37960476Y-33980476D01*
X38008095Y-34075714D01*
G04 #@! TO.C,SW3*
X55816666Y-57300761D02*
X55959523Y-57348380D01*
X56197619Y-57348380D01*
X56292857Y-57300761D01*
X56340476Y-57253142D01*
X56388095Y-57157904D01*
X56388095Y-57062666D01*
X56340476Y-56967428D01*
X56292857Y-56919809D01*
X56197619Y-56872190D01*
X56007142Y-56824571D01*
X55911904Y-56776952D01*
X55864285Y-56729333D01*
X55816666Y-56634095D01*
X55816666Y-56538857D01*
X55864285Y-56443619D01*
X55911904Y-56396000D01*
X56007142Y-56348380D01*
X56245238Y-56348380D01*
X56388095Y-56396000D01*
X56721428Y-56348380D02*
X56959523Y-57348380D01*
X57150000Y-56634095D01*
X57340476Y-57348380D01*
X57578571Y-56348380D01*
X57864285Y-56348380D02*
X58483333Y-56348380D01*
X58150000Y-56729333D01*
X58292857Y-56729333D01*
X58388095Y-56776952D01*
X58435714Y-56824571D01*
X58483333Y-56919809D01*
X58483333Y-57157904D01*
X58435714Y-57253142D01*
X58388095Y-57300761D01*
X58292857Y-57348380D01*
X58007142Y-57348380D01*
X57911904Y-57300761D01*
X57864285Y-57253142D01*
G04 #@! TO.C,SW4*
X55816666Y-76350761D02*
X55959523Y-76398380D01*
X56197619Y-76398380D01*
X56292857Y-76350761D01*
X56340476Y-76303142D01*
X56388095Y-76207904D01*
X56388095Y-76112666D01*
X56340476Y-76017428D01*
X56292857Y-75969809D01*
X56197619Y-75922190D01*
X56007142Y-75874571D01*
X55911904Y-75826952D01*
X55864285Y-75779333D01*
X55816666Y-75684095D01*
X55816666Y-75588857D01*
X55864285Y-75493619D01*
X55911904Y-75446000D01*
X56007142Y-75398380D01*
X56245238Y-75398380D01*
X56388095Y-75446000D01*
X56721428Y-75398380D02*
X56959523Y-76398380D01*
X57150000Y-75684095D01*
X57340476Y-76398380D01*
X57578571Y-75398380D01*
X58388095Y-75731714D02*
X58388095Y-76398380D01*
X58150000Y-75350761D02*
X57911904Y-76065047D01*
X58530952Y-76065047D01*
G04 #@! TO.C,SW5*
X65341666Y-95400761D02*
X65484523Y-95448380D01*
X65722619Y-95448380D01*
X65817857Y-95400761D01*
X65865476Y-95353142D01*
X65913095Y-95257904D01*
X65913095Y-95162666D01*
X65865476Y-95067428D01*
X65817857Y-95019809D01*
X65722619Y-94972190D01*
X65532142Y-94924571D01*
X65436904Y-94876952D01*
X65389285Y-94829333D01*
X65341666Y-94734095D01*
X65341666Y-94638857D01*
X65389285Y-94543619D01*
X65436904Y-94496000D01*
X65532142Y-94448380D01*
X65770238Y-94448380D01*
X65913095Y-94496000D01*
X66246428Y-94448380D02*
X66484523Y-95448380D01*
X66675000Y-94734095D01*
X66865476Y-95448380D01*
X67103571Y-94448380D01*
X67960714Y-94448380D02*
X67484523Y-94448380D01*
X67436904Y-94924571D01*
X67484523Y-94876952D01*
X67579761Y-94829333D01*
X67817857Y-94829333D01*
X67913095Y-94876952D01*
X67960714Y-94924571D01*
X68008333Y-95019809D01*
X68008333Y-95257904D01*
X67960714Y-95353142D01*
X67913095Y-95400761D01*
X67817857Y-95448380D01*
X67579761Y-95448380D01*
X67484523Y-95400761D01*
X67436904Y-95353142D01*
G04 #@! TO.C,SW6*
X55816666Y-116990761D02*
X55959523Y-117038380D01*
X56197619Y-117038380D01*
X56292857Y-116990761D01*
X56340476Y-116943142D01*
X56388095Y-116847904D01*
X56388095Y-116752666D01*
X56340476Y-116657428D01*
X56292857Y-116609809D01*
X56197619Y-116562190D01*
X56007142Y-116514571D01*
X55911904Y-116466952D01*
X55864285Y-116419333D01*
X55816666Y-116324095D01*
X55816666Y-116228857D01*
X55864285Y-116133619D01*
X55911904Y-116086000D01*
X56007142Y-116038380D01*
X56245238Y-116038380D01*
X56388095Y-116086000D01*
X56721428Y-116038380D02*
X56959523Y-117038380D01*
X57150000Y-116324095D01*
X57340476Y-117038380D01*
X57578571Y-116038380D01*
X58388095Y-116038380D02*
X58197619Y-116038380D01*
X58102380Y-116086000D01*
X58054761Y-116133619D01*
X57959523Y-116276476D01*
X57911904Y-116466952D01*
X57911904Y-116847904D01*
X57959523Y-116943142D01*
X58007142Y-116990761D01*
X58102380Y-117038380D01*
X58292857Y-117038380D01*
X58388095Y-116990761D01*
X58435714Y-116943142D01*
X58483333Y-116847904D01*
X58483333Y-116609809D01*
X58435714Y-116514571D01*
X58388095Y-116466952D01*
X58292857Y-116419333D01*
X58102380Y-116419333D01*
X58007142Y-116466952D01*
X57959523Y-116514571D01*
X57911904Y-116609809D01*
G04 #@! TO.C,SW7*
X55816666Y-136040761D02*
X55959523Y-136088380D01*
X56197619Y-136088380D01*
X56292857Y-136040761D01*
X56340476Y-135993142D01*
X56388095Y-135897904D01*
X56388095Y-135802666D01*
X56340476Y-135707428D01*
X56292857Y-135659809D01*
X56197619Y-135612190D01*
X56007142Y-135564571D01*
X55911904Y-135516952D01*
X55864285Y-135469333D01*
X55816666Y-135374095D01*
X55816666Y-135278857D01*
X55864285Y-135183619D01*
X55911904Y-135136000D01*
X56007142Y-135088380D01*
X56245238Y-135088380D01*
X56388095Y-135136000D01*
X56721428Y-135088380D02*
X56959523Y-136088380D01*
X57150000Y-135374095D01*
X57340476Y-136088380D01*
X57578571Y-135088380D01*
X57864285Y-135088380D02*
X58530952Y-135088380D01*
X58102380Y-136088380D01*
G04 #@! TO.C,SW8*
X55816666Y-155090761D02*
X55959523Y-155138380D01*
X56197619Y-155138380D01*
X56292857Y-155090761D01*
X56340476Y-155043142D01*
X56388095Y-154947904D01*
X56388095Y-154852666D01*
X56340476Y-154757428D01*
X56292857Y-154709809D01*
X56197619Y-154662190D01*
X56007142Y-154614571D01*
X55911904Y-154566952D01*
X55864285Y-154519333D01*
X55816666Y-154424095D01*
X55816666Y-154328857D01*
X55864285Y-154233619D01*
X55911904Y-154186000D01*
X56007142Y-154138380D01*
X56245238Y-154138380D01*
X56388095Y-154186000D01*
X56721428Y-154138380D02*
X56959523Y-155138380D01*
X57150000Y-154424095D01*
X57340476Y-155138380D01*
X57578571Y-154138380D01*
X58102380Y-154566952D02*
X58007142Y-154519333D01*
X57959523Y-154471714D01*
X57911904Y-154376476D01*
X57911904Y-154328857D01*
X57959523Y-154233619D01*
X58007142Y-154186000D01*
X58102380Y-154138380D01*
X58292857Y-154138380D01*
X58388095Y-154186000D01*
X58435714Y-154233619D01*
X58483333Y-154328857D01*
X58483333Y-154376476D01*
X58435714Y-154471714D01*
X58388095Y-154519333D01*
X58292857Y-154566952D01*
X58102380Y-154566952D01*
X58007142Y-154614571D01*
X57959523Y-154662190D01*
X57911904Y-154757428D01*
X57911904Y-154947904D01*
X57959523Y-155043142D01*
X58007142Y-155090761D01*
X58102380Y-155138380D01*
X58292857Y-155138380D01*
X58388095Y-155090761D01*
X58435714Y-155043142D01*
X58483333Y-154947904D01*
X58483333Y-154757428D01*
X58435714Y-154662190D01*
X58388095Y-154614571D01*
X58292857Y-154566952D01*
G04 #@! TO.C,SW9*
X55816666Y-174140761D02*
X55959523Y-174188380D01*
X56197619Y-174188380D01*
X56292857Y-174140761D01*
X56340476Y-174093142D01*
X56388095Y-173997904D01*
X56388095Y-173902666D01*
X56340476Y-173807428D01*
X56292857Y-173759809D01*
X56197619Y-173712190D01*
X56007142Y-173664571D01*
X55911904Y-173616952D01*
X55864285Y-173569333D01*
X55816666Y-173474095D01*
X55816666Y-173378857D01*
X55864285Y-173283619D01*
X55911904Y-173236000D01*
X56007142Y-173188380D01*
X56245238Y-173188380D01*
X56388095Y-173236000D01*
X56721428Y-173188380D02*
X56959523Y-174188380D01*
X57150000Y-173474095D01*
X57340476Y-174188380D01*
X57578571Y-173188380D01*
X58007142Y-174188380D02*
X58197619Y-174188380D01*
X58292857Y-174140761D01*
X58340476Y-174093142D01*
X58435714Y-173950285D01*
X58483333Y-173759809D01*
X58483333Y-173378857D01*
X58435714Y-173283619D01*
X58388095Y-173236000D01*
X58292857Y-173188380D01*
X58102380Y-173188380D01*
X58007142Y-173236000D01*
X57959523Y-173283619D01*
X57911904Y-173378857D01*
X57911904Y-173616952D01*
X57959523Y-173712190D01*
X58007142Y-173759809D01*
X58102380Y-173807428D01*
X58292857Y-173807428D01*
X58388095Y-173759809D01*
X58435714Y-173712190D01*
X58483333Y-173616952D01*
G04 #@! TO.C,SW10*
X74390476Y-57300761D02*
X74533333Y-57348380D01*
X74771428Y-57348380D01*
X74866666Y-57300761D01*
X74914285Y-57253142D01*
X74961904Y-57157904D01*
X74961904Y-57062666D01*
X74914285Y-56967428D01*
X74866666Y-56919809D01*
X74771428Y-56872190D01*
X74580952Y-56824571D01*
X74485714Y-56776952D01*
X74438095Y-56729333D01*
X74390476Y-56634095D01*
X74390476Y-56538857D01*
X74438095Y-56443619D01*
X74485714Y-56396000D01*
X74580952Y-56348380D01*
X74819047Y-56348380D01*
X74961904Y-56396000D01*
X75295238Y-56348380D02*
X75533333Y-57348380D01*
X75723809Y-56634095D01*
X75914285Y-57348380D01*
X76152380Y-56348380D01*
X77057142Y-57348380D02*
X76485714Y-57348380D01*
X76771428Y-57348380D02*
X76771428Y-56348380D01*
X76676190Y-56491238D01*
X76580952Y-56586476D01*
X76485714Y-56634095D01*
X77676190Y-56348380D02*
X77771428Y-56348380D01*
X77866666Y-56396000D01*
X77914285Y-56443619D01*
X77961904Y-56538857D01*
X78009523Y-56729333D01*
X78009523Y-56967428D01*
X77961904Y-57157904D01*
X77914285Y-57253142D01*
X77866666Y-57300761D01*
X77771428Y-57348380D01*
X77676190Y-57348380D01*
X77580952Y-57300761D01*
X77533333Y-57253142D01*
X77485714Y-57157904D01*
X77438095Y-56967428D01*
X77438095Y-56729333D01*
X77485714Y-56538857D01*
X77533333Y-56443619D01*
X77580952Y-56396000D01*
X77676190Y-56348380D01*
G04 #@! TO.C,SW11*
X74390476Y-76350761D02*
X74533333Y-76398380D01*
X74771428Y-76398380D01*
X74866666Y-76350761D01*
X74914285Y-76303142D01*
X74961904Y-76207904D01*
X74961904Y-76112666D01*
X74914285Y-76017428D01*
X74866666Y-75969809D01*
X74771428Y-75922190D01*
X74580952Y-75874571D01*
X74485714Y-75826952D01*
X74438095Y-75779333D01*
X74390476Y-75684095D01*
X74390476Y-75588857D01*
X74438095Y-75493619D01*
X74485714Y-75446000D01*
X74580952Y-75398380D01*
X74819047Y-75398380D01*
X74961904Y-75446000D01*
X75295238Y-75398380D02*
X75533333Y-76398380D01*
X75723809Y-75684095D01*
X75914285Y-76398380D01*
X76152380Y-75398380D01*
X77057142Y-76398380D02*
X76485714Y-76398380D01*
X76771428Y-76398380D02*
X76771428Y-75398380D01*
X76676190Y-75541238D01*
X76580952Y-75636476D01*
X76485714Y-75684095D01*
X78009523Y-76398380D02*
X77438095Y-76398380D01*
X77723809Y-76398380D02*
X77723809Y-75398380D01*
X77628571Y-75541238D01*
X77533333Y-75636476D01*
X77438095Y-75684095D01*
G04 #@! TO.C,SW12*
X80740476Y-116990761D02*
X80883333Y-117038380D01*
X81121428Y-117038380D01*
X81216666Y-116990761D01*
X81264285Y-116943142D01*
X81311904Y-116847904D01*
X81311904Y-116752666D01*
X81264285Y-116657428D01*
X81216666Y-116609809D01*
X81121428Y-116562190D01*
X80930952Y-116514571D01*
X80835714Y-116466952D01*
X80788095Y-116419333D01*
X80740476Y-116324095D01*
X80740476Y-116228857D01*
X80788095Y-116133619D01*
X80835714Y-116086000D01*
X80930952Y-116038380D01*
X81169047Y-116038380D01*
X81311904Y-116086000D01*
X81645238Y-116038380D02*
X81883333Y-117038380D01*
X82073809Y-116324095D01*
X82264285Y-117038380D01*
X82502380Y-116038380D01*
X83407142Y-117038380D02*
X82835714Y-117038380D01*
X83121428Y-117038380D02*
X83121428Y-116038380D01*
X83026190Y-116181238D01*
X82930952Y-116276476D01*
X82835714Y-116324095D01*
X83788095Y-116133619D02*
X83835714Y-116086000D01*
X83930952Y-116038380D01*
X84169047Y-116038380D01*
X84264285Y-116086000D01*
X84311904Y-116133619D01*
X84359523Y-116228857D01*
X84359523Y-116324095D01*
X84311904Y-116466952D01*
X83740476Y-117038380D01*
X84359523Y-117038380D01*
G04 #@! TO.C,SW13*
X80740476Y-136040761D02*
X80883333Y-136088380D01*
X81121428Y-136088380D01*
X81216666Y-136040761D01*
X81264285Y-135993142D01*
X81311904Y-135897904D01*
X81311904Y-135802666D01*
X81264285Y-135707428D01*
X81216666Y-135659809D01*
X81121428Y-135612190D01*
X80930952Y-135564571D01*
X80835714Y-135516952D01*
X80788095Y-135469333D01*
X80740476Y-135374095D01*
X80740476Y-135278857D01*
X80788095Y-135183619D01*
X80835714Y-135136000D01*
X80930952Y-135088380D01*
X81169047Y-135088380D01*
X81311904Y-135136000D01*
X81645238Y-135088380D02*
X81883333Y-136088380D01*
X82073809Y-135374095D01*
X82264285Y-136088380D01*
X82502380Y-135088380D01*
X83407142Y-136088380D02*
X82835714Y-136088380D01*
X83121428Y-136088380D02*
X83121428Y-135088380D01*
X83026190Y-135231238D01*
X82930952Y-135326476D01*
X82835714Y-135374095D01*
X83740476Y-135088380D02*
X84359523Y-135088380D01*
X84026190Y-135469333D01*
X84169047Y-135469333D01*
X84264285Y-135516952D01*
X84311904Y-135564571D01*
X84359523Y-135659809D01*
X84359523Y-135897904D01*
X84311904Y-135993142D01*
X84264285Y-136040761D01*
X84169047Y-136088380D01*
X83883333Y-136088380D01*
X83788095Y-136040761D01*
X83740476Y-135993142D01*
G04 #@! TO.C,SW14*
X80740476Y-155090761D02*
X80883333Y-155138380D01*
X81121428Y-155138380D01*
X81216666Y-155090761D01*
X81264285Y-155043142D01*
X81311904Y-154947904D01*
X81311904Y-154852666D01*
X81264285Y-154757428D01*
X81216666Y-154709809D01*
X81121428Y-154662190D01*
X80930952Y-154614571D01*
X80835714Y-154566952D01*
X80788095Y-154519333D01*
X80740476Y-154424095D01*
X80740476Y-154328857D01*
X80788095Y-154233619D01*
X80835714Y-154186000D01*
X80930952Y-154138380D01*
X81169047Y-154138380D01*
X81311904Y-154186000D01*
X81645238Y-154138380D02*
X81883333Y-155138380D01*
X82073809Y-154424095D01*
X82264285Y-155138380D01*
X82502380Y-154138380D01*
X83407142Y-155138380D02*
X82835714Y-155138380D01*
X83121428Y-155138380D02*
X83121428Y-154138380D01*
X83026190Y-154281238D01*
X82930952Y-154376476D01*
X82835714Y-154424095D01*
X84264285Y-154471714D02*
X84264285Y-155138380D01*
X84026190Y-154090761D02*
X83788095Y-154805047D01*
X84407142Y-154805047D01*
G04 #@! TO.C,SW15*
X80740476Y-174140761D02*
X80883333Y-174188380D01*
X81121428Y-174188380D01*
X81216666Y-174140761D01*
X81264285Y-174093142D01*
X81311904Y-173997904D01*
X81311904Y-173902666D01*
X81264285Y-173807428D01*
X81216666Y-173759809D01*
X81121428Y-173712190D01*
X80930952Y-173664571D01*
X80835714Y-173616952D01*
X80788095Y-173569333D01*
X80740476Y-173474095D01*
X80740476Y-173378857D01*
X80788095Y-173283619D01*
X80835714Y-173236000D01*
X80930952Y-173188380D01*
X81169047Y-173188380D01*
X81311904Y-173236000D01*
X81645238Y-173188380D02*
X81883333Y-174188380D01*
X82073809Y-173474095D01*
X82264285Y-174188380D01*
X82502380Y-173188380D01*
X83407142Y-174188380D02*
X82835714Y-174188380D01*
X83121428Y-174188380D02*
X83121428Y-173188380D01*
X83026190Y-173331238D01*
X82930952Y-173426476D01*
X82835714Y-173474095D01*
X84311904Y-173188380D02*
X83835714Y-173188380D01*
X83788095Y-173664571D01*
X83835714Y-173616952D01*
X83930952Y-173569333D01*
X84169047Y-173569333D01*
X84264285Y-173616952D01*
X84311904Y-173664571D01*
X84359523Y-173759809D01*
X84359523Y-173997904D01*
X84311904Y-174093142D01*
X84264285Y-174140761D01*
X84169047Y-174188380D01*
X83930952Y-174188380D01*
X83835714Y-174140761D01*
X83788095Y-174093142D01*
G04 #@! TO.C,SW16*
X93440476Y-57300761D02*
X93583333Y-57348380D01*
X93821428Y-57348380D01*
X93916666Y-57300761D01*
X93964285Y-57253142D01*
X94011904Y-57157904D01*
X94011904Y-57062666D01*
X93964285Y-56967428D01*
X93916666Y-56919809D01*
X93821428Y-56872190D01*
X93630952Y-56824571D01*
X93535714Y-56776952D01*
X93488095Y-56729333D01*
X93440476Y-56634095D01*
X93440476Y-56538857D01*
X93488095Y-56443619D01*
X93535714Y-56396000D01*
X93630952Y-56348380D01*
X93869047Y-56348380D01*
X94011904Y-56396000D01*
X94345238Y-56348380D02*
X94583333Y-57348380D01*
X94773809Y-56634095D01*
X94964285Y-57348380D01*
X95202380Y-56348380D01*
X96107142Y-57348380D02*
X95535714Y-57348380D01*
X95821428Y-57348380D02*
X95821428Y-56348380D01*
X95726190Y-56491238D01*
X95630952Y-56586476D01*
X95535714Y-56634095D01*
X96964285Y-56348380D02*
X96773809Y-56348380D01*
X96678571Y-56396000D01*
X96630952Y-56443619D01*
X96535714Y-56586476D01*
X96488095Y-56776952D01*
X96488095Y-57157904D01*
X96535714Y-57253142D01*
X96583333Y-57300761D01*
X96678571Y-57348380D01*
X96869047Y-57348380D01*
X96964285Y-57300761D01*
X97011904Y-57253142D01*
X97059523Y-57157904D01*
X97059523Y-56919809D01*
X97011904Y-56824571D01*
X96964285Y-56776952D01*
X96869047Y-56729333D01*
X96678571Y-56729333D01*
X96583333Y-56776952D01*
X96535714Y-56824571D01*
X96488095Y-56919809D01*
G04 #@! TO.C,SW17*
X93440476Y-76350761D02*
X93583333Y-76398380D01*
X93821428Y-76398380D01*
X93916666Y-76350761D01*
X93964285Y-76303142D01*
X94011904Y-76207904D01*
X94011904Y-76112666D01*
X93964285Y-76017428D01*
X93916666Y-75969809D01*
X93821428Y-75922190D01*
X93630952Y-75874571D01*
X93535714Y-75826952D01*
X93488095Y-75779333D01*
X93440476Y-75684095D01*
X93440476Y-75588857D01*
X93488095Y-75493619D01*
X93535714Y-75446000D01*
X93630952Y-75398380D01*
X93869047Y-75398380D01*
X94011904Y-75446000D01*
X94345238Y-75398380D02*
X94583333Y-76398380D01*
X94773809Y-75684095D01*
X94964285Y-76398380D01*
X95202380Y-75398380D01*
X96107142Y-76398380D02*
X95535714Y-76398380D01*
X95821428Y-76398380D02*
X95821428Y-75398380D01*
X95726190Y-75541238D01*
X95630952Y-75636476D01*
X95535714Y-75684095D01*
X96440476Y-75398380D02*
X97107142Y-75398380D01*
X96678571Y-76398380D01*
G04 #@! TO.C,SW18*
X93440476Y-95400761D02*
X93583333Y-95448380D01*
X93821428Y-95448380D01*
X93916666Y-95400761D01*
X93964285Y-95353142D01*
X94011904Y-95257904D01*
X94011904Y-95162666D01*
X93964285Y-95067428D01*
X93916666Y-95019809D01*
X93821428Y-94972190D01*
X93630952Y-94924571D01*
X93535714Y-94876952D01*
X93488095Y-94829333D01*
X93440476Y-94734095D01*
X93440476Y-94638857D01*
X93488095Y-94543619D01*
X93535714Y-94496000D01*
X93630952Y-94448380D01*
X93869047Y-94448380D01*
X94011904Y-94496000D01*
X94345238Y-94448380D02*
X94583333Y-95448380D01*
X94773809Y-94734095D01*
X94964285Y-95448380D01*
X95202380Y-94448380D01*
X96107142Y-95448380D02*
X95535714Y-95448380D01*
X95821428Y-95448380D02*
X95821428Y-94448380D01*
X95726190Y-94591238D01*
X95630952Y-94686476D01*
X95535714Y-94734095D01*
X96678571Y-94876952D02*
X96583333Y-94829333D01*
X96535714Y-94781714D01*
X96488095Y-94686476D01*
X96488095Y-94638857D01*
X96535714Y-94543619D01*
X96583333Y-94496000D01*
X96678571Y-94448380D01*
X96869047Y-94448380D01*
X96964285Y-94496000D01*
X97011904Y-94543619D01*
X97059523Y-94638857D01*
X97059523Y-94686476D01*
X97011904Y-94781714D01*
X96964285Y-94829333D01*
X96869047Y-94876952D01*
X96678571Y-94876952D01*
X96583333Y-94924571D01*
X96535714Y-94972190D01*
X96488095Y-95067428D01*
X96488095Y-95257904D01*
X96535714Y-95353142D01*
X96583333Y-95400761D01*
X96678571Y-95448380D01*
X96869047Y-95448380D01*
X96964285Y-95400761D01*
X97011904Y-95353142D01*
X97059523Y-95257904D01*
X97059523Y-95067428D01*
X97011904Y-94972190D01*
X96964285Y-94924571D01*
X96869047Y-94876952D01*
G04 #@! TO.C,SW19*
X106140476Y-116990761D02*
X106283333Y-117038380D01*
X106521428Y-117038380D01*
X106616666Y-116990761D01*
X106664285Y-116943142D01*
X106711904Y-116847904D01*
X106711904Y-116752666D01*
X106664285Y-116657428D01*
X106616666Y-116609809D01*
X106521428Y-116562190D01*
X106330952Y-116514571D01*
X106235714Y-116466952D01*
X106188095Y-116419333D01*
X106140476Y-116324095D01*
X106140476Y-116228857D01*
X106188095Y-116133619D01*
X106235714Y-116086000D01*
X106330952Y-116038380D01*
X106569047Y-116038380D01*
X106711904Y-116086000D01*
X107045238Y-116038380D02*
X107283333Y-117038380D01*
X107473809Y-116324095D01*
X107664285Y-117038380D01*
X107902380Y-116038380D01*
X108807142Y-117038380D02*
X108235714Y-117038380D01*
X108521428Y-117038380D02*
X108521428Y-116038380D01*
X108426190Y-116181238D01*
X108330952Y-116276476D01*
X108235714Y-116324095D01*
X109283333Y-117038380D02*
X109473809Y-117038380D01*
X109569047Y-116990761D01*
X109616666Y-116943142D01*
X109711904Y-116800285D01*
X109759523Y-116609809D01*
X109759523Y-116228857D01*
X109711904Y-116133619D01*
X109664285Y-116086000D01*
X109569047Y-116038380D01*
X109378571Y-116038380D01*
X109283333Y-116086000D01*
X109235714Y-116133619D01*
X109188095Y-116228857D01*
X109188095Y-116466952D01*
X109235714Y-116562190D01*
X109283333Y-116609809D01*
X109378571Y-116657428D01*
X109569047Y-116657428D01*
X109664285Y-116609809D01*
X109711904Y-116562190D01*
X109759523Y-116466952D01*
G04 #@! TO.C,SW20*
X106140476Y-136040761D02*
X106283333Y-136088380D01*
X106521428Y-136088380D01*
X106616666Y-136040761D01*
X106664285Y-135993142D01*
X106711904Y-135897904D01*
X106711904Y-135802666D01*
X106664285Y-135707428D01*
X106616666Y-135659809D01*
X106521428Y-135612190D01*
X106330952Y-135564571D01*
X106235714Y-135516952D01*
X106188095Y-135469333D01*
X106140476Y-135374095D01*
X106140476Y-135278857D01*
X106188095Y-135183619D01*
X106235714Y-135136000D01*
X106330952Y-135088380D01*
X106569047Y-135088380D01*
X106711904Y-135136000D01*
X107045238Y-135088380D02*
X107283333Y-136088380D01*
X107473809Y-135374095D01*
X107664285Y-136088380D01*
X107902380Y-135088380D01*
X108235714Y-135183619D02*
X108283333Y-135136000D01*
X108378571Y-135088380D01*
X108616666Y-135088380D01*
X108711904Y-135136000D01*
X108759523Y-135183619D01*
X108807142Y-135278857D01*
X108807142Y-135374095D01*
X108759523Y-135516952D01*
X108188095Y-136088380D01*
X108807142Y-136088380D01*
X109426190Y-135088380D02*
X109521428Y-135088380D01*
X109616666Y-135136000D01*
X109664285Y-135183619D01*
X109711904Y-135278857D01*
X109759523Y-135469333D01*
X109759523Y-135707428D01*
X109711904Y-135897904D01*
X109664285Y-135993142D01*
X109616666Y-136040761D01*
X109521428Y-136088380D01*
X109426190Y-136088380D01*
X109330952Y-136040761D01*
X109283333Y-135993142D01*
X109235714Y-135897904D01*
X109188095Y-135707428D01*
X109188095Y-135469333D01*
X109235714Y-135278857D01*
X109283333Y-135183619D01*
X109330952Y-135136000D01*
X109426190Y-135088380D01*
G04 #@! TO.C,SW21*
X106140476Y-155090761D02*
X106283333Y-155138380D01*
X106521428Y-155138380D01*
X106616666Y-155090761D01*
X106664285Y-155043142D01*
X106711904Y-154947904D01*
X106711904Y-154852666D01*
X106664285Y-154757428D01*
X106616666Y-154709809D01*
X106521428Y-154662190D01*
X106330952Y-154614571D01*
X106235714Y-154566952D01*
X106188095Y-154519333D01*
X106140476Y-154424095D01*
X106140476Y-154328857D01*
X106188095Y-154233619D01*
X106235714Y-154186000D01*
X106330952Y-154138380D01*
X106569047Y-154138380D01*
X106711904Y-154186000D01*
X107045238Y-154138380D02*
X107283333Y-155138380D01*
X107473809Y-154424095D01*
X107664285Y-155138380D01*
X107902380Y-154138380D01*
X108235714Y-154233619D02*
X108283333Y-154186000D01*
X108378571Y-154138380D01*
X108616666Y-154138380D01*
X108711904Y-154186000D01*
X108759523Y-154233619D01*
X108807142Y-154328857D01*
X108807142Y-154424095D01*
X108759523Y-154566952D01*
X108188095Y-155138380D01*
X108807142Y-155138380D01*
X109759523Y-155138380D02*
X109188095Y-155138380D01*
X109473809Y-155138380D02*
X109473809Y-154138380D01*
X109378571Y-154281238D01*
X109283333Y-154376476D01*
X109188095Y-154424095D01*
G04 #@! TO.C,SW22*
X106140476Y-174140761D02*
X106283333Y-174188380D01*
X106521428Y-174188380D01*
X106616666Y-174140761D01*
X106664285Y-174093142D01*
X106711904Y-173997904D01*
X106711904Y-173902666D01*
X106664285Y-173807428D01*
X106616666Y-173759809D01*
X106521428Y-173712190D01*
X106330952Y-173664571D01*
X106235714Y-173616952D01*
X106188095Y-173569333D01*
X106140476Y-173474095D01*
X106140476Y-173378857D01*
X106188095Y-173283619D01*
X106235714Y-173236000D01*
X106330952Y-173188380D01*
X106569047Y-173188380D01*
X106711904Y-173236000D01*
X107045238Y-173188380D02*
X107283333Y-174188380D01*
X107473809Y-173474095D01*
X107664285Y-174188380D01*
X107902380Y-173188380D01*
X108235714Y-173283619D02*
X108283333Y-173236000D01*
X108378571Y-173188380D01*
X108616666Y-173188380D01*
X108711904Y-173236000D01*
X108759523Y-173283619D01*
X108807142Y-173378857D01*
X108807142Y-173474095D01*
X108759523Y-173616952D01*
X108188095Y-174188380D01*
X108807142Y-174188380D01*
X109188095Y-173283619D02*
X109235714Y-173236000D01*
X109330952Y-173188380D01*
X109569047Y-173188380D01*
X109664285Y-173236000D01*
X109711904Y-173283619D01*
X109759523Y-173378857D01*
X109759523Y-173474095D01*
X109711904Y-173616952D01*
X109140476Y-174188380D01*
X109759523Y-174188380D01*
G04 #@! TO.C,SW23*
X112490476Y-57300761D02*
X112633333Y-57348380D01*
X112871428Y-57348380D01*
X112966666Y-57300761D01*
X113014285Y-57253142D01*
X113061904Y-57157904D01*
X113061904Y-57062666D01*
X113014285Y-56967428D01*
X112966666Y-56919809D01*
X112871428Y-56872190D01*
X112680952Y-56824571D01*
X112585714Y-56776952D01*
X112538095Y-56729333D01*
X112490476Y-56634095D01*
X112490476Y-56538857D01*
X112538095Y-56443619D01*
X112585714Y-56396000D01*
X112680952Y-56348380D01*
X112919047Y-56348380D01*
X113061904Y-56396000D01*
X113395238Y-56348380D02*
X113633333Y-57348380D01*
X113823809Y-56634095D01*
X114014285Y-57348380D01*
X114252380Y-56348380D01*
X114585714Y-56443619D02*
X114633333Y-56396000D01*
X114728571Y-56348380D01*
X114966666Y-56348380D01*
X115061904Y-56396000D01*
X115109523Y-56443619D01*
X115157142Y-56538857D01*
X115157142Y-56634095D01*
X115109523Y-56776952D01*
X114538095Y-57348380D01*
X115157142Y-57348380D01*
X115490476Y-56348380D02*
X116109523Y-56348380D01*
X115776190Y-56729333D01*
X115919047Y-56729333D01*
X116014285Y-56776952D01*
X116061904Y-56824571D01*
X116109523Y-56919809D01*
X116109523Y-57157904D01*
X116061904Y-57253142D01*
X116014285Y-57300761D01*
X115919047Y-57348380D01*
X115633333Y-57348380D01*
X115538095Y-57300761D01*
X115490476Y-57253142D01*
G04 #@! TO.C,SW24*
X112490476Y-76350761D02*
X112633333Y-76398380D01*
X112871428Y-76398380D01*
X112966666Y-76350761D01*
X113014285Y-76303142D01*
X113061904Y-76207904D01*
X113061904Y-76112666D01*
X113014285Y-76017428D01*
X112966666Y-75969809D01*
X112871428Y-75922190D01*
X112680952Y-75874571D01*
X112585714Y-75826952D01*
X112538095Y-75779333D01*
X112490476Y-75684095D01*
X112490476Y-75588857D01*
X112538095Y-75493619D01*
X112585714Y-75446000D01*
X112680952Y-75398380D01*
X112919047Y-75398380D01*
X113061904Y-75446000D01*
X113395238Y-75398380D02*
X113633333Y-76398380D01*
X113823809Y-75684095D01*
X114014285Y-76398380D01*
X114252380Y-75398380D01*
X114585714Y-75493619D02*
X114633333Y-75446000D01*
X114728571Y-75398380D01*
X114966666Y-75398380D01*
X115061904Y-75446000D01*
X115109523Y-75493619D01*
X115157142Y-75588857D01*
X115157142Y-75684095D01*
X115109523Y-75826952D01*
X114538095Y-76398380D01*
X115157142Y-76398380D01*
X116014285Y-75731714D02*
X116014285Y-76398380D01*
X115776190Y-75350761D02*
X115538095Y-76065047D01*
X116157142Y-76065047D01*
G04 #@! TO.C,SW25*
X112490476Y-95400761D02*
X112633333Y-95448380D01*
X112871428Y-95448380D01*
X112966666Y-95400761D01*
X113014285Y-95353142D01*
X113061904Y-95257904D01*
X113061904Y-95162666D01*
X113014285Y-95067428D01*
X112966666Y-95019809D01*
X112871428Y-94972190D01*
X112680952Y-94924571D01*
X112585714Y-94876952D01*
X112538095Y-94829333D01*
X112490476Y-94734095D01*
X112490476Y-94638857D01*
X112538095Y-94543619D01*
X112585714Y-94496000D01*
X112680952Y-94448380D01*
X112919047Y-94448380D01*
X113061904Y-94496000D01*
X113395238Y-94448380D02*
X113633333Y-95448380D01*
X113823809Y-94734095D01*
X114014285Y-95448380D01*
X114252380Y-94448380D01*
X114585714Y-94543619D02*
X114633333Y-94496000D01*
X114728571Y-94448380D01*
X114966666Y-94448380D01*
X115061904Y-94496000D01*
X115109523Y-94543619D01*
X115157142Y-94638857D01*
X115157142Y-94734095D01*
X115109523Y-94876952D01*
X114538095Y-95448380D01*
X115157142Y-95448380D01*
X116061904Y-94448380D02*
X115585714Y-94448380D01*
X115538095Y-94924571D01*
X115585714Y-94876952D01*
X115680952Y-94829333D01*
X115919047Y-94829333D01*
X116014285Y-94876952D01*
X116061904Y-94924571D01*
X116109523Y-95019809D01*
X116109523Y-95257904D01*
X116061904Y-95353142D01*
X116014285Y-95400761D01*
X115919047Y-95448380D01*
X115680952Y-95448380D01*
X115585714Y-95400761D01*
X115538095Y-95353142D01*
G04 #@! TO.C,SW26*
X131540476Y-116990761D02*
X131683333Y-117038380D01*
X131921428Y-117038380D01*
X132016666Y-116990761D01*
X132064285Y-116943142D01*
X132111904Y-116847904D01*
X132111904Y-116752666D01*
X132064285Y-116657428D01*
X132016666Y-116609809D01*
X131921428Y-116562190D01*
X131730952Y-116514571D01*
X131635714Y-116466952D01*
X131588095Y-116419333D01*
X131540476Y-116324095D01*
X131540476Y-116228857D01*
X131588095Y-116133619D01*
X131635714Y-116086000D01*
X131730952Y-116038380D01*
X131969047Y-116038380D01*
X132111904Y-116086000D01*
X132445238Y-116038380D02*
X132683333Y-117038380D01*
X132873809Y-116324095D01*
X133064285Y-117038380D01*
X133302380Y-116038380D01*
X133635714Y-116133619D02*
X133683333Y-116086000D01*
X133778571Y-116038380D01*
X134016666Y-116038380D01*
X134111904Y-116086000D01*
X134159523Y-116133619D01*
X134207142Y-116228857D01*
X134207142Y-116324095D01*
X134159523Y-116466952D01*
X133588095Y-117038380D01*
X134207142Y-117038380D01*
X135064285Y-116038380D02*
X134873809Y-116038380D01*
X134778571Y-116086000D01*
X134730952Y-116133619D01*
X134635714Y-116276476D01*
X134588095Y-116466952D01*
X134588095Y-116847904D01*
X134635714Y-116943142D01*
X134683333Y-116990761D01*
X134778571Y-117038380D01*
X134969047Y-117038380D01*
X135064285Y-116990761D01*
X135111904Y-116943142D01*
X135159523Y-116847904D01*
X135159523Y-116609809D01*
X135111904Y-116514571D01*
X135064285Y-116466952D01*
X134969047Y-116419333D01*
X134778571Y-116419333D01*
X134683333Y-116466952D01*
X134635714Y-116514571D01*
X134588095Y-116609809D01*
G04 #@! TO.C,SW27*
X131540476Y-136040761D02*
X131683333Y-136088380D01*
X131921428Y-136088380D01*
X132016666Y-136040761D01*
X132064285Y-135993142D01*
X132111904Y-135897904D01*
X132111904Y-135802666D01*
X132064285Y-135707428D01*
X132016666Y-135659809D01*
X131921428Y-135612190D01*
X131730952Y-135564571D01*
X131635714Y-135516952D01*
X131588095Y-135469333D01*
X131540476Y-135374095D01*
X131540476Y-135278857D01*
X131588095Y-135183619D01*
X131635714Y-135136000D01*
X131730952Y-135088380D01*
X131969047Y-135088380D01*
X132111904Y-135136000D01*
X132445238Y-135088380D02*
X132683333Y-136088380D01*
X132873809Y-135374095D01*
X133064285Y-136088380D01*
X133302380Y-135088380D01*
X133635714Y-135183619D02*
X133683333Y-135136000D01*
X133778571Y-135088380D01*
X134016666Y-135088380D01*
X134111904Y-135136000D01*
X134159523Y-135183619D01*
X134207142Y-135278857D01*
X134207142Y-135374095D01*
X134159523Y-135516952D01*
X133588095Y-136088380D01*
X134207142Y-136088380D01*
X134540476Y-135088380D02*
X135207142Y-135088380D01*
X134778571Y-136088380D01*
G04 #@! TO.C,SW28*
X131540476Y-155090761D02*
X131683333Y-155138380D01*
X131921428Y-155138380D01*
X132016666Y-155090761D01*
X132064285Y-155043142D01*
X132111904Y-154947904D01*
X132111904Y-154852666D01*
X132064285Y-154757428D01*
X132016666Y-154709809D01*
X131921428Y-154662190D01*
X131730952Y-154614571D01*
X131635714Y-154566952D01*
X131588095Y-154519333D01*
X131540476Y-154424095D01*
X131540476Y-154328857D01*
X131588095Y-154233619D01*
X131635714Y-154186000D01*
X131730952Y-154138380D01*
X131969047Y-154138380D01*
X132111904Y-154186000D01*
X132445238Y-154138380D02*
X132683333Y-155138380D01*
X132873809Y-154424095D01*
X133064285Y-155138380D01*
X133302380Y-154138380D01*
X133635714Y-154233619D02*
X133683333Y-154186000D01*
X133778571Y-154138380D01*
X134016666Y-154138380D01*
X134111904Y-154186000D01*
X134159523Y-154233619D01*
X134207142Y-154328857D01*
X134207142Y-154424095D01*
X134159523Y-154566952D01*
X133588095Y-155138380D01*
X134207142Y-155138380D01*
X134778571Y-154566952D02*
X134683333Y-154519333D01*
X134635714Y-154471714D01*
X134588095Y-154376476D01*
X134588095Y-154328857D01*
X134635714Y-154233619D01*
X134683333Y-154186000D01*
X134778571Y-154138380D01*
X134969047Y-154138380D01*
X135064285Y-154186000D01*
X135111904Y-154233619D01*
X135159523Y-154328857D01*
X135159523Y-154376476D01*
X135111904Y-154471714D01*
X135064285Y-154519333D01*
X134969047Y-154566952D01*
X134778571Y-154566952D01*
X134683333Y-154614571D01*
X134635714Y-154662190D01*
X134588095Y-154757428D01*
X134588095Y-154947904D01*
X134635714Y-155043142D01*
X134683333Y-155090761D01*
X134778571Y-155138380D01*
X134969047Y-155138380D01*
X135064285Y-155090761D01*
X135111904Y-155043142D01*
X135159523Y-154947904D01*
X135159523Y-154757428D01*
X135111904Y-154662190D01*
X135064285Y-154614571D01*
X134969047Y-154566952D01*
G04 #@! TO.C,SW29*
X131540476Y-174140761D02*
X131683333Y-174188380D01*
X131921428Y-174188380D01*
X132016666Y-174140761D01*
X132064285Y-174093142D01*
X132111904Y-173997904D01*
X132111904Y-173902666D01*
X132064285Y-173807428D01*
X132016666Y-173759809D01*
X131921428Y-173712190D01*
X131730952Y-173664571D01*
X131635714Y-173616952D01*
X131588095Y-173569333D01*
X131540476Y-173474095D01*
X131540476Y-173378857D01*
X131588095Y-173283619D01*
X131635714Y-173236000D01*
X131730952Y-173188380D01*
X131969047Y-173188380D01*
X132111904Y-173236000D01*
X132445238Y-173188380D02*
X132683333Y-174188380D01*
X132873809Y-173474095D01*
X133064285Y-174188380D01*
X133302380Y-173188380D01*
X133635714Y-173283619D02*
X133683333Y-173236000D01*
X133778571Y-173188380D01*
X134016666Y-173188380D01*
X134111904Y-173236000D01*
X134159523Y-173283619D01*
X134207142Y-173378857D01*
X134207142Y-173474095D01*
X134159523Y-173616952D01*
X133588095Y-174188380D01*
X134207142Y-174188380D01*
X134683333Y-174188380D02*
X134873809Y-174188380D01*
X134969047Y-174140761D01*
X135016666Y-174093142D01*
X135111904Y-173950285D01*
X135159523Y-173759809D01*
X135159523Y-173378857D01*
X135111904Y-173283619D01*
X135064285Y-173236000D01*
X134969047Y-173188380D01*
X134778571Y-173188380D01*
X134683333Y-173236000D01*
X134635714Y-173283619D01*
X134588095Y-173378857D01*
X134588095Y-173616952D01*
X134635714Y-173712190D01*
X134683333Y-173759809D01*
X134778571Y-173807428D01*
X134969047Y-173807428D01*
X135064285Y-173759809D01*
X135111904Y-173712190D01*
X135159523Y-173616952D01*
G04 #@! TO.C,SW30*
X131540476Y-57300761D02*
X131683333Y-57348380D01*
X131921428Y-57348380D01*
X132016666Y-57300761D01*
X132064285Y-57253142D01*
X132111904Y-57157904D01*
X132111904Y-57062666D01*
X132064285Y-56967428D01*
X132016666Y-56919809D01*
X131921428Y-56872190D01*
X131730952Y-56824571D01*
X131635714Y-56776952D01*
X131588095Y-56729333D01*
X131540476Y-56634095D01*
X131540476Y-56538857D01*
X131588095Y-56443619D01*
X131635714Y-56396000D01*
X131730952Y-56348380D01*
X131969047Y-56348380D01*
X132111904Y-56396000D01*
X132445238Y-56348380D02*
X132683333Y-57348380D01*
X132873809Y-56634095D01*
X133064285Y-57348380D01*
X133302380Y-56348380D01*
X133588095Y-56348380D02*
X134207142Y-56348380D01*
X133873809Y-56729333D01*
X134016666Y-56729333D01*
X134111904Y-56776952D01*
X134159523Y-56824571D01*
X134207142Y-56919809D01*
X134207142Y-57157904D01*
X134159523Y-57253142D01*
X134111904Y-57300761D01*
X134016666Y-57348380D01*
X133730952Y-57348380D01*
X133635714Y-57300761D01*
X133588095Y-57253142D01*
X134826190Y-56348380D02*
X134921428Y-56348380D01*
X135016666Y-56396000D01*
X135064285Y-56443619D01*
X135111904Y-56538857D01*
X135159523Y-56729333D01*
X135159523Y-56967428D01*
X135111904Y-57157904D01*
X135064285Y-57253142D01*
X135016666Y-57300761D01*
X134921428Y-57348380D01*
X134826190Y-57348380D01*
X134730952Y-57300761D01*
X134683333Y-57253142D01*
X134635714Y-57157904D01*
X134588095Y-56967428D01*
X134588095Y-56729333D01*
X134635714Y-56538857D01*
X134683333Y-56443619D01*
X134730952Y-56396000D01*
X134826190Y-56348380D01*
G04 #@! TO.C,SW31*
X131540476Y-76350761D02*
X131683333Y-76398380D01*
X131921428Y-76398380D01*
X132016666Y-76350761D01*
X132064285Y-76303142D01*
X132111904Y-76207904D01*
X132111904Y-76112666D01*
X132064285Y-76017428D01*
X132016666Y-75969809D01*
X131921428Y-75922190D01*
X131730952Y-75874571D01*
X131635714Y-75826952D01*
X131588095Y-75779333D01*
X131540476Y-75684095D01*
X131540476Y-75588857D01*
X131588095Y-75493619D01*
X131635714Y-75446000D01*
X131730952Y-75398380D01*
X131969047Y-75398380D01*
X132111904Y-75446000D01*
X132445238Y-75398380D02*
X132683333Y-76398380D01*
X132873809Y-75684095D01*
X133064285Y-76398380D01*
X133302380Y-75398380D01*
X133588095Y-75398380D02*
X134207142Y-75398380D01*
X133873809Y-75779333D01*
X134016666Y-75779333D01*
X134111904Y-75826952D01*
X134159523Y-75874571D01*
X134207142Y-75969809D01*
X134207142Y-76207904D01*
X134159523Y-76303142D01*
X134111904Y-76350761D01*
X134016666Y-76398380D01*
X133730952Y-76398380D01*
X133635714Y-76350761D01*
X133588095Y-76303142D01*
X135159523Y-76398380D02*
X134588095Y-76398380D01*
X134873809Y-76398380D02*
X134873809Y-75398380D01*
X134778571Y-75541238D01*
X134683333Y-75636476D01*
X134588095Y-75684095D01*
G04 #@! TO.C,SW32*
X131540476Y-95400761D02*
X131683333Y-95448380D01*
X131921428Y-95448380D01*
X132016666Y-95400761D01*
X132064285Y-95353142D01*
X132111904Y-95257904D01*
X132111904Y-95162666D01*
X132064285Y-95067428D01*
X132016666Y-95019809D01*
X131921428Y-94972190D01*
X131730952Y-94924571D01*
X131635714Y-94876952D01*
X131588095Y-94829333D01*
X131540476Y-94734095D01*
X131540476Y-94638857D01*
X131588095Y-94543619D01*
X131635714Y-94496000D01*
X131730952Y-94448380D01*
X131969047Y-94448380D01*
X132111904Y-94496000D01*
X132445238Y-94448380D02*
X132683333Y-95448380D01*
X132873809Y-94734095D01*
X133064285Y-95448380D01*
X133302380Y-94448380D01*
X133588095Y-94448380D02*
X134207142Y-94448380D01*
X133873809Y-94829333D01*
X134016666Y-94829333D01*
X134111904Y-94876952D01*
X134159523Y-94924571D01*
X134207142Y-95019809D01*
X134207142Y-95257904D01*
X134159523Y-95353142D01*
X134111904Y-95400761D01*
X134016666Y-95448380D01*
X133730952Y-95448380D01*
X133635714Y-95400761D01*
X133588095Y-95353142D01*
X134588095Y-94543619D02*
X134635714Y-94496000D01*
X134730952Y-94448380D01*
X134969047Y-94448380D01*
X135064285Y-94496000D01*
X135111904Y-94543619D01*
X135159523Y-94638857D01*
X135159523Y-94734095D01*
X135111904Y-94876952D01*
X134540476Y-95448380D01*
X135159523Y-95448380D01*
G04 #@! TO.C,U3*
X83482380Y-28701904D02*
X84291904Y-28701904D01*
X84387142Y-28654285D01*
X84434761Y-28606666D01*
X84482380Y-28511428D01*
X84482380Y-28320952D01*
X84434761Y-28225714D01*
X84387142Y-28178095D01*
X84291904Y-28130476D01*
X83482380Y-28130476D01*
X83482380Y-27749523D02*
X83482380Y-27130476D01*
X83863333Y-27463809D01*
X83863333Y-27320952D01*
X83910952Y-27225714D01*
X83958571Y-27178095D01*
X84053809Y-27130476D01*
X84291904Y-27130476D01*
X84387142Y-27178095D01*
X84434761Y-27225714D01*
X84482380Y-27320952D01*
X84482380Y-27606666D01*
X84434761Y-27701904D01*
X84387142Y-27749523D01*
G04 #@! TD*
M02*
