M48
;DRILL file {KiCad 5.0.2-bee76a0~70~ubuntu16.04.1} date Thu 27 Feb 2020 08:32:21 PM EST
;FORMAT={-:-/ absolute / inch / decimal}
FMAT,2
INCH,TZ
T1C0.0100
T2C0.0200
T3C0.0276
T4C0.0315
T5C0.0354
T6C0.0394
T7C0.0433
T8C0.0472
T9C0.0709
T10C0.1260
%
G90
G05
T1
X1.5Y-6.325
X1.525Y-6.4
X1.55Y-3.1
X1.55Y-4.35
X1.55Y-4.35
X1.55Y-6.375
X1.7266Y-5.6984
X1.775Y-4.975
X1.775Y-5.95
X1.875Y-5.975
X1.875Y-6.025
X1.875Y-6.35
X1.925Y-5.625
X1.925Y-6.425
X1.95Y-4.2
X2.025Y-4.85
X2.025Y-5.975
X2.05Y-1.7
X2.05Y-4.925
X2.075Y-3.34
X2.075Y-4.775
X2.075Y-5.075
X2.075Y-6.425
X2.1Y-3.04
X2.1Y-4.875
X2.1Y-4.97
X2.1Y-5.3155
X2.1Y-6.35
X2.125Y-4.675
X2.125Y-5.775
X2.15Y-1.675
X2.15Y-2.15
X2.15Y-2.4
X2.15Y-2.74
X2.15Y-5.275
X2.15Y-5.375
X2.175Y-2.94
X2.175Y-5.175
X2.175Y-6.375
X2.2Y-3.4375
X2.2Y-4.8155
X2.2Y-5.275
X2.225Y-6.025
X2.275Y-6.025
X2.275Y-6.4
X2.325Y-5.7
X2.325Y-5.95
X2.35Y-1.75
X2.35Y-2.6
X2.4Y-6.425
X2.45Y-1.7
X2.47Y-4.26
X2.475Y-5.275
X2.475Y-6.325
X2.4875Y-4.0875
X2.544Y-5.375
X2.625Y-6.025
X2.675Y-2.2
X2.675Y-2.55
X2.675Y-3.5
X2.675Y-3.575
X2.7Y-5.1
X2.725Y-4.525
X2.725Y-4.675
X2.725Y-5.075
X2.725Y-5.275
X2.725Y-6.125
X2.8Y-3.2
X2.8Y-3.5
X2.875Y-3.3
X2.875Y-3.55
X2.875Y-4.975
X2.875Y-5.15
X2.9Y-3.2
X2.9Y-3.425
X2.925Y-3.25
X2.925Y-4.875
X2.9625Y-3.575
X2.9625Y-4.8
X3.Y-5.7
X3.05Y-6.025
X3.075Y-3.4
X3.1Y-3.075
X3.1Y-3.325
X3.125Y-5.05
X3.15Y-2.925
X3.15Y-3.225
X3.175Y-2.725
X3.175Y-3.325
X3.175Y-5.125
X3.2Y-2.85
X3.2Y-3.425
X3.2Y-4.3175
X3.225Y-3.025
X3.225Y-3.125
X3.3Y-4.075
X3.3Y-4.7
X3.3Y-5.775
X3.325Y-3.9875
X3.325Y-5.05
X3.4Y-6.025
X3.425Y-3.625
X3.5Y-2.4215
X3.5Y-2.5
X3.5Y-2.575
X3.525Y-2.125
X3.55Y-4.0125
X3.61Y-4.27
X3.65Y-2.125
X3.65Y-4.9
X3.65Y-5.1
X3.675Y-2.475
X3.675Y-5.875
X3.725Y-5.
X3.85Y-2.2405
X3.85Y-2.5215
X3.9625Y-4.1
X3.9875Y-3.725
X4.025Y-2.7405
X4.0375Y-4.75
X4.05Y-2.9
X4.075Y-2.9375
X4.075Y-5.1
X4.1125Y-2.9
X4.1125Y-5.2
X4.1375Y-2.05
X4.1375Y-4.7
X4.325Y-2.6
X4.325Y-3.2
X4.35Y-2.05
X4.4Y-5.2
X4.4016Y-5.6984
X4.65Y-3.875
X4.725Y-2.2
X4.725Y-4.375
X4.725Y-4.6
X4.8125Y-1.725
X4.8125Y-4.2
X4.875Y-2.125
X4.875Y-4.5375
X4.9Y-2.025
X4.9Y-5.625
X4.925Y-1.85
X4.925Y-2.425
X4.925Y-2.9
X4.925Y-3.35
X4.925Y-4.7
X4.95Y-1.925
X4.95Y-2.525
X4.95Y-3.
X4.95Y-3.425
X4.975Y-3.15
X4.975Y-3.45
X5.Y-3.1
X5.Y-3.4
X5.025Y-3.2
X5.025Y-3.3
X5.075Y-5.425
X5.075Y-5.525
X5.1Y-3.1
X5.1Y-3.375
X5.25Y-2.225
X5.275Y-2.325
X5.4Y-5.15
X5.5Y-5.25
X5.525Y-3.05
X5.525Y-3.475
T2
X1.425Y-5.875
X1.525Y-1.65
X1.75Y-1.975
X1.825Y-4.1
X2.4266Y-4.1516
X2.8Y-1.975
X2.8Y-4.15
X2.8Y-5.7
X3.025Y-4.325
X3.425Y-4.15
X3.425Y-4.375
X3.425Y-5.7
X3.8Y-1.95
X4.4016Y-4.1516
X4.725Y-2.75
X4.725Y-2.85
X4.725Y-5.875
X5.15Y-1.475
X5.175Y-2.95
X5.175Y-3.05
X5.175Y-3.15
X5.175Y-3.625
X5.175Y-4.15
X5.175Y-5.7
T3
X1.55Y-3.75
X1.75Y-3.75
X1.55Y-3.55
X1.75Y-3.55
X3.675Y-5.475
X3.875Y-5.475
X5.Y-4.275
X5.Y-4.475
X4.05Y-5.475
X4.25Y-5.475
X1.7Y-2.4
X1.7Y-2.6
T4
X2.325Y-4.575
X2.325Y-4.675
X2.325Y-4.775
X2.325Y-4.875
X2.325Y-4.975
X2.325Y-5.075
X2.325Y-5.175
X2.325Y-5.275
X2.325Y-5.375
X2.325Y-5.475
X2.625Y-4.575
X2.625Y-4.675
X2.625Y-4.775
X2.625Y-4.875
X2.625Y-4.975
X2.625Y-5.075
X2.625Y-5.175
X2.625Y-5.275
X2.625Y-5.375
X2.625Y-5.475
X3.Y-1.55
X3.Y-1.85
X3.1Y-1.55
X3.1Y-1.85
X3.2Y-1.55
X3.2Y-1.85
X3.3Y-1.55
X3.3Y-1.85
X3.4Y-1.55
X3.4Y-1.85
X3.5Y-1.55
X3.5Y-1.85
X3.6Y-1.55
X3.6Y-1.85
X5.05Y-1.725
X5.05Y-1.825
X5.05Y-1.925
X5.05Y-2.025
X5.05Y-2.125
X5.05Y-2.225
X5.05Y-2.325
X5.05Y-2.425
X5.35Y-1.725
X5.35Y-1.825
X5.35Y-1.925
X5.35Y-2.025
X5.35Y-2.125
X5.35Y-2.225
X5.35Y-2.325
X5.35Y-2.425
X3.6766Y-4.375
X3.775Y-4.375
X5.Y-5.225
X5.Y-5.3234
X3.5016Y-2.05
X3.6Y-2.05
X1.7266Y-4.425
X1.825Y-4.425
X1.95Y-2.1
X1.95Y-2.2
X1.95Y-2.3
X1.95Y-2.4
X1.95Y-2.5
X1.95Y-2.6
X1.95Y-2.7
X1.95Y-2.8
X1.95Y-2.9
X1.95Y-3.
X1.95Y-3.1
X1.95Y-3.2
X1.95Y-3.3
X1.95Y-3.4
X1.95Y-3.5
X1.95Y-3.6
X1.95Y-3.7
X1.95Y-3.8
X1.95Y-3.9
X1.95Y-4.
X2.55Y-2.1
X2.55Y-2.2
X2.55Y-2.3
X2.55Y-2.4
X2.55Y-2.5
X2.55Y-2.6
X2.55Y-2.7
X2.55Y-2.8
X2.55Y-2.9
X2.55Y-3.
X2.55Y-3.1
X2.55Y-3.2
X2.55Y-3.3
X2.55Y-3.4
X2.55Y-3.5
X2.55Y-3.6
X2.55Y-3.7
X2.55Y-3.8
X2.55Y-3.9
X2.55Y-4.
X4.4516Y-2.05
X4.55Y-2.05
X3.Y-2.2
X3.Y-2.3
X3.Y-2.4
X3.Y-2.5
X3.Y-2.6
X3.Y-2.7
X3.Y-2.8
X3.Y-2.9
X3.Y-3.
X3.Y-3.1
X3.Y-3.2
X3.Y-3.3
X3.Y-3.4
X3.Y-3.5
X3.6Y-2.2
X3.6Y-2.3
X3.6Y-2.4
X3.6Y-2.5
X3.6Y-2.6
X3.6Y-2.7
X3.6Y-2.8
X3.6Y-2.9
X3.6Y-3.
X3.6Y-3.1
X3.6Y-3.2
X3.6Y-3.3
X3.6Y-3.4
X3.6Y-3.5
X5.2516Y-1.55
X5.35Y-1.55
X2.4266Y-4.425
X2.525Y-4.425
X1.95Y-1.35
X2.0484Y-1.35
X3.95Y-1.55
X3.95Y-1.85
X4.05Y-1.55
X4.05Y-1.85
X4.15Y-1.55
X4.15Y-1.85
X4.25Y-1.55
X4.25Y-1.85
X4.35Y-1.55
X4.35Y-1.85
X4.45Y-1.55
X4.45Y-1.85
X4.55Y-1.55
X4.55Y-1.85
X3.025Y-4.575
X3.025Y-4.675
X3.025Y-4.775
X3.025Y-4.875
X3.025Y-4.975
X3.025Y-5.075
X3.025Y-5.175
X3.025Y-5.275
X3.025Y-5.375
X2.8Y-1.6
X2.8Y-1.6984
X2.1Y-6.55
X2.4Y-6.55
X3.35Y-1.2
X3.4484Y-1.2
X1.625Y-6.55
X1.925Y-6.55
X4.4016Y-4.375
X4.5Y-4.375
X3.575Y-4.6
X3.575Y-4.7
X3.575Y-4.8
X3.575Y-4.9
X3.575Y-5.
X3.575Y-5.1
X3.575Y-5.2
X3.875Y-4.6
X3.875Y-4.7
X3.875Y-4.8
X3.875Y-4.9
X3.875Y-5.
X3.875Y-5.1
X3.875Y-5.2
X1.7Y-3.0016
X1.7Y-3.1
X1.95Y-1.55
X1.95Y-1.85
X2.05Y-1.55
X2.05Y-1.85
X2.15Y-1.55
X2.15Y-1.85
X2.25Y-1.55
X2.25Y-1.85
X2.35Y-1.55
X2.35Y-1.85
X2.45Y-1.55
X2.45Y-1.85
X2.55Y-1.55
X2.55Y-1.85
X3.95Y-2.2
X3.95Y-2.3
X3.95Y-2.4
X3.95Y-2.5
X3.95Y-2.6
X3.95Y-2.7
X3.95Y-2.8
X3.95Y-2.9
X3.95Y-3.
X3.95Y-3.1
X3.95Y-3.2
X3.95Y-3.3
X3.95Y-3.4
X3.95Y-3.5
X4.55Y-2.2
X4.55Y-2.3
X4.55Y-2.4
X4.55Y-2.5
X4.55Y-2.6
X4.55Y-2.7
X4.55Y-2.8
X4.55Y-2.9
X4.55Y-3.
X4.55Y-3.1
X4.55Y-3.2
X4.55Y-3.3
X4.55Y-3.4
X4.55Y-3.5
X5.Y-4.65
X5.Y-5.05
X3.8Y-1.65
X3.8Y-1.7484
X2.275Y-3.15
X2.3734Y-3.15
X2.25Y-1.2
X2.3484Y-1.2
X1.625Y-4.575
X1.625Y-4.675
X1.625Y-4.775
X1.625Y-4.875
X1.625Y-4.975
X1.625Y-5.075
X1.625Y-5.175
X1.625Y-5.275
X1.625Y-5.375
X1.625Y-5.475
X1.925Y-4.575
X1.925Y-4.675
X1.925Y-4.775
X1.925Y-4.875
X1.925Y-4.975
X1.925Y-5.075
X1.925Y-5.175
X1.925Y-5.275
X1.925Y-5.375
X1.925Y-5.475
X4.275Y-4.6
X4.275Y-4.7
X4.275Y-4.8
X4.275Y-4.9
X4.275Y-5.
X4.275Y-5.1
X4.275Y-5.2
X4.575Y-4.6
X4.575Y-4.7
X4.575Y-4.8
X4.575Y-4.9
X4.575Y-5.
X4.575Y-5.1
X4.575Y-5.2
X1.75Y-1.65
X1.75Y-1.7484
T5
X5.4Y-4.875
X5.5Y-4.875
X5.4Y-5.45
X5.5Y-5.45
T6
X5.35Y-2.75
X5.35Y-2.85
X5.35Y-2.95
X5.35Y-3.05
X5.35Y-3.15
X5.35Y-3.25
X5.35Y-3.35
X5.35Y-3.45
X5.45Y-2.75
X5.45Y-2.85
X5.45Y-2.95
X5.45Y-3.05
X5.45Y-3.15
X5.45Y-3.25
X5.45Y-3.35
X5.45Y-3.45
X1.775Y-6.125
X1.775Y-6.225
X1.875Y-6.125
X1.875Y-6.225
X1.975Y-6.125
X1.975Y-6.225
X2.075Y-6.125
X2.075Y-6.225
X2.175Y-6.125
X2.175Y-6.225
X2.275Y-6.125
X2.275Y-6.225
X2.375Y-6.125
X2.375Y-6.225
X2.475Y-6.125
X2.475Y-6.225
X3.Y-6.175
X3.1Y-6.175
X3.2Y-6.175
X3.3Y-6.175
X3.4Y-6.175
X3.5Y-6.175
X3.2Y-3.725
X3.2Y-3.825
X3.2Y-3.925
T7
X4.95Y-6.075
X4.95Y-6.2522
X5.2059Y-6.075
X5.2059Y-6.2522
T8
X2.75Y-1.2
X2.85Y-1.2
X2.95Y-1.2
T9
X1.5Y-1.25
X1.6559Y-1.25
T10
X5.45Y-4.2
X1.15Y-6.65
X5.45Y-1.15
X1.15Y-4.2
X5.45Y-6.65
X1.15Y-1.15
T0
M30
