G04 #@! TF.GenerationSoftware,KiCad,Pcbnew,5.0.2-bee76a0~70~ubuntu16.04.1*
G04 #@! TF.CreationDate,2020-02-27T20:32:16-05:00*
G04 #@! TF.ProjectId,cpu,6370752e-6b69-4636-9164-5f7063625858,rev?*
G04 #@! TF.SameCoordinates,Original*
G04 #@! TF.FileFunction,Legend,Top*
G04 #@! TF.FilePolarity,Positive*
%FSLAX46Y46*%
G04 Gerber Fmt 4.6, Leading zero omitted, Abs format (unit mm)*
G04 Created by KiCad (PCBNEW 5.0.2-bee76a0~70~ubuntu16.04.1) date Thu 27 Feb 2020 08:32:16 PM EST*
%MOMM*%
%LPD*%
G01*
G04 APERTURE LIST*
%ADD10C,0.300000*%
%ADD11C,0.254000*%
%ADD12C,0.120000*%
%ADD13C,0.150000*%
G04 APERTURE END LIST*
D10*
X31183142Y-154602571D02*
X31183142Y-153102571D01*
X32040285Y-154602571D02*
X31397428Y-153745428D01*
X32040285Y-153102571D02*
X31183142Y-153959714D01*
X32683142Y-153816857D02*
X33183142Y-153816857D01*
X33397428Y-154602571D02*
X32683142Y-154602571D01*
X32683142Y-153102571D01*
X33397428Y-153102571D01*
X34326000Y-153888285D02*
X34326000Y-154602571D01*
X33826000Y-153102571D02*
X34326000Y-153888285D01*
X34826000Y-153102571D01*
X35826000Y-153816857D02*
X36040285Y-153888285D01*
X36111714Y-153959714D01*
X36183142Y-154102571D01*
X36183142Y-154316857D01*
X36111714Y-154459714D01*
X36040285Y-154531142D01*
X35897428Y-154602571D01*
X35326000Y-154602571D01*
X35326000Y-153102571D01*
X35826000Y-153102571D01*
X35968857Y-153174000D01*
X36040285Y-153245428D01*
X36111714Y-153388285D01*
X36111714Y-153531142D01*
X36040285Y-153674000D01*
X35968857Y-153745428D01*
X35826000Y-153816857D01*
X35326000Y-153816857D01*
X37111714Y-153102571D02*
X37397428Y-153102571D01*
X37540285Y-153174000D01*
X37683142Y-153316857D01*
X37754571Y-153602571D01*
X37754571Y-154102571D01*
X37683142Y-154388285D01*
X37540285Y-154531142D01*
X37397428Y-154602571D01*
X37111714Y-154602571D01*
X36968857Y-154531142D01*
X36826000Y-154388285D01*
X36754571Y-154102571D01*
X36754571Y-153602571D01*
X36826000Y-153316857D01*
X36968857Y-153174000D01*
X37111714Y-153102571D01*
X38326000Y-154174000D02*
X39040285Y-154174000D01*
X38183142Y-154602571D02*
X38683142Y-153102571D01*
X39183142Y-154602571D01*
X40540285Y-154602571D02*
X40040285Y-153888285D01*
X39683142Y-154602571D02*
X39683142Y-153102571D01*
X40254571Y-153102571D01*
X40397428Y-153174000D01*
X40468857Y-153245428D01*
X40540285Y-153388285D01*
X40540285Y-153602571D01*
X40468857Y-153745428D01*
X40397428Y-153816857D01*
X40254571Y-153888285D01*
X39683142Y-153888285D01*
X41183142Y-154602571D02*
X41183142Y-153102571D01*
X41540285Y-153102571D01*
X41754571Y-153174000D01*
X41897428Y-153316857D01*
X41968857Y-153459714D01*
X42040285Y-153745428D01*
X42040285Y-153959714D01*
X41968857Y-154245428D01*
X41897428Y-154388285D01*
X41754571Y-154531142D01*
X41540285Y-154602571D01*
X41183142Y-154602571D01*
X136195714Y-92626571D02*
X135481428Y-92626571D01*
X135481428Y-91126571D01*
X136695714Y-91840857D02*
X137195714Y-91840857D01*
X137410000Y-92626571D02*
X136695714Y-92626571D01*
X136695714Y-91126571D01*
X137410000Y-91126571D01*
X138052857Y-92626571D02*
X138052857Y-91126571D01*
X138410000Y-91126571D01*
X138624285Y-91198000D01*
X138767142Y-91340857D01*
X138838571Y-91483714D01*
X138910000Y-91769428D01*
X138910000Y-91983714D01*
X138838571Y-92269428D01*
X138767142Y-92412285D01*
X138624285Y-92555142D01*
X138410000Y-92626571D01*
X138052857Y-92626571D01*
D11*
X71381861Y-162185047D02*
X71381861Y-164241238D01*
X71502814Y-164483142D01*
X71623766Y-164604095D01*
X71865671Y-164725047D01*
X72349480Y-164725047D01*
X72591385Y-164604095D01*
X72712338Y-164483142D01*
X72833290Y-164241238D01*
X72833290Y-162185047D01*
X74042814Y-164725047D02*
X74042814Y-162185047D01*
X75010433Y-162185047D01*
X75252338Y-162306000D01*
X75373290Y-162426952D01*
X75494242Y-162668857D01*
X75494242Y-163031714D01*
X75373290Y-163273619D01*
X75252338Y-163394571D01*
X75010433Y-163515523D01*
X74042814Y-163515523D01*
X78034242Y-164483142D02*
X77913290Y-164604095D01*
X77550433Y-164725047D01*
X77308528Y-164725047D01*
X76945671Y-164604095D01*
X76703766Y-164362190D01*
X76582814Y-164120285D01*
X76461861Y-163636476D01*
X76461861Y-163273619D01*
X76582814Y-162789809D01*
X76703766Y-162547904D01*
X76945671Y-162306000D01*
X77308528Y-162185047D01*
X77550433Y-162185047D01*
X77913290Y-162306000D01*
X78034242Y-162426952D01*
X79606623Y-162185047D02*
X80090433Y-162185047D01*
X80332338Y-162306000D01*
X80574242Y-162547904D01*
X80695195Y-163031714D01*
X80695195Y-163878380D01*
X80574242Y-164362190D01*
X80332338Y-164604095D01*
X80090433Y-164725047D01*
X79606623Y-164725047D01*
X79364719Y-164604095D01*
X79122814Y-164362190D01*
X79001861Y-163878380D01*
X79001861Y-163031714D01*
X79122814Y-162547904D01*
X79364719Y-162306000D01*
X79606623Y-162185047D01*
X85170433Y-164725047D02*
X84323766Y-163515523D01*
X83719004Y-164725047D02*
X83719004Y-162185047D01*
X84686623Y-162185047D01*
X84928528Y-162306000D01*
X85049480Y-162426952D01*
X85170433Y-162668857D01*
X85170433Y-163031714D01*
X85049480Y-163273619D01*
X84928528Y-163394571D01*
X84686623Y-163515523D01*
X83719004Y-163515523D01*
X87226623Y-164604095D02*
X86984719Y-164725047D01*
X86500909Y-164725047D01*
X86259004Y-164604095D01*
X86138052Y-164362190D01*
X86138052Y-163394571D01*
X86259004Y-163152666D01*
X86500909Y-163031714D01*
X86984719Y-163031714D01*
X87226623Y-163152666D01*
X87347576Y-163394571D01*
X87347576Y-163636476D01*
X86138052Y-163878380D01*
X88073290Y-163031714D02*
X89040909Y-163031714D01*
X88436147Y-162185047D02*
X88436147Y-164362190D01*
X88557100Y-164604095D01*
X88799004Y-164725047D01*
X89040909Y-164725047D01*
X89887576Y-164725047D02*
X89887576Y-163031714D01*
X89887576Y-163515523D02*
X90008528Y-163273619D01*
X90129480Y-163152666D01*
X90371385Y-163031714D01*
X90613290Y-163031714D01*
X91822814Y-164725047D02*
X91580909Y-164604095D01*
X91459957Y-164483142D01*
X91339004Y-164241238D01*
X91339004Y-163515523D01*
X91459957Y-163273619D01*
X91580909Y-163152666D01*
X91822814Y-163031714D01*
X92185671Y-163031714D01*
X92427576Y-163152666D01*
X92548528Y-163273619D01*
X92669480Y-163515523D01*
X92669480Y-164241238D01*
X92548528Y-164483142D01*
X92427576Y-164604095D01*
X92185671Y-164725047D01*
X91822814Y-164725047D01*
X93758052Y-163757428D02*
X95693290Y-163757428D01*
X96781861Y-162426952D02*
X96902814Y-162306000D01*
X97144719Y-162185047D01*
X97749480Y-162185047D01*
X97991385Y-162306000D01*
X98112338Y-162426952D01*
X98233290Y-162668857D01*
X98233290Y-162910761D01*
X98112338Y-163273619D01*
X96660909Y-164725047D01*
X98233290Y-164725047D01*
X100531385Y-162185047D02*
X99321861Y-162185047D01*
X99200909Y-163394571D01*
X99321861Y-163273619D01*
X99563766Y-163152666D01*
X100168528Y-163152666D01*
X100410433Y-163273619D01*
X100531385Y-163394571D01*
X100652338Y-163636476D01*
X100652338Y-164241238D01*
X100531385Y-164483142D01*
X100410433Y-164604095D01*
X100168528Y-164725047D01*
X99563766Y-164725047D01*
X99321861Y-164604095D01*
X99200909Y-164483142D01*
X105127576Y-164483142D02*
X105006623Y-164604095D01*
X104643766Y-164725047D01*
X104401861Y-164725047D01*
X104039004Y-164604095D01*
X103797100Y-164362190D01*
X103676147Y-164120285D01*
X103555195Y-163636476D01*
X103555195Y-163273619D01*
X103676147Y-162789809D01*
X103797100Y-162547904D01*
X104039004Y-162306000D01*
X104401861Y-162185047D01*
X104643766Y-162185047D01*
X105006623Y-162306000D01*
X105127576Y-162426952D01*
X106216147Y-164725047D02*
X106216147Y-162185047D01*
X107183766Y-162185047D01*
X107425671Y-162306000D01*
X107546623Y-162426952D01*
X107667576Y-162668857D01*
X107667576Y-163031714D01*
X107546623Y-163273619D01*
X107425671Y-163394571D01*
X107183766Y-163515523D01*
X106216147Y-163515523D01*
X108756147Y-162185047D02*
X108756147Y-164241238D01*
X108877100Y-164483142D01*
X108998052Y-164604095D01*
X109239957Y-164725047D01*
X109723766Y-164725047D01*
X109965671Y-164604095D01*
X110086623Y-164483142D01*
X110207576Y-164241238D01*
X110207576Y-162185047D01*
X114803766Y-164725047D02*
X113957100Y-163515523D01*
X113352338Y-164725047D02*
X113352338Y-162185047D01*
X114319957Y-162185047D01*
X114561861Y-162306000D01*
X114682814Y-162426952D01*
X114803766Y-162668857D01*
X114803766Y-163031714D01*
X114682814Y-163273619D01*
X114561861Y-163394571D01*
X114319957Y-163515523D01*
X113352338Y-163515523D01*
X116859957Y-164604095D02*
X116618052Y-164725047D01*
X116134242Y-164725047D01*
X115892338Y-164604095D01*
X115771385Y-164362190D01*
X115771385Y-163394571D01*
X115892338Y-163152666D01*
X116134242Y-163031714D01*
X116618052Y-163031714D01*
X116859957Y-163152666D01*
X116980909Y-163394571D01*
X116980909Y-163636476D01*
X115771385Y-163878380D01*
X117827576Y-163031714D02*
X118432338Y-164725047D01*
X119037100Y-163031714D01*
X123270433Y-164725047D02*
X121819004Y-164725047D01*
X122544719Y-164725047D02*
X122544719Y-162185047D01*
X122302814Y-162547904D01*
X122060909Y-162789809D01*
X121819004Y-162910761D01*
X71381861Y-167458571D02*
X72228528Y-167458571D01*
X72591385Y-168789047D02*
X71381861Y-168789047D01*
X71381861Y-166249047D01*
X72591385Y-166249047D01*
X73679957Y-168547142D02*
X73800909Y-168668095D01*
X73679957Y-168789047D01*
X73559004Y-168668095D01*
X73679957Y-168547142D01*
X73679957Y-168789047D01*
X76824719Y-168789047D02*
X76824719Y-166249047D01*
X76824719Y-167458571D02*
X78276147Y-167458571D01*
X78276147Y-168789047D02*
X78276147Y-166249047D01*
X80574242Y-168789047D02*
X80574242Y-167458571D01*
X80453290Y-167216666D01*
X80211385Y-167095714D01*
X79727576Y-167095714D01*
X79485671Y-167216666D01*
X80574242Y-168668095D02*
X80332338Y-168789047D01*
X79727576Y-168789047D01*
X79485671Y-168668095D01*
X79364719Y-168426190D01*
X79364719Y-168184285D01*
X79485671Y-167942380D01*
X79727576Y-167821428D01*
X80332338Y-167821428D01*
X80574242Y-167700476D01*
X81541861Y-167095714D02*
X82872338Y-167095714D01*
X81541861Y-168789047D01*
X82872338Y-168789047D01*
X84807576Y-168668095D02*
X84565671Y-168789047D01*
X84081861Y-168789047D01*
X83839957Y-168668095D01*
X83719004Y-168426190D01*
X83719004Y-167458571D01*
X83839957Y-167216666D01*
X84081861Y-167095714D01*
X84565671Y-167095714D01*
X84807576Y-167216666D01*
X84928528Y-167458571D01*
X84928528Y-167700476D01*
X83719004Y-167942380D01*
X86017100Y-167095714D02*
X86017100Y-168789047D01*
X86017100Y-167337619D02*
X86138052Y-167216666D01*
X86379957Y-167095714D01*
X86742814Y-167095714D01*
X86984719Y-167216666D01*
X87105671Y-167458571D01*
X87105671Y-168789047D01*
X90250433Y-167821428D02*
X92185671Y-167821428D01*
X95209480Y-166490952D02*
X95330433Y-166370000D01*
X95572338Y-166249047D01*
X96177100Y-166249047D01*
X96419004Y-166370000D01*
X96539957Y-166490952D01*
X96660909Y-166732857D01*
X96660909Y-166974761D01*
X96539957Y-167337619D01*
X95088528Y-168789047D01*
X96660909Y-168789047D01*
X98233290Y-166249047D02*
X98475195Y-166249047D01*
X98717100Y-166370000D01*
X98838052Y-166490952D01*
X98959004Y-166732857D01*
X99079957Y-167216666D01*
X99079957Y-167821428D01*
X98959004Y-168305238D01*
X98838052Y-168547142D01*
X98717100Y-168668095D01*
X98475195Y-168789047D01*
X98233290Y-168789047D01*
X97991385Y-168668095D01*
X97870433Y-168547142D01*
X97749480Y-168305238D01*
X97628528Y-167821428D01*
X97628528Y-167216666D01*
X97749480Y-166732857D01*
X97870433Y-166490952D01*
X97991385Y-166370000D01*
X98233290Y-166249047D01*
X100047576Y-166490952D02*
X100168528Y-166370000D01*
X100410433Y-166249047D01*
X101015195Y-166249047D01*
X101257100Y-166370000D01*
X101378052Y-166490952D01*
X101499004Y-166732857D01*
X101499004Y-166974761D01*
X101378052Y-167337619D01*
X99926623Y-168789047D01*
X101499004Y-168789047D01*
X103071385Y-166249047D02*
X103313290Y-166249047D01*
X103555195Y-166370000D01*
X103676147Y-166490952D01*
X103797100Y-166732857D01*
X103918052Y-167216666D01*
X103918052Y-167821428D01*
X103797100Y-168305238D01*
X103676147Y-168547142D01*
X103555195Y-168668095D01*
X103313290Y-168789047D01*
X103071385Y-168789047D01*
X102829480Y-168668095D01*
X102708528Y-168547142D01*
X102587576Y-168305238D01*
X102466623Y-167821428D01*
X102466623Y-167216666D01*
X102587576Y-166732857D01*
X102708528Y-166490952D01*
X102829480Y-166370000D01*
X103071385Y-166249047D01*
X105006623Y-167821428D02*
X106941861Y-167821428D01*
X108635195Y-166249047D02*
X108877100Y-166249047D01*
X109119004Y-166370000D01*
X109239957Y-166490952D01*
X109360909Y-166732857D01*
X109481861Y-167216666D01*
X109481861Y-167821428D01*
X109360909Y-168305238D01*
X109239957Y-168547142D01*
X109119004Y-168668095D01*
X108877100Y-168789047D01*
X108635195Y-168789047D01*
X108393290Y-168668095D01*
X108272338Y-168547142D01*
X108151385Y-168305238D01*
X108030433Y-167821428D01*
X108030433Y-167216666D01*
X108151385Y-166732857D01*
X108272338Y-166490952D01*
X108393290Y-166370000D01*
X108635195Y-166249047D01*
X110449480Y-166490952D02*
X110570433Y-166370000D01*
X110812338Y-166249047D01*
X111417100Y-166249047D01*
X111659004Y-166370000D01*
X111779957Y-166490952D01*
X111900909Y-166732857D01*
X111900909Y-166974761D01*
X111779957Y-167337619D01*
X110328528Y-168789047D01*
X111900909Y-168789047D01*
D12*
G04 #@! TO.C,U4*
X108950000Y-54550000D02*
G75*
G02X106950000Y-54550000I-1000000J0D01*
G01*
X106950000Y-54550000D02*
X101490000Y-54550000D01*
X101490000Y-54550000D02*
X101490000Y-90230000D01*
X101490000Y-90230000D02*
X114410000Y-90230000D01*
X114410000Y-90230000D02*
X114410000Y-54550000D01*
X114410000Y-54550000D02*
X108950000Y-54550000D01*
G04 #@! TO.C,U1*
X48200000Y-40930000D02*
X48200000Y-42180000D01*
X66100000Y-40930000D02*
X48200000Y-40930000D01*
X66100000Y-45430000D02*
X66100000Y-40930000D01*
X48200000Y-45430000D02*
X66100000Y-45430000D01*
X48200000Y-44180000D02*
X48200000Y-45430000D01*
X48200000Y-42180000D02*
G75*
G02X48200000Y-44180000I0J-1000000D01*
G01*
G04 #@! TO.C,U8*
X90280000Y-54550000D02*
X84820000Y-54550000D01*
X90280000Y-90230000D02*
X90280000Y-54550000D01*
X77360000Y-90230000D02*
X90280000Y-90230000D01*
X77360000Y-54550000D02*
X77360000Y-90230000D01*
X82820000Y-54550000D02*
X77360000Y-54550000D01*
X84820000Y-54550000D02*
G75*
G02X82820000Y-54550000I-1000000J0D01*
G01*
G04 #@! TO.C,C1*
X126335000Y-136085000D02*
X125630000Y-136085000D01*
X128370000Y-136085000D02*
X127665000Y-136085000D01*
X126335000Y-131845000D02*
X125630000Y-131845000D01*
X128370000Y-131845000D02*
X127665000Y-131845000D01*
X125630000Y-131845000D02*
X125630000Y-136085000D01*
X128370000Y-131845000D02*
X128370000Y-136085000D01*
G04 #@! TO.C,C3*
X88460000Y-31145000D02*
X88460000Y-31850000D01*
X88460000Y-29110000D02*
X88460000Y-29815000D01*
X84220000Y-31145000D02*
X84220000Y-31850000D01*
X84220000Y-29110000D02*
X84220000Y-29815000D01*
X84220000Y-31850000D02*
X88460000Y-31850000D01*
X84220000Y-29110000D02*
X88460000Y-29110000D01*
G04 #@! TO.C,C4*
X110930000Y-110460000D02*
X110930000Y-109755000D01*
X110930000Y-112495000D02*
X110930000Y-111790000D01*
X115170000Y-110460000D02*
X115170000Y-109755000D01*
X115170000Y-112495000D02*
X115170000Y-111790000D01*
X115170000Y-109755000D02*
X110930000Y-109755000D01*
X115170000Y-112495000D02*
X110930000Y-112495000D01*
G04 #@! TO.C,C7*
X52900000Y-34955000D02*
X52900000Y-35660000D01*
X52900000Y-32920000D02*
X52900000Y-33625000D01*
X48660000Y-34955000D02*
X48660000Y-35660000D01*
X48660000Y-32920000D02*
X48660000Y-33625000D01*
X48660000Y-35660000D02*
X52900000Y-35660000D01*
X48660000Y-32920000D02*
X52900000Y-32920000D01*
G04 #@! TO.C,C8*
X42985000Y-111730000D02*
X42985000Y-111025000D01*
X42985000Y-113765000D02*
X42985000Y-113060000D01*
X47225000Y-111730000D02*
X47225000Y-111025000D01*
X47225000Y-113765000D02*
X47225000Y-113060000D01*
X47225000Y-111025000D02*
X42985000Y-111025000D01*
X47225000Y-113765000D02*
X42985000Y-113765000D01*
G04 #@! TO.C,C9*
X95855000Y-45280000D02*
X95150000Y-45280000D01*
X97890000Y-45280000D02*
X97185000Y-45280000D01*
X95855000Y-41040000D02*
X95150000Y-41040000D01*
X97890000Y-41040000D02*
X97185000Y-41040000D01*
X95150000Y-41040000D02*
X95150000Y-45280000D01*
X97890000Y-41040000D02*
X97890000Y-45280000D01*
G04 #@! TO.C,C10*
X70455000Y-44010000D02*
X69750000Y-44010000D01*
X72490000Y-44010000D02*
X71785000Y-44010000D01*
X70455000Y-39770000D02*
X69750000Y-39770000D01*
X72490000Y-39770000D02*
X71785000Y-39770000D01*
X69750000Y-39770000D02*
X69750000Y-44010000D01*
X72490000Y-39770000D02*
X72490000Y-44010000D01*
G04 #@! TO.C,C12*
X43845000Y-75370000D02*
X44550000Y-75370000D01*
X41810000Y-75370000D02*
X42515000Y-75370000D01*
X43845000Y-79610000D02*
X44550000Y-79610000D01*
X41810000Y-79610000D02*
X42515000Y-79610000D01*
X44550000Y-79610000D02*
X44550000Y-75370000D01*
X41810000Y-79610000D02*
X41810000Y-75370000D01*
G04 #@! TO.C,C13*
X88070000Y-51405000D02*
X88070000Y-50700000D01*
X88070000Y-53440000D02*
X88070000Y-52735000D01*
X92310000Y-51405000D02*
X92310000Y-50700000D01*
X92310000Y-53440000D02*
X92310000Y-52735000D01*
X92310000Y-50700000D02*
X88070000Y-50700000D01*
X92310000Y-53440000D02*
X88070000Y-53440000D01*
G04 #@! TO.C,C14*
X112200000Y-51405000D02*
X112200000Y-50700000D01*
X112200000Y-53440000D02*
X112200000Y-52735000D01*
X116440000Y-51405000D02*
X116440000Y-50700000D01*
X116440000Y-53440000D02*
X116440000Y-52735000D01*
X116440000Y-50700000D02*
X112200000Y-50700000D01*
X116440000Y-53440000D02*
X112200000Y-53440000D01*
G04 #@! TO.C,C15*
X61155000Y-80675000D02*
X61155000Y-81380000D01*
X61155000Y-78640000D02*
X61155000Y-79345000D01*
X56915000Y-80675000D02*
X56915000Y-81380000D01*
X56915000Y-78640000D02*
X56915000Y-79345000D01*
X56915000Y-81380000D02*
X61155000Y-81380000D01*
X56915000Y-78640000D02*
X61155000Y-78640000D01*
G04 #@! TO.C,C16*
X43785000Y-45280000D02*
X43080000Y-45280000D01*
X45820000Y-45280000D02*
X45115000Y-45280000D01*
X43785000Y-41040000D02*
X43080000Y-41040000D01*
X45820000Y-41040000D02*
X45115000Y-41040000D01*
X43080000Y-41040000D02*
X43080000Y-45280000D01*
X45820000Y-41040000D02*
X45820000Y-45280000D01*
G04 #@! TO.C,C17*
X60765000Y-111730000D02*
X60765000Y-111025000D01*
X60765000Y-113765000D02*
X60765000Y-113060000D01*
X65005000Y-111730000D02*
X65005000Y-111025000D01*
X65005000Y-113765000D02*
X65005000Y-113060000D01*
X65005000Y-111025000D02*
X60765000Y-111025000D01*
X65005000Y-113765000D02*
X60765000Y-113765000D01*
G04 #@! TO.C,C18*
X92515000Y-110460000D02*
X92515000Y-109755000D01*
X92515000Y-112495000D02*
X92515000Y-111790000D01*
X96755000Y-110460000D02*
X96755000Y-109755000D01*
X96755000Y-112495000D02*
X96755000Y-111790000D01*
X96755000Y-109755000D02*
X92515000Y-109755000D01*
X96755000Y-112495000D02*
X92515000Y-112495000D01*
G04 #@! TO.C,C19*
X132520000Y-38705000D02*
X132520000Y-38000000D01*
X132520000Y-40740000D02*
X132520000Y-40035000D01*
X136760000Y-38705000D02*
X136760000Y-38000000D01*
X136760000Y-40740000D02*
X136760000Y-40035000D01*
X136760000Y-38000000D02*
X132520000Y-38000000D01*
X136760000Y-40740000D02*
X132520000Y-40740000D01*
G04 #@! TO.C,C2*
X56280000Y-29110000D02*
X60520000Y-29110000D01*
X56280000Y-31850000D02*
X60520000Y-31850000D01*
X56280000Y-29110000D02*
X56280000Y-29815000D01*
X56280000Y-31145000D02*
X56280000Y-31850000D01*
X60520000Y-29110000D02*
X60520000Y-29815000D01*
X60520000Y-31145000D02*
X60520000Y-31850000D01*
G04 #@! TO.C,D1*
X136870000Y-139510000D02*
X136870000Y-139666000D01*
X136870000Y-137194000D02*
X136870000Y-137350000D01*
X139471130Y-139509837D02*
G75*
G02X137389039Y-139510000I-1041130J1079837D01*
G01*
X139471130Y-137350163D02*
G75*
G03X137389039Y-137350000I-1041130J-1079837D01*
G01*
X140102335Y-139508608D02*
G75*
G02X136870000Y-139665516I-1672335J1078608D01*
G01*
X140102335Y-137351392D02*
G75*
G03X136870000Y-137194484I-1672335J-1078608D01*
G01*
G04 #@! TO.C,D2*
X125880000Y-125310000D02*
X128120000Y-125310000D01*
X128120000Y-125310000D02*
X128120000Y-121070000D01*
X128120000Y-121070000D02*
X125880000Y-121070000D01*
X125880000Y-121070000D02*
X125880000Y-125310000D01*
X127000000Y-127230000D02*
X127000000Y-125310000D01*
X127000000Y-119150000D02*
X127000000Y-121070000D01*
X125880000Y-124590000D02*
X128120000Y-124590000D01*
X125880000Y-124470000D02*
X128120000Y-124470000D01*
X125880000Y-124710000D02*
X128120000Y-124710000D01*
G04 #@! TO.C,D3*
X140102335Y-122746392D02*
G75*
G03X136870000Y-122589484I-1672335J-1078608D01*
G01*
X140102335Y-124903608D02*
G75*
G02X136870000Y-125060516I-1672335J1078608D01*
G01*
X139471130Y-122745163D02*
G75*
G03X137389039Y-122745000I-1041130J-1079837D01*
G01*
X139471130Y-124904837D02*
G75*
G02X137389039Y-124905000I-1041130J1079837D01*
G01*
X136870000Y-122589000D02*
X136870000Y-122745000D01*
X136870000Y-124905000D02*
X136870000Y-125061000D01*
G04 #@! TO.C,D4*
X59270000Y-167490000D02*
X59270000Y-165250000D01*
X59270000Y-165250000D02*
X55030000Y-165250000D01*
X55030000Y-165250000D02*
X55030000Y-167490000D01*
X55030000Y-167490000D02*
X59270000Y-167490000D01*
X59920000Y-166370000D02*
X59270000Y-166370000D01*
X54380000Y-166370000D02*
X55030000Y-166370000D01*
X58550000Y-167490000D02*
X58550000Y-165250000D01*
X58430000Y-167490000D02*
X58430000Y-165250000D01*
X58670000Y-167490000D02*
X58670000Y-165250000D01*
G04 #@! TO.C,D5*
X46605000Y-167490000D02*
X46605000Y-165250000D01*
X46365000Y-167490000D02*
X46365000Y-165250000D01*
X46485000Y-167490000D02*
X46485000Y-165250000D01*
X42315000Y-166370000D02*
X42965000Y-166370000D01*
X47855000Y-166370000D02*
X47205000Y-166370000D01*
X42965000Y-167490000D02*
X47205000Y-167490000D01*
X42965000Y-165250000D02*
X42965000Y-167490000D01*
X47205000Y-165250000D02*
X42965000Y-165250000D01*
X47205000Y-167490000D02*
X47205000Y-165250000D01*
G04 #@! TO.C,J1*
X134560000Y-68520000D02*
X135890000Y-68520000D01*
X134560000Y-69850000D02*
X134560000Y-68520000D01*
X137160000Y-68520000D02*
X139760000Y-68520000D01*
X137160000Y-71120000D02*
X137160000Y-68520000D01*
X134560000Y-71120000D02*
X137160000Y-71120000D01*
X139760000Y-68520000D02*
X139760000Y-88960000D01*
X134560000Y-71120000D02*
X134560000Y-88960000D01*
X134560000Y-88960000D02*
X139760000Y-88960000D01*
G04 #@! TO.C,J2*
X74870000Y-155515000D02*
X74870000Y-158175000D01*
X87630000Y-155515000D02*
X74870000Y-155515000D01*
X87630000Y-158175000D02*
X74870000Y-158175000D01*
X87630000Y-155515000D02*
X87630000Y-158175000D01*
X88900000Y-155515000D02*
X90230000Y-155515000D01*
X90230000Y-155515000D02*
X90230000Y-156845000D01*
G04 #@! TO.C,J3*
X64195000Y-159445000D02*
X64195000Y-154245000D01*
X46355000Y-159445000D02*
X64195000Y-159445000D01*
X43755000Y-154245000D02*
X64195000Y-154245000D01*
X46355000Y-159445000D02*
X46355000Y-156845000D01*
X46355000Y-156845000D02*
X43755000Y-156845000D01*
X43755000Y-156845000D02*
X43755000Y-154245000D01*
X45085000Y-159445000D02*
X43755000Y-159445000D01*
X43755000Y-159445000D02*
X43755000Y-158115000D01*
G04 #@! TO.C,J5*
X38350000Y-28000000D02*
G75*
G03X38350000Y-28000000I-250000J0D01*
G01*
X40080000Y-35910000D02*
X35640000Y-35910000D01*
X35640000Y-35910000D02*
X35640000Y-27690000D01*
X35640000Y-27690000D02*
X37060000Y-27690000D01*
X37060000Y-27690000D02*
X37060000Y-28640000D01*
X37060000Y-28640000D02*
X40080000Y-28640000D01*
X40080000Y-35910000D02*
X44520000Y-35910000D01*
X44520000Y-35910000D02*
X44520000Y-27690000D01*
X44520000Y-27690000D02*
X43100000Y-27690000D01*
X43100000Y-27690000D02*
X43100000Y-28640000D01*
X43100000Y-28640000D02*
X40080000Y-28640000D01*
G04 #@! TO.C,JP1*
X79950000Y-101025000D02*
X82610000Y-101025000D01*
X79950000Y-95885000D02*
X79950000Y-101025000D01*
X82610000Y-95885000D02*
X82610000Y-101025000D01*
X79950000Y-95885000D02*
X82610000Y-95885000D01*
X79950000Y-94615000D02*
X79950000Y-93285000D01*
X79950000Y-93285000D02*
X81280000Y-93285000D01*
G04 #@! TO.C,R1*
X97805000Y-139985000D02*
X93965000Y-139985000D01*
X97805000Y-138145000D02*
X93965000Y-138145000D01*
G04 #@! TO.C,R2*
X43830000Y-89250000D02*
X39990000Y-89250000D01*
X43830000Y-91090000D02*
X39990000Y-91090000D01*
G04 #@! TO.C,R3*
X42260000Y-65420000D02*
X42260000Y-61580000D01*
X44100000Y-65420000D02*
X44100000Y-61580000D01*
G04 #@! TO.C,R4*
X127920000Y-113045000D02*
X127920000Y-109205000D01*
X126080000Y-113045000D02*
X126080000Y-109205000D01*
G04 #@! TO.C,R5*
X107330000Y-138145000D02*
X103490000Y-138145000D01*
X107330000Y-139985000D02*
X103490000Y-139985000D01*
G04 #@! TO.C,R7*
X43830000Y-96170000D02*
X39990000Y-96170000D01*
X43830000Y-94330000D02*
X39990000Y-94330000D01*
G04 #@! TO.C,RN1*
X78235000Y-114765000D02*
X75435000Y-114765000D01*
X75435000Y-114765000D02*
X75435000Y-137965000D01*
X75435000Y-137965000D02*
X78235000Y-137965000D01*
X78235000Y-137965000D02*
X78235000Y-114765000D01*
X78235000Y-117475000D02*
X75435000Y-117475000D01*
G04 #@! TO.C,SW1*
X126730000Y-159805000D02*
X131230000Y-159805000D01*
X125480000Y-155805000D02*
X125480000Y-157305000D01*
X131230000Y-153305000D02*
X126730000Y-153305000D01*
X132480000Y-157305000D02*
X132480000Y-155805000D01*
G04 #@! TO.C,U2*
X47335000Y-114875000D02*
X46085000Y-114875000D01*
X47335000Y-140395000D02*
X47335000Y-114875000D01*
X42835000Y-140395000D02*
X47335000Y-140395000D01*
X42835000Y-114875000D02*
X42835000Y-140395000D01*
X44085000Y-114875000D02*
X42835000Y-114875000D01*
X46085000Y-114875000D02*
G75*
G02X44085000Y-114875000I-1000000J0D01*
G01*
G04 #@! TO.C,U3*
X58150000Y-52010000D02*
G75*
G02X56150000Y-52010000I-1000000J0D01*
G01*
X56150000Y-52010000D02*
X51090000Y-52010000D01*
X51090000Y-52010000D02*
X51090000Y-102930000D01*
X51090000Y-102930000D02*
X63210000Y-102930000D01*
X63210000Y-102930000D02*
X63210000Y-52010000D01*
X63210000Y-52010000D02*
X58150000Y-52010000D01*
G04 #@! TO.C,U5*
X63865000Y-114875000D02*
G75*
G02X61865000Y-114875000I-1000000J0D01*
G01*
X61865000Y-114875000D02*
X60615000Y-114875000D01*
X60615000Y-114875000D02*
X60615000Y-140395000D01*
X60615000Y-140395000D02*
X65115000Y-140395000D01*
X65115000Y-140395000D02*
X65115000Y-114875000D01*
X65115000Y-114875000D02*
X63865000Y-114875000D01*
G04 #@! TO.C,U6*
X114645000Y-115510000D02*
X113395000Y-115510000D01*
X114645000Y-133410000D02*
X114645000Y-115510000D01*
X110145000Y-133410000D02*
X114645000Y-133410000D01*
X110145000Y-115510000D02*
X110145000Y-133410000D01*
X111395000Y-115510000D02*
X110145000Y-115510000D01*
X113395000Y-115510000D02*
G75*
G02X111395000Y-115510000I-1000000J0D01*
G01*
G04 #@! TO.C,U7*
X133080000Y-42485000D02*
G75*
G02X131080000Y-42485000I-1000000J0D01*
G01*
X131080000Y-42485000D02*
X129830000Y-42485000D01*
X129830000Y-42485000D02*
X129830000Y-62925000D01*
X129830000Y-62925000D02*
X134330000Y-62925000D01*
X134330000Y-62925000D02*
X134330000Y-42485000D01*
X134330000Y-42485000D02*
X133080000Y-42485000D01*
G04 #@! TO.C,U13*
X95615000Y-115510000D02*
G75*
G02X93615000Y-115510000I-1000000J0D01*
G01*
X93615000Y-115510000D02*
X92365000Y-115510000D01*
X92365000Y-115510000D02*
X92365000Y-133410000D01*
X92365000Y-133410000D02*
X96865000Y-133410000D01*
X96865000Y-133410000D02*
X96865000Y-115510000D01*
X96865000Y-115510000D02*
X95615000Y-115510000D01*
G04 #@! TO.C,U16*
X67140000Y-27312000D02*
X77640000Y-27312000D01*
X67140000Y-32253000D02*
X77640000Y-32253000D01*
X67140000Y-27312000D02*
X67140000Y-32253000D01*
X77640000Y-27312000D02*
X77640000Y-32253000D01*
X67140000Y-30072000D02*
X68747000Y-30072000D01*
X70953000Y-30072000D02*
X71288000Y-30072000D01*
X73493000Y-30072000D02*
X73828000Y-30072000D01*
X76033000Y-30072000D02*
X77640000Y-30072000D01*
X70540000Y-27312000D02*
X70540000Y-29330000D01*
X74241000Y-27312000D02*
X74241000Y-29330000D01*
G04 #@! TO.C,U17*
X99000000Y-42180000D02*
G75*
G02X99000000Y-44180000I0J-1000000D01*
G01*
X99000000Y-44180000D02*
X99000000Y-45430000D01*
X99000000Y-45430000D02*
X116900000Y-45430000D01*
X116900000Y-45430000D02*
X116900000Y-40930000D01*
X116900000Y-40930000D02*
X99000000Y-40930000D01*
X99000000Y-40930000D02*
X99000000Y-42180000D01*
G04 #@! TO.C,X1*
X74870000Y-42180000D02*
G75*
G02X74870000Y-44180000I0J-1000000D01*
G01*
X74870000Y-44180000D02*
X74870000Y-45430000D01*
X74870000Y-45430000D02*
X92770000Y-45430000D01*
X92770000Y-45430000D02*
X92770000Y-40930000D01*
X92770000Y-40930000D02*
X74870000Y-40930000D01*
X74870000Y-40930000D02*
X74870000Y-42180000D01*
X74810000Y-48430000D02*
X92830000Y-48430000D01*
X92830000Y-48430000D02*
X92830000Y-37930000D01*
X92830000Y-37930000D02*
X74810000Y-37930000D01*
X74810000Y-37930000D02*
X74810000Y-48430000D01*
G04 #@! TO.C,U4*
D13*
X107188095Y-53002380D02*
X107188095Y-53811904D01*
X107235714Y-53907142D01*
X107283333Y-53954761D01*
X107378571Y-54002380D01*
X107569047Y-54002380D01*
X107664285Y-53954761D01*
X107711904Y-53907142D01*
X107759523Y-53811904D01*
X107759523Y-53002380D01*
X108664285Y-53335714D02*
X108664285Y-54002380D01*
X108426190Y-52954761D02*
X108188095Y-53669047D01*
X108807142Y-53669047D01*
G04 #@! TO.C,U1*
X46652380Y-43941904D02*
X47461904Y-43941904D01*
X47557142Y-43894285D01*
X47604761Y-43846666D01*
X47652380Y-43751428D01*
X47652380Y-43560952D01*
X47604761Y-43465714D01*
X47557142Y-43418095D01*
X47461904Y-43370476D01*
X46652380Y-43370476D01*
X47652380Y-42370476D02*
X47652380Y-42941904D01*
X47652380Y-42656190D02*
X46652380Y-42656190D01*
X46795238Y-42751428D01*
X46890476Y-42846666D01*
X46938095Y-42941904D01*
G04 #@! TO.C,U8*
X83058095Y-53002380D02*
X83058095Y-53811904D01*
X83105714Y-53907142D01*
X83153333Y-53954761D01*
X83248571Y-54002380D01*
X83439047Y-54002380D01*
X83534285Y-53954761D01*
X83581904Y-53907142D01*
X83629523Y-53811904D01*
X83629523Y-53002380D01*
X84248571Y-53430952D02*
X84153333Y-53383333D01*
X84105714Y-53335714D01*
X84058095Y-53240476D01*
X84058095Y-53192857D01*
X84105714Y-53097619D01*
X84153333Y-53050000D01*
X84248571Y-53002380D01*
X84439047Y-53002380D01*
X84534285Y-53050000D01*
X84581904Y-53097619D01*
X84629523Y-53192857D01*
X84629523Y-53240476D01*
X84581904Y-53335714D01*
X84534285Y-53383333D01*
X84439047Y-53430952D01*
X84248571Y-53430952D01*
X84153333Y-53478571D01*
X84105714Y-53526190D01*
X84058095Y-53621428D01*
X84058095Y-53811904D01*
X84105714Y-53907142D01*
X84153333Y-53954761D01*
X84248571Y-54002380D01*
X84439047Y-54002380D01*
X84534285Y-53954761D01*
X84581904Y-53907142D01*
X84629523Y-53811904D01*
X84629523Y-53621428D01*
X84581904Y-53526190D01*
X84534285Y-53478571D01*
X84439047Y-53430952D01*
G04 #@! TO.C,C1*
X129857142Y-134131666D02*
X129904761Y-134179285D01*
X129952380Y-134322142D01*
X129952380Y-134417380D01*
X129904761Y-134560238D01*
X129809523Y-134655476D01*
X129714285Y-134703095D01*
X129523809Y-134750714D01*
X129380952Y-134750714D01*
X129190476Y-134703095D01*
X129095238Y-134655476D01*
X129000000Y-134560238D01*
X128952380Y-134417380D01*
X128952380Y-134322142D01*
X129000000Y-134179285D01*
X129047619Y-134131666D01*
X129952380Y-133179285D02*
X129952380Y-133750714D01*
X129952380Y-133465000D02*
X128952380Y-133465000D01*
X129095238Y-133560238D01*
X129190476Y-133655476D01*
X129238095Y-133750714D01*
G04 #@! TO.C,C3*
X86173333Y-28337142D02*
X86125714Y-28384761D01*
X85982857Y-28432380D01*
X85887619Y-28432380D01*
X85744761Y-28384761D01*
X85649523Y-28289523D01*
X85601904Y-28194285D01*
X85554285Y-28003809D01*
X85554285Y-27860952D01*
X85601904Y-27670476D01*
X85649523Y-27575238D01*
X85744761Y-27480000D01*
X85887619Y-27432380D01*
X85982857Y-27432380D01*
X86125714Y-27480000D01*
X86173333Y-27527619D01*
X86506666Y-27432380D02*
X87125714Y-27432380D01*
X86792380Y-27813333D01*
X86935238Y-27813333D01*
X87030476Y-27860952D01*
X87078095Y-27908571D01*
X87125714Y-28003809D01*
X87125714Y-28241904D01*
X87078095Y-28337142D01*
X87030476Y-28384761D01*
X86935238Y-28432380D01*
X86649523Y-28432380D01*
X86554285Y-28384761D01*
X86506666Y-28337142D01*
G04 #@! TO.C,C4*
X112863333Y-108307142D02*
X112815714Y-108354761D01*
X112672857Y-108402380D01*
X112577619Y-108402380D01*
X112434761Y-108354761D01*
X112339523Y-108259523D01*
X112291904Y-108164285D01*
X112244285Y-107973809D01*
X112244285Y-107830952D01*
X112291904Y-107640476D01*
X112339523Y-107545238D01*
X112434761Y-107450000D01*
X112577619Y-107402380D01*
X112672857Y-107402380D01*
X112815714Y-107450000D01*
X112863333Y-107497619D01*
X113720476Y-107735714D02*
X113720476Y-108402380D01*
X113482380Y-107354761D02*
X113244285Y-108069047D01*
X113863333Y-108069047D01*
G04 #@! TO.C,C7*
X50613333Y-32147142D02*
X50565714Y-32194761D01*
X50422857Y-32242380D01*
X50327619Y-32242380D01*
X50184761Y-32194761D01*
X50089523Y-32099523D01*
X50041904Y-32004285D01*
X49994285Y-31813809D01*
X49994285Y-31670952D01*
X50041904Y-31480476D01*
X50089523Y-31385238D01*
X50184761Y-31290000D01*
X50327619Y-31242380D01*
X50422857Y-31242380D01*
X50565714Y-31290000D01*
X50613333Y-31337619D01*
X50946666Y-31242380D02*
X51613333Y-31242380D01*
X51184761Y-32242380D01*
G04 #@! TO.C,C8*
X44938333Y-110212142D02*
X44890714Y-110259761D01*
X44747857Y-110307380D01*
X44652619Y-110307380D01*
X44509761Y-110259761D01*
X44414523Y-110164523D01*
X44366904Y-110069285D01*
X44319285Y-109878809D01*
X44319285Y-109735952D01*
X44366904Y-109545476D01*
X44414523Y-109450238D01*
X44509761Y-109355000D01*
X44652619Y-109307380D01*
X44747857Y-109307380D01*
X44890714Y-109355000D01*
X44938333Y-109402619D01*
X45509761Y-109735952D02*
X45414523Y-109688333D01*
X45366904Y-109640714D01*
X45319285Y-109545476D01*
X45319285Y-109497857D01*
X45366904Y-109402619D01*
X45414523Y-109355000D01*
X45509761Y-109307380D01*
X45700238Y-109307380D01*
X45795476Y-109355000D01*
X45843095Y-109402619D01*
X45890714Y-109497857D01*
X45890714Y-109545476D01*
X45843095Y-109640714D01*
X45795476Y-109688333D01*
X45700238Y-109735952D01*
X45509761Y-109735952D01*
X45414523Y-109783571D01*
X45366904Y-109831190D01*
X45319285Y-109926428D01*
X45319285Y-110116904D01*
X45366904Y-110212142D01*
X45414523Y-110259761D01*
X45509761Y-110307380D01*
X45700238Y-110307380D01*
X45795476Y-110259761D01*
X45843095Y-110212142D01*
X45890714Y-110116904D01*
X45890714Y-109926428D01*
X45843095Y-109831190D01*
X45795476Y-109783571D01*
X45700238Y-109735952D01*
G04 #@! TO.C,C9*
X99377142Y-43326666D02*
X99424761Y-43374285D01*
X99472380Y-43517142D01*
X99472380Y-43612380D01*
X99424761Y-43755238D01*
X99329523Y-43850476D01*
X99234285Y-43898095D01*
X99043809Y-43945714D01*
X98900952Y-43945714D01*
X98710476Y-43898095D01*
X98615238Y-43850476D01*
X98520000Y-43755238D01*
X98472380Y-43612380D01*
X98472380Y-43517142D01*
X98520000Y-43374285D01*
X98567619Y-43326666D01*
X99472380Y-42850476D02*
X99472380Y-42660000D01*
X99424761Y-42564761D01*
X99377142Y-42517142D01*
X99234285Y-42421904D01*
X99043809Y-42374285D01*
X98662857Y-42374285D01*
X98567619Y-42421904D01*
X98520000Y-42469523D01*
X98472380Y-42564761D01*
X98472380Y-42755238D01*
X98520000Y-42850476D01*
X98567619Y-42898095D01*
X98662857Y-42945714D01*
X98900952Y-42945714D01*
X98996190Y-42898095D01*
X99043809Y-42850476D01*
X99091428Y-42755238D01*
X99091428Y-42564761D01*
X99043809Y-42469523D01*
X98996190Y-42421904D01*
X98900952Y-42374285D01*
G04 #@! TO.C,C10*
X68937142Y-42532857D02*
X68984761Y-42580476D01*
X69032380Y-42723333D01*
X69032380Y-42818571D01*
X68984761Y-42961428D01*
X68889523Y-43056666D01*
X68794285Y-43104285D01*
X68603809Y-43151904D01*
X68460952Y-43151904D01*
X68270476Y-43104285D01*
X68175238Y-43056666D01*
X68080000Y-42961428D01*
X68032380Y-42818571D01*
X68032380Y-42723333D01*
X68080000Y-42580476D01*
X68127619Y-42532857D01*
X69032380Y-41580476D02*
X69032380Y-42151904D01*
X69032380Y-41866190D02*
X68032380Y-41866190D01*
X68175238Y-41961428D01*
X68270476Y-42056666D01*
X68318095Y-42151904D01*
X68032380Y-40961428D02*
X68032380Y-40866190D01*
X68080000Y-40770952D01*
X68127619Y-40723333D01*
X68222857Y-40675714D01*
X68413333Y-40628095D01*
X68651428Y-40628095D01*
X68841904Y-40675714D01*
X68937142Y-40723333D01*
X68984761Y-40770952D01*
X69032380Y-40866190D01*
X69032380Y-40961428D01*
X68984761Y-41056666D01*
X68937142Y-41104285D01*
X68841904Y-41151904D01*
X68651428Y-41199523D01*
X68413333Y-41199523D01*
X68222857Y-41151904D01*
X68127619Y-41104285D01*
X68080000Y-41056666D01*
X68032380Y-40961428D01*
G04 #@! TO.C,C12*
X41037142Y-78132857D02*
X41084761Y-78180476D01*
X41132380Y-78323333D01*
X41132380Y-78418571D01*
X41084761Y-78561428D01*
X40989523Y-78656666D01*
X40894285Y-78704285D01*
X40703809Y-78751904D01*
X40560952Y-78751904D01*
X40370476Y-78704285D01*
X40275238Y-78656666D01*
X40180000Y-78561428D01*
X40132380Y-78418571D01*
X40132380Y-78323333D01*
X40180000Y-78180476D01*
X40227619Y-78132857D01*
X41132380Y-77180476D02*
X41132380Y-77751904D01*
X41132380Y-77466190D02*
X40132380Y-77466190D01*
X40275238Y-77561428D01*
X40370476Y-77656666D01*
X40418095Y-77751904D01*
X40227619Y-76799523D02*
X40180000Y-76751904D01*
X40132380Y-76656666D01*
X40132380Y-76418571D01*
X40180000Y-76323333D01*
X40227619Y-76275714D01*
X40322857Y-76228095D01*
X40418095Y-76228095D01*
X40560952Y-76275714D01*
X41132380Y-76847142D01*
X41132380Y-76228095D01*
G04 #@! TO.C,C13*
X89547142Y-54927142D02*
X89499523Y-54974761D01*
X89356666Y-55022380D01*
X89261428Y-55022380D01*
X89118571Y-54974761D01*
X89023333Y-54879523D01*
X88975714Y-54784285D01*
X88928095Y-54593809D01*
X88928095Y-54450952D01*
X88975714Y-54260476D01*
X89023333Y-54165238D01*
X89118571Y-54070000D01*
X89261428Y-54022380D01*
X89356666Y-54022380D01*
X89499523Y-54070000D01*
X89547142Y-54117619D01*
X90499523Y-55022380D02*
X89928095Y-55022380D01*
X90213809Y-55022380D02*
X90213809Y-54022380D01*
X90118571Y-54165238D01*
X90023333Y-54260476D01*
X89928095Y-54308095D01*
X90832857Y-54022380D02*
X91451904Y-54022380D01*
X91118571Y-54403333D01*
X91261428Y-54403333D01*
X91356666Y-54450952D01*
X91404285Y-54498571D01*
X91451904Y-54593809D01*
X91451904Y-54831904D01*
X91404285Y-54927142D01*
X91356666Y-54974761D01*
X91261428Y-55022380D01*
X90975714Y-55022380D01*
X90880476Y-54974761D01*
X90832857Y-54927142D01*
G04 #@! TO.C,C14*
X113677142Y-54927142D02*
X113629523Y-54974761D01*
X113486666Y-55022380D01*
X113391428Y-55022380D01*
X113248571Y-54974761D01*
X113153333Y-54879523D01*
X113105714Y-54784285D01*
X113058095Y-54593809D01*
X113058095Y-54450952D01*
X113105714Y-54260476D01*
X113153333Y-54165238D01*
X113248571Y-54070000D01*
X113391428Y-54022380D01*
X113486666Y-54022380D01*
X113629523Y-54070000D01*
X113677142Y-54117619D01*
X114629523Y-55022380D02*
X114058095Y-55022380D01*
X114343809Y-55022380D02*
X114343809Y-54022380D01*
X114248571Y-54165238D01*
X114153333Y-54260476D01*
X114058095Y-54308095D01*
X115486666Y-54355714D02*
X115486666Y-55022380D01*
X115248571Y-53974761D02*
X115010476Y-54689047D01*
X115629523Y-54689047D01*
G04 #@! TO.C,C15*
X58392142Y-77867142D02*
X58344523Y-77914761D01*
X58201666Y-77962380D01*
X58106428Y-77962380D01*
X57963571Y-77914761D01*
X57868333Y-77819523D01*
X57820714Y-77724285D01*
X57773095Y-77533809D01*
X57773095Y-77390952D01*
X57820714Y-77200476D01*
X57868333Y-77105238D01*
X57963571Y-77010000D01*
X58106428Y-76962380D01*
X58201666Y-76962380D01*
X58344523Y-77010000D01*
X58392142Y-77057619D01*
X59344523Y-77962380D02*
X58773095Y-77962380D01*
X59058809Y-77962380D02*
X59058809Y-76962380D01*
X58963571Y-77105238D01*
X58868333Y-77200476D01*
X58773095Y-77248095D01*
X60249285Y-76962380D02*
X59773095Y-76962380D01*
X59725476Y-77438571D01*
X59773095Y-77390952D01*
X59868333Y-77343333D01*
X60106428Y-77343333D01*
X60201666Y-77390952D01*
X60249285Y-77438571D01*
X60296904Y-77533809D01*
X60296904Y-77771904D01*
X60249285Y-77867142D01*
X60201666Y-77914761D01*
X60106428Y-77962380D01*
X59868333Y-77962380D01*
X59773095Y-77914761D01*
X59725476Y-77867142D01*
G04 #@! TO.C,C16*
X42267142Y-43822857D02*
X42314761Y-43870476D01*
X42362380Y-44013333D01*
X42362380Y-44108571D01*
X42314761Y-44251428D01*
X42219523Y-44346666D01*
X42124285Y-44394285D01*
X41933809Y-44441904D01*
X41790952Y-44441904D01*
X41600476Y-44394285D01*
X41505238Y-44346666D01*
X41410000Y-44251428D01*
X41362380Y-44108571D01*
X41362380Y-44013333D01*
X41410000Y-43870476D01*
X41457619Y-43822857D01*
X42362380Y-42870476D02*
X42362380Y-43441904D01*
X42362380Y-43156190D02*
X41362380Y-43156190D01*
X41505238Y-43251428D01*
X41600476Y-43346666D01*
X41648095Y-43441904D01*
X41362380Y-42013333D02*
X41362380Y-42203809D01*
X41410000Y-42299047D01*
X41457619Y-42346666D01*
X41600476Y-42441904D01*
X41790952Y-42489523D01*
X42171904Y-42489523D01*
X42267142Y-42441904D01*
X42314761Y-42394285D01*
X42362380Y-42299047D01*
X42362380Y-42108571D01*
X42314761Y-42013333D01*
X42267142Y-41965714D01*
X42171904Y-41918095D01*
X41933809Y-41918095D01*
X41838571Y-41965714D01*
X41790952Y-42013333D01*
X41743333Y-42108571D01*
X41743333Y-42299047D01*
X41790952Y-42394285D01*
X41838571Y-42441904D01*
X41933809Y-42489523D01*
G04 #@! TO.C,C17*
X62242142Y-110212142D02*
X62194523Y-110259761D01*
X62051666Y-110307380D01*
X61956428Y-110307380D01*
X61813571Y-110259761D01*
X61718333Y-110164523D01*
X61670714Y-110069285D01*
X61623095Y-109878809D01*
X61623095Y-109735952D01*
X61670714Y-109545476D01*
X61718333Y-109450238D01*
X61813571Y-109355000D01*
X61956428Y-109307380D01*
X62051666Y-109307380D01*
X62194523Y-109355000D01*
X62242142Y-109402619D01*
X63194523Y-110307380D02*
X62623095Y-110307380D01*
X62908809Y-110307380D02*
X62908809Y-109307380D01*
X62813571Y-109450238D01*
X62718333Y-109545476D01*
X62623095Y-109593095D01*
X63527857Y-109307380D02*
X64194523Y-109307380D01*
X63765952Y-110307380D01*
G04 #@! TO.C,C18*
X93992142Y-108307142D02*
X93944523Y-108354761D01*
X93801666Y-108402380D01*
X93706428Y-108402380D01*
X93563571Y-108354761D01*
X93468333Y-108259523D01*
X93420714Y-108164285D01*
X93373095Y-107973809D01*
X93373095Y-107830952D01*
X93420714Y-107640476D01*
X93468333Y-107545238D01*
X93563571Y-107450000D01*
X93706428Y-107402380D01*
X93801666Y-107402380D01*
X93944523Y-107450000D01*
X93992142Y-107497619D01*
X94944523Y-108402380D02*
X94373095Y-108402380D01*
X94658809Y-108402380D02*
X94658809Y-107402380D01*
X94563571Y-107545238D01*
X94468333Y-107640476D01*
X94373095Y-107688095D01*
X95515952Y-107830952D02*
X95420714Y-107783333D01*
X95373095Y-107735714D01*
X95325476Y-107640476D01*
X95325476Y-107592857D01*
X95373095Y-107497619D01*
X95420714Y-107450000D01*
X95515952Y-107402380D01*
X95706428Y-107402380D01*
X95801666Y-107450000D01*
X95849285Y-107497619D01*
X95896904Y-107592857D01*
X95896904Y-107640476D01*
X95849285Y-107735714D01*
X95801666Y-107783333D01*
X95706428Y-107830952D01*
X95515952Y-107830952D01*
X95420714Y-107878571D01*
X95373095Y-107926190D01*
X95325476Y-108021428D01*
X95325476Y-108211904D01*
X95373095Y-108307142D01*
X95420714Y-108354761D01*
X95515952Y-108402380D01*
X95706428Y-108402380D01*
X95801666Y-108354761D01*
X95849285Y-108307142D01*
X95896904Y-108211904D01*
X95896904Y-108021428D01*
X95849285Y-107926190D01*
X95801666Y-107878571D01*
X95706428Y-107830952D01*
G04 #@! TO.C,C19*
X133997142Y-42227142D02*
X133949523Y-42274761D01*
X133806666Y-42322380D01*
X133711428Y-42322380D01*
X133568571Y-42274761D01*
X133473333Y-42179523D01*
X133425714Y-42084285D01*
X133378095Y-41893809D01*
X133378095Y-41750952D01*
X133425714Y-41560476D01*
X133473333Y-41465238D01*
X133568571Y-41370000D01*
X133711428Y-41322380D01*
X133806666Y-41322380D01*
X133949523Y-41370000D01*
X133997142Y-41417619D01*
X134949523Y-42322380D02*
X134378095Y-42322380D01*
X134663809Y-42322380D02*
X134663809Y-41322380D01*
X134568571Y-41465238D01*
X134473333Y-41560476D01*
X134378095Y-41608095D01*
X135425714Y-42322380D02*
X135616190Y-42322380D01*
X135711428Y-42274761D01*
X135759047Y-42227142D01*
X135854285Y-42084285D01*
X135901904Y-41893809D01*
X135901904Y-41512857D01*
X135854285Y-41417619D01*
X135806666Y-41370000D01*
X135711428Y-41322380D01*
X135520952Y-41322380D01*
X135425714Y-41370000D01*
X135378095Y-41417619D01*
X135330476Y-41512857D01*
X135330476Y-41750952D01*
X135378095Y-41846190D01*
X135425714Y-41893809D01*
X135520952Y-41941428D01*
X135711428Y-41941428D01*
X135806666Y-41893809D01*
X135854285Y-41846190D01*
X135901904Y-41750952D01*
G04 #@! TO.C,REF\002A\002A*
X27876666Y-102932380D02*
X27543333Y-102456190D01*
X27305238Y-102932380D02*
X27305238Y-101932380D01*
X27686190Y-101932380D01*
X27781428Y-101980000D01*
X27829047Y-102027619D01*
X27876666Y-102122857D01*
X27876666Y-102265714D01*
X27829047Y-102360952D01*
X27781428Y-102408571D01*
X27686190Y-102456190D01*
X27305238Y-102456190D01*
X28305238Y-102408571D02*
X28638571Y-102408571D01*
X28781428Y-102932380D02*
X28305238Y-102932380D01*
X28305238Y-101932380D01*
X28781428Y-101932380D01*
X29543333Y-102408571D02*
X29210000Y-102408571D01*
X29210000Y-102932380D02*
X29210000Y-101932380D01*
X29686190Y-101932380D01*
X30210000Y-101932380D02*
X30210000Y-102170476D01*
X29971904Y-102075238D02*
X30210000Y-102170476D01*
X30448095Y-102075238D01*
X30067142Y-102360952D02*
X30210000Y-102170476D01*
X30352857Y-102360952D01*
X30971904Y-101932380D02*
X30971904Y-102170476D01*
X30733809Y-102075238D02*
X30971904Y-102170476D01*
X31210000Y-102075238D01*
X30829047Y-102360952D02*
X30971904Y-102170476D01*
X31114761Y-102360952D01*
G04 #@! TO.C,C2*
X58233333Y-28337142D02*
X58185714Y-28384761D01*
X58042857Y-28432380D01*
X57947619Y-28432380D01*
X57804761Y-28384761D01*
X57709523Y-28289523D01*
X57661904Y-28194285D01*
X57614285Y-28003809D01*
X57614285Y-27860952D01*
X57661904Y-27670476D01*
X57709523Y-27575238D01*
X57804761Y-27480000D01*
X57947619Y-27432380D01*
X58042857Y-27432380D01*
X58185714Y-27480000D01*
X58233333Y-27527619D01*
X58614285Y-27527619D02*
X58661904Y-27480000D01*
X58757142Y-27432380D01*
X58995238Y-27432380D01*
X59090476Y-27480000D01*
X59138095Y-27527619D01*
X59185714Y-27622857D01*
X59185714Y-27718095D01*
X59138095Y-27860952D01*
X58566666Y-28432380D01*
X59185714Y-28432380D01*
G04 #@! TO.C,D1*
X137691904Y-135922380D02*
X137691904Y-134922380D01*
X137930000Y-134922380D01*
X138072857Y-134970000D01*
X138168095Y-135065238D01*
X138215714Y-135160476D01*
X138263333Y-135350952D01*
X138263333Y-135493809D01*
X138215714Y-135684285D01*
X138168095Y-135779523D01*
X138072857Y-135874761D01*
X137930000Y-135922380D01*
X137691904Y-135922380D01*
X139215714Y-135922380D02*
X138644285Y-135922380D01*
X138930000Y-135922380D02*
X138930000Y-134922380D01*
X138834761Y-135065238D01*
X138739523Y-135160476D01*
X138644285Y-135208095D01*
G04 #@! TO.C,D2*
X125332380Y-123928095D02*
X124332380Y-123928095D01*
X124332380Y-123690000D01*
X124380000Y-123547142D01*
X124475238Y-123451904D01*
X124570476Y-123404285D01*
X124760952Y-123356666D01*
X124903809Y-123356666D01*
X125094285Y-123404285D01*
X125189523Y-123451904D01*
X125284761Y-123547142D01*
X125332380Y-123690000D01*
X125332380Y-123928095D01*
X124427619Y-122975714D02*
X124380000Y-122928095D01*
X124332380Y-122832857D01*
X124332380Y-122594761D01*
X124380000Y-122499523D01*
X124427619Y-122451904D01*
X124522857Y-122404285D01*
X124618095Y-122404285D01*
X124760952Y-122451904D01*
X125332380Y-123023333D01*
X125332380Y-122404285D01*
X125652380Y-128531904D02*
X124652380Y-128531904D01*
X125652380Y-127960476D02*
X125080952Y-128389047D01*
X124652380Y-127960476D02*
X125223809Y-128531904D01*
G04 #@! TO.C,D3*
X137691904Y-121317380D02*
X137691904Y-120317380D01*
X137930000Y-120317380D01*
X138072857Y-120365000D01*
X138168095Y-120460238D01*
X138215714Y-120555476D01*
X138263333Y-120745952D01*
X138263333Y-120888809D01*
X138215714Y-121079285D01*
X138168095Y-121174523D01*
X138072857Y-121269761D01*
X137930000Y-121317380D01*
X137691904Y-121317380D01*
X138596666Y-120317380D02*
X139215714Y-120317380D01*
X138882380Y-120698333D01*
X139025238Y-120698333D01*
X139120476Y-120745952D01*
X139168095Y-120793571D01*
X139215714Y-120888809D01*
X139215714Y-121126904D01*
X139168095Y-121222142D01*
X139120476Y-121269761D01*
X139025238Y-121317380D01*
X138739523Y-121317380D01*
X138644285Y-121269761D01*
X138596666Y-121222142D01*
G04 #@! TO.C,D4*
X56411904Y-168942380D02*
X56411904Y-167942380D01*
X56650000Y-167942380D01*
X56792857Y-167990000D01*
X56888095Y-168085238D01*
X56935714Y-168180476D01*
X56983333Y-168370952D01*
X56983333Y-168513809D01*
X56935714Y-168704285D01*
X56888095Y-168799523D01*
X56792857Y-168894761D01*
X56650000Y-168942380D01*
X56411904Y-168942380D01*
X57840476Y-168275714D02*
X57840476Y-168942380D01*
X57602380Y-167894761D02*
X57364285Y-168609047D01*
X57983333Y-168609047D01*
X60698095Y-168622380D02*
X60698095Y-167622380D01*
X61269523Y-168622380D02*
X60840952Y-168050952D01*
X61269523Y-167622380D02*
X60698095Y-168193809D01*
G04 #@! TO.C,D5*
X44346904Y-168942380D02*
X44346904Y-167942380D01*
X44585000Y-167942380D01*
X44727857Y-167990000D01*
X44823095Y-168085238D01*
X44870714Y-168180476D01*
X44918333Y-168370952D01*
X44918333Y-168513809D01*
X44870714Y-168704285D01*
X44823095Y-168799523D01*
X44727857Y-168894761D01*
X44585000Y-168942380D01*
X44346904Y-168942380D01*
X45823095Y-167942380D02*
X45346904Y-167942380D01*
X45299285Y-168418571D01*
X45346904Y-168370952D01*
X45442142Y-168323333D01*
X45680238Y-168323333D01*
X45775476Y-168370952D01*
X45823095Y-168418571D01*
X45870714Y-168513809D01*
X45870714Y-168751904D01*
X45823095Y-168847142D01*
X45775476Y-168894761D01*
X45680238Y-168942380D01*
X45442142Y-168942380D01*
X45346904Y-168894761D01*
X45299285Y-168847142D01*
X48633095Y-168622380D02*
X48633095Y-167622380D01*
X49204523Y-168622380D02*
X48775952Y-168050952D01*
X49204523Y-167622380D02*
X48633095Y-168193809D01*
G04 #@! TO.C,J1*
X136826666Y-66972380D02*
X136826666Y-67686666D01*
X136779047Y-67829523D01*
X136683809Y-67924761D01*
X136540952Y-67972380D01*
X136445714Y-67972380D01*
X137826666Y-67972380D02*
X137255238Y-67972380D01*
X137540952Y-67972380D02*
X137540952Y-66972380D01*
X137445714Y-67115238D01*
X137350476Y-67210476D01*
X137255238Y-67258095D01*
G04 #@! TO.C,J2*
X90682380Y-157178333D02*
X91396666Y-157178333D01*
X91539523Y-157225952D01*
X91634761Y-157321190D01*
X91682380Y-157464047D01*
X91682380Y-157559285D01*
X90777619Y-156749761D02*
X90730000Y-156702142D01*
X90682380Y-156606904D01*
X90682380Y-156368809D01*
X90730000Y-156273571D01*
X90777619Y-156225952D01*
X90872857Y-156178333D01*
X90968095Y-156178333D01*
X91110952Y-156225952D01*
X91682380Y-156797380D01*
X91682380Y-156178333D01*
G04 #@! TO.C,J3*
X42207380Y-157178333D02*
X42921666Y-157178333D01*
X43064523Y-157225952D01*
X43159761Y-157321190D01*
X43207380Y-157464047D01*
X43207380Y-157559285D01*
X42207380Y-156797380D02*
X42207380Y-156178333D01*
X42588333Y-156511666D01*
X42588333Y-156368809D01*
X42635952Y-156273571D01*
X42683571Y-156225952D01*
X42778809Y-156178333D01*
X43016904Y-156178333D01*
X43112142Y-156225952D01*
X43159761Y-156273571D01*
X43207380Y-156368809D01*
X43207380Y-156654523D01*
X43159761Y-156749761D01*
X43112142Y-156797380D01*
G04 #@! TO.C,J5*
X39746666Y-26052380D02*
X39746666Y-26766666D01*
X39699047Y-26909523D01*
X39603809Y-27004761D01*
X39460952Y-27052380D01*
X39365714Y-27052380D01*
X40699047Y-26052380D02*
X40222857Y-26052380D01*
X40175238Y-26528571D01*
X40222857Y-26480952D01*
X40318095Y-26433333D01*
X40556190Y-26433333D01*
X40651428Y-26480952D01*
X40699047Y-26528571D01*
X40746666Y-26623809D01*
X40746666Y-26861904D01*
X40699047Y-26957142D01*
X40651428Y-27004761D01*
X40556190Y-27052380D01*
X40318095Y-27052380D01*
X40222857Y-27004761D01*
X40175238Y-26957142D01*
G04 #@! TO.C,JP1*
X80446666Y-91737380D02*
X80446666Y-92451666D01*
X80399047Y-92594523D01*
X80303809Y-92689761D01*
X80160952Y-92737380D01*
X80065714Y-92737380D01*
X80922857Y-92737380D02*
X80922857Y-91737380D01*
X81303809Y-91737380D01*
X81399047Y-91785000D01*
X81446666Y-91832619D01*
X81494285Y-91927857D01*
X81494285Y-92070714D01*
X81446666Y-92165952D01*
X81399047Y-92213571D01*
X81303809Y-92261190D01*
X80922857Y-92261190D01*
X82446666Y-92737380D02*
X81875238Y-92737380D01*
X82160952Y-92737380D02*
X82160952Y-91737380D01*
X82065714Y-91880238D01*
X81970476Y-91975476D01*
X81875238Y-92023095D01*
G04 #@! TO.C,R1*
X95718333Y-141437380D02*
X95385000Y-140961190D01*
X95146904Y-141437380D02*
X95146904Y-140437380D01*
X95527857Y-140437380D01*
X95623095Y-140485000D01*
X95670714Y-140532619D01*
X95718333Y-140627857D01*
X95718333Y-140770714D01*
X95670714Y-140865952D01*
X95623095Y-140913571D01*
X95527857Y-140961190D01*
X95146904Y-140961190D01*
X96670714Y-141437380D02*
X96099285Y-141437380D01*
X96385000Y-141437380D02*
X96385000Y-140437380D01*
X96289761Y-140580238D01*
X96194523Y-140675476D01*
X96099285Y-140723095D01*
G04 #@! TO.C,R2*
X41743333Y-92542380D02*
X41410000Y-92066190D01*
X41171904Y-92542380D02*
X41171904Y-91542380D01*
X41552857Y-91542380D01*
X41648095Y-91590000D01*
X41695714Y-91637619D01*
X41743333Y-91732857D01*
X41743333Y-91875714D01*
X41695714Y-91970952D01*
X41648095Y-92018571D01*
X41552857Y-92066190D01*
X41171904Y-92066190D01*
X42124285Y-91637619D02*
X42171904Y-91590000D01*
X42267142Y-91542380D01*
X42505238Y-91542380D01*
X42600476Y-91590000D01*
X42648095Y-91637619D01*
X42695714Y-91732857D01*
X42695714Y-91828095D01*
X42648095Y-91970952D01*
X42076666Y-92542380D01*
X42695714Y-92542380D01*
G04 #@! TO.C,R3*
X41712380Y-63666666D02*
X41236190Y-64000000D01*
X41712380Y-64238095D02*
X40712380Y-64238095D01*
X40712380Y-63857142D01*
X40760000Y-63761904D01*
X40807619Y-63714285D01*
X40902857Y-63666666D01*
X41045714Y-63666666D01*
X41140952Y-63714285D01*
X41188571Y-63761904D01*
X41236190Y-63857142D01*
X41236190Y-64238095D01*
X40712380Y-63333333D02*
X40712380Y-62714285D01*
X41093333Y-63047619D01*
X41093333Y-62904761D01*
X41140952Y-62809523D01*
X41188571Y-62761904D01*
X41283809Y-62714285D01*
X41521904Y-62714285D01*
X41617142Y-62761904D01*
X41664761Y-62809523D01*
X41712380Y-62904761D01*
X41712380Y-63190476D01*
X41664761Y-63285714D01*
X41617142Y-63333333D01*
G04 #@! TO.C,R4*
X125532380Y-111291666D02*
X125056190Y-111625000D01*
X125532380Y-111863095D02*
X124532380Y-111863095D01*
X124532380Y-111482142D01*
X124580000Y-111386904D01*
X124627619Y-111339285D01*
X124722857Y-111291666D01*
X124865714Y-111291666D01*
X124960952Y-111339285D01*
X125008571Y-111386904D01*
X125056190Y-111482142D01*
X125056190Y-111863095D01*
X124865714Y-110434523D02*
X125532380Y-110434523D01*
X124484761Y-110672619D02*
X125199047Y-110910714D01*
X125199047Y-110291666D01*
G04 #@! TO.C,R5*
X105243333Y-141437380D02*
X104910000Y-140961190D01*
X104671904Y-141437380D02*
X104671904Y-140437380D01*
X105052857Y-140437380D01*
X105148095Y-140485000D01*
X105195714Y-140532619D01*
X105243333Y-140627857D01*
X105243333Y-140770714D01*
X105195714Y-140865952D01*
X105148095Y-140913571D01*
X105052857Y-140961190D01*
X104671904Y-140961190D01*
X106148095Y-140437380D02*
X105671904Y-140437380D01*
X105624285Y-140913571D01*
X105671904Y-140865952D01*
X105767142Y-140818333D01*
X106005238Y-140818333D01*
X106100476Y-140865952D01*
X106148095Y-140913571D01*
X106195714Y-141008809D01*
X106195714Y-141246904D01*
X106148095Y-141342142D01*
X106100476Y-141389761D01*
X106005238Y-141437380D01*
X105767142Y-141437380D01*
X105671904Y-141389761D01*
X105624285Y-141342142D01*
G04 #@! TO.C,R7*
X41743333Y-97622380D02*
X41410000Y-97146190D01*
X41171904Y-97622380D02*
X41171904Y-96622380D01*
X41552857Y-96622380D01*
X41648095Y-96670000D01*
X41695714Y-96717619D01*
X41743333Y-96812857D01*
X41743333Y-96955714D01*
X41695714Y-97050952D01*
X41648095Y-97098571D01*
X41552857Y-97146190D01*
X41171904Y-97146190D01*
X42076666Y-96622380D02*
X42743333Y-96622380D01*
X42314761Y-97622380D01*
G04 #@! TO.C,RN1*
X79687380Y-128325476D02*
X79211190Y-128658809D01*
X79687380Y-128896904D02*
X78687380Y-128896904D01*
X78687380Y-128515952D01*
X78735000Y-128420714D01*
X78782619Y-128373095D01*
X78877857Y-128325476D01*
X79020714Y-128325476D01*
X79115952Y-128373095D01*
X79163571Y-128420714D01*
X79211190Y-128515952D01*
X79211190Y-128896904D01*
X79687380Y-127896904D02*
X78687380Y-127896904D01*
X79687380Y-127325476D01*
X78687380Y-127325476D01*
X79687380Y-126325476D02*
X79687380Y-126896904D01*
X79687380Y-126611190D02*
X78687380Y-126611190D01*
X78830238Y-126706428D01*
X78925476Y-126801666D01*
X78973095Y-126896904D01*
G04 #@! TO.C,SW1*
X127646666Y-152709761D02*
X127789523Y-152757380D01*
X128027619Y-152757380D01*
X128122857Y-152709761D01*
X128170476Y-152662142D01*
X128218095Y-152566904D01*
X128218095Y-152471666D01*
X128170476Y-152376428D01*
X128122857Y-152328809D01*
X128027619Y-152281190D01*
X127837142Y-152233571D01*
X127741904Y-152185952D01*
X127694285Y-152138333D01*
X127646666Y-152043095D01*
X127646666Y-151947857D01*
X127694285Y-151852619D01*
X127741904Y-151805000D01*
X127837142Y-151757380D01*
X128075238Y-151757380D01*
X128218095Y-151805000D01*
X128551428Y-151757380D02*
X128789523Y-152757380D01*
X128980000Y-152043095D01*
X129170476Y-152757380D01*
X129408571Y-151757380D01*
X130313333Y-152757380D02*
X129741904Y-152757380D01*
X130027619Y-152757380D02*
X130027619Y-151757380D01*
X129932380Y-151900238D01*
X129837142Y-151995476D01*
X129741904Y-152043095D01*
G04 #@! TO.C,U2*
X39878095Y-113327380D02*
X39878095Y-114136904D01*
X39925714Y-114232142D01*
X39973333Y-114279761D01*
X40068571Y-114327380D01*
X40259047Y-114327380D01*
X40354285Y-114279761D01*
X40401904Y-114232142D01*
X40449523Y-114136904D01*
X40449523Y-113327380D01*
X40878095Y-113422619D02*
X40925714Y-113375000D01*
X41020952Y-113327380D01*
X41259047Y-113327380D01*
X41354285Y-113375000D01*
X41401904Y-113422619D01*
X41449523Y-113517857D01*
X41449523Y-113613095D01*
X41401904Y-113755952D01*
X40830476Y-114327380D01*
X41449523Y-114327380D01*
G04 #@! TO.C,U3*
X56388095Y-50462380D02*
X56388095Y-51271904D01*
X56435714Y-51367142D01*
X56483333Y-51414761D01*
X56578571Y-51462380D01*
X56769047Y-51462380D01*
X56864285Y-51414761D01*
X56911904Y-51367142D01*
X56959523Y-51271904D01*
X56959523Y-50462380D01*
X57340476Y-50462380D02*
X57959523Y-50462380D01*
X57626190Y-50843333D01*
X57769047Y-50843333D01*
X57864285Y-50890952D01*
X57911904Y-50938571D01*
X57959523Y-51033809D01*
X57959523Y-51271904D01*
X57911904Y-51367142D01*
X57864285Y-51414761D01*
X57769047Y-51462380D01*
X57483333Y-51462380D01*
X57388095Y-51414761D01*
X57340476Y-51367142D01*
G04 #@! TO.C,U5*
X58293095Y-112482380D02*
X58293095Y-113291904D01*
X58340714Y-113387142D01*
X58388333Y-113434761D01*
X58483571Y-113482380D01*
X58674047Y-113482380D01*
X58769285Y-113434761D01*
X58816904Y-113387142D01*
X58864523Y-113291904D01*
X58864523Y-112482380D01*
X59816904Y-112482380D02*
X59340714Y-112482380D01*
X59293095Y-112958571D01*
X59340714Y-112910952D01*
X59435952Y-112863333D01*
X59674047Y-112863333D01*
X59769285Y-112910952D01*
X59816904Y-112958571D01*
X59864523Y-113053809D01*
X59864523Y-113291904D01*
X59816904Y-113387142D01*
X59769285Y-113434761D01*
X59674047Y-113482380D01*
X59435952Y-113482380D01*
X59340714Y-113434761D01*
X59293095Y-113387142D01*
G04 #@! TO.C,U6*
X111633095Y-113962380D02*
X111633095Y-114771904D01*
X111680714Y-114867142D01*
X111728333Y-114914761D01*
X111823571Y-114962380D01*
X112014047Y-114962380D01*
X112109285Y-114914761D01*
X112156904Y-114867142D01*
X112204523Y-114771904D01*
X112204523Y-113962380D01*
X113109285Y-113962380D02*
X112918809Y-113962380D01*
X112823571Y-114010000D01*
X112775952Y-114057619D01*
X112680714Y-114200476D01*
X112633095Y-114390952D01*
X112633095Y-114771904D01*
X112680714Y-114867142D01*
X112728333Y-114914761D01*
X112823571Y-114962380D01*
X113014047Y-114962380D01*
X113109285Y-114914761D01*
X113156904Y-114867142D01*
X113204523Y-114771904D01*
X113204523Y-114533809D01*
X113156904Y-114438571D01*
X113109285Y-114390952D01*
X113014047Y-114343333D01*
X112823571Y-114343333D01*
X112728333Y-114390952D01*
X112680714Y-114438571D01*
X112633095Y-114533809D01*
G04 #@! TO.C,U7*
X131318095Y-40937380D02*
X131318095Y-41746904D01*
X131365714Y-41842142D01*
X131413333Y-41889761D01*
X131508571Y-41937380D01*
X131699047Y-41937380D01*
X131794285Y-41889761D01*
X131841904Y-41842142D01*
X131889523Y-41746904D01*
X131889523Y-40937380D01*
X132270476Y-40937380D02*
X132937142Y-40937380D01*
X132508571Y-41937380D01*
G04 #@! TO.C,U13*
X93376904Y-113752380D02*
X93376904Y-114561904D01*
X93424523Y-114657142D01*
X93472142Y-114704761D01*
X93567380Y-114752380D01*
X93757857Y-114752380D01*
X93853095Y-114704761D01*
X93900714Y-114657142D01*
X93948333Y-114561904D01*
X93948333Y-113752380D01*
X94948333Y-114752380D02*
X94376904Y-114752380D01*
X94662619Y-114752380D02*
X94662619Y-113752380D01*
X94567380Y-113895238D01*
X94472142Y-113990476D01*
X94376904Y-114038095D01*
X95281666Y-113752380D02*
X95900714Y-113752380D01*
X95567380Y-114133333D01*
X95710238Y-114133333D01*
X95805476Y-114180952D01*
X95853095Y-114228571D01*
X95900714Y-114323809D01*
X95900714Y-114561904D01*
X95853095Y-114657142D01*
X95805476Y-114704761D01*
X95710238Y-114752380D01*
X95424523Y-114752380D01*
X95329285Y-114704761D01*
X95281666Y-114657142D01*
G04 #@! TO.C,U16*
X71151904Y-25764880D02*
X71151904Y-26574404D01*
X71199523Y-26669642D01*
X71247142Y-26717261D01*
X71342380Y-26764880D01*
X71532857Y-26764880D01*
X71628095Y-26717261D01*
X71675714Y-26669642D01*
X71723333Y-26574404D01*
X71723333Y-25764880D01*
X72723333Y-26764880D02*
X72151904Y-26764880D01*
X72437619Y-26764880D02*
X72437619Y-25764880D01*
X72342380Y-25907738D01*
X72247142Y-26002976D01*
X72151904Y-26050595D01*
X73580476Y-25764880D02*
X73390000Y-25764880D01*
X73294761Y-25812500D01*
X73247142Y-25860119D01*
X73151904Y-26002976D01*
X73104285Y-26193452D01*
X73104285Y-26574404D01*
X73151904Y-26669642D01*
X73199523Y-26717261D01*
X73294761Y-26764880D01*
X73485238Y-26764880D01*
X73580476Y-26717261D01*
X73628095Y-26669642D01*
X73675714Y-26574404D01*
X73675714Y-26336309D01*
X73628095Y-26241071D01*
X73580476Y-26193452D01*
X73485238Y-26145833D01*
X73294761Y-26145833D01*
X73199523Y-26193452D01*
X73151904Y-26241071D01*
X73104285Y-26336309D01*
G04 #@! TO.C,U17*
X97452380Y-44418095D02*
X98261904Y-44418095D01*
X98357142Y-44370476D01*
X98404761Y-44322857D01*
X98452380Y-44227619D01*
X98452380Y-44037142D01*
X98404761Y-43941904D01*
X98357142Y-43894285D01*
X98261904Y-43846666D01*
X97452380Y-43846666D01*
X98452380Y-42846666D02*
X98452380Y-43418095D01*
X98452380Y-43132380D02*
X97452380Y-43132380D01*
X97595238Y-43227619D01*
X97690476Y-43322857D01*
X97738095Y-43418095D01*
X97452380Y-42513333D02*
X97452380Y-41846666D01*
X98452380Y-42275238D01*
G04 #@! TO.C,X1*
X73322380Y-43989523D02*
X74322380Y-43322857D01*
X73322380Y-43322857D02*
X74322380Y-43989523D01*
X74322380Y-42418095D02*
X74322380Y-42989523D01*
X74322380Y-42703809D02*
X73322380Y-42703809D01*
X73465238Y-42799047D01*
X73560476Y-42894285D01*
X73608095Y-42989523D01*
G04 #@! TD*
M02*
