%TF.GenerationSoftware,KiCad,Pcbnew,5.1.6-c6e7f7d~87~ubuntu20.04.1*%
%TF.CreationDate,2020-08-14T15:03:36-04:00*%
%TF.ProjectId,psu,7073752e-6b69-4636-9164-5f7063625858,rev?*%
%TF.SameCoordinates,Original*%
%TF.FileFunction,Copper,L2,Bot*%
%TF.FilePolarity,Positive*%
%FSLAX46Y46*%
G04 Gerber Fmt 4.6, Leading zero omitted, Abs format (unit mm)*
G04 Created by KiCad (PCBNEW 5.1.6-c6e7f7d~87~ubuntu20.04.1) date 2020-08-14 15:03:36*
%MOMM*%
%LPD*%
G01*
G04 APERTURE LIST*
%TA.AperFunction,ComponentPad*%
%ADD10O,1.600000X1.600000*%
%TD*%
%TA.AperFunction,ComponentPad*%
%ADD11C,1.600000*%
%TD*%
%TA.AperFunction,ComponentPad*%
%ADD12C,7.000000*%
%TD*%
%TA.AperFunction,ComponentPad*%
%ADD13R,1.800000X1.800000*%
%TD*%
%TA.AperFunction,ComponentPad*%
%ADD14C,1.800000*%
%TD*%
%TA.AperFunction,ComponentPad*%
%ADD15O,3.160000X4.100000*%
%TD*%
%TA.AperFunction,ComponentPad*%
%ADD16R,1.700000X1.700000*%
%TD*%
%TA.AperFunction,ComponentPad*%
%ADD17O,1.700000X1.700000*%
%TD*%
%TA.AperFunction,ComponentPad*%
%ADD18O,4.100000X3.160000*%
%TD*%
%TA.AperFunction,ComponentPad*%
%ADD19R,1.500000X1.050000*%
%TD*%
%TA.AperFunction,ComponentPad*%
%ADD20O,1.500000X1.050000*%
%TD*%
%TA.AperFunction,ComponentPad*%
%ADD21R,1.905000X2.000000*%
%TD*%
%TA.AperFunction,ComponentPad*%
%ADD22O,1.905000X2.000000*%
%TD*%
%TA.AperFunction,ComponentPad*%
%ADD23C,1.524000*%
%TD*%
%TA.AperFunction,ViaPad*%
%ADD24C,0.635000*%
%TD*%
%TA.AperFunction,Conductor*%
%ADD25C,0.381000*%
%TD*%
%TA.AperFunction,Conductor*%
%ADD26C,1.270000*%
%TD*%
%TA.AperFunction,Conductor*%
%ADD27C,0.254000*%
%TD*%
G04 APERTURE END LIST*
D10*
%TO.P,R7,2*%
%TO.N,Net-(D1-Pad1)*%
X102870000Y-88265000D03*
D11*
%TO.P,R7,1*%
%TO.N,GND*%
X92710000Y-88265000D03*
%TD*%
D10*
%TO.P,R8,2*%
%TO.N,Net-(D2-Pad1)*%
X107315000Y-88265000D03*
D11*
%TO.P,R8,1*%
%TO.N,GND*%
X117475000Y-88265000D03*
%TD*%
D12*
%TO.P,REF\u002A\u002A,1*%
%TO.N,N/C*%
X70485000Y-80645000D03*
%TD*%
%TO.P,REF\u002A\u002A,1*%
%TO.N,N/C*%
X70485000Y-122555000D03*
%TD*%
%TO.P,REF\u002A\u002A,1*%
%TO.N,N/C*%
X188595000Y-122555000D03*
%TD*%
%TO.P,REF\u002A\u002A,1*%
%TO.N,N/C*%
X188595000Y-80645000D03*
%TD*%
D11*
%TO.P,C1,2*%
%TO.N,GND*%
X114975000Y-98425000D03*
%TO.P,C1,1*%
%TO.N,Net-(C1-Pad1)*%
X117475000Y-98425000D03*
%TD*%
%TO.P,C2,1*%
%TO.N,Net-(C2-Pad1)*%
X117475000Y-111125000D03*
%TO.P,C2,2*%
%TO.N,GND*%
X114975000Y-111125000D03*
%TD*%
D13*
%TO.P,D1,1*%
%TO.N,Net-(D1-Pad1)*%
X99695000Y-81280000D03*
D14*
%TO.P,D1,2*%
%TO.N,Net-(D1-Pad2)*%
X102235000Y-81280000D03*
%TD*%
%TO.P,D2,2*%
%TO.N,Net-(D2-Pad2)*%
X108585000Y-81280000D03*
D13*
%TO.P,D2,1*%
%TO.N,Net-(D2-Pad1)*%
X106045000Y-81280000D03*
%TD*%
%TO.P,J1,1*%
%TO.N,Net-(J1-Pad1)*%
%TA.AperFunction,ComponentPad*%
G36*
G01*
X77795000Y-81810000D02*
X77795000Y-78210000D01*
G75*
G02*
X78045000Y-77960000I250000J0D01*
G01*
X80705000Y-77960000D01*
G75*
G02*
X80955000Y-78210000I0J-250000D01*
G01*
X80955000Y-81810000D01*
G75*
G02*
X80705000Y-82060000I-250000J0D01*
G01*
X78045000Y-82060000D01*
G75*
G02*
X77795000Y-81810000I0J250000D01*
G01*
G37*
%TD.AperFunction*%
D15*
%TO.P,J1,2*%
%TO.N,GND*%
X83335000Y-80010000D03*
%TD*%
D16*
%TO.P,J2,1*%
%TO.N,Net-(J2-Pad1)*%
X69850000Y-97155000D03*
D17*
%TO.P,J2,2*%
%TO.N,Net-(J2-Pad2)*%
X69850000Y-99695000D03*
%TO.P,J2,3*%
%TO.N,GND*%
X69850000Y-102235000D03*
%TO.P,J2,4*%
X69850000Y-104775000D03*
%TD*%
%TO.P,J3,1*%
%TO.N,Net-(J3-Pad1)*%
%TA.AperFunction,ComponentPad*%
G36*
G01*
X184890000Y-89860000D02*
X188490000Y-89860000D01*
G75*
G02*
X188740000Y-90110000I0J-250000D01*
G01*
X188740000Y-92770000D01*
G75*
G02*
X188490000Y-93020000I-250000J0D01*
G01*
X184890000Y-93020000D01*
G75*
G02*
X184640000Y-92770000I0J250000D01*
G01*
X184640000Y-90110000D01*
G75*
G02*
X184890000Y-89860000I250000J0D01*
G01*
G37*
%TD.AperFunction*%
D18*
%TO.P,J3,2*%
%TO.N,GND*%
X186690000Y-95400000D03*
%TO.P,J3,3*%
%TO.N,Net-(J3-Pad3)*%
X186690000Y-99360000D03*
%TO.P,J3,4*%
%TO.N,GND*%
X186690000Y-103320000D03*
%TO.P,J3,5*%
%TO.N,Net-(J3-Pad5)*%
X186690000Y-107280000D03*
%TO.P,J3,6*%
%TO.N,GND*%
X186690000Y-111240000D03*
%TD*%
D19*
%TO.P,Q1,1*%
%TO.N,GND*%
X93345000Y-99695000D03*
D20*
%TO.P,Q1,3*%
%TO.N,Net-(Q1-Pad3)*%
X93345000Y-97155000D03*
%TO.P,Q1,2*%
%TO.N,Net-(Q1-Pad2)*%
X93345000Y-98425000D03*
%TD*%
D19*
%TO.P,Q2,1*%
%TO.N,GND*%
X93345000Y-111760000D03*
D20*
%TO.P,Q2,3*%
%TO.N,Net-(Q2-Pad3)*%
X93345000Y-109220000D03*
%TO.P,Q2,2*%
%TO.N,Net-(Q2-Pad2)*%
X93345000Y-110490000D03*
%TD*%
%TO.P,Q3,2*%
%TO.N,Net-(Q3-Pad2)*%
X102235000Y-98425000D03*
%TO.P,Q3,3*%
%TO.N,Net-(Q3-Pad3)*%
X102235000Y-97155000D03*
D19*
%TO.P,Q3,1*%
%TO.N,+9V*%
X102235000Y-99695000D03*
%TD*%
D20*
%TO.P,Q4,2*%
%TO.N,Net-(Q4-Pad2)*%
X102235000Y-110490000D03*
%TO.P,Q4,3*%
%TO.N,Net-(Q4-Pad3)*%
X102235000Y-109220000D03*
D19*
%TO.P,Q4,1*%
%TO.N,+9V*%
X102235000Y-111760000D03*
%TD*%
D21*
%TO.P,Q5,1*%
%TO.N,Net-(C1-Pad1)*%
X114300000Y-82550000D03*
D22*
%TO.P,Q5,2*%
%TO.N,+9V*%
X116840000Y-82550000D03*
%TO.P,Q5,3*%
%TO.N,Net-(D1-Pad2)*%
X119380000Y-82550000D03*
%TD*%
%TO.P,Q6,3*%
%TO.N,Net-(D2-Pad2)*%
X116205000Y-120015000D03*
%TO.P,Q6,2*%
%TO.N,+9V*%
X113665000Y-120015000D03*
D21*
%TO.P,Q6,1*%
%TO.N,Net-(C2-Pad1)*%
X111125000Y-120015000D03*
%TD*%
D11*
%TO.P,R1,1*%
%TO.N,Net-(Q1-Pad2)*%
X86995000Y-98425000D03*
D10*
%TO.P,R1,2*%
%TO.N,Net-(J2-Pad1)*%
X76835000Y-98425000D03*
%TD*%
%TO.P,R2,2*%
%TO.N,Net-(J2-Pad2)*%
X76835000Y-110490000D03*
D11*
%TO.P,R2,1*%
%TO.N,Net-(Q2-Pad2)*%
X86995000Y-110490000D03*
%TD*%
D10*
%TO.P,R3,2*%
%TO.N,Net-(Q1-Pad3)*%
X92710000Y-92710000D03*
D11*
%TO.P,R3,1*%
%TO.N,Net-(Q3-Pad2)*%
X102870000Y-92710000D03*
%TD*%
%TO.P,R4,1*%
%TO.N,Net-(Q4-Pad2)*%
X102870000Y-104775000D03*
D10*
%TO.P,R4,2*%
%TO.N,Net-(Q2-Pad3)*%
X92710000Y-104775000D03*
%TD*%
D11*
%TO.P,R5,1*%
%TO.N,Net-(Q3-Pad3)*%
X107315000Y-92710000D03*
D10*
%TO.P,R5,2*%
%TO.N,Net-(C1-Pad1)*%
X117475000Y-92710000D03*
%TD*%
%TO.P,R6,2*%
%TO.N,Net-(C2-Pad1)*%
X117475000Y-104775000D03*
D11*
%TO.P,R6,1*%
%TO.N,Net-(Q4-Pad3)*%
X107315000Y-104775000D03*
%TD*%
D15*
%TO.P,SW1,2*%
%TO.N,+9V*%
X94765000Y-80010000D03*
%TO.P,SW1,1*%
%TO.N,Net-(J1-Pad1)*%
%TA.AperFunction,ComponentPad*%
G36*
G01*
X89225000Y-81810000D02*
X89225000Y-78210000D01*
G75*
G02*
X89475000Y-77960000I250000J0D01*
G01*
X92135000Y-77960000D01*
G75*
G02*
X92385000Y-78210000I0J-250000D01*
G01*
X92385000Y-81810000D01*
G75*
G02*
X92135000Y-82060000I-250000J0D01*
G01*
X89475000Y-82060000D01*
G75*
G02*
X89225000Y-81810000I0J250000D01*
G01*
G37*
%TD.AperFunction*%
%TD*%
D23*
%TO.P,U1,1*%
%TO.N,Net-(D1-Pad2)*%
X128905000Y-79375000D03*
%TO.P,U1,2*%
%TO.N,GND*%
X128905000Y-97155000D03*
%TO.P,U1,3*%
%TO.N,Net-(J3-Pad3)*%
X168783000Y-79375000D03*
%TO.P,U1,4*%
%TO.N,GND*%
X168783000Y-97155000D03*
%TD*%
%TO.P,U2,1*%
%TO.N,Net-(D2-Pad2)*%
X125095000Y-104140000D03*
%TO.P,U2,2*%
%TO.N,GND*%
X125095000Y-123952000D03*
%TO.P,U2,3*%
%TO.N,Net-(J3-Pad5)*%
X169545000Y-104140000D03*
%TO.P,U2,4*%
%TO.N,GND*%
X169545000Y-123952000D03*
%TD*%
%TO.P,J4,1*%
%TO.N,GND*%
%TA.AperFunction,ComponentPad*%
G36*
G01*
X84145000Y-124990000D02*
X84145000Y-121390000D01*
G75*
G02*
X84395000Y-121140000I250000J0D01*
G01*
X87055000Y-121140000D01*
G75*
G02*
X87305000Y-121390000I0J-250000D01*
G01*
X87305000Y-124990000D01*
G75*
G02*
X87055000Y-125240000I-250000J0D01*
G01*
X84395000Y-125240000D01*
G75*
G02*
X84145000Y-124990000I0J250000D01*
G01*
G37*
%TD.AperFunction*%
D15*
%TO.P,J4,2*%
%TO.N,+9V*%
X89685000Y-123190000D03*
%TD*%
D24*
%TO.N,Net-(C2-Pad1)*%
X111125000Y-115570000D03*
%TO.N,Net-(D2-Pad2)*%
X124460000Y-78740000D03*
X124460000Y-93345000D03*
%TO.N,Net-(J2-Pad2)*%
X76835000Y-102235000D03*
%TD*%
D25*
%TO.N,Net-(C1-Pad1)*%
X117475000Y-92710000D02*
X114300000Y-89535000D01*
X114300000Y-89535000D02*
X114300000Y-82550000D01*
X117475000Y-92710000D02*
X117475000Y-98425000D01*
%TO.N,Net-(C2-Pad1)*%
X117475000Y-104775000D02*
X117475000Y-111125000D01*
X111125000Y-115570000D02*
X111125000Y-120015000D01*
%TO.N,Net-(D1-Pad1)*%
X102870000Y-88265000D02*
X102870000Y-86995000D01*
X99695000Y-83820000D02*
X99695000Y-81280000D01*
X102870000Y-86995000D02*
X99695000Y-83820000D01*
D26*
%TO.N,Net-(D2-Pad2)*%
X120015000Y-120015000D02*
X125095000Y-114935000D01*
X125095000Y-114935000D02*
X125095000Y-104140000D01*
X116205000Y-120015000D02*
X120015000Y-120015000D01*
D25*
X124460000Y-78740000D02*
X124460000Y-93345000D01*
%TO.N,Net-(D2-Pad1)*%
X107315000Y-88265000D02*
X107315000Y-86995000D01*
X106045000Y-85725000D02*
X106045000Y-81280000D01*
X107315000Y-86995000D02*
X106045000Y-85725000D01*
%TO.N,Net-(J2-Pad2)*%
X76835000Y-102235000D02*
X76835000Y-110490000D01*
%TO.N,Net-(Q1-Pad3)*%
X93345000Y-93345000D02*
X92710000Y-92710000D01*
X93345000Y-97155000D02*
X93345000Y-93345000D01*
%TO.N,Net-(Q2-Pad3)*%
X93345000Y-105410000D02*
X92710000Y-104775000D01*
X93345000Y-109220000D02*
X93345000Y-105410000D01*
%TO.N,Net-(Q3-Pad2)*%
X102235000Y-98425000D02*
X100330000Y-98425000D01*
X100330000Y-98425000D02*
X99695000Y-97790000D01*
X99695000Y-97790000D02*
X99695000Y-95885000D01*
X99695000Y-95885000D02*
X100965000Y-94615000D01*
X100965000Y-94615000D02*
X102870000Y-92710000D01*
%TO.N,+9V*%
X102235000Y-99695000D02*
X102235000Y-100330000D01*
%TO.N,Net-(Q4-Pad2)*%
X102870000Y-104775000D02*
X100330000Y-107315000D01*
X100330000Y-107315000D02*
X100330000Y-109855000D01*
X100965000Y-110490000D02*
X102235000Y-110490000D01*
X100330000Y-109855000D02*
X100965000Y-110490000D01*
%TO.N,Net-(Q4-Pad3)*%
X102870000Y-109220000D02*
X107315000Y-104775000D01*
X102235000Y-109220000D02*
X102870000Y-109220000D01*
%TD*%
D27*
%TO.N,+9V*%
G36*
X186636343Y-76980611D02*
G01*
X185959091Y-77433136D01*
X185383136Y-78009091D01*
X184930611Y-78686343D01*
X184618906Y-79438865D01*
X184460000Y-80237738D01*
X184460000Y-81052262D01*
X184618906Y-81851135D01*
X184930611Y-82603657D01*
X185383136Y-83280909D01*
X185959091Y-83856864D01*
X186636343Y-84309389D01*
X187388865Y-84621094D01*
X188187738Y-84780000D01*
X189002262Y-84780000D01*
X189801135Y-84621094D01*
X190553657Y-84309389D01*
X191230909Y-83856864D01*
X191806864Y-83280909D01*
X192259389Y-82603657D01*
X192278000Y-82558726D01*
X192278000Y-120641274D01*
X192259389Y-120596343D01*
X191806864Y-119919091D01*
X191230909Y-119343136D01*
X190553657Y-118890611D01*
X189801135Y-118578906D01*
X189002262Y-118420000D01*
X188187738Y-118420000D01*
X187388865Y-118578906D01*
X186636343Y-118890611D01*
X185959091Y-119343136D01*
X185383136Y-119919091D01*
X184930611Y-120596343D01*
X184618906Y-121348865D01*
X184460000Y-122147738D01*
X184460000Y-122962262D01*
X184618906Y-123761135D01*
X184930611Y-124513657D01*
X185383136Y-125190909D01*
X185959091Y-125766864D01*
X186636343Y-126219389D01*
X186681274Y-126238000D01*
X72398726Y-126238000D01*
X72443657Y-126219389D01*
X73120909Y-125766864D01*
X73696864Y-125190909D01*
X74149389Y-124513657D01*
X74461094Y-123761135D01*
X74620000Y-122962262D01*
X74620000Y-122147738D01*
X74469277Y-121390000D01*
X83506928Y-121390000D01*
X83506928Y-124990000D01*
X83523992Y-125163254D01*
X83574528Y-125329850D01*
X83656595Y-125483386D01*
X83767038Y-125617962D01*
X83901614Y-125728405D01*
X84055150Y-125810472D01*
X84221746Y-125861008D01*
X84395000Y-125878072D01*
X87055000Y-125878072D01*
X87228254Y-125861008D01*
X87394850Y-125810472D01*
X87548386Y-125728405D01*
X87682962Y-125617962D01*
X87793405Y-125483386D01*
X87875472Y-125329850D01*
X87926008Y-125163254D01*
X87939700Y-125024238D01*
X88208562Y-125316044D01*
X88560009Y-125572262D01*
X88954689Y-125754993D01*
X89213631Y-125824263D01*
X89558000Y-125712324D01*
X89558000Y-123317000D01*
X89812000Y-123317000D01*
X89812000Y-125712324D01*
X90156369Y-125824263D01*
X90415311Y-125754993D01*
X90809991Y-125572262D01*
X91161438Y-125316044D01*
X91456147Y-124996185D01*
X91682792Y-124624977D01*
X91832663Y-124216685D01*
X91895704Y-123814408D01*
X123698000Y-123814408D01*
X123698000Y-124089592D01*
X123751686Y-124359490D01*
X123856995Y-124613727D01*
X124009880Y-124842535D01*
X124204465Y-125037120D01*
X124433273Y-125190005D01*
X124687510Y-125295314D01*
X124957408Y-125349000D01*
X125232592Y-125349000D01*
X125502490Y-125295314D01*
X125756727Y-125190005D01*
X125985535Y-125037120D01*
X126180120Y-124842535D01*
X126333005Y-124613727D01*
X126438314Y-124359490D01*
X126492000Y-124089592D01*
X126492000Y-123814408D01*
X168148000Y-123814408D01*
X168148000Y-124089592D01*
X168201686Y-124359490D01*
X168306995Y-124613727D01*
X168459880Y-124842535D01*
X168654465Y-125037120D01*
X168883273Y-125190005D01*
X169137510Y-125295314D01*
X169407408Y-125349000D01*
X169682592Y-125349000D01*
X169952490Y-125295314D01*
X170206727Y-125190005D01*
X170435535Y-125037120D01*
X170630120Y-124842535D01*
X170783005Y-124613727D01*
X170888314Y-124359490D01*
X170942000Y-124089592D01*
X170942000Y-123814408D01*
X170888314Y-123544510D01*
X170783005Y-123290273D01*
X170630120Y-123061465D01*
X170435535Y-122866880D01*
X170206727Y-122713995D01*
X169952490Y-122608686D01*
X169682592Y-122555000D01*
X169407408Y-122555000D01*
X169137510Y-122608686D01*
X168883273Y-122713995D01*
X168654465Y-122866880D01*
X168459880Y-123061465D01*
X168306995Y-123290273D01*
X168201686Y-123544510D01*
X168148000Y-123814408D01*
X126492000Y-123814408D01*
X126438314Y-123544510D01*
X126333005Y-123290273D01*
X126180120Y-123061465D01*
X125985535Y-122866880D01*
X125756727Y-122713995D01*
X125502490Y-122608686D01*
X125232592Y-122555000D01*
X124957408Y-122555000D01*
X124687510Y-122608686D01*
X124433273Y-122713995D01*
X124204465Y-122866880D01*
X124009880Y-123061465D01*
X123856995Y-123290273D01*
X123751686Y-123544510D01*
X123698000Y-123814408D01*
X91895704Y-123814408D01*
X91900000Y-123787000D01*
X91900000Y-123317000D01*
X89812000Y-123317000D01*
X89558000Y-123317000D01*
X89538000Y-123317000D01*
X89538000Y-123063000D01*
X89558000Y-123063000D01*
X89558000Y-120667676D01*
X89812000Y-120667676D01*
X89812000Y-123063000D01*
X91900000Y-123063000D01*
X91900000Y-122593000D01*
X91832663Y-122163315D01*
X91682792Y-121755023D01*
X91456147Y-121383815D01*
X91161438Y-121063956D01*
X90809991Y-120807738D01*
X90415311Y-120625007D01*
X90156369Y-120555737D01*
X89812000Y-120667676D01*
X89558000Y-120667676D01*
X89213631Y-120555737D01*
X88954689Y-120625007D01*
X88560009Y-120807738D01*
X88208562Y-121063956D01*
X87939700Y-121355762D01*
X87926008Y-121216746D01*
X87875472Y-121050150D01*
X87793405Y-120896614D01*
X87682962Y-120762038D01*
X87548386Y-120651595D01*
X87394850Y-120569528D01*
X87228254Y-120518992D01*
X87055000Y-120501928D01*
X84395000Y-120501928D01*
X84221746Y-120518992D01*
X84055150Y-120569528D01*
X83901614Y-120651595D01*
X83767038Y-120762038D01*
X83656595Y-120896614D01*
X83574528Y-121050150D01*
X83523992Y-121216746D01*
X83506928Y-121390000D01*
X74469277Y-121390000D01*
X74461094Y-121348865D01*
X74149389Y-120596343D01*
X73696864Y-119919091D01*
X73120909Y-119343136D01*
X72629819Y-119015000D01*
X109534428Y-119015000D01*
X109534428Y-121015000D01*
X109546688Y-121139482D01*
X109582998Y-121259180D01*
X109641963Y-121369494D01*
X109721315Y-121466185D01*
X109818006Y-121545537D01*
X109928320Y-121604502D01*
X110048018Y-121640812D01*
X110172500Y-121653072D01*
X112077500Y-121653072D01*
X112201982Y-121640812D01*
X112321680Y-121604502D01*
X112431994Y-121545537D01*
X112528685Y-121466185D01*
X112608037Y-121369494D01*
X112657059Y-121277781D01*
X112798077Y-121390969D01*
X113073906Y-121534571D01*
X113292020Y-121605563D01*
X113538000Y-121485594D01*
X113538000Y-120142000D01*
X113518000Y-120142000D01*
X113518000Y-119888000D01*
X113538000Y-119888000D01*
X113538000Y-118544406D01*
X113792000Y-118544406D01*
X113792000Y-119888000D01*
X113812000Y-119888000D01*
X113812000Y-120142000D01*
X113792000Y-120142000D01*
X113792000Y-121485594D01*
X114037980Y-121605563D01*
X114256094Y-121534571D01*
X114531923Y-121390969D01*
X114774437Y-121196315D01*
X114929837Y-121011101D01*
X115077037Y-121190463D01*
X115318766Y-121388845D01*
X115594552Y-121536255D01*
X115893797Y-121627030D01*
X116205000Y-121657681D01*
X116516204Y-121627030D01*
X116815449Y-121536255D01*
X117091235Y-121388845D01*
X117217770Y-121285000D01*
X119952627Y-121285000D01*
X120015000Y-121291143D01*
X120077373Y-121285000D01*
X120077380Y-121285000D01*
X120263963Y-121266623D01*
X120503359Y-121194003D01*
X120723988Y-121076075D01*
X120917370Y-120917370D01*
X120957141Y-120868909D01*
X125948921Y-115877131D01*
X125997370Y-115837370D01*
X126037132Y-115788920D01*
X126037135Y-115788917D01*
X126078171Y-115738914D01*
X126156075Y-115643988D01*
X126274003Y-115423359D01*
X126346623Y-115183963D01*
X126365000Y-114997380D01*
X126365000Y-114997373D01*
X126371143Y-114935000D01*
X126365000Y-114872627D01*
X126365000Y-104724485D01*
X126438314Y-104547490D01*
X126492000Y-104277592D01*
X126492000Y-104002408D01*
X168148000Y-104002408D01*
X168148000Y-104277592D01*
X168201686Y-104547490D01*
X168306995Y-104801727D01*
X168459880Y-105030535D01*
X168654465Y-105225120D01*
X168883273Y-105378005D01*
X169137510Y-105483314D01*
X169407408Y-105537000D01*
X169682592Y-105537000D01*
X169952490Y-105483314D01*
X170206727Y-105378005D01*
X170435535Y-105225120D01*
X170630120Y-105030535D01*
X170783005Y-104801727D01*
X170888314Y-104547490D01*
X170942000Y-104277592D01*
X170942000Y-104002408D01*
X170888314Y-103732510D01*
X170783005Y-103478273D01*
X170630120Y-103249465D01*
X170435535Y-103054880D01*
X170206727Y-102901995D01*
X169952490Y-102796686D01*
X169682592Y-102743000D01*
X169407408Y-102743000D01*
X169137510Y-102796686D01*
X168883273Y-102901995D01*
X168654465Y-103054880D01*
X168459880Y-103249465D01*
X168306995Y-103478273D01*
X168201686Y-103732510D01*
X168148000Y-104002408D01*
X126492000Y-104002408D01*
X126438314Y-103732510D01*
X126333005Y-103478273D01*
X126180120Y-103249465D01*
X125985535Y-103054880D01*
X125756727Y-102901995D01*
X125502490Y-102796686D01*
X125232592Y-102743000D01*
X124957408Y-102743000D01*
X124687510Y-102796686D01*
X124433273Y-102901995D01*
X124204465Y-103054880D01*
X124009880Y-103249465D01*
X123856995Y-103478273D01*
X123751686Y-103732510D01*
X123698000Y-104002408D01*
X123698000Y-104277592D01*
X123751686Y-104547490D01*
X123825001Y-104724487D01*
X123825000Y-114408948D01*
X119488950Y-118745000D01*
X117217769Y-118745000D01*
X117091234Y-118641155D01*
X116815448Y-118493745D01*
X116516203Y-118402970D01*
X116205000Y-118372319D01*
X115893796Y-118402970D01*
X115594551Y-118493745D01*
X115318765Y-118641155D01*
X115077037Y-118839537D01*
X114929838Y-119018900D01*
X114774437Y-118833685D01*
X114531923Y-118639031D01*
X114256094Y-118495429D01*
X114037980Y-118424437D01*
X113792000Y-118544406D01*
X113538000Y-118544406D01*
X113292020Y-118424437D01*
X113073906Y-118495429D01*
X112798077Y-118639031D01*
X112657059Y-118752219D01*
X112608037Y-118660506D01*
X112528685Y-118563815D01*
X112431994Y-118484463D01*
X112321680Y-118425498D01*
X112201982Y-118389188D01*
X112077500Y-118376928D01*
X111950500Y-118376928D01*
X111950500Y-116049007D01*
X111969095Y-116021178D01*
X112040896Y-115847834D01*
X112077500Y-115663813D01*
X112077500Y-115476187D01*
X112040896Y-115292166D01*
X111969095Y-115118822D01*
X111864855Y-114962816D01*
X111732184Y-114830145D01*
X111576178Y-114725905D01*
X111402834Y-114654104D01*
X111218813Y-114617500D01*
X111031187Y-114617500D01*
X110847166Y-114654104D01*
X110673822Y-114725905D01*
X110517816Y-114830145D01*
X110385145Y-114962816D01*
X110280905Y-115118822D01*
X110209104Y-115292166D01*
X110172500Y-115476187D01*
X110172500Y-115663813D01*
X110209104Y-115847834D01*
X110280905Y-116021178D01*
X110299500Y-116049008D01*
X110299501Y-118376928D01*
X110172500Y-118376928D01*
X110048018Y-118389188D01*
X109928320Y-118425498D01*
X109818006Y-118484463D01*
X109721315Y-118563815D01*
X109641963Y-118660506D01*
X109582998Y-118770820D01*
X109546688Y-118890518D01*
X109534428Y-119015000D01*
X72629819Y-119015000D01*
X72443657Y-118890611D01*
X71691135Y-118578906D01*
X70892262Y-118420000D01*
X70077738Y-118420000D01*
X69278865Y-118578906D01*
X68526343Y-118890611D01*
X67849091Y-119343136D01*
X67273136Y-119919091D01*
X66820611Y-120596343D01*
X66802000Y-120641274D01*
X66802000Y-110348665D01*
X75400000Y-110348665D01*
X75400000Y-110631335D01*
X75455147Y-110908574D01*
X75563320Y-111169727D01*
X75720363Y-111404759D01*
X75920241Y-111604637D01*
X76155273Y-111761680D01*
X76416426Y-111869853D01*
X76693665Y-111925000D01*
X76976335Y-111925000D01*
X77253574Y-111869853D01*
X77514727Y-111761680D01*
X77749759Y-111604637D01*
X77949637Y-111404759D01*
X78106680Y-111169727D01*
X78214853Y-110908574D01*
X78270000Y-110631335D01*
X78270000Y-110348665D01*
X85560000Y-110348665D01*
X85560000Y-110631335D01*
X85615147Y-110908574D01*
X85723320Y-111169727D01*
X85880363Y-111404759D01*
X86080241Y-111604637D01*
X86315273Y-111761680D01*
X86576426Y-111869853D01*
X86853665Y-111925000D01*
X87136335Y-111925000D01*
X87413574Y-111869853D01*
X87674727Y-111761680D01*
X87909759Y-111604637D01*
X88109637Y-111404759D01*
X88266680Y-111169727D01*
X88374853Y-110908574D01*
X88430000Y-110631335D01*
X88430000Y-110348665D01*
X88374853Y-110071426D01*
X88266680Y-109810273D01*
X88109637Y-109575241D01*
X87909759Y-109375363D01*
X87674727Y-109218320D01*
X87413574Y-109110147D01*
X87136335Y-109055000D01*
X86853665Y-109055000D01*
X86576426Y-109110147D01*
X86315273Y-109218320D01*
X86080241Y-109375363D01*
X85880363Y-109575241D01*
X85723320Y-109810273D01*
X85615147Y-110071426D01*
X85560000Y-110348665D01*
X78270000Y-110348665D01*
X78214853Y-110071426D01*
X78106680Y-109810273D01*
X77949637Y-109575241D01*
X77749759Y-109375363D01*
X77660500Y-109315722D01*
X77660500Y-104633665D01*
X91275000Y-104633665D01*
X91275000Y-104916335D01*
X91330147Y-105193574D01*
X91438320Y-105454727D01*
X91595363Y-105689759D01*
X91795241Y-105889637D01*
X92030273Y-106046680D01*
X92291426Y-106154853D01*
X92519501Y-106200220D01*
X92519500Y-108225665D01*
X92472421Y-108250829D01*
X92295788Y-108395788D01*
X92150829Y-108572421D01*
X92043115Y-108773940D01*
X91976785Y-108992600D01*
X91954388Y-109220000D01*
X91976785Y-109447400D01*
X92043115Y-109666060D01*
X92144105Y-109855000D01*
X92043115Y-110043940D01*
X91976785Y-110262600D01*
X91954388Y-110490000D01*
X91976785Y-110717400D01*
X92040093Y-110926098D01*
X92005498Y-110990820D01*
X91969188Y-111110518D01*
X91956928Y-111235000D01*
X91956928Y-112285000D01*
X91969188Y-112409482D01*
X92005498Y-112529180D01*
X92064463Y-112639494D01*
X92143815Y-112736185D01*
X92240506Y-112815537D01*
X92350820Y-112874502D01*
X92470518Y-112910812D01*
X92595000Y-112923072D01*
X94095000Y-112923072D01*
X94219482Y-112910812D01*
X94339180Y-112874502D01*
X94449494Y-112815537D01*
X94546185Y-112736185D01*
X94625537Y-112639494D01*
X94684502Y-112529180D01*
X94720812Y-112409482D01*
X94733072Y-112285000D01*
X100846928Y-112285000D01*
X100859188Y-112409482D01*
X100895498Y-112529180D01*
X100954463Y-112639494D01*
X101033815Y-112736185D01*
X101130506Y-112815537D01*
X101240820Y-112874502D01*
X101360518Y-112910812D01*
X101485000Y-112923072D01*
X101949250Y-112920000D01*
X102108000Y-112761250D01*
X102108000Y-111887000D01*
X102362000Y-111887000D01*
X102362000Y-112761250D01*
X102520750Y-112920000D01*
X102985000Y-112923072D01*
X103109482Y-112910812D01*
X103229180Y-112874502D01*
X103339494Y-112815537D01*
X103436185Y-112736185D01*
X103515537Y-112639494D01*
X103574502Y-112529180D01*
X103610812Y-112409482D01*
X103623072Y-112285000D01*
X103620000Y-112045750D01*
X103461250Y-111887000D01*
X102362000Y-111887000D01*
X102108000Y-111887000D01*
X101008750Y-111887000D01*
X100850000Y-112045750D01*
X100846928Y-112285000D01*
X94733072Y-112285000D01*
X94733072Y-111235000D01*
X94720812Y-111110518D01*
X94684502Y-110990820D01*
X94649907Y-110926098D01*
X94713215Y-110717400D01*
X94735612Y-110490000D01*
X94713215Y-110262600D01*
X94646885Y-110043940D01*
X94545895Y-109855000D01*
X94646885Y-109666060D01*
X94713215Y-109447400D01*
X94735612Y-109220000D01*
X94713215Y-108992600D01*
X94646885Y-108773940D01*
X94539171Y-108572421D01*
X94394212Y-108395788D01*
X94217579Y-108250829D01*
X94170500Y-108225665D01*
X94170500Y-107315000D01*
X99500506Y-107315000D01*
X99504500Y-107355551D01*
X99504501Y-109814440D01*
X99500506Y-109855000D01*
X99516445Y-110016826D01*
X99563647Y-110172433D01*
X99640301Y-110315842D01*
X99701863Y-110390854D01*
X99743460Y-110441541D01*
X99774961Y-110467393D01*
X100352610Y-111045044D01*
X100378459Y-111076541D01*
X100409955Y-111102389D01*
X100409958Y-111102392D01*
X100504157Y-111179699D01*
X100616972Y-111240000D01*
X100647566Y-111256353D01*
X100803174Y-111303556D01*
X100847865Y-111307958D01*
X100850000Y-111474250D01*
X101008750Y-111633000D01*
X101781891Y-111633000D01*
X101782600Y-111633215D01*
X101953021Y-111650000D01*
X102516979Y-111650000D01*
X102687400Y-111633215D01*
X102688109Y-111633000D01*
X103461250Y-111633000D01*
X103620000Y-111474250D01*
X103623072Y-111235000D01*
X103610812Y-111110518D01*
X103574502Y-110990820D01*
X103570678Y-110983665D01*
X113540000Y-110983665D01*
X113540000Y-111266335D01*
X113595147Y-111543574D01*
X113703320Y-111804727D01*
X113860363Y-112039759D01*
X114060241Y-112239637D01*
X114295273Y-112396680D01*
X114556426Y-112504853D01*
X114833665Y-112560000D01*
X115116335Y-112560000D01*
X115393574Y-112504853D01*
X115654727Y-112396680D01*
X115889759Y-112239637D01*
X116089637Y-112039759D01*
X116225000Y-111837173D01*
X116360363Y-112039759D01*
X116560241Y-112239637D01*
X116795273Y-112396680D01*
X117056426Y-112504853D01*
X117333665Y-112560000D01*
X117616335Y-112560000D01*
X117893574Y-112504853D01*
X118154727Y-112396680D01*
X118389759Y-112239637D01*
X118589637Y-112039759D01*
X118746680Y-111804727D01*
X118854853Y-111543574D01*
X118910000Y-111266335D01*
X118910000Y-110983665D01*
X118854853Y-110706426D01*
X118746680Y-110445273D01*
X118589637Y-110210241D01*
X118389759Y-110010363D01*
X118300500Y-109950722D01*
X118300500Y-105949278D01*
X118389759Y-105889637D01*
X118589637Y-105689759D01*
X118746680Y-105454727D01*
X118854853Y-105193574D01*
X118910000Y-104916335D01*
X118910000Y-104633665D01*
X118854853Y-104356426D01*
X118746680Y-104095273D01*
X118589637Y-103860241D01*
X118389759Y-103660363D01*
X118154727Y-103503320D01*
X117893574Y-103395147D01*
X117616335Y-103340000D01*
X117333665Y-103340000D01*
X117056426Y-103395147D01*
X116795273Y-103503320D01*
X116560241Y-103660363D01*
X116360363Y-103860241D01*
X116203320Y-104095273D01*
X116095147Y-104356426D01*
X116040000Y-104633665D01*
X116040000Y-104916335D01*
X116095147Y-105193574D01*
X116203320Y-105454727D01*
X116360363Y-105689759D01*
X116560241Y-105889637D01*
X116649500Y-105949278D01*
X116649501Y-109950722D01*
X116560241Y-110010363D01*
X116360363Y-110210241D01*
X116225000Y-110412827D01*
X116089637Y-110210241D01*
X115889759Y-110010363D01*
X115654727Y-109853320D01*
X115393574Y-109745147D01*
X115116335Y-109690000D01*
X114833665Y-109690000D01*
X114556426Y-109745147D01*
X114295273Y-109853320D01*
X114060241Y-110010363D01*
X113860363Y-110210241D01*
X113703320Y-110445273D01*
X113595147Y-110706426D01*
X113540000Y-110983665D01*
X103570678Y-110983665D01*
X103539907Y-110926098D01*
X103603215Y-110717400D01*
X103625612Y-110490000D01*
X103603215Y-110262600D01*
X103536885Y-110043940D01*
X103435895Y-109855000D01*
X103471613Y-109788176D01*
X103482398Y-109775034D01*
X107068376Y-106189056D01*
X107173665Y-106210000D01*
X107456335Y-106210000D01*
X107733574Y-106154853D01*
X107994727Y-106046680D01*
X108229759Y-105889637D01*
X108429637Y-105689759D01*
X108586680Y-105454727D01*
X108694853Y-105193574D01*
X108750000Y-104916335D01*
X108750000Y-104633665D01*
X108694853Y-104356426D01*
X108586680Y-104095273D01*
X108429637Y-103860241D01*
X108229759Y-103660363D01*
X107994727Y-103503320D01*
X107733574Y-103395147D01*
X107456335Y-103340000D01*
X107173665Y-103340000D01*
X106896426Y-103395147D01*
X106635273Y-103503320D01*
X106400241Y-103660363D01*
X106200363Y-103860241D01*
X106043320Y-104095273D01*
X105935147Y-104356426D01*
X105880000Y-104633665D01*
X105880000Y-104916335D01*
X105900944Y-105021624D01*
X102808920Y-108113648D01*
X102687400Y-108076785D01*
X102516979Y-108060000D01*
X101953021Y-108060000D01*
X101782600Y-108076785D01*
X101563940Y-108143115D01*
X101362421Y-108250829D01*
X101185788Y-108395788D01*
X101155500Y-108432694D01*
X101155500Y-107656932D01*
X102623376Y-106189056D01*
X102728665Y-106210000D01*
X103011335Y-106210000D01*
X103288574Y-106154853D01*
X103549727Y-106046680D01*
X103784759Y-105889637D01*
X103984637Y-105689759D01*
X104141680Y-105454727D01*
X104249853Y-105193574D01*
X104305000Y-104916335D01*
X104305000Y-104633665D01*
X104249853Y-104356426D01*
X104141680Y-104095273D01*
X103984637Y-103860241D01*
X103784759Y-103660363D01*
X103549727Y-103503320D01*
X103288574Y-103395147D01*
X103011335Y-103340000D01*
X102728665Y-103340000D01*
X102451426Y-103395147D01*
X102190273Y-103503320D01*
X101955241Y-103660363D01*
X101755363Y-103860241D01*
X101598320Y-104095273D01*
X101490147Y-104356426D01*
X101435000Y-104633665D01*
X101435000Y-104916335D01*
X101455944Y-105021624D01*
X99774966Y-106702602D01*
X99743459Y-106728459D01*
X99674214Y-106812835D01*
X99640301Y-106854158D01*
X99563648Y-106997566D01*
X99563647Y-106997567D01*
X99516444Y-107153175D01*
X99504500Y-107274447D01*
X99500506Y-107315000D01*
X94170500Y-107315000D01*
X94170500Y-105450550D01*
X94174494Y-105410000D01*
X94166619Y-105330041D01*
X94158556Y-105248174D01*
X94111353Y-105092566D01*
X94110327Y-105090646D01*
X94145000Y-104916335D01*
X94145000Y-104633665D01*
X94089853Y-104356426D01*
X93981680Y-104095273D01*
X93824637Y-103860241D01*
X93624759Y-103660363D01*
X93389727Y-103503320D01*
X93128574Y-103395147D01*
X92851335Y-103340000D01*
X92568665Y-103340000D01*
X92291426Y-103395147D01*
X92030273Y-103503320D01*
X91795241Y-103660363D01*
X91595363Y-103860241D01*
X91438320Y-104095273D01*
X91330147Y-104356426D01*
X91275000Y-104633665D01*
X77660500Y-104633665D01*
X77660500Y-102714007D01*
X77679095Y-102686178D01*
X77750896Y-102512834D01*
X77787500Y-102328813D01*
X77787500Y-102141187D01*
X77750896Y-101957166D01*
X77679095Y-101783822D01*
X77574855Y-101627816D01*
X77442184Y-101495145D01*
X77286178Y-101390905D01*
X77112834Y-101319104D01*
X76928813Y-101282500D01*
X76741187Y-101282500D01*
X76557166Y-101319104D01*
X76383822Y-101390905D01*
X76227816Y-101495145D01*
X76095145Y-101627816D01*
X75990905Y-101783822D01*
X75919104Y-101957166D01*
X75882500Y-102141187D01*
X75882500Y-102328813D01*
X75919104Y-102512834D01*
X75990905Y-102686178D01*
X76009500Y-102714007D01*
X76009501Y-109315722D01*
X75920241Y-109375363D01*
X75720363Y-109575241D01*
X75563320Y-109810273D01*
X75455147Y-110071426D01*
X75400000Y-110348665D01*
X66802000Y-110348665D01*
X66802000Y-96305000D01*
X68361928Y-96305000D01*
X68361928Y-98005000D01*
X68374188Y-98129482D01*
X68410498Y-98249180D01*
X68469463Y-98359494D01*
X68548815Y-98456185D01*
X68645506Y-98535537D01*
X68755820Y-98594502D01*
X68828380Y-98616513D01*
X68696525Y-98748368D01*
X68534010Y-98991589D01*
X68422068Y-99261842D01*
X68365000Y-99548740D01*
X68365000Y-99841260D01*
X68422068Y-100128158D01*
X68534010Y-100398411D01*
X68696525Y-100641632D01*
X68903368Y-100848475D01*
X69077760Y-100965000D01*
X68903368Y-101081525D01*
X68696525Y-101288368D01*
X68534010Y-101531589D01*
X68422068Y-101801842D01*
X68365000Y-102088740D01*
X68365000Y-102381260D01*
X68422068Y-102668158D01*
X68534010Y-102938411D01*
X68696525Y-103181632D01*
X68903368Y-103388475D01*
X69077760Y-103505000D01*
X68903368Y-103621525D01*
X68696525Y-103828368D01*
X68534010Y-104071589D01*
X68422068Y-104341842D01*
X68365000Y-104628740D01*
X68365000Y-104921260D01*
X68422068Y-105208158D01*
X68534010Y-105478411D01*
X68696525Y-105721632D01*
X68903368Y-105928475D01*
X69146589Y-106090990D01*
X69416842Y-106202932D01*
X69703740Y-106260000D01*
X69996260Y-106260000D01*
X70283158Y-106202932D01*
X70553411Y-106090990D01*
X70796632Y-105928475D01*
X71003475Y-105721632D01*
X71165990Y-105478411D01*
X71277932Y-105208158D01*
X71335000Y-104921260D01*
X71335000Y-104628740D01*
X71277932Y-104341842D01*
X71165990Y-104071589D01*
X71003475Y-103828368D01*
X70796632Y-103621525D01*
X70622240Y-103505000D01*
X70796632Y-103388475D01*
X71003475Y-103181632D01*
X71165990Y-102938411D01*
X71277932Y-102668158D01*
X71335000Y-102381260D01*
X71335000Y-102088740D01*
X71277932Y-101801842D01*
X71165990Y-101531589D01*
X71003475Y-101288368D01*
X70796632Y-101081525D01*
X70622240Y-100965000D01*
X70796632Y-100848475D01*
X71003475Y-100641632D01*
X71165990Y-100398411D01*
X71277932Y-100128158D01*
X71335000Y-99841260D01*
X71335000Y-99548740D01*
X71277932Y-99261842D01*
X71165990Y-98991589D01*
X71003475Y-98748368D01*
X70871620Y-98616513D01*
X70944180Y-98594502D01*
X71054494Y-98535537D01*
X71151185Y-98456185D01*
X71230537Y-98359494D01*
X71271069Y-98283665D01*
X75400000Y-98283665D01*
X75400000Y-98566335D01*
X75455147Y-98843574D01*
X75563320Y-99104727D01*
X75720363Y-99339759D01*
X75920241Y-99539637D01*
X76155273Y-99696680D01*
X76416426Y-99804853D01*
X76693665Y-99860000D01*
X76976335Y-99860000D01*
X77253574Y-99804853D01*
X77514727Y-99696680D01*
X77749759Y-99539637D01*
X77949637Y-99339759D01*
X78106680Y-99104727D01*
X78214853Y-98843574D01*
X78270000Y-98566335D01*
X78270000Y-98283665D01*
X85560000Y-98283665D01*
X85560000Y-98566335D01*
X85615147Y-98843574D01*
X85723320Y-99104727D01*
X85880363Y-99339759D01*
X86080241Y-99539637D01*
X86315273Y-99696680D01*
X86576426Y-99804853D01*
X86853665Y-99860000D01*
X87136335Y-99860000D01*
X87413574Y-99804853D01*
X87674727Y-99696680D01*
X87909759Y-99539637D01*
X88109637Y-99339759D01*
X88266680Y-99104727D01*
X88374853Y-98843574D01*
X88430000Y-98566335D01*
X88430000Y-98283665D01*
X88374853Y-98006426D01*
X88266680Y-97745273D01*
X88109637Y-97510241D01*
X87909759Y-97310363D01*
X87674727Y-97153320D01*
X87413574Y-97045147D01*
X87136335Y-96990000D01*
X86853665Y-96990000D01*
X86576426Y-97045147D01*
X86315273Y-97153320D01*
X86080241Y-97310363D01*
X85880363Y-97510241D01*
X85723320Y-97745273D01*
X85615147Y-98006426D01*
X85560000Y-98283665D01*
X78270000Y-98283665D01*
X78214853Y-98006426D01*
X78106680Y-97745273D01*
X77949637Y-97510241D01*
X77749759Y-97310363D01*
X77514727Y-97153320D01*
X77253574Y-97045147D01*
X76976335Y-96990000D01*
X76693665Y-96990000D01*
X76416426Y-97045147D01*
X76155273Y-97153320D01*
X75920241Y-97310363D01*
X75720363Y-97510241D01*
X75563320Y-97745273D01*
X75455147Y-98006426D01*
X75400000Y-98283665D01*
X71271069Y-98283665D01*
X71289502Y-98249180D01*
X71325812Y-98129482D01*
X71338072Y-98005000D01*
X71338072Y-96305000D01*
X71325812Y-96180518D01*
X71289502Y-96060820D01*
X71230537Y-95950506D01*
X71151185Y-95853815D01*
X71054494Y-95774463D01*
X70944180Y-95715498D01*
X70824482Y-95679188D01*
X70700000Y-95666928D01*
X69000000Y-95666928D01*
X68875518Y-95679188D01*
X68755820Y-95715498D01*
X68645506Y-95774463D01*
X68548815Y-95853815D01*
X68469463Y-95950506D01*
X68410498Y-96060820D01*
X68374188Y-96180518D01*
X68361928Y-96305000D01*
X66802000Y-96305000D01*
X66802000Y-92568665D01*
X91275000Y-92568665D01*
X91275000Y-92851335D01*
X91330147Y-93128574D01*
X91438320Y-93389727D01*
X91595363Y-93624759D01*
X91795241Y-93824637D01*
X92030273Y-93981680D01*
X92291426Y-94089853D01*
X92519501Y-94135220D01*
X92519500Y-96160665D01*
X92472421Y-96185829D01*
X92295788Y-96330788D01*
X92150829Y-96507421D01*
X92043115Y-96708940D01*
X91976785Y-96927600D01*
X91954388Y-97155000D01*
X91976785Y-97382400D01*
X92043115Y-97601060D01*
X92144105Y-97790000D01*
X92043115Y-97978940D01*
X91976785Y-98197600D01*
X91954388Y-98425000D01*
X91976785Y-98652400D01*
X92040093Y-98861098D01*
X92005498Y-98925820D01*
X91969188Y-99045518D01*
X91956928Y-99170000D01*
X91956928Y-100220000D01*
X91969188Y-100344482D01*
X92005498Y-100464180D01*
X92064463Y-100574494D01*
X92143815Y-100671185D01*
X92240506Y-100750537D01*
X92350820Y-100809502D01*
X92470518Y-100845812D01*
X92595000Y-100858072D01*
X94095000Y-100858072D01*
X94219482Y-100845812D01*
X94339180Y-100809502D01*
X94449494Y-100750537D01*
X94546185Y-100671185D01*
X94625537Y-100574494D01*
X94684502Y-100464180D01*
X94720812Y-100344482D01*
X94733072Y-100220000D01*
X100846928Y-100220000D01*
X100859188Y-100344482D01*
X100895498Y-100464180D01*
X100954463Y-100574494D01*
X101033815Y-100671185D01*
X101130506Y-100750537D01*
X101240820Y-100809502D01*
X101360518Y-100845812D01*
X101485000Y-100858072D01*
X101949250Y-100855000D01*
X102108000Y-100696250D01*
X102108000Y-99822000D01*
X102362000Y-99822000D01*
X102362000Y-100696250D01*
X102520750Y-100855000D01*
X102985000Y-100858072D01*
X103109482Y-100845812D01*
X103229180Y-100809502D01*
X103339494Y-100750537D01*
X103436185Y-100671185D01*
X103515537Y-100574494D01*
X103574502Y-100464180D01*
X103610812Y-100344482D01*
X103623072Y-100220000D01*
X103620000Y-99980750D01*
X103461250Y-99822000D01*
X102362000Y-99822000D01*
X102108000Y-99822000D01*
X101008750Y-99822000D01*
X100850000Y-99980750D01*
X100846928Y-100220000D01*
X94733072Y-100220000D01*
X94733072Y-99170000D01*
X94720812Y-99045518D01*
X94684502Y-98925820D01*
X94649907Y-98861098D01*
X94713215Y-98652400D01*
X94735612Y-98425000D01*
X94713215Y-98197600D01*
X94646885Y-97978940D01*
X94545895Y-97790000D01*
X94646885Y-97601060D01*
X94713215Y-97382400D01*
X94735612Y-97155000D01*
X94713215Y-96927600D01*
X94646885Y-96708940D01*
X94539171Y-96507421D01*
X94394212Y-96330788D01*
X94217579Y-96185829D01*
X94170500Y-96160665D01*
X94170500Y-95885000D01*
X98865506Y-95885000D01*
X98869501Y-95925560D01*
X98869500Y-97749449D01*
X98865506Y-97790000D01*
X98869500Y-97830550D01*
X98869500Y-97830552D01*
X98881444Y-97951825D01*
X98898007Y-98006426D01*
X98928647Y-98107433D01*
X99005301Y-98250842D01*
X99039214Y-98292165D01*
X99108459Y-98376541D01*
X99139965Y-98402397D01*
X99717610Y-98980044D01*
X99743459Y-99011541D01*
X99774955Y-99037389D01*
X99774958Y-99037392D01*
X99869157Y-99114699D01*
X100012566Y-99191353D01*
X100168174Y-99238556D01*
X100289447Y-99250500D01*
X100289449Y-99250500D01*
X100330000Y-99254494D01*
X100370550Y-99250500D01*
X100847962Y-99250500D01*
X100850000Y-99409250D01*
X101008750Y-99568000D01*
X101781891Y-99568000D01*
X101782600Y-99568215D01*
X101953021Y-99585000D01*
X102516979Y-99585000D01*
X102687400Y-99568215D01*
X102688109Y-99568000D01*
X103461250Y-99568000D01*
X103620000Y-99409250D01*
X103623072Y-99170000D01*
X103610812Y-99045518D01*
X103574502Y-98925820D01*
X103539907Y-98861098D01*
X103603215Y-98652400D01*
X103625612Y-98425000D01*
X103603215Y-98197600D01*
X103536885Y-97978940D01*
X103435895Y-97790000D01*
X103536885Y-97601060D01*
X103603215Y-97382400D01*
X103625612Y-97155000D01*
X103603215Y-96927600D01*
X103536885Y-96708940D01*
X103429171Y-96507421D01*
X103284212Y-96330788D01*
X103107579Y-96185829D01*
X102906060Y-96078115D01*
X102687400Y-96011785D01*
X102516979Y-95995000D01*
X101953021Y-95995000D01*
X101782600Y-96011785D01*
X101563940Y-96078115D01*
X101362421Y-96185829D01*
X101185788Y-96330788D01*
X101040829Y-96507421D01*
X100933115Y-96708940D01*
X100866785Y-96927600D01*
X100844388Y-97155000D01*
X100866785Y-97382400D01*
X100932642Y-97599500D01*
X100671933Y-97599500D01*
X100520500Y-97448067D01*
X100520500Y-96226932D01*
X101577391Y-95170042D01*
X101577395Y-95170037D01*
X102623377Y-94124057D01*
X102728665Y-94145000D01*
X103011335Y-94145000D01*
X103288574Y-94089853D01*
X103549727Y-93981680D01*
X103784759Y-93824637D01*
X103984637Y-93624759D01*
X104141680Y-93389727D01*
X104249853Y-93128574D01*
X104305000Y-92851335D01*
X104305000Y-92568665D01*
X105880000Y-92568665D01*
X105880000Y-92851335D01*
X105935147Y-93128574D01*
X106043320Y-93389727D01*
X106200363Y-93624759D01*
X106400241Y-93824637D01*
X106635273Y-93981680D01*
X106896426Y-94089853D01*
X107173665Y-94145000D01*
X107456335Y-94145000D01*
X107733574Y-94089853D01*
X107994727Y-93981680D01*
X108229759Y-93824637D01*
X108429637Y-93624759D01*
X108586680Y-93389727D01*
X108694853Y-93128574D01*
X108750000Y-92851335D01*
X108750000Y-92568665D01*
X108694853Y-92291426D01*
X108586680Y-92030273D01*
X108429637Y-91795241D01*
X108229759Y-91595363D01*
X107994727Y-91438320D01*
X107733574Y-91330147D01*
X107456335Y-91275000D01*
X107173665Y-91275000D01*
X106896426Y-91330147D01*
X106635273Y-91438320D01*
X106400241Y-91595363D01*
X106200363Y-91795241D01*
X106043320Y-92030273D01*
X105935147Y-92291426D01*
X105880000Y-92568665D01*
X104305000Y-92568665D01*
X104249853Y-92291426D01*
X104141680Y-92030273D01*
X103984637Y-91795241D01*
X103784759Y-91595363D01*
X103549727Y-91438320D01*
X103288574Y-91330147D01*
X103011335Y-91275000D01*
X102728665Y-91275000D01*
X102451426Y-91330147D01*
X102190273Y-91438320D01*
X101955241Y-91595363D01*
X101755363Y-91795241D01*
X101598320Y-92030273D01*
X101490147Y-92291426D01*
X101435000Y-92568665D01*
X101435000Y-92851335D01*
X101455943Y-92956623D01*
X100409963Y-94002605D01*
X100409958Y-94002609D01*
X99139961Y-95272607D01*
X99108460Y-95298459D01*
X99082609Y-95329959D01*
X99005301Y-95424158D01*
X98928647Y-95567567D01*
X98881445Y-95723174D01*
X98865506Y-95885000D01*
X94170500Y-95885000D01*
X94170500Y-93385550D01*
X94174494Y-93345000D01*
X94166456Y-93263386D01*
X94158556Y-93183174D01*
X94111353Y-93027566D01*
X94110327Y-93025646D01*
X94145000Y-92851335D01*
X94145000Y-92568665D01*
X94089853Y-92291426D01*
X93981680Y-92030273D01*
X93824637Y-91795241D01*
X93624759Y-91595363D01*
X93389727Y-91438320D01*
X93128574Y-91330147D01*
X92851335Y-91275000D01*
X92568665Y-91275000D01*
X92291426Y-91330147D01*
X92030273Y-91438320D01*
X91795241Y-91595363D01*
X91595363Y-91795241D01*
X91438320Y-92030273D01*
X91330147Y-92291426D01*
X91275000Y-92568665D01*
X66802000Y-92568665D01*
X66802000Y-88123665D01*
X91275000Y-88123665D01*
X91275000Y-88406335D01*
X91330147Y-88683574D01*
X91438320Y-88944727D01*
X91595363Y-89179759D01*
X91795241Y-89379637D01*
X92030273Y-89536680D01*
X92291426Y-89644853D01*
X92568665Y-89700000D01*
X92851335Y-89700000D01*
X93128574Y-89644853D01*
X93389727Y-89536680D01*
X93624759Y-89379637D01*
X93824637Y-89179759D01*
X93981680Y-88944727D01*
X94089853Y-88683574D01*
X94145000Y-88406335D01*
X94145000Y-88123665D01*
X94089853Y-87846426D01*
X93981680Y-87585273D01*
X93824637Y-87350241D01*
X93624759Y-87150363D01*
X93389727Y-86993320D01*
X93128574Y-86885147D01*
X92851335Y-86830000D01*
X92568665Y-86830000D01*
X92291426Y-86885147D01*
X92030273Y-86993320D01*
X91795241Y-87150363D01*
X91595363Y-87350241D01*
X91438320Y-87585273D01*
X91330147Y-87846426D01*
X91275000Y-88123665D01*
X66802000Y-88123665D01*
X66802000Y-82558726D01*
X66820611Y-82603657D01*
X67273136Y-83280909D01*
X67849091Y-83856864D01*
X68526343Y-84309389D01*
X69278865Y-84621094D01*
X70077738Y-84780000D01*
X70892262Y-84780000D01*
X71691135Y-84621094D01*
X72443657Y-84309389D01*
X73120909Y-83856864D01*
X73696864Y-83280909D01*
X74149389Y-82603657D01*
X74461094Y-81851135D01*
X74620000Y-81052262D01*
X74620000Y-80237738D01*
X74461094Y-79438865D01*
X74149389Y-78686343D01*
X73831108Y-78210000D01*
X77156928Y-78210000D01*
X77156928Y-81810000D01*
X77173992Y-81983254D01*
X77224528Y-82149850D01*
X77306595Y-82303386D01*
X77417038Y-82437962D01*
X77551614Y-82548405D01*
X77705150Y-82630472D01*
X77871746Y-82681008D01*
X78045000Y-82698072D01*
X80705000Y-82698072D01*
X80878254Y-82681008D01*
X81044850Y-82630472D01*
X81198386Y-82548405D01*
X81332962Y-82437962D01*
X81443405Y-82303386D01*
X81525472Y-82149850D01*
X81576008Y-81983254D01*
X81589644Y-81844801D01*
X81761181Y-82053820D01*
X82098459Y-82330616D01*
X82483256Y-82536294D01*
X82900785Y-82662950D01*
X83335000Y-82705717D01*
X83769216Y-82662950D01*
X84186745Y-82536294D01*
X84571542Y-82330616D01*
X84908820Y-82053820D01*
X85185616Y-81716542D01*
X85391294Y-81331744D01*
X85517950Y-80914215D01*
X85550000Y-80588809D01*
X85550000Y-79431190D01*
X85517950Y-79105784D01*
X85391294Y-78688255D01*
X85185616Y-78303458D01*
X85108918Y-78210000D01*
X88586928Y-78210000D01*
X88586928Y-81810000D01*
X88603992Y-81983254D01*
X88654528Y-82149850D01*
X88736595Y-82303386D01*
X88847038Y-82437962D01*
X88981614Y-82548405D01*
X89135150Y-82630472D01*
X89301746Y-82681008D01*
X89475000Y-82698072D01*
X92135000Y-82698072D01*
X92308254Y-82681008D01*
X92474850Y-82630472D01*
X92628386Y-82548405D01*
X92762962Y-82437962D01*
X92873405Y-82303386D01*
X92955472Y-82149850D01*
X93006008Y-81983254D01*
X93019700Y-81844238D01*
X93288562Y-82136044D01*
X93640009Y-82392262D01*
X94034689Y-82574993D01*
X94293631Y-82644263D01*
X94638000Y-82532324D01*
X94638000Y-80137000D01*
X94892000Y-80137000D01*
X94892000Y-82532324D01*
X95236369Y-82644263D01*
X95495311Y-82574993D01*
X95889991Y-82392262D01*
X96241438Y-82136044D01*
X96536147Y-81816185D01*
X96762792Y-81444977D01*
X96912663Y-81036685D01*
X96980000Y-80607000D01*
X96980000Y-80380000D01*
X98156928Y-80380000D01*
X98156928Y-82180000D01*
X98169188Y-82304482D01*
X98205498Y-82424180D01*
X98264463Y-82534494D01*
X98343815Y-82631185D01*
X98440506Y-82710537D01*
X98550820Y-82769502D01*
X98670518Y-82805812D01*
X98795000Y-82818072D01*
X98869500Y-82818072D01*
X98869500Y-83779449D01*
X98865506Y-83820000D01*
X98869500Y-83860550D01*
X98869500Y-83860552D01*
X98881444Y-83981825D01*
X98908572Y-84071255D01*
X98928647Y-84137433D01*
X99005301Y-84280842D01*
X99028729Y-84309389D01*
X99108459Y-84406541D01*
X99139966Y-84432398D01*
X101906586Y-87199018D01*
X101755363Y-87350241D01*
X101598320Y-87585273D01*
X101490147Y-87846426D01*
X101435000Y-88123665D01*
X101435000Y-88406335D01*
X101490147Y-88683574D01*
X101598320Y-88944727D01*
X101755363Y-89179759D01*
X101955241Y-89379637D01*
X102190273Y-89536680D01*
X102451426Y-89644853D01*
X102728665Y-89700000D01*
X103011335Y-89700000D01*
X103288574Y-89644853D01*
X103549727Y-89536680D01*
X103784759Y-89379637D01*
X103984637Y-89179759D01*
X104141680Y-88944727D01*
X104249853Y-88683574D01*
X104305000Y-88406335D01*
X104305000Y-88123665D01*
X104249853Y-87846426D01*
X104141680Y-87585273D01*
X103984637Y-87350241D01*
X103784759Y-87150363D01*
X103695500Y-87090722D01*
X103695500Y-87035550D01*
X103699494Y-86994999D01*
X103695500Y-86954447D01*
X103683556Y-86833174D01*
X103636353Y-86677566D01*
X103562050Y-86538556D01*
X103559699Y-86534157D01*
X103482391Y-86439958D01*
X103456541Y-86408459D01*
X103425039Y-86382606D01*
X100520500Y-83478068D01*
X100520500Y-82818072D01*
X100595000Y-82818072D01*
X100719482Y-82805812D01*
X100839180Y-82769502D01*
X100949494Y-82710537D01*
X101046185Y-82631185D01*
X101125537Y-82534494D01*
X101184502Y-82424180D01*
X101190056Y-82405873D01*
X101256495Y-82472312D01*
X101507905Y-82640299D01*
X101787257Y-82756011D01*
X102083816Y-82815000D01*
X102386184Y-82815000D01*
X102682743Y-82756011D01*
X102962095Y-82640299D01*
X103213505Y-82472312D01*
X103427312Y-82258505D01*
X103595299Y-82007095D01*
X103711011Y-81727743D01*
X103770000Y-81431184D01*
X103770000Y-81128816D01*
X103711011Y-80832257D01*
X103595299Y-80552905D01*
X103479768Y-80380000D01*
X104506928Y-80380000D01*
X104506928Y-82180000D01*
X104519188Y-82304482D01*
X104555498Y-82424180D01*
X104614463Y-82534494D01*
X104693815Y-82631185D01*
X104790506Y-82710537D01*
X104900820Y-82769502D01*
X105020518Y-82805812D01*
X105145000Y-82818072D01*
X105219501Y-82818072D01*
X105219500Y-85684449D01*
X105215506Y-85725000D01*
X105219500Y-85765550D01*
X105219500Y-85765552D01*
X105231444Y-85886825D01*
X105278647Y-86042433D01*
X105355301Y-86185842D01*
X105389214Y-86227165D01*
X105458459Y-86311541D01*
X105489966Y-86337398D01*
X106351586Y-87199018D01*
X106200363Y-87350241D01*
X106043320Y-87585273D01*
X105935147Y-87846426D01*
X105880000Y-88123665D01*
X105880000Y-88406335D01*
X105935147Y-88683574D01*
X106043320Y-88944727D01*
X106200363Y-89179759D01*
X106400241Y-89379637D01*
X106635273Y-89536680D01*
X106896426Y-89644853D01*
X107173665Y-89700000D01*
X107456335Y-89700000D01*
X107733574Y-89644853D01*
X107994727Y-89536680D01*
X108229759Y-89379637D01*
X108429637Y-89179759D01*
X108586680Y-88944727D01*
X108694853Y-88683574D01*
X108750000Y-88406335D01*
X108750000Y-88123665D01*
X108694853Y-87846426D01*
X108586680Y-87585273D01*
X108429637Y-87350241D01*
X108229759Y-87150363D01*
X108140500Y-87090722D01*
X108140500Y-87035550D01*
X108144494Y-86994999D01*
X108140500Y-86954447D01*
X108128556Y-86833174D01*
X108081353Y-86677566D01*
X108007050Y-86538556D01*
X108004699Y-86534157D01*
X107927391Y-86439958D01*
X107901541Y-86408459D01*
X107870039Y-86382606D01*
X106870500Y-85383068D01*
X106870500Y-82818072D01*
X106945000Y-82818072D01*
X107069482Y-82805812D01*
X107189180Y-82769502D01*
X107299494Y-82710537D01*
X107396185Y-82631185D01*
X107475537Y-82534494D01*
X107534502Y-82424180D01*
X107540056Y-82405873D01*
X107606495Y-82472312D01*
X107857905Y-82640299D01*
X108137257Y-82756011D01*
X108433816Y-82815000D01*
X108736184Y-82815000D01*
X109032743Y-82756011D01*
X109312095Y-82640299D01*
X109563505Y-82472312D01*
X109777312Y-82258505D01*
X109945299Y-82007095D01*
X110061011Y-81727743D01*
X110096366Y-81550000D01*
X112709428Y-81550000D01*
X112709428Y-83550000D01*
X112721688Y-83674482D01*
X112757998Y-83794180D01*
X112816963Y-83904494D01*
X112896315Y-84001185D01*
X112993006Y-84080537D01*
X113103320Y-84139502D01*
X113223018Y-84175812D01*
X113347500Y-84188072D01*
X113474501Y-84188072D01*
X113474500Y-89494449D01*
X113470506Y-89535000D01*
X113474500Y-89575550D01*
X113474500Y-89575552D01*
X113486444Y-89696825D01*
X113508687Y-89770150D01*
X113533647Y-89852433D01*
X113610301Y-89995842D01*
X113644214Y-90037165D01*
X113713459Y-90121541D01*
X113744966Y-90147398D01*
X116060944Y-92463376D01*
X116040000Y-92568665D01*
X116040000Y-92851335D01*
X116095147Y-93128574D01*
X116203320Y-93389727D01*
X116360363Y-93624759D01*
X116560241Y-93824637D01*
X116649500Y-93884278D01*
X116649501Y-97250722D01*
X116560241Y-97310363D01*
X116360363Y-97510241D01*
X116225000Y-97712827D01*
X116089637Y-97510241D01*
X115889759Y-97310363D01*
X115654727Y-97153320D01*
X115393574Y-97045147D01*
X115116335Y-96990000D01*
X114833665Y-96990000D01*
X114556426Y-97045147D01*
X114295273Y-97153320D01*
X114060241Y-97310363D01*
X113860363Y-97510241D01*
X113703320Y-97745273D01*
X113595147Y-98006426D01*
X113540000Y-98283665D01*
X113540000Y-98566335D01*
X113595147Y-98843574D01*
X113703320Y-99104727D01*
X113860363Y-99339759D01*
X114060241Y-99539637D01*
X114295273Y-99696680D01*
X114556426Y-99804853D01*
X114833665Y-99860000D01*
X115116335Y-99860000D01*
X115393574Y-99804853D01*
X115654727Y-99696680D01*
X115889759Y-99539637D01*
X116089637Y-99339759D01*
X116225000Y-99137173D01*
X116360363Y-99339759D01*
X116560241Y-99539637D01*
X116795273Y-99696680D01*
X117056426Y-99804853D01*
X117333665Y-99860000D01*
X117616335Y-99860000D01*
X117893574Y-99804853D01*
X118154727Y-99696680D01*
X118389759Y-99539637D01*
X118589637Y-99339759D01*
X118746680Y-99104727D01*
X118854853Y-98843574D01*
X118910000Y-98566335D01*
X118910000Y-98283665D01*
X118854853Y-98006426D01*
X118746680Y-97745273D01*
X118589637Y-97510241D01*
X118389759Y-97310363D01*
X118300500Y-97250722D01*
X118300500Y-97017408D01*
X127508000Y-97017408D01*
X127508000Y-97292592D01*
X127561686Y-97562490D01*
X127666995Y-97816727D01*
X127819880Y-98045535D01*
X128014465Y-98240120D01*
X128243273Y-98393005D01*
X128497510Y-98498314D01*
X128767408Y-98552000D01*
X129042592Y-98552000D01*
X129312490Y-98498314D01*
X129566727Y-98393005D01*
X129795535Y-98240120D01*
X129990120Y-98045535D01*
X130143005Y-97816727D01*
X130248314Y-97562490D01*
X130302000Y-97292592D01*
X130302000Y-97017408D01*
X167386000Y-97017408D01*
X167386000Y-97292592D01*
X167439686Y-97562490D01*
X167544995Y-97816727D01*
X167697880Y-98045535D01*
X167892465Y-98240120D01*
X168121273Y-98393005D01*
X168375510Y-98498314D01*
X168645408Y-98552000D01*
X168920592Y-98552000D01*
X169190490Y-98498314D01*
X169444727Y-98393005D01*
X169673535Y-98240120D01*
X169868120Y-98045535D01*
X170021005Y-97816727D01*
X170126314Y-97562490D01*
X170180000Y-97292592D01*
X170180000Y-97017408D01*
X170126314Y-96747510D01*
X170021005Y-96493273D01*
X169868120Y-96264465D01*
X169673535Y-96069880D01*
X169444727Y-95916995D01*
X169190490Y-95811686D01*
X168920592Y-95758000D01*
X168645408Y-95758000D01*
X168375510Y-95811686D01*
X168121273Y-95916995D01*
X167892465Y-96069880D01*
X167697880Y-96264465D01*
X167544995Y-96493273D01*
X167439686Y-96747510D01*
X167386000Y-97017408D01*
X130302000Y-97017408D01*
X130248314Y-96747510D01*
X130143005Y-96493273D01*
X129990120Y-96264465D01*
X129795535Y-96069880D01*
X129566727Y-95916995D01*
X129312490Y-95811686D01*
X129042592Y-95758000D01*
X128767408Y-95758000D01*
X128497510Y-95811686D01*
X128243273Y-95916995D01*
X128014465Y-96069880D01*
X127819880Y-96264465D01*
X127666995Y-96493273D01*
X127561686Y-96747510D01*
X127508000Y-97017408D01*
X118300500Y-97017408D01*
X118300500Y-95400000D01*
X183994283Y-95400000D01*
X184037050Y-95834216D01*
X184163706Y-96251745D01*
X184369384Y-96636542D01*
X184646180Y-96973820D01*
X184983458Y-97250616D01*
X185225519Y-97380000D01*
X184983458Y-97509384D01*
X184646180Y-97786180D01*
X184369384Y-98123458D01*
X184163706Y-98508255D01*
X184037050Y-98925784D01*
X183994283Y-99360000D01*
X184037050Y-99794216D01*
X184163706Y-100211745D01*
X184369384Y-100596542D01*
X184646180Y-100933820D01*
X184983458Y-101210616D01*
X185225519Y-101340000D01*
X184983458Y-101469384D01*
X184646180Y-101746180D01*
X184369384Y-102083458D01*
X184163706Y-102468255D01*
X184037050Y-102885784D01*
X183994283Y-103320000D01*
X184037050Y-103754216D01*
X184163706Y-104171745D01*
X184369384Y-104556542D01*
X184646180Y-104893820D01*
X184983458Y-105170616D01*
X185225519Y-105300000D01*
X184983458Y-105429384D01*
X184646180Y-105706180D01*
X184369384Y-106043458D01*
X184163706Y-106428255D01*
X184037050Y-106845784D01*
X183994283Y-107280000D01*
X184037050Y-107714216D01*
X184163706Y-108131745D01*
X184369384Y-108516542D01*
X184646180Y-108853820D01*
X184983458Y-109130616D01*
X185225519Y-109260000D01*
X184983458Y-109389384D01*
X184646180Y-109666180D01*
X184369384Y-110003458D01*
X184163706Y-110388255D01*
X184037050Y-110805784D01*
X183994283Y-111240000D01*
X184037050Y-111674216D01*
X184163706Y-112091745D01*
X184369384Y-112476542D01*
X184646180Y-112813820D01*
X184983458Y-113090616D01*
X185368255Y-113296294D01*
X185785784Y-113422950D01*
X186111190Y-113455000D01*
X187268810Y-113455000D01*
X187594216Y-113422950D01*
X188011745Y-113296294D01*
X188396542Y-113090616D01*
X188733820Y-112813820D01*
X189010616Y-112476542D01*
X189216294Y-112091745D01*
X189342950Y-111674216D01*
X189385717Y-111240000D01*
X189342950Y-110805784D01*
X189216294Y-110388255D01*
X189010616Y-110003458D01*
X188733820Y-109666180D01*
X188396542Y-109389384D01*
X188154481Y-109260000D01*
X188396542Y-109130616D01*
X188733820Y-108853820D01*
X189010616Y-108516542D01*
X189216294Y-108131745D01*
X189342950Y-107714216D01*
X189385717Y-107280000D01*
X189342950Y-106845784D01*
X189216294Y-106428255D01*
X189010616Y-106043458D01*
X188733820Y-105706180D01*
X188396542Y-105429384D01*
X188154481Y-105300000D01*
X188396542Y-105170616D01*
X188733820Y-104893820D01*
X189010616Y-104556542D01*
X189216294Y-104171745D01*
X189342950Y-103754216D01*
X189385717Y-103320000D01*
X189342950Y-102885784D01*
X189216294Y-102468255D01*
X189010616Y-102083458D01*
X188733820Y-101746180D01*
X188396542Y-101469384D01*
X188154481Y-101340000D01*
X188396542Y-101210616D01*
X188733820Y-100933820D01*
X189010616Y-100596542D01*
X189216294Y-100211745D01*
X189342950Y-99794216D01*
X189385717Y-99360000D01*
X189342950Y-98925784D01*
X189216294Y-98508255D01*
X189010616Y-98123458D01*
X188733820Y-97786180D01*
X188396542Y-97509384D01*
X188154481Y-97380000D01*
X188396542Y-97250616D01*
X188733820Y-96973820D01*
X189010616Y-96636542D01*
X189216294Y-96251745D01*
X189342950Y-95834216D01*
X189385717Y-95400000D01*
X189342950Y-94965784D01*
X189216294Y-94548255D01*
X189010616Y-94163458D01*
X188733820Y-93826180D01*
X188524802Y-93654644D01*
X188663254Y-93641008D01*
X188829850Y-93590472D01*
X188983386Y-93508405D01*
X189117962Y-93397962D01*
X189228405Y-93263386D01*
X189310472Y-93109850D01*
X189361008Y-92943254D01*
X189378072Y-92770000D01*
X189378072Y-90110000D01*
X189361008Y-89936746D01*
X189310472Y-89770150D01*
X189228405Y-89616614D01*
X189117962Y-89482038D01*
X188983386Y-89371595D01*
X188829850Y-89289528D01*
X188663254Y-89238992D01*
X188490000Y-89221928D01*
X184890000Y-89221928D01*
X184716746Y-89238992D01*
X184550150Y-89289528D01*
X184396614Y-89371595D01*
X184262038Y-89482038D01*
X184151595Y-89616614D01*
X184069528Y-89770150D01*
X184018992Y-89936746D01*
X184001928Y-90110000D01*
X184001928Y-92770000D01*
X184018992Y-92943254D01*
X184069528Y-93109850D01*
X184151595Y-93263386D01*
X184262038Y-93397962D01*
X184396614Y-93508405D01*
X184550150Y-93590472D01*
X184716746Y-93641008D01*
X184855198Y-93654644D01*
X184646180Y-93826180D01*
X184369384Y-94163458D01*
X184163706Y-94548255D01*
X184037050Y-94965784D01*
X183994283Y-95400000D01*
X118300500Y-95400000D01*
X118300500Y-93884278D01*
X118389759Y-93824637D01*
X118589637Y-93624759D01*
X118746680Y-93389727D01*
X118854853Y-93128574D01*
X118910000Y-92851335D01*
X118910000Y-92568665D01*
X118854853Y-92291426D01*
X118746680Y-92030273D01*
X118589637Y-91795241D01*
X118389759Y-91595363D01*
X118154727Y-91438320D01*
X117893574Y-91330147D01*
X117616335Y-91275000D01*
X117333665Y-91275000D01*
X117228376Y-91295944D01*
X115125500Y-89193068D01*
X115125500Y-88123665D01*
X116040000Y-88123665D01*
X116040000Y-88406335D01*
X116095147Y-88683574D01*
X116203320Y-88944727D01*
X116360363Y-89179759D01*
X116560241Y-89379637D01*
X116795273Y-89536680D01*
X117056426Y-89644853D01*
X117333665Y-89700000D01*
X117616335Y-89700000D01*
X117893574Y-89644853D01*
X118154727Y-89536680D01*
X118389759Y-89379637D01*
X118589637Y-89179759D01*
X118746680Y-88944727D01*
X118854853Y-88683574D01*
X118910000Y-88406335D01*
X118910000Y-88123665D01*
X118854853Y-87846426D01*
X118746680Y-87585273D01*
X118589637Y-87350241D01*
X118389759Y-87150363D01*
X118154727Y-86993320D01*
X117893574Y-86885147D01*
X117616335Y-86830000D01*
X117333665Y-86830000D01*
X117056426Y-86885147D01*
X116795273Y-86993320D01*
X116560241Y-87150363D01*
X116360363Y-87350241D01*
X116203320Y-87585273D01*
X116095147Y-87846426D01*
X116040000Y-88123665D01*
X115125500Y-88123665D01*
X115125500Y-84188072D01*
X115252500Y-84188072D01*
X115376982Y-84175812D01*
X115496680Y-84139502D01*
X115606994Y-84080537D01*
X115703685Y-84001185D01*
X115783037Y-83904494D01*
X115832059Y-83812781D01*
X115973077Y-83925969D01*
X116248906Y-84069571D01*
X116467020Y-84140563D01*
X116713000Y-84020594D01*
X116713000Y-82677000D01*
X116693000Y-82677000D01*
X116693000Y-82423000D01*
X116713000Y-82423000D01*
X116713000Y-81079406D01*
X116967000Y-81079406D01*
X116967000Y-82423000D01*
X116987000Y-82423000D01*
X116987000Y-82677000D01*
X116967000Y-82677000D01*
X116967000Y-84020594D01*
X117212980Y-84140563D01*
X117431094Y-84069571D01*
X117706923Y-83925969D01*
X117949437Y-83731315D01*
X118104837Y-83546101D01*
X118252037Y-83725463D01*
X118493766Y-83923845D01*
X118769552Y-84071255D01*
X119068797Y-84162030D01*
X119380000Y-84192681D01*
X119691204Y-84162030D01*
X119990449Y-84071255D01*
X120266235Y-83923845D01*
X120507963Y-83725463D01*
X120706345Y-83483734D01*
X120853755Y-83207948D01*
X120944530Y-82908703D01*
X120967500Y-82675485D01*
X120967500Y-82424514D01*
X120944530Y-82191296D01*
X120853755Y-81892051D01*
X120706345Y-81616265D01*
X120507963Y-81374537D01*
X120266234Y-81176155D01*
X119990448Y-81028745D01*
X119691203Y-80937970D01*
X119380000Y-80907319D01*
X119068796Y-80937970D01*
X118769551Y-81028745D01*
X118493765Y-81176155D01*
X118252037Y-81374537D01*
X118104838Y-81553900D01*
X117949437Y-81368685D01*
X117706923Y-81174031D01*
X117431094Y-81030429D01*
X117212980Y-80959437D01*
X116967000Y-81079406D01*
X116713000Y-81079406D01*
X116467020Y-80959437D01*
X116248906Y-81030429D01*
X115973077Y-81174031D01*
X115832059Y-81287219D01*
X115783037Y-81195506D01*
X115703685Y-81098815D01*
X115606994Y-81019463D01*
X115496680Y-80960498D01*
X115376982Y-80924188D01*
X115252500Y-80911928D01*
X113347500Y-80911928D01*
X113223018Y-80924188D01*
X113103320Y-80960498D01*
X112993006Y-81019463D01*
X112896315Y-81098815D01*
X112816963Y-81195506D01*
X112757998Y-81305820D01*
X112721688Y-81425518D01*
X112709428Y-81550000D01*
X110096366Y-81550000D01*
X110120000Y-81431184D01*
X110120000Y-81128816D01*
X110061011Y-80832257D01*
X109945299Y-80552905D01*
X109777312Y-80301495D01*
X109563505Y-80087688D01*
X109312095Y-79919701D01*
X109032743Y-79803989D01*
X108736184Y-79745000D01*
X108433816Y-79745000D01*
X108137257Y-79803989D01*
X107857905Y-79919701D01*
X107606495Y-80087688D01*
X107540056Y-80154127D01*
X107534502Y-80135820D01*
X107475537Y-80025506D01*
X107396185Y-79928815D01*
X107299494Y-79849463D01*
X107189180Y-79790498D01*
X107069482Y-79754188D01*
X106945000Y-79741928D01*
X105145000Y-79741928D01*
X105020518Y-79754188D01*
X104900820Y-79790498D01*
X104790506Y-79849463D01*
X104693815Y-79928815D01*
X104614463Y-80025506D01*
X104555498Y-80135820D01*
X104519188Y-80255518D01*
X104506928Y-80380000D01*
X103479768Y-80380000D01*
X103427312Y-80301495D01*
X103213505Y-80087688D01*
X102962095Y-79919701D01*
X102682743Y-79803989D01*
X102386184Y-79745000D01*
X102083816Y-79745000D01*
X101787257Y-79803989D01*
X101507905Y-79919701D01*
X101256495Y-80087688D01*
X101190056Y-80154127D01*
X101184502Y-80135820D01*
X101125537Y-80025506D01*
X101046185Y-79928815D01*
X100949494Y-79849463D01*
X100839180Y-79790498D01*
X100719482Y-79754188D01*
X100595000Y-79741928D01*
X98795000Y-79741928D01*
X98670518Y-79754188D01*
X98550820Y-79790498D01*
X98440506Y-79849463D01*
X98343815Y-79928815D01*
X98264463Y-80025506D01*
X98205498Y-80135820D01*
X98169188Y-80255518D01*
X98156928Y-80380000D01*
X96980000Y-80380000D01*
X96980000Y-80137000D01*
X94892000Y-80137000D01*
X94638000Y-80137000D01*
X94618000Y-80137000D01*
X94618000Y-79883000D01*
X94638000Y-79883000D01*
X94638000Y-77487676D01*
X94892000Y-77487676D01*
X94892000Y-79883000D01*
X96980000Y-79883000D01*
X96980000Y-79413000D01*
X96912663Y-78983315D01*
X96788915Y-78646187D01*
X123507500Y-78646187D01*
X123507500Y-78833813D01*
X123544104Y-79017834D01*
X123615905Y-79191178D01*
X123634500Y-79219007D01*
X123634501Y-92865991D01*
X123615905Y-92893822D01*
X123544104Y-93067166D01*
X123507500Y-93251187D01*
X123507500Y-93438813D01*
X123544104Y-93622834D01*
X123615905Y-93796178D01*
X123720145Y-93952184D01*
X123852816Y-94084855D01*
X124008822Y-94189095D01*
X124182166Y-94260896D01*
X124366187Y-94297500D01*
X124553813Y-94297500D01*
X124737834Y-94260896D01*
X124911178Y-94189095D01*
X125067184Y-94084855D01*
X125199855Y-93952184D01*
X125304095Y-93796178D01*
X125375896Y-93622834D01*
X125412500Y-93438813D01*
X125412500Y-93251187D01*
X125375896Y-93067166D01*
X125304095Y-92893822D01*
X125285500Y-92865993D01*
X125285500Y-79237408D01*
X127508000Y-79237408D01*
X127508000Y-79512592D01*
X127561686Y-79782490D01*
X127666995Y-80036727D01*
X127819880Y-80265535D01*
X128014465Y-80460120D01*
X128243273Y-80613005D01*
X128497510Y-80718314D01*
X128767408Y-80772000D01*
X129042592Y-80772000D01*
X129312490Y-80718314D01*
X129566727Y-80613005D01*
X129795535Y-80460120D01*
X129990120Y-80265535D01*
X130143005Y-80036727D01*
X130248314Y-79782490D01*
X130302000Y-79512592D01*
X130302000Y-79237408D01*
X167386000Y-79237408D01*
X167386000Y-79512592D01*
X167439686Y-79782490D01*
X167544995Y-80036727D01*
X167697880Y-80265535D01*
X167892465Y-80460120D01*
X168121273Y-80613005D01*
X168375510Y-80718314D01*
X168645408Y-80772000D01*
X168920592Y-80772000D01*
X169190490Y-80718314D01*
X169444727Y-80613005D01*
X169673535Y-80460120D01*
X169868120Y-80265535D01*
X170021005Y-80036727D01*
X170126314Y-79782490D01*
X170180000Y-79512592D01*
X170180000Y-79237408D01*
X170126314Y-78967510D01*
X170021005Y-78713273D01*
X169868120Y-78484465D01*
X169673535Y-78289880D01*
X169444727Y-78136995D01*
X169190490Y-78031686D01*
X168920592Y-77978000D01*
X168645408Y-77978000D01*
X168375510Y-78031686D01*
X168121273Y-78136995D01*
X167892465Y-78289880D01*
X167697880Y-78484465D01*
X167544995Y-78713273D01*
X167439686Y-78967510D01*
X167386000Y-79237408D01*
X130302000Y-79237408D01*
X130248314Y-78967510D01*
X130143005Y-78713273D01*
X129990120Y-78484465D01*
X129795535Y-78289880D01*
X129566727Y-78136995D01*
X129312490Y-78031686D01*
X129042592Y-77978000D01*
X128767408Y-77978000D01*
X128497510Y-78031686D01*
X128243273Y-78136995D01*
X128014465Y-78289880D01*
X127819880Y-78484465D01*
X127666995Y-78713273D01*
X127561686Y-78967510D01*
X127508000Y-79237408D01*
X125285500Y-79237408D01*
X125285500Y-79219007D01*
X125304095Y-79191178D01*
X125375896Y-79017834D01*
X125412500Y-78833813D01*
X125412500Y-78646187D01*
X125375896Y-78462166D01*
X125304095Y-78288822D01*
X125199855Y-78132816D01*
X125067184Y-78000145D01*
X124911178Y-77895905D01*
X124737834Y-77824104D01*
X124553813Y-77787500D01*
X124366187Y-77787500D01*
X124182166Y-77824104D01*
X124008822Y-77895905D01*
X123852816Y-78000145D01*
X123720145Y-78132816D01*
X123615905Y-78288822D01*
X123544104Y-78462166D01*
X123507500Y-78646187D01*
X96788915Y-78646187D01*
X96762792Y-78575023D01*
X96536147Y-78203815D01*
X96241438Y-77883956D01*
X95889991Y-77627738D01*
X95495311Y-77445007D01*
X95236369Y-77375737D01*
X94892000Y-77487676D01*
X94638000Y-77487676D01*
X94293631Y-77375737D01*
X94034689Y-77445007D01*
X93640009Y-77627738D01*
X93288562Y-77883956D01*
X93019700Y-78175762D01*
X93006008Y-78036746D01*
X92955472Y-77870150D01*
X92873405Y-77716614D01*
X92762962Y-77582038D01*
X92628386Y-77471595D01*
X92474850Y-77389528D01*
X92308254Y-77338992D01*
X92135000Y-77321928D01*
X89475000Y-77321928D01*
X89301746Y-77338992D01*
X89135150Y-77389528D01*
X88981614Y-77471595D01*
X88847038Y-77582038D01*
X88736595Y-77716614D01*
X88654528Y-77870150D01*
X88603992Y-78036746D01*
X88586928Y-78210000D01*
X85108918Y-78210000D01*
X84908820Y-77966180D01*
X84571542Y-77689384D01*
X84186744Y-77483706D01*
X83769215Y-77357050D01*
X83335000Y-77314283D01*
X82900784Y-77357050D01*
X82483255Y-77483706D01*
X82098458Y-77689384D01*
X81761180Y-77966180D01*
X81589644Y-78175198D01*
X81576008Y-78036746D01*
X81525472Y-77870150D01*
X81443405Y-77716614D01*
X81332962Y-77582038D01*
X81198386Y-77471595D01*
X81044850Y-77389528D01*
X80878254Y-77338992D01*
X80705000Y-77321928D01*
X78045000Y-77321928D01*
X77871746Y-77338992D01*
X77705150Y-77389528D01*
X77551614Y-77471595D01*
X77417038Y-77582038D01*
X77306595Y-77716614D01*
X77224528Y-77870150D01*
X77173992Y-78036746D01*
X77156928Y-78210000D01*
X73831108Y-78210000D01*
X73696864Y-78009091D01*
X73120909Y-77433136D01*
X72443657Y-76980611D01*
X72398726Y-76962000D01*
X186681274Y-76962000D01*
X186636343Y-76980611D01*
G37*
X186636343Y-76980611D02*
X185959091Y-77433136D01*
X185383136Y-78009091D01*
X184930611Y-78686343D01*
X184618906Y-79438865D01*
X184460000Y-80237738D01*
X184460000Y-81052262D01*
X184618906Y-81851135D01*
X184930611Y-82603657D01*
X185383136Y-83280909D01*
X185959091Y-83856864D01*
X186636343Y-84309389D01*
X187388865Y-84621094D01*
X188187738Y-84780000D01*
X189002262Y-84780000D01*
X189801135Y-84621094D01*
X190553657Y-84309389D01*
X191230909Y-83856864D01*
X191806864Y-83280909D01*
X192259389Y-82603657D01*
X192278000Y-82558726D01*
X192278000Y-120641274D01*
X192259389Y-120596343D01*
X191806864Y-119919091D01*
X191230909Y-119343136D01*
X190553657Y-118890611D01*
X189801135Y-118578906D01*
X189002262Y-118420000D01*
X188187738Y-118420000D01*
X187388865Y-118578906D01*
X186636343Y-118890611D01*
X185959091Y-119343136D01*
X185383136Y-119919091D01*
X184930611Y-120596343D01*
X184618906Y-121348865D01*
X184460000Y-122147738D01*
X184460000Y-122962262D01*
X184618906Y-123761135D01*
X184930611Y-124513657D01*
X185383136Y-125190909D01*
X185959091Y-125766864D01*
X186636343Y-126219389D01*
X186681274Y-126238000D01*
X72398726Y-126238000D01*
X72443657Y-126219389D01*
X73120909Y-125766864D01*
X73696864Y-125190909D01*
X74149389Y-124513657D01*
X74461094Y-123761135D01*
X74620000Y-122962262D01*
X74620000Y-122147738D01*
X74469277Y-121390000D01*
X83506928Y-121390000D01*
X83506928Y-124990000D01*
X83523992Y-125163254D01*
X83574528Y-125329850D01*
X83656595Y-125483386D01*
X83767038Y-125617962D01*
X83901614Y-125728405D01*
X84055150Y-125810472D01*
X84221746Y-125861008D01*
X84395000Y-125878072D01*
X87055000Y-125878072D01*
X87228254Y-125861008D01*
X87394850Y-125810472D01*
X87548386Y-125728405D01*
X87682962Y-125617962D01*
X87793405Y-125483386D01*
X87875472Y-125329850D01*
X87926008Y-125163254D01*
X87939700Y-125024238D01*
X88208562Y-125316044D01*
X88560009Y-125572262D01*
X88954689Y-125754993D01*
X89213631Y-125824263D01*
X89558000Y-125712324D01*
X89558000Y-123317000D01*
X89812000Y-123317000D01*
X89812000Y-125712324D01*
X90156369Y-125824263D01*
X90415311Y-125754993D01*
X90809991Y-125572262D01*
X91161438Y-125316044D01*
X91456147Y-124996185D01*
X91682792Y-124624977D01*
X91832663Y-124216685D01*
X91895704Y-123814408D01*
X123698000Y-123814408D01*
X123698000Y-124089592D01*
X123751686Y-124359490D01*
X123856995Y-124613727D01*
X124009880Y-124842535D01*
X124204465Y-125037120D01*
X124433273Y-125190005D01*
X124687510Y-125295314D01*
X124957408Y-125349000D01*
X125232592Y-125349000D01*
X125502490Y-125295314D01*
X125756727Y-125190005D01*
X125985535Y-125037120D01*
X126180120Y-124842535D01*
X126333005Y-124613727D01*
X126438314Y-124359490D01*
X126492000Y-124089592D01*
X126492000Y-123814408D01*
X168148000Y-123814408D01*
X168148000Y-124089592D01*
X168201686Y-124359490D01*
X168306995Y-124613727D01*
X168459880Y-124842535D01*
X168654465Y-125037120D01*
X168883273Y-125190005D01*
X169137510Y-125295314D01*
X169407408Y-125349000D01*
X169682592Y-125349000D01*
X169952490Y-125295314D01*
X170206727Y-125190005D01*
X170435535Y-125037120D01*
X170630120Y-124842535D01*
X170783005Y-124613727D01*
X170888314Y-124359490D01*
X170942000Y-124089592D01*
X170942000Y-123814408D01*
X170888314Y-123544510D01*
X170783005Y-123290273D01*
X170630120Y-123061465D01*
X170435535Y-122866880D01*
X170206727Y-122713995D01*
X169952490Y-122608686D01*
X169682592Y-122555000D01*
X169407408Y-122555000D01*
X169137510Y-122608686D01*
X168883273Y-122713995D01*
X168654465Y-122866880D01*
X168459880Y-123061465D01*
X168306995Y-123290273D01*
X168201686Y-123544510D01*
X168148000Y-123814408D01*
X126492000Y-123814408D01*
X126438314Y-123544510D01*
X126333005Y-123290273D01*
X126180120Y-123061465D01*
X125985535Y-122866880D01*
X125756727Y-122713995D01*
X125502490Y-122608686D01*
X125232592Y-122555000D01*
X124957408Y-122555000D01*
X124687510Y-122608686D01*
X124433273Y-122713995D01*
X124204465Y-122866880D01*
X124009880Y-123061465D01*
X123856995Y-123290273D01*
X123751686Y-123544510D01*
X123698000Y-123814408D01*
X91895704Y-123814408D01*
X91900000Y-123787000D01*
X91900000Y-123317000D01*
X89812000Y-123317000D01*
X89558000Y-123317000D01*
X89538000Y-123317000D01*
X89538000Y-123063000D01*
X89558000Y-123063000D01*
X89558000Y-120667676D01*
X89812000Y-120667676D01*
X89812000Y-123063000D01*
X91900000Y-123063000D01*
X91900000Y-122593000D01*
X91832663Y-122163315D01*
X91682792Y-121755023D01*
X91456147Y-121383815D01*
X91161438Y-121063956D01*
X90809991Y-120807738D01*
X90415311Y-120625007D01*
X90156369Y-120555737D01*
X89812000Y-120667676D01*
X89558000Y-120667676D01*
X89213631Y-120555737D01*
X88954689Y-120625007D01*
X88560009Y-120807738D01*
X88208562Y-121063956D01*
X87939700Y-121355762D01*
X87926008Y-121216746D01*
X87875472Y-121050150D01*
X87793405Y-120896614D01*
X87682962Y-120762038D01*
X87548386Y-120651595D01*
X87394850Y-120569528D01*
X87228254Y-120518992D01*
X87055000Y-120501928D01*
X84395000Y-120501928D01*
X84221746Y-120518992D01*
X84055150Y-120569528D01*
X83901614Y-120651595D01*
X83767038Y-120762038D01*
X83656595Y-120896614D01*
X83574528Y-121050150D01*
X83523992Y-121216746D01*
X83506928Y-121390000D01*
X74469277Y-121390000D01*
X74461094Y-121348865D01*
X74149389Y-120596343D01*
X73696864Y-119919091D01*
X73120909Y-119343136D01*
X72629819Y-119015000D01*
X109534428Y-119015000D01*
X109534428Y-121015000D01*
X109546688Y-121139482D01*
X109582998Y-121259180D01*
X109641963Y-121369494D01*
X109721315Y-121466185D01*
X109818006Y-121545537D01*
X109928320Y-121604502D01*
X110048018Y-121640812D01*
X110172500Y-121653072D01*
X112077500Y-121653072D01*
X112201982Y-121640812D01*
X112321680Y-121604502D01*
X112431994Y-121545537D01*
X112528685Y-121466185D01*
X112608037Y-121369494D01*
X112657059Y-121277781D01*
X112798077Y-121390969D01*
X113073906Y-121534571D01*
X113292020Y-121605563D01*
X113538000Y-121485594D01*
X113538000Y-120142000D01*
X113518000Y-120142000D01*
X113518000Y-119888000D01*
X113538000Y-119888000D01*
X113538000Y-118544406D01*
X113792000Y-118544406D01*
X113792000Y-119888000D01*
X113812000Y-119888000D01*
X113812000Y-120142000D01*
X113792000Y-120142000D01*
X113792000Y-121485594D01*
X114037980Y-121605563D01*
X114256094Y-121534571D01*
X114531923Y-121390969D01*
X114774437Y-121196315D01*
X114929837Y-121011101D01*
X115077037Y-121190463D01*
X115318766Y-121388845D01*
X115594552Y-121536255D01*
X115893797Y-121627030D01*
X116205000Y-121657681D01*
X116516204Y-121627030D01*
X116815449Y-121536255D01*
X117091235Y-121388845D01*
X117217770Y-121285000D01*
X119952627Y-121285000D01*
X120015000Y-121291143D01*
X120077373Y-121285000D01*
X120077380Y-121285000D01*
X120263963Y-121266623D01*
X120503359Y-121194003D01*
X120723988Y-121076075D01*
X120917370Y-120917370D01*
X120957141Y-120868909D01*
X125948921Y-115877131D01*
X125997370Y-115837370D01*
X126037132Y-115788920D01*
X126037135Y-115788917D01*
X126078171Y-115738914D01*
X126156075Y-115643988D01*
X126274003Y-115423359D01*
X126346623Y-115183963D01*
X126365000Y-114997380D01*
X126365000Y-114997373D01*
X126371143Y-114935000D01*
X126365000Y-114872627D01*
X126365000Y-104724485D01*
X126438314Y-104547490D01*
X126492000Y-104277592D01*
X126492000Y-104002408D01*
X168148000Y-104002408D01*
X168148000Y-104277592D01*
X168201686Y-104547490D01*
X168306995Y-104801727D01*
X168459880Y-105030535D01*
X168654465Y-105225120D01*
X168883273Y-105378005D01*
X169137510Y-105483314D01*
X169407408Y-105537000D01*
X169682592Y-105537000D01*
X169952490Y-105483314D01*
X170206727Y-105378005D01*
X170435535Y-105225120D01*
X170630120Y-105030535D01*
X170783005Y-104801727D01*
X170888314Y-104547490D01*
X170942000Y-104277592D01*
X170942000Y-104002408D01*
X170888314Y-103732510D01*
X170783005Y-103478273D01*
X170630120Y-103249465D01*
X170435535Y-103054880D01*
X170206727Y-102901995D01*
X169952490Y-102796686D01*
X169682592Y-102743000D01*
X169407408Y-102743000D01*
X169137510Y-102796686D01*
X168883273Y-102901995D01*
X168654465Y-103054880D01*
X168459880Y-103249465D01*
X168306995Y-103478273D01*
X168201686Y-103732510D01*
X168148000Y-104002408D01*
X126492000Y-104002408D01*
X126438314Y-103732510D01*
X126333005Y-103478273D01*
X126180120Y-103249465D01*
X125985535Y-103054880D01*
X125756727Y-102901995D01*
X125502490Y-102796686D01*
X125232592Y-102743000D01*
X124957408Y-102743000D01*
X124687510Y-102796686D01*
X124433273Y-102901995D01*
X124204465Y-103054880D01*
X124009880Y-103249465D01*
X123856995Y-103478273D01*
X123751686Y-103732510D01*
X123698000Y-104002408D01*
X123698000Y-104277592D01*
X123751686Y-104547490D01*
X123825001Y-104724487D01*
X123825000Y-114408948D01*
X119488950Y-118745000D01*
X117217769Y-118745000D01*
X117091234Y-118641155D01*
X116815448Y-118493745D01*
X116516203Y-118402970D01*
X116205000Y-118372319D01*
X115893796Y-118402970D01*
X115594551Y-118493745D01*
X115318765Y-118641155D01*
X115077037Y-118839537D01*
X114929838Y-119018900D01*
X114774437Y-118833685D01*
X114531923Y-118639031D01*
X114256094Y-118495429D01*
X114037980Y-118424437D01*
X113792000Y-118544406D01*
X113538000Y-118544406D01*
X113292020Y-118424437D01*
X113073906Y-118495429D01*
X112798077Y-118639031D01*
X112657059Y-118752219D01*
X112608037Y-118660506D01*
X112528685Y-118563815D01*
X112431994Y-118484463D01*
X112321680Y-118425498D01*
X112201982Y-118389188D01*
X112077500Y-118376928D01*
X111950500Y-118376928D01*
X111950500Y-116049007D01*
X111969095Y-116021178D01*
X112040896Y-115847834D01*
X112077500Y-115663813D01*
X112077500Y-115476187D01*
X112040896Y-115292166D01*
X111969095Y-115118822D01*
X111864855Y-114962816D01*
X111732184Y-114830145D01*
X111576178Y-114725905D01*
X111402834Y-114654104D01*
X111218813Y-114617500D01*
X111031187Y-114617500D01*
X110847166Y-114654104D01*
X110673822Y-114725905D01*
X110517816Y-114830145D01*
X110385145Y-114962816D01*
X110280905Y-115118822D01*
X110209104Y-115292166D01*
X110172500Y-115476187D01*
X110172500Y-115663813D01*
X110209104Y-115847834D01*
X110280905Y-116021178D01*
X110299500Y-116049008D01*
X110299501Y-118376928D01*
X110172500Y-118376928D01*
X110048018Y-118389188D01*
X109928320Y-118425498D01*
X109818006Y-118484463D01*
X109721315Y-118563815D01*
X109641963Y-118660506D01*
X109582998Y-118770820D01*
X109546688Y-118890518D01*
X109534428Y-119015000D01*
X72629819Y-119015000D01*
X72443657Y-118890611D01*
X71691135Y-118578906D01*
X70892262Y-118420000D01*
X70077738Y-118420000D01*
X69278865Y-118578906D01*
X68526343Y-118890611D01*
X67849091Y-119343136D01*
X67273136Y-119919091D01*
X66820611Y-120596343D01*
X66802000Y-120641274D01*
X66802000Y-110348665D01*
X75400000Y-110348665D01*
X75400000Y-110631335D01*
X75455147Y-110908574D01*
X75563320Y-111169727D01*
X75720363Y-111404759D01*
X75920241Y-111604637D01*
X76155273Y-111761680D01*
X76416426Y-111869853D01*
X76693665Y-111925000D01*
X76976335Y-111925000D01*
X77253574Y-111869853D01*
X77514727Y-111761680D01*
X77749759Y-111604637D01*
X77949637Y-111404759D01*
X78106680Y-111169727D01*
X78214853Y-110908574D01*
X78270000Y-110631335D01*
X78270000Y-110348665D01*
X85560000Y-110348665D01*
X85560000Y-110631335D01*
X85615147Y-110908574D01*
X85723320Y-111169727D01*
X85880363Y-111404759D01*
X86080241Y-111604637D01*
X86315273Y-111761680D01*
X86576426Y-111869853D01*
X86853665Y-111925000D01*
X87136335Y-111925000D01*
X87413574Y-111869853D01*
X87674727Y-111761680D01*
X87909759Y-111604637D01*
X88109637Y-111404759D01*
X88266680Y-111169727D01*
X88374853Y-110908574D01*
X88430000Y-110631335D01*
X88430000Y-110348665D01*
X88374853Y-110071426D01*
X88266680Y-109810273D01*
X88109637Y-109575241D01*
X87909759Y-109375363D01*
X87674727Y-109218320D01*
X87413574Y-109110147D01*
X87136335Y-109055000D01*
X86853665Y-109055000D01*
X86576426Y-109110147D01*
X86315273Y-109218320D01*
X86080241Y-109375363D01*
X85880363Y-109575241D01*
X85723320Y-109810273D01*
X85615147Y-110071426D01*
X85560000Y-110348665D01*
X78270000Y-110348665D01*
X78214853Y-110071426D01*
X78106680Y-109810273D01*
X77949637Y-109575241D01*
X77749759Y-109375363D01*
X77660500Y-109315722D01*
X77660500Y-104633665D01*
X91275000Y-104633665D01*
X91275000Y-104916335D01*
X91330147Y-105193574D01*
X91438320Y-105454727D01*
X91595363Y-105689759D01*
X91795241Y-105889637D01*
X92030273Y-106046680D01*
X92291426Y-106154853D01*
X92519501Y-106200220D01*
X92519500Y-108225665D01*
X92472421Y-108250829D01*
X92295788Y-108395788D01*
X92150829Y-108572421D01*
X92043115Y-108773940D01*
X91976785Y-108992600D01*
X91954388Y-109220000D01*
X91976785Y-109447400D01*
X92043115Y-109666060D01*
X92144105Y-109855000D01*
X92043115Y-110043940D01*
X91976785Y-110262600D01*
X91954388Y-110490000D01*
X91976785Y-110717400D01*
X92040093Y-110926098D01*
X92005498Y-110990820D01*
X91969188Y-111110518D01*
X91956928Y-111235000D01*
X91956928Y-112285000D01*
X91969188Y-112409482D01*
X92005498Y-112529180D01*
X92064463Y-112639494D01*
X92143815Y-112736185D01*
X92240506Y-112815537D01*
X92350820Y-112874502D01*
X92470518Y-112910812D01*
X92595000Y-112923072D01*
X94095000Y-112923072D01*
X94219482Y-112910812D01*
X94339180Y-112874502D01*
X94449494Y-112815537D01*
X94546185Y-112736185D01*
X94625537Y-112639494D01*
X94684502Y-112529180D01*
X94720812Y-112409482D01*
X94733072Y-112285000D01*
X100846928Y-112285000D01*
X100859188Y-112409482D01*
X100895498Y-112529180D01*
X100954463Y-112639494D01*
X101033815Y-112736185D01*
X101130506Y-112815537D01*
X101240820Y-112874502D01*
X101360518Y-112910812D01*
X101485000Y-112923072D01*
X101949250Y-112920000D01*
X102108000Y-112761250D01*
X102108000Y-111887000D01*
X102362000Y-111887000D01*
X102362000Y-112761250D01*
X102520750Y-112920000D01*
X102985000Y-112923072D01*
X103109482Y-112910812D01*
X103229180Y-112874502D01*
X103339494Y-112815537D01*
X103436185Y-112736185D01*
X103515537Y-112639494D01*
X103574502Y-112529180D01*
X103610812Y-112409482D01*
X103623072Y-112285000D01*
X103620000Y-112045750D01*
X103461250Y-111887000D01*
X102362000Y-111887000D01*
X102108000Y-111887000D01*
X101008750Y-111887000D01*
X100850000Y-112045750D01*
X100846928Y-112285000D01*
X94733072Y-112285000D01*
X94733072Y-111235000D01*
X94720812Y-111110518D01*
X94684502Y-110990820D01*
X94649907Y-110926098D01*
X94713215Y-110717400D01*
X94735612Y-110490000D01*
X94713215Y-110262600D01*
X94646885Y-110043940D01*
X94545895Y-109855000D01*
X94646885Y-109666060D01*
X94713215Y-109447400D01*
X94735612Y-109220000D01*
X94713215Y-108992600D01*
X94646885Y-108773940D01*
X94539171Y-108572421D01*
X94394212Y-108395788D01*
X94217579Y-108250829D01*
X94170500Y-108225665D01*
X94170500Y-107315000D01*
X99500506Y-107315000D01*
X99504500Y-107355551D01*
X99504501Y-109814440D01*
X99500506Y-109855000D01*
X99516445Y-110016826D01*
X99563647Y-110172433D01*
X99640301Y-110315842D01*
X99701863Y-110390854D01*
X99743460Y-110441541D01*
X99774961Y-110467393D01*
X100352610Y-111045044D01*
X100378459Y-111076541D01*
X100409955Y-111102389D01*
X100409958Y-111102392D01*
X100504157Y-111179699D01*
X100616972Y-111240000D01*
X100647566Y-111256353D01*
X100803174Y-111303556D01*
X100847865Y-111307958D01*
X100850000Y-111474250D01*
X101008750Y-111633000D01*
X101781891Y-111633000D01*
X101782600Y-111633215D01*
X101953021Y-111650000D01*
X102516979Y-111650000D01*
X102687400Y-111633215D01*
X102688109Y-111633000D01*
X103461250Y-111633000D01*
X103620000Y-111474250D01*
X103623072Y-111235000D01*
X103610812Y-111110518D01*
X103574502Y-110990820D01*
X103570678Y-110983665D01*
X113540000Y-110983665D01*
X113540000Y-111266335D01*
X113595147Y-111543574D01*
X113703320Y-111804727D01*
X113860363Y-112039759D01*
X114060241Y-112239637D01*
X114295273Y-112396680D01*
X114556426Y-112504853D01*
X114833665Y-112560000D01*
X115116335Y-112560000D01*
X115393574Y-112504853D01*
X115654727Y-112396680D01*
X115889759Y-112239637D01*
X116089637Y-112039759D01*
X116225000Y-111837173D01*
X116360363Y-112039759D01*
X116560241Y-112239637D01*
X116795273Y-112396680D01*
X117056426Y-112504853D01*
X117333665Y-112560000D01*
X117616335Y-112560000D01*
X117893574Y-112504853D01*
X118154727Y-112396680D01*
X118389759Y-112239637D01*
X118589637Y-112039759D01*
X118746680Y-111804727D01*
X118854853Y-111543574D01*
X118910000Y-111266335D01*
X118910000Y-110983665D01*
X118854853Y-110706426D01*
X118746680Y-110445273D01*
X118589637Y-110210241D01*
X118389759Y-110010363D01*
X118300500Y-109950722D01*
X118300500Y-105949278D01*
X118389759Y-105889637D01*
X118589637Y-105689759D01*
X118746680Y-105454727D01*
X118854853Y-105193574D01*
X118910000Y-104916335D01*
X118910000Y-104633665D01*
X118854853Y-104356426D01*
X118746680Y-104095273D01*
X118589637Y-103860241D01*
X118389759Y-103660363D01*
X118154727Y-103503320D01*
X117893574Y-103395147D01*
X117616335Y-103340000D01*
X117333665Y-103340000D01*
X117056426Y-103395147D01*
X116795273Y-103503320D01*
X116560241Y-103660363D01*
X116360363Y-103860241D01*
X116203320Y-104095273D01*
X116095147Y-104356426D01*
X116040000Y-104633665D01*
X116040000Y-104916335D01*
X116095147Y-105193574D01*
X116203320Y-105454727D01*
X116360363Y-105689759D01*
X116560241Y-105889637D01*
X116649500Y-105949278D01*
X116649501Y-109950722D01*
X116560241Y-110010363D01*
X116360363Y-110210241D01*
X116225000Y-110412827D01*
X116089637Y-110210241D01*
X115889759Y-110010363D01*
X115654727Y-109853320D01*
X115393574Y-109745147D01*
X115116335Y-109690000D01*
X114833665Y-109690000D01*
X114556426Y-109745147D01*
X114295273Y-109853320D01*
X114060241Y-110010363D01*
X113860363Y-110210241D01*
X113703320Y-110445273D01*
X113595147Y-110706426D01*
X113540000Y-110983665D01*
X103570678Y-110983665D01*
X103539907Y-110926098D01*
X103603215Y-110717400D01*
X103625612Y-110490000D01*
X103603215Y-110262600D01*
X103536885Y-110043940D01*
X103435895Y-109855000D01*
X103471613Y-109788176D01*
X103482398Y-109775034D01*
X107068376Y-106189056D01*
X107173665Y-106210000D01*
X107456335Y-106210000D01*
X107733574Y-106154853D01*
X107994727Y-106046680D01*
X108229759Y-105889637D01*
X108429637Y-105689759D01*
X108586680Y-105454727D01*
X108694853Y-105193574D01*
X108750000Y-104916335D01*
X108750000Y-104633665D01*
X108694853Y-104356426D01*
X108586680Y-104095273D01*
X108429637Y-103860241D01*
X108229759Y-103660363D01*
X107994727Y-103503320D01*
X107733574Y-103395147D01*
X107456335Y-103340000D01*
X107173665Y-103340000D01*
X106896426Y-103395147D01*
X106635273Y-103503320D01*
X106400241Y-103660363D01*
X106200363Y-103860241D01*
X106043320Y-104095273D01*
X105935147Y-104356426D01*
X105880000Y-104633665D01*
X105880000Y-104916335D01*
X105900944Y-105021624D01*
X102808920Y-108113648D01*
X102687400Y-108076785D01*
X102516979Y-108060000D01*
X101953021Y-108060000D01*
X101782600Y-108076785D01*
X101563940Y-108143115D01*
X101362421Y-108250829D01*
X101185788Y-108395788D01*
X101155500Y-108432694D01*
X101155500Y-107656932D01*
X102623376Y-106189056D01*
X102728665Y-106210000D01*
X103011335Y-106210000D01*
X103288574Y-106154853D01*
X103549727Y-106046680D01*
X103784759Y-105889637D01*
X103984637Y-105689759D01*
X104141680Y-105454727D01*
X104249853Y-105193574D01*
X104305000Y-104916335D01*
X104305000Y-104633665D01*
X104249853Y-104356426D01*
X104141680Y-104095273D01*
X103984637Y-103860241D01*
X103784759Y-103660363D01*
X103549727Y-103503320D01*
X103288574Y-103395147D01*
X103011335Y-103340000D01*
X102728665Y-103340000D01*
X102451426Y-103395147D01*
X102190273Y-103503320D01*
X101955241Y-103660363D01*
X101755363Y-103860241D01*
X101598320Y-104095273D01*
X101490147Y-104356426D01*
X101435000Y-104633665D01*
X101435000Y-104916335D01*
X101455944Y-105021624D01*
X99774966Y-106702602D01*
X99743459Y-106728459D01*
X99674214Y-106812835D01*
X99640301Y-106854158D01*
X99563648Y-106997566D01*
X99563647Y-106997567D01*
X99516444Y-107153175D01*
X99504500Y-107274447D01*
X99500506Y-107315000D01*
X94170500Y-107315000D01*
X94170500Y-105450550D01*
X94174494Y-105410000D01*
X94166619Y-105330041D01*
X94158556Y-105248174D01*
X94111353Y-105092566D01*
X94110327Y-105090646D01*
X94145000Y-104916335D01*
X94145000Y-104633665D01*
X94089853Y-104356426D01*
X93981680Y-104095273D01*
X93824637Y-103860241D01*
X93624759Y-103660363D01*
X93389727Y-103503320D01*
X93128574Y-103395147D01*
X92851335Y-103340000D01*
X92568665Y-103340000D01*
X92291426Y-103395147D01*
X92030273Y-103503320D01*
X91795241Y-103660363D01*
X91595363Y-103860241D01*
X91438320Y-104095273D01*
X91330147Y-104356426D01*
X91275000Y-104633665D01*
X77660500Y-104633665D01*
X77660500Y-102714007D01*
X77679095Y-102686178D01*
X77750896Y-102512834D01*
X77787500Y-102328813D01*
X77787500Y-102141187D01*
X77750896Y-101957166D01*
X77679095Y-101783822D01*
X77574855Y-101627816D01*
X77442184Y-101495145D01*
X77286178Y-101390905D01*
X77112834Y-101319104D01*
X76928813Y-101282500D01*
X76741187Y-101282500D01*
X76557166Y-101319104D01*
X76383822Y-101390905D01*
X76227816Y-101495145D01*
X76095145Y-101627816D01*
X75990905Y-101783822D01*
X75919104Y-101957166D01*
X75882500Y-102141187D01*
X75882500Y-102328813D01*
X75919104Y-102512834D01*
X75990905Y-102686178D01*
X76009500Y-102714007D01*
X76009501Y-109315722D01*
X75920241Y-109375363D01*
X75720363Y-109575241D01*
X75563320Y-109810273D01*
X75455147Y-110071426D01*
X75400000Y-110348665D01*
X66802000Y-110348665D01*
X66802000Y-96305000D01*
X68361928Y-96305000D01*
X68361928Y-98005000D01*
X68374188Y-98129482D01*
X68410498Y-98249180D01*
X68469463Y-98359494D01*
X68548815Y-98456185D01*
X68645506Y-98535537D01*
X68755820Y-98594502D01*
X68828380Y-98616513D01*
X68696525Y-98748368D01*
X68534010Y-98991589D01*
X68422068Y-99261842D01*
X68365000Y-99548740D01*
X68365000Y-99841260D01*
X68422068Y-100128158D01*
X68534010Y-100398411D01*
X68696525Y-100641632D01*
X68903368Y-100848475D01*
X69077760Y-100965000D01*
X68903368Y-101081525D01*
X68696525Y-101288368D01*
X68534010Y-101531589D01*
X68422068Y-101801842D01*
X68365000Y-102088740D01*
X68365000Y-102381260D01*
X68422068Y-102668158D01*
X68534010Y-102938411D01*
X68696525Y-103181632D01*
X68903368Y-103388475D01*
X69077760Y-103505000D01*
X68903368Y-103621525D01*
X68696525Y-103828368D01*
X68534010Y-104071589D01*
X68422068Y-104341842D01*
X68365000Y-104628740D01*
X68365000Y-104921260D01*
X68422068Y-105208158D01*
X68534010Y-105478411D01*
X68696525Y-105721632D01*
X68903368Y-105928475D01*
X69146589Y-106090990D01*
X69416842Y-106202932D01*
X69703740Y-106260000D01*
X69996260Y-106260000D01*
X70283158Y-106202932D01*
X70553411Y-106090990D01*
X70796632Y-105928475D01*
X71003475Y-105721632D01*
X71165990Y-105478411D01*
X71277932Y-105208158D01*
X71335000Y-104921260D01*
X71335000Y-104628740D01*
X71277932Y-104341842D01*
X71165990Y-104071589D01*
X71003475Y-103828368D01*
X70796632Y-103621525D01*
X70622240Y-103505000D01*
X70796632Y-103388475D01*
X71003475Y-103181632D01*
X71165990Y-102938411D01*
X71277932Y-102668158D01*
X71335000Y-102381260D01*
X71335000Y-102088740D01*
X71277932Y-101801842D01*
X71165990Y-101531589D01*
X71003475Y-101288368D01*
X70796632Y-101081525D01*
X70622240Y-100965000D01*
X70796632Y-100848475D01*
X71003475Y-100641632D01*
X71165990Y-100398411D01*
X71277932Y-100128158D01*
X71335000Y-99841260D01*
X71335000Y-99548740D01*
X71277932Y-99261842D01*
X71165990Y-98991589D01*
X71003475Y-98748368D01*
X70871620Y-98616513D01*
X70944180Y-98594502D01*
X71054494Y-98535537D01*
X71151185Y-98456185D01*
X71230537Y-98359494D01*
X71271069Y-98283665D01*
X75400000Y-98283665D01*
X75400000Y-98566335D01*
X75455147Y-98843574D01*
X75563320Y-99104727D01*
X75720363Y-99339759D01*
X75920241Y-99539637D01*
X76155273Y-99696680D01*
X76416426Y-99804853D01*
X76693665Y-99860000D01*
X76976335Y-99860000D01*
X77253574Y-99804853D01*
X77514727Y-99696680D01*
X77749759Y-99539637D01*
X77949637Y-99339759D01*
X78106680Y-99104727D01*
X78214853Y-98843574D01*
X78270000Y-98566335D01*
X78270000Y-98283665D01*
X85560000Y-98283665D01*
X85560000Y-98566335D01*
X85615147Y-98843574D01*
X85723320Y-99104727D01*
X85880363Y-99339759D01*
X86080241Y-99539637D01*
X86315273Y-99696680D01*
X86576426Y-99804853D01*
X86853665Y-99860000D01*
X87136335Y-99860000D01*
X87413574Y-99804853D01*
X87674727Y-99696680D01*
X87909759Y-99539637D01*
X88109637Y-99339759D01*
X88266680Y-99104727D01*
X88374853Y-98843574D01*
X88430000Y-98566335D01*
X88430000Y-98283665D01*
X88374853Y-98006426D01*
X88266680Y-97745273D01*
X88109637Y-97510241D01*
X87909759Y-97310363D01*
X87674727Y-97153320D01*
X87413574Y-97045147D01*
X87136335Y-96990000D01*
X86853665Y-96990000D01*
X86576426Y-97045147D01*
X86315273Y-97153320D01*
X86080241Y-97310363D01*
X85880363Y-97510241D01*
X85723320Y-97745273D01*
X85615147Y-98006426D01*
X85560000Y-98283665D01*
X78270000Y-98283665D01*
X78214853Y-98006426D01*
X78106680Y-97745273D01*
X77949637Y-97510241D01*
X77749759Y-97310363D01*
X77514727Y-97153320D01*
X77253574Y-97045147D01*
X76976335Y-96990000D01*
X76693665Y-96990000D01*
X76416426Y-97045147D01*
X76155273Y-97153320D01*
X75920241Y-97310363D01*
X75720363Y-97510241D01*
X75563320Y-97745273D01*
X75455147Y-98006426D01*
X75400000Y-98283665D01*
X71271069Y-98283665D01*
X71289502Y-98249180D01*
X71325812Y-98129482D01*
X71338072Y-98005000D01*
X71338072Y-96305000D01*
X71325812Y-96180518D01*
X71289502Y-96060820D01*
X71230537Y-95950506D01*
X71151185Y-95853815D01*
X71054494Y-95774463D01*
X70944180Y-95715498D01*
X70824482Y-95679188D01*
X70700000Y-95666928D01*
X69000000Y-95666928D01*
X68875518Y-95679188D01*
X68755820Y-95715498D01*
X68645506Y-95774463D01*
X68548815Y-95853815D01*
X68469463Y-95950506D01*
X68410498Y-96060820D01*
X68374188Y-96180518D01*
X68361928Y-96305000D01*
X66802000Y-96305000D01*
X66802000Y-92568665D01*
X91275000Y-92568665D01*
X91275000Y-92851335D01*
X91330147Y-93128574D01*
X91438320Y-93389727D01*
X91595363Y-93624759D01*
X91795241Y-93824637D01*
X92030273Y-93981680D01*
X92291426Y-94089853D01*
X92519501Y-94135220D01*
X92519500Y-96160665D01*
X92472421Y-96185829D01*
X92295788Y-96330788D01*
X92150829Y-96507421D01*
X92043115Y-96708940D01*
X91976785Y-96927600D01*
X91954388Y-97155000D01*
X91976785Y-97382400D01*
X92043115Y-97601060D01*
X92144105Y-97790000D01*
X92043115Y-97978940D01*
X91976785Y-98197600D01*
X91954388Y-98425000D01*
X91976785Y-98652400D01*
X92040093Y-98861098D01*
X92005498Y-98925820D01*
X91969188Y-99045518D01*
X91956928Y-99170000D01*
X91956928Y-100220000D01*
X91969188Y-100344482D01*
X92005498Y-100464180D01*
X92064463Y-100574494D01*
X92143815Y-100671185D01*
X92240506Y-100750537D01*
X92350820Y-100809502D01*
X92470518Y-100845812D01*
X92595000Y-100858072D01*
X94095000Y-100858072D01*
X94219482Y-100845812D01*
X94339180Y-100809502D01*
X94449494Y-100750537D01*
X94546185Y-100671185D01*
X94625537Y-100574494D01*
X94684502Y-100464180D01*
X94720812Y-100344482D01*
X94733072Y-100220000D01*
X100846928Y-100220000D01*
X100859188Y-100344482D01*
X100895498Y-100464180D01*
X100954463Y-100574494D01*
X101033815Y-100671185D01*
X101130506Y-100750537D01*
X101240820Y-100809502D01*
X101360518Y-100845812D01*
X101485000Y-100858072D01*
X101949250Y-100855000D01*
X102108000Y-100696250D01*
X102108000Y-99822000D01*
X102362000Y-99822000D01*
X102362000Y-100696250D01*
X102520750Y-100855000D01*
X102985000Y-100858072D01*
X103109482Y-100845812D01*
X103229180Y-100809502D01*
X103339494Y-100750537D01*
X103436185Y-100671185D01*
X103515537Y-100574494D01*
X103574502Y-100464180D01*
X103610812Y-100344482D01*
X103623072Y-100220000D01*
X103620000Y-99980750D01*
X103461250Y-99822000D01*
X102362000Y-99822000D01*
X102108000Y-99822000D01*
X101008750Y-99822000D01*
X100850000Y-99980750D01*
X100846928Y-100220000D01*
X94733072Y-100220000D01*
X94733072Y-99170000D01*
X94720812Y-99045518D01*
X94684502Y-98925820D01*
X94649907Y-98861098D01*
X94713215Y-98652400D01*
X94735612Y-98425000D01*
X94713215Y-98197600D01*
X94646885Y-97978940D01*
X94545895Y-97790000D01*
X94646885Y-97601060D01*
X94713215Y-97382400D01*
X94735612Y-97155000D01*
X94713215Y-96927600D01*
X94646885Y-96708940D01*
X94539171Y-96507421D01*
X94394212Y-96330788D01*
X94217579Y-96185829D01*
X94170500Y-96160665D01*
X94170500Y-95885000D01*
X98865506Y-95885000D01*
X98869501Y-95925560D01*
X98869500Y-97749449D01*
X98865506Y-97790000D01*
X98869500Y-97830550D01*
X98869500Y-97830552D01*
X98881444Y-97951825D01*
X98898007Y-98006426D01*
X98928647Y-98107433D01*
X99005301Y-98250842D01*
X99039214Y-98292165D01*
X99108459Y-98376541D01*
X99139965Y-98402397D01*
X99717610Y-98980044D01*
X99743459Y-99011541D01*
X99774955Y-99037389D01*
X99774958Y-99037392D01*
X99869157Y-99114699D01*
X100012566Y-99191353D01*
X100168174Y-99238556D01*
X100289447Y-99250500D01*
X100289449Y-99250500D01*
X100330000Y-99254494D01*
X100370550Y-99250500D01*
X100847962Y-99250500D01*
X100850000Y-99409250D01*
X101008750Y-99568000D01*
X101781891Y-99568000D01*
X101782600Y-99568215D01*
X101953021Y-99585000D01*
X102516979Y-99585000D01*
X102687400Y-99568215D01*
X102688109Y-99568000D01*
X103461250Y-99568000D01*
X103620000Y-99409250D01*
X103623072Y-99170000D01*
X103610812Y-99045518D01*
X103574502Y-98925820D01*
X103539907Y-98861098D01*
X103603215Y-98652400D01*
X103625612Y-98425000D01*
X103603215Y-98197600D01*
X103536885Y-97978940D01*
X103435895Y-97790000D01*
X103536885Y-97601060D01*
X103603215Y-97382400D01*
X103625612Y-97155000D01*
X103603215Y-96927600D01*
X103536885Y-96708940D01*
X103429171Y-96507421D01*
X103284212Y-96330788D01*
X103107579Y-96185829D01*
X102906060Y-96078115D01*
X102687400Y-96011785D01*
X102516979Y-95995000D01*
X101953021Y-95995000D01*
X101782600Y-96011785D01*
X101563940Y-96078115D01*
X101362421Y-96185829D01*
X101185788Y-96330788D01*
X101040829Y-96507421D01*
X100933115Y-96708940D01*
X100866785Y-96927600D01*
X100844388Y-97155000D01*
X100866785Y-97382400D01*
X100932642Y-97599500D01*
X100671933Y-97599500D01*
X100520500Y-97448067D01*
X100520500Y-96226932D01*
X101577391Y-95170042D01*
X101577395Y-95170037D01*
X102623377Y-94124057D01*
X102728665Y-94145000D01*
X103011335Y-94145000D01*
X103288574Y-94089853D01*
X103549727Y-93981680D01*
X103784759Y-93824637D01*
X103984637Y-93624759D01*
X104141680Y-93389727D01*
X104249853Y-93128574D01*
X104305000Y-92851335D01*
X104305000Y-92568665D01*
X105880000Y-92568665D01*
X105880000Y-92851335D01*
X105935147Y-93128574D01*
X106043320Y-93389727D01*
X106200363Y-93624759D01*
X106400241Y-93824637D01*
X106635273Y-93981680D01*
X106896426Y-94089853D01*
X107173665Y-94145000D01*
X107456335Y-94145000D01*
X107733574Y-94089853D01*
X107994727Y-93981680D01*
X108229759Y-93824637D01*
X108429637Y-93624759D01*
X108586680Y-93389727D01*
X108694853Y-93128574D01*
X108750000Y-92851335D01*
X108750000Y-92568665D01*
X108694853Y-92291426D01*
X108586680Y-92030273D01*
X108429637Y-91795241D01*
X108229759Y-91595363D01*
X107994727Y-91438320D01*
X107733574Y-91330147D01*
X107456335Y-91275000D01*
X107173665Y-91275000D01*
X106896426Y-91330147D01*
X106635273Y-91438320D01*
X106400241Y-91595363D01*
X106200363Y-91795241D01*
X106043320Y-92030273D01*
X105935147Y-92291426D01*
X105880000Y-92568665D01*
X104305000Y-92568665D01*
X104249853Y-92291426D01*
X104141680Y-92030273D01*
X103984637Y-91795241D01*
X103784759Y-91595363D01*
X103549727Y-91438320D01*
X103288574Y-91330147D01*
X103011335Y-91275000D01*
X102728665Y-91275000D01*
X102451426Y-91330147D01*
X102190273Y-91438320D01*
X101955241Y-91595363D01*
X101755363Y-91795241D01*
X101598320Y-92030273D01*
X101490147Y-92291426D01*
X101435000Y-92568665D01*
X101435000Y-92851335D01*
X101455943Y-92956623D01*
X100409963Y-94002605D01*
X100409958Y-94002609D01*
X99139961Y-95272607D01*
X99108460Y-95298459D01*
X99082609Y-95329959D01*
X99005301Y-95424158D01*
X98928647Y-95567567D01*
X98881445Y-95723174D01*
X98865506Y-95885000D01*
X94170500Y-95885000D01*
X94170500Y-93385550D01*
X94174494Y-93345000D01*
X94166456Y-93263386D01*
X94158556Y-93183174D01*
X94111353Y-93027566D01*
X94110327Y-93025646D01*
X94145000Y-92851335D01*
X94145000Y-92568665D01*
X94089853Y-92291426D01*
X93981680Y-92030273D01*
X93824637Y-91795241D01*
X93624759Y-91595363D01*
X93389727Y-91438320D01*
X93128574Y-91330147D01*
X92851335Y-91275000D01*
X92568665Y-91275000D01*
X92291426Y-91330147D01*
X92030273Y-91438320D01*
X91795241Y-91595363D01*
X91595363Y-91795241D01*
X91438320Y-92030273D01*
X91330147Y-92291426D01*
X91275000Y-92568665D01*
X66802000Y-92568665D01*
X66802000Y-88123665D01*
X91275000Y-88123665D01*
X91275000Y-88406335D01*
X91330147Y-88683574D01*
X91438320Y-88944727D01*
X91595363Y-89179759D01*
X91795241Y-89379637D01*
X92030273Y-89536680D01*
X92291426Y-89644853D01*
X92568665Y-89700000D01*
X92851335Y-89700000D01*
X93128574Y-89644853D01*
X93389727Y-89536680D01*
X93624759Y-89379637D01*
X93824637Y-89179759D01*
X93981680Y-88944727D01*
X94089853Y-88683574D01*
X94145000Y-88406335D01*
X94145000Y-88123665D01*
X94089853Y-87846426D01*
X93981680Y-87585273D01*
X93824637Y-87350241D01*
X93624759Y-87150363D01*
X93389727Y-86993320D01*
X93128574Y-86885147D01*
X92851335Y-86830000D01*
X92568665Y-86830000D01*
X92291426Y-86885147D01*
X92030273Y-86993320D01*
X91795241Y-87150363D01*
X91595363Y-87350241D01*
X91438320Y-87585273D01*
X91330147Y-87846426D01*
X91275000Y-88123665D01*
X66802000Y-88123665D01*
X66802000Y-82558726D01*
X66820611Y-82603657D01*
X67273136Y-83280909D01*
X67849091Y-83856864D01*
X68526343Y-84309389D01*
X69278865Y-84621094D01*
X70077738Y-84780000D01*
X70892262Y-84780000D01*
X71691135Y-84621094D01*
X72443657Y-84309389D01*
X73120909Y-83856864D01*
X73696864Y-83280909D01*
X74149389Y-82603657D01*
X74461094Y-81851135D01*
X74620000Y-81052262D01*
X74620000Y-80237738D01*
X74461094Y-79438865D01*
X74149389Y-78686343D01*
X73831108Y-78210000D01*
X77156928Y-78210000D01*
X77156928Y-81810000D01*
X77173992Y-81983254D01*
X77224528Y-82149850D01*
X77306595Y-82303386D01*
X77417038Y-82437962D01*
X77551614Y-82548405D01*
X77705150Y-82630472D01*
X77871746Y-82681008D01*
X78045000Y-82698072D01*
X80705000Y-82698072D01*
X80878254Y-82681008D01*
X81044850Y-82630472D01*
X81198386Y-82548405D01*
X81332962Y-82437962D01*
X81443405Y-82303386D01*
X81525472Y-82149850D01*
X81576008Y-81983254D01*
X81589644Y-81844801D01*
X81761181Y-82053820D01*
X82098459Y-82330616D01*
X82483256Y-82536294D01*
X82900785Y-82662950D01*
X83335000Y-82705717D01*
X83769216Y-82662950D01*
X84186745Y-82536294D01*
X84571542Y-82330616D01*
X84908820Y-82053820D01*
X85185616Y-81716542D01*
X85391294Y-81331744D01*
X85517950Y-80914215D01*
X85550000Y-80588809D01*
X85550000Y-79431190D01*
X85517950Y-79105784D01*
X85391294Y-78688255D01*
X85185616Y-78303458D01*
X85108918Y-78210000D01*
X88586928Y-78210000D01*
X88586928Y-81810000D01*
X88603992Y-81983254D01*
X88654528Y-82149850D01*
X88736595Y-82303386D01*
X88847038Y-82437962D01*
X88981614Y-82548405D01*
X89135150Y-82630472D01*
X89301746Y-82681008D01*
X89475000Y-82698072D01*
X92135000Y-82698072D01*
X92308254Y-82681008D01*
X92474850Y-82630472D01*
X92628386Y-82548405D01*
X92762962Y-82437962D01*
X92873405Y-82303386D01*
X92955472Y-82149850D01*
X93006008Y-81983254D01*
X93019700Y-81844238D01*
X93288562Y-82136044D01*
X93640009Y-82392262D01*
X94034689Y-82574993D01*
X94293631Y-82644263D01*
X94638000Y-82532324D01*
X94638000Y-80137000D01*
X94892000Y-80137000D01*
X94892000Y-82532324D01*
X95236369Y-82644263D01*
X95495311Y-82574993D01*
X95889991Y-82392262D01*
X96241438Y-82136044D01*
X96536147Y-81816185D01*
X96762792Y-81444977D01*
X96912663Y-81036685D01*
X96980000Y-80607000D01*
X96980000Y-80380000D01*
X98156928Y-80380000D01*
X98156928Y-82180000D01*
X98169188Y-82304482D01*
X98205498Y-82424180D01*
X98264463Y-82534494D01*
X98343815Y-82631185D01*
X98440506Y-82710537D01*
X98550820Y-82769502D01*
X98670518Y-82805812D01*
X98795000Y-82818072D01*
X98869500Y-82818072D01*
X98869500Y-83779449D01*
X98865506Y-83820000D01*
X98869500Y-83860550D01*
X98869500Y-83860552D01*
X98881444Y-83981825D01*
X98908572Y-84071255D01*
X98928647Y-84137433D01*
X99005301Y-84280842D01*
X99028729Y-84309389D01*
X99108459Y-84406541D01*
X99139966Y-84432398D01*
X101906586Y-87199018D01*
X101755363Y-87350241D01*
X101598320Y-87585273D01*
X101490147Y-87846426D01*
X101435000Y-88123665D01*
X101435000Y-88406335D01*
X101490147Y-88683574D01*
X101598320Y-88944727D01*
X101755363Y-89179759D01*
X101955241Y-89379637D01*
X102190273Y-89536680D01*
X102451426Y-89644853D01*
X102728665Y-89700000D01*
X103011335Y-89700000D01*
X103288574Y-89644853D01*
X103549727Y-89536680D01*
X103784759Y-89379637D01*
X103984637Y-89179759D01*
X104141680Y-88944727D01*
X104249853Y-88683574D01*
X104305000Y-88406335D01*
X104305000Y-88123665D01*
X104249853Y-87846426D01*
X104141680Y-87585273D01*
X103984637Y-87350241D01*
X103784759Y-87150363D01*
X103695500Y-87090722D01*
X103695500Y-87035550D01*
X103699494Y-86994999D01*
X103695500Y-86954447D01*
X103683556Y-86833174D01*
X103636353Y-86677566D01*
X103562050Y-86538556D01*
X103559699Y-86534157D01*
X103482391Y-86439958D01*
X103456541Y-86408459D01*
X103425039Y-86382606D01*
X100520500Y-83478068D01*
X100520500Y-82818072D01*
X100595000Y-82818072D01*
X100719482Y-82805812D01*
X100839180Y-82769502D01*
X100949494Y-82710537D01*
X101046185Y-82631185D01*
X101125537Y-82534494D01*
X101184502Y-82424180D01*
X101190056Y-82405873D01*
X101256495Y-82472312D01*
X101507905Y-82640299D01*
X101787257Y-82756011D01*
X102083816Y-82815000D01*
X102386184Y-82815000D01*
X102682743Y-82756011D01*
X102962095Y-82640299D01*
X103213505Y-82472312D01*
X103427312Y-82258505D01*
X103595299Y-82007095D01*
X103711011Y-81727743D01*
X103770000Y-81431184D01*
X103770000Y-81128816D01*
X103711011Y-80832257D01*
X103595299Y-80552905D01*
X103479768Y-80380000D01*
X104506928Y-80380000D01*
X104506928Y-82180000D01*
X104519188Y-82304482D01*
X104555498Y-82424180D01*
X104614463Y-82534494D01*
X104693815Y-82631185D01*
X104790506Y-82710537D01*
X104900820Y-82769502D01*
X105020518Y-82805812D01*
X105145000Y-82818072D01*
X105219501Y-82818072D01*
X105219500Y-85684449D01*
X105215506Y-85725000D01*
X105219500Y-85765550D01*
X105219500Y-85765552D01*
X105231444Y-85886825D01*
X105278647Y-86042433D01*
X105355301Y-86185842D01*
X105389214Y-86227165D01*
X105458459Y-86311541D01*
X105489966Y-86337398D01*
X106351586Y-87199018D01*
X106200363Y-87350241D01*
X106043320Y-87585273D01*
X105935147Y-87846426D01*
X105880000Y-88123665D01*
X105880000Y-88406335D01*
X105935147Y-88683574D01*
X106043320Y-88944727D01*
X106200363Y-89179759D01*
X106400241Y-89379637D01*
X106635273Y-89536680D01*
X106896426Y-89644853D01*
X107173665Y-89700000D01*
X107456335Y-89700000D01*
X107733574Y-89644853D01*
X107994727Y-89536680D01*
X108229759Y-89379637D01*
X108429637Y-89179759D01*
X108586680Y-88944727D01*
X108694853Y-88683574D01*
X108750000Y-88406335D01*
X108750000Y-88123665D01*
X108694853Y-87846426D01*
X108586680Y-87585273D01*
X108429637Y-87350241D01*
X108229759Y-87150363D01*
X108140500Y-87090722D01*
X108140500Y-87035550D01*
X108144494Y-86994999D01*
X108140500Y-86954447D01*
X108128556Y-86833174D01*
X108081353Y-86677566D01*
X108007050Y-86538556D01*
X108004699Y-86534157D01*
X107927391Y-86439958D01*
X107901541Y-86408459D01*
X107870039Y-86382606D01*
X106870500Y-85383068D01*
X106870500Y-82818072D01*
X106945000Y-82818072D01*
X107069482Y-82805812D01*
X107189180Y-82769502D01*
X107299494Y-82710537D01*
X107396185Y-82631185D01*
X107475537Y-82534494D01*
X107534502Y-82424180D01*
X107540056Y-82405873D01*
X107606495Y-82472312D01*
X107857905Y-82640299D01*
X108137257Y-82756011D01*
X108433816Y-82815000D01*
X108736184Y-82815000D01*
X109032743Y-82756011D01*
X109312095Y-82640299D01*
X109563505Y-82472312D01*
X109777312Y-82258505D01*
X109945299Y-82007095D01*
X110061011Y-81727743D01*
X110096366Y-81550000D01*
X112709428Y-81550000D01*
X112709428Y-83550000D01*
X112721688Y-83674482D01*
X112757998Y-83794180D01*
X112816963Y-83904494D01*
X112896315Y-84001185D01*
X112993006Y-84080537D01*
X113103320Y-84139502D01*
X113223018Y-84175812D01*
X113347500Y-84188072D01*
X113474501Y-84188072D01*
X113474500Y-89494449D01*
X113470506Y-89535000D01*
X113474500Y-89575550D01*
X113474500Y-89575552D01*
X113486444Y-89696825D01*
X113508687Y-89770150D01*
X113533647Y-89852433D01*
X113610301Y-89995842D01*
X113644214Y-90037165D01*
X113713459Y-90121541D01*
X113744966Y-90147398D01*
X116060944Y-92463376D01*
X116040000Y-92568665D01*
X116040000Y-92851335D01*
X116095147Y-93128574D01*
X116203320Y-93389727D01*
X116360363Y-93624759D01*
X116560241Y-93824637D01*
X116649500Y-93884278D01*
X116649501Y-97250722D01*
X116560241Y-97310363D01*
X116360363Y-97510241D01*
X116225000Y-97712827D01*
X116089637Y-97510241D01*
X115889759Y-97310363D01*
X115654727Y-97153320D01*
X115393574Y-97045147D01*
X115116335Y-96990000D01*
X114833665Y-96990000D01*
X114556426Y-97045147D01*
X114295273Y-97153320D01*
X114060241Y-97310363D01*
X113860363Y-97510241D01*
X113703320Y-97745273D01*
X113595147Y-98006426D01*
X113540000Y-98283665D01*
X113540000Y-98566335D01*
X113595147Y-98843574D01*
X113703320Y-99104727D01*
X113860363Y-99339759D01*
X114060241Y-99539637D01*
X114295273Y-99696680D01*
X114556426Y-99804853D01*
X114833665Y-99860000D01*
X115116335Y-99860000D01*
X115393574Y-99804853D01*
X115654727Y-99696680D01*
X115889759Y-99539637D01*
X116089637Y-99339759D01*
X116225000Y-99137173D01*
X116360363Y-99339759D01*
X116560241Y-99539637D01*
X116795273Y-99696680D01*
X117056426Y-99804853D01*
X117333665Y-99860000D01*
X117616335Y-99860000D01*
X117893574Y-99804853D01*
X118154727Y-99696680D01*
X118389759Y-99539637D01*
X118589637Y-99339759D01*
X118746680Y-99104727D01*
X118854853Y-98843574D01*
X118910000Y-98566335D01*
X118910000Y-98283665D01*
X118854853Y-98006426D01*
X118746680Y-97745273D01*
X118589637Y-97510241D01*
X118389759Y-97310363D01*
X118300500Y-97250722D01*
X118300500Y-97017408D01*
X127508000Y-97017408D01*
X127508000Y-97292592D01*
X127561686Y-97562490D01*
X127666995Y-97816727D01*
X127819880Y-98045535D01*
X128014465Y-98240120D01*
X128243273Y-98393005D01*
X128497510Y-98498314D01*
X128767408Y-98552000D01*
X129042592Y-98552000D01*
X129312490Y-98498314D01*
X129566727Y-98393005D01*
X129795535Y-98240120D01*
X129990120Y-98045535D01*
X130143005Y-97816727D01*
X130248314Y-97562490D01*
X130302000Y-97292592D01*
X130302000Y-97017408D01*
X167386000Y-97017408D01*
X167386000Y-97292592D01*
X167439686Y-97562490D01*
X167544995Y-97816727D01*
X167697880Y-98045535D01*
X167892465Y-98240120D01*
X168121273Y-98393005D01*
X168375510Y-98498314D01*
X168645408Y-98552000D01*
X168920592Y-98552000D01*
X169190490Y-98498314D01*
X169444727Y-98393005D01*
X169673535Y-98240120D01*
X169868120Y-98045535D01*
X170021005Y-97816727D01*
X170126314Y-97562490D01*
X170180000Y-97292592D01*
X170180000Y-97017408D01*
X170126314Y-96747510D01*
X170021005Y-96493273D01*
X169868120Y-96264465D01*
X169673535Y-96069880D01*
X169444727Y-95916995D01*
X169190490Y-95811686D01*
X168920592Y-95758000D01*
X168645408Y-95758000D01*
X168375510Y-95811686D01*
X168121273Y-95916995D01*
X167892465Y-96069880D01*
X167697880Y-96264465D01*
X167544995Y-96493273D01*
X167439686Y-96747510D01*
X167386000Y-97017408D01*
X130302000Y-97017408D01*
X130248314Y-96747510D01*
X130143005Y-96493273D01*
X129990120Y-96264465D01*
X129795535Y-96069880D01*
X129566727Y-95916995D01*
X129312490Y-95811686D01*
X129042592Y-95758000D01*
X128767408Y-95758000D01*
X128497510Y-95811686D01*
X128243273Y-95916995D01*
X128014465Y-96069880D01*
X127819880Y-96264465D01*
X127666995Y-96493273D01*
X127561686Y-96747510D01*
X127508000Y-97017408D01*
X118300500Y-97017408D01*
X118300500Y-95400000D01*
X183994283Y-95400000D01*
X184037050Y-95834216D01*
X184163706Y-96251745D01*
X184369384Y-96636542D01*
X184646180Y-96973820D01*
X184983458Y-97250616D01*
X185225519Y-97380000D01*
X184983458Y-97509384D01*
X184646180Y-97786180D01*
X184369384Y-98123458D01*
X184163706Y-98508255D01*
X184037050Y-98925784D01*
X183994283Y-99360000D01*
X184037050Y-99794216D01*
X184163706Y-100211745D01*
X184369384Y-100596542D01*
X184646180Y-100933820D01*
X184983458Y-101210616D01*
X185225519Y-101340000D01*
X184983458Y-101469384D01*
X184646180Y-101746180D01*
X184369384Y-102083458D01*
X184163706Y-102468255D01*
X184037050Y-102885784D01*
X183994283Y-103320000D01*
X184037050Y-103754216D01*
X184163706Y-104171745D01*
X184369384Y-104556542D01*
X184646180Y-104893820D01*
X184983458Y-105170616D01*
X185225519Y-105300000D01*
X184983458Y-105429384D01*
X184646180Y-105706180D01*
X184369384Y-106043458D01*
X184163706Y-106428255D01*
X184037050Y-106845784D01*
X183994283Y-107280000D01*
X184037050Y-107714216D01*
X184163706Y-108131745D01*
X184369384Y-108516542D01*
X184646180Y-108853820D01*
X184983458Y-109130616D01*
X185225519Y-109260000D01*
X184983458Y-109389384D01*
X184646180Y-109666180D01*
X184369384Y-110003458D01*
X184163706Y-110388255D01*
X184037050Y-110805784D01*
X183994283Y-111240000D01*
X184037050Y-111674216D01*
X184163706Y-112091745D01*
X184369384Y-112476542D01*
X184646180Y-112813820D01*
X184983458Y-113090616D01*
X185368255Y-113296294D01*
X185785784Y-113422950D01*
X186111190Y-113455000D01*
X187268810Y-113455000D01*
X187594216Y-113422950D01*
X188011745Y-113296294D01*
X188396542Y-113090616D01*
X188733820Y-112813820D01*
X189010616Y-112476542D01*
X189216294Y-112091745D01*
X189342950Y-111674216D01*
X189385717Y-111240000D01*
X189342950Y-110805784D01*
X189216294Y-110388255D01*
X189010616Y-110003458D01*
X188733820Y-109666180D01*
X188396542Y-109389384D01*
X188154481Y-109260000D01*
X188396542Y-109130616D01*
X188733820Y-108853820D01*
X189010616Y-108516542D01*
X189216294Y-108131745D01*
X189342950Y-107714216D01*
X189385717Y-107280000D01*
X189342950Y-106845784D01*
X189216294Y-106428255D01*
X189010616Y-106043458D01*
X188733820Y-105706180D01*
X188396542Y-105429384D01*
X188154481Y-105300000D01*
X188396542Y-105170616D01*
X188733820Y-104893820D01*
X189010616Y-104556542D01*
X189216294Y-104171745D01*
X189342950Y-103754216D01*
X189385717Y-103320000D01*
X189342950Y-102885784D01*
X189216294Y-102468255D01*
X189010616Y-102083458D01*
X188733820Y-101746180D01*
X188396542Y-101469384D01*
X188154481Y-101340000D01*
X188396542Y-101210616D01*
X188733820Y-100933820D01*
X189010616Y-100596542D01*
X189216294Y-100211745D01*
X189342950Y-99794216D01*
X189385717Y-99360000D01*
X189342950Y-98925784D01*
X189216294Y-98508255D01*
X189010616Y-98123458D01*
X188733820Y-97786180D01*
X188396542Y-97509384D01*
X188154481Y-97380000D01*
X188396542Y-97250616D01*
X188733820Y-96973820D01*
X189010616Y-96636542D01*
X189216294Y-96251745D01*
X189342950Y-95834216D01*
X189385717Y-95400000D01*
X189342950Y-94965784D01*
X189216294Y-94548255D01*
X189010616Y-94163458D01*
X188733820Y-93826180D01*
X188524802Y-93654644D01*
X188663254Y-93641008D01*
X188829850Y-93590472D01*
X188983386Y-93508405D01*
X189117962Y-93397962D01*
X189228405Y-93263386D01*
X189310472Y-93109850D01*
X189361008Y-92943254D01*
X189378072Y-92770000D01*
X189378072Y-90110000D01*
X189361008Y-89936746D01*
X189310472Y-89770150D01*
X189228405Y-89616614D01*
X189117962Y-89482038D01*
X188983386Y-89371595D01*
X188829850Y-89289528D01*
X188663254Y-89238992D01*
X188490000Y-89221928D01*
X184890000Y-89221928D01*
X184716746Y-89238992D01*
X184550150Y-89289528D01*
X184396614Y-89371595D01*
X184262038Y-89482038D01*
X184151595Y-89616614D01*
X184069528Y-89770150D01*
X184018992Y-89936746D01*
X184001928Y-90110000D01*
X184001928Y-92770000D01*
X184018992Y-92943254D01*
X184069528Y-93109850D01*
X184151595Y-93263386D01*
X184262038Y-93397962D01*
X184396614Y-93508405D01*
X184550150Y-93590472D01*
X184716746Y-93641008D01*
X184855198Y-93654644D01*
X184646180Y-93826180D01*
X184369384Y-94163458D01*
X184163706Y-94548255D01*
X184037050Y-94965784D01*
X183994283Y-95400000D01*
X118300500Y-95400000D01*
X118300500Y-93884278D01*
X118389759Y-93824637D01*
X118589637Y-93624759D01*
X118746680Y-93389727D01*
X118854853Y-93128574D01*
X118910000Y-92851335D01*
X118910000Y-92568665D01*
X118854853Y-92291426D01*
X118746680Y-92030273D01*
X118589637Y-91795241D01*
X118389759Y-91595363D01*
X118154727Y-91438320D01*
X117893574Y-91330147D01*
X117616335Y-91275000D01*
X117333665Y-91275000D01*
X117228376Y-91295944D01*
X115125500Y-89193068D01*
X115125500Y-88123665D01*
X116040000Y-88123665D01*
X116040000Y-88406335D01*
X116095147Y-88683574D01*
X116203320Y-88944727D01*
X116360363Y-89179759D01*
X116560241Y-89379637D01*
X116795273Y-89536680D01*
X117056426Y-89644853D01*
X117333665Y-89700000D01*
X117616335Y-89700000D01*
X117893574Y-89644853D01*
X118154727Y-89536680D01*
X118389759Y-89379637D01*
X118589637Y-89179759D01*
X118746680Y-88944727D01*
X118854853Y-88683574D01*
X118910000Y-88406335D01*
X118910000Y-88123665D01*
X118854853Y-87846426D01*
X118746680Y-87585273D01*
X118589637Y-87350241D01*
X118389759Y-87150363D01*
X118154727Y-86993320D01*
X117893574Y-86885147D01*
X117616335Y-86830000D01*
X117333665Y-86830000D01*
X117056426Y-86885147D01*
X116795273Y-86993320D01*
X116560241Y-87150363D01*
X116360363Y-87350241D01*
X116203320Y-87585273D01*
X116095147Y-87846426D01*
X116040000Y-88123665D01*
X115125500Y-88123665D01*
X115125500Y-84188072D01*
X115252500Y-84188072D01*
X115376982Y-84175812D01*
X115496680Y-84139502D01*
X115606994Y-84080537D01*
X115703685Y-84001185D01*
X115783037Y-83904494D01*
X115832059Y-83812781D01*
X115973077Y-83925969D01*
X116248906Y-84069571D01*
X116467020Y-84140563D01*
X116713000Y-84020594D01*
X116713000Y-82677000D01*
X116693000Y-82677000D01*
X116693000Y-82423000D01*
X116713000Y-82423000D01*
X116713000Y-81079406D01*
X116967000Y-81079406D01*
X116967000Y-82423000D01*
X116987000Y-82423000D01*
X116987000Y-82677000D01*
X116967000Y-82677000D01*
X116967000Y-84020594D01*
X117212980Y-84140563D01*
X117431094Y-84069571D01*
X117706923Y-83925969D01*
X117949437Y-83731315D01*
X118104837Y-83546101D01*
X118252037Y-83725463D01*
X118493766Y-83923845D01*
X118769552Y-84071255D01*
X119068797Y-84162030D01*
X119380000Y-84192681D01*
X119691204Y-84162030D01*
X119990449Y-84071255D01*
X120266235Y-83923845D01*
X120507963Y-83725463D01*
X120706345Y-83483734D01*
X120853755Y-83207948D01*
X120944530Y-82908703D01*
X120967500Y-82675485D01*
X120967500Y-82424514D01*
X120944530Y-82191296D01*
X120853755Y-81892051D01*
X120706345Y-81616265D01*
X120507963Y-81374537D01*
X120266234Y-81176155D01*
X119990448Y-81028745D01*
X119691203Y-80937970D01*
X119380000Y-80907319D01*
X119068796Y-80937970D01*
X118769551Y-81028745D01*
X118493765Y-81176155D01*
X118252037Y-81374537D01*
X118104838Y-81553900D01*
X117949437Y-81368685D01*
X117706923Y-81174031D01*
X117431094Y-81030429D01*
X117212980Y-80959437D01*
X116967000Y-81079406D01*
X116713000Y-81079406D01*
X116467020Y-80959437D01*
X116248906Y-81030429D01*
X115973077Y-81174031D01*
X115832059Y-81287219D01*
X115783037Y-81195506D01*
X115703685Y-81098815D01*
X115606994Y-81019463D01*
X115496680Y-80960498D01*
X115376982Y-80924188D01*
X115252500Y-80911928D01*
X113347500Y-80911928D01*
X113223018Y-80924188D01*
X113103320Y-80960498D01*
X112993006Y-81019463D01*
X112896315Y-81098815D01*
X112816963Y-81195506D01*
X112757998Y-81305820D01*
X112721688Y-81425518D01*
X112709428Y-81550000D01*
X110096366Y-81550000D01*
X110120000Y-81431184D01*
X110120000Y-81128816D01*
X110061011Y-80832257D01*
X109945299Y-80552905D01*
X109777312Y-80301495D01*
X109563505Y-80087688D01*
X109312095Y-79919701D01*
X109032743Y-79803989D01*
X108736184Y-79745000D01*
X108433816Y-79745000D01*
X108137257Y-79803989D01*
X107857905Y-79919701D01*
X107606495Y-80087688D01*
X107540056Y-80154127D01*
X107534502Y-80135820D01*
X107475537Y-80025506D01*
X107396185Y-79928815D01*
X107299494Y-79849463D01*
X107189180Y-79790498D01*
X107069482Y-79754188D01*
X106945000Y-79741928D01*
X105145000Y-79741928D01*
X105020518Y-79754188D01*
X104900820Y-79790498D01*
X104790506Y-79849463D01*
X104693815Y-79928815D01*
X104614463Y-80025506D01*
X104555498Y-80135820D01*
X104519188Y-80255518D01*
X104506928Y-80380000D01*
X103479768Y-80380000D01*
X103427312Y-80301495D01*
X103213505Y-80087688D01*
X102962095Y-79919701D01*
X102682743Y-79803989D01*
X102386184Y-79745000D01*
X102083816Y-79745000D01*
X101787257Y-79803989D01*
X101507905Y-79919701D01*
X101256495Y-80087688D01*
X101190056Y-80154127D01*
X101184502Y-80135820D01*
X101125537Y-80025506D01*
X101046185Y-79928815D01*
X100949494Y-79849463D01*
X100839180Y-79790498D01*
X100719482Y-79754188D01*
X100595000Y-79741928D01*
X98795000Y-79741928D01*
X98670518Y-79754188D01*
X98550820Y-79790498D01*
X98440506Y-79849463D01*
X98343815Y-79928815D01*
X98264463Y-80025506D01*
X98205498Y-80135820D01*
X98169188Y-80255518D01*
X98156928Y-80380000D01*
X96980000Y-80380000D01*
X96980000Y-80137000D01*
X94892000Y-80137000D01*
X94638000Y-80137000D01*
X94618000Y-80137000D01*
X94618000Y-79883000D01*
X94638000Y-79883000D01*
X94638000Y-77487676D01*
X94892000Y-77487676D01*
X94892000Y-79883000D01*
X96980000Y-79883000D01*
X96980000Y-79413000D01*
X96912663Y-78983315D01*
X96788915Y-78646187D01*
X123507500Y-78646187D01*
X123507500Y-78833813D01*
X123544104Y-79017834D01*
X123615905Y-79191178D01*
X123634500Y-79219007D01*
X123634501Y-92865991D01*
X123615905Y-92893822D01*
X123544104Y-93067166D01*
X123507500Y-93251187D01*
X123507500Y-93438813D01*
X123544104Y-93622834D01*
X123615905Y-93796178D01*
X123720145Y-93952184D01*
X123852816Y-94084855D01*
X124008822Y-94189095D01*
X124182166Y-94260896D01*
X124366187Y-94297500D01*
X124553813Y-94297500D01*
X124737834Y-94260896D01*
X124911178Y-94189095D01*
X125067184Y-94084855D01*
X125199855Y-93952184D01*
X125304095Y-93796178D01*
X125375896Y-93622834D01*
X125412500Y-93438813D01*
X125412500Y-93251187D01*
X125375896Y-93067166D01*
X125304095Y-92893822D01*
X125285500Y-92865993D01*
X125285500Y-79237408D01*
X127508000Y-79237408D01*
X127508000Y-79512592D01*
X127561686Y-79782490D01*
X127666995Y-80036727D01*
X127819880Y-80265535D01*
X128014465Y-80460120D01*
X128243273Y-80613005D01*
X128497510Y-80718314D01*
X128767408Y-80772000D01*
X129042592Y-80772000D01*
X129312490Y-80718314D01*
X129566727Y-80613005D01*
X129795535Y-80460120D01*
X129990120Y-80265535D01*
X130143005Y-80036727D01*
X130248314Y-79782490D01*
X130302000Y-79512592D01*
X130302000Y-79237408D01*
X167386000Y-79237408D01*
X167386000Y-79512592D01*
X167439686Y-79782490D01*
X167544995Y-80036727D01*
X167697880Y-80265535D01*
X167892465Y-80460120D01*
X168121273Y-80613005D01*
X168375510Y-80718314D01*
X168645408Y-80772000D01*
X168920592Y-80772000D01*
X169190490Y-80718314D01*
X169444727Y-80613005D01*
X169673535Y-80460120D01*
X169868120Y-80265535D01*
X170021005Y-80036727D01*
X170126314Y-79782490D01*
X170180000Y-79512592D01*
X170180000Y-79237408D01*
X170126314Y-78967510D01*
X170021005Y-78713273D01*
X169868120Y-78484465D01*
X169673535Y-78289880D01*
X169444727Y-78136995D01*
X169190490Y-78031686D01*
X168920592Y-77978000D01*
X168645408Y-77978000D01*
X168375510Y-78031686D01*
X168121273Y-78136995D01*
X167892465Y-78289880D01*
X167697880Y-78484465D01*
X167544995Y-78713273D01*
X167439686Y-78967510D01*
X167386000Y-79237408D01*
X130302000Y-79237408D01*
X130248314Y-78967510D01*
X130143005Y-78713273D01*
X129990120Y-78484465D01*
X129795535Y-78289880D01*
X129566727Y-78136995D01*
X129312490Y-78031686D01*
X129042592Y-77978000D01*
X128767408Y-77978000D01*
X128497510Y-78031686D01*
X128243273Y-78136995D01*
X128014465Y-78289880D01*
X127819880Y-78484465D01*
X127666995Y-78713273D01*
X127561686Y-78967510D01*
X127508000Y-79237408D01*
X125285500Y-79237408D01*
X125285500Y-79219007D01*
X125304095Y-79191178D01*
X125375896Y-79017834D01*
X125412500Y-78833813D01*
X125412500Y-78646187D01*
X125375896Y-78462166D01*
X125304095Y-78288822D01*
X125199855Y-78132816D01*
X125067184Y-78000145D01*
X124911178Y-77895905D01*
X124737834Y-77824104D01*
X124553813Y-77787500D01*
X124366187Y-77787500D01*
X124182166Y-77824104D01*
X124008822Y-77895905D01*
X123852816Y-78000145D01*
X123720145Y-78132816D01*
X123615905Y-78288822D01*
X123544104Y-78462166D01*
X123507500Y-78646187D01*
X96788915Y-78646187D01*
X96762792Y-78575023D01*
X96536147Y-78203815D01*
X96241438Y-77883956D01*
X95889991Y-77627738D01*
X95495311Y-77445007D01*
X95236369Y-77375737D01*
X94892000Y-77487676D01*
X94638000Y-77487676D01*
X94293631Y-77375737D01*
X94034689Y-77445007D01*
X93640009Y-77627738D01*
X93288562Y-77883956D01*
X93019700Y-78175762D01*
X93006008Y-78036746D01*
X92955472Y-77870150D01*
X92873405Y-77716614D01*
X92762962Y-77582038D01*
X92628386Y-77471595D01*
X92474850Y-77389528D01*
X92308254Y-77338992D01*
X92135000Y-77321928D01*
X89475000Y-77321928D01*
X89301746Y-77338992D01*
X89135150Y-77389528D01*
X88981614Y-77471595D01*
X88847038Y-77582038D01*
X88736595Y-77716614D01*
X88654528Y-77870150D01*
X88603992Y-78036746D01*
X88586928Y-78210000D01*
X85108918Y-78210000D01*
X84908820Y-77966180D01*
X84571542Y-77689384D01*
X84186744Y-77483706D01*
X83769215Y-77357050D01*
X83335000Y-77314283D01*
X82900784Y-77357050D01*
X82483255Y-77483706D01*
X82098458Y-77689384D01*
X81761180Y-77966180D01*
X81589644Y-78175198D01*
X81576008Y-78036746D01*
X81525472Y-77870150D01*
X81443405Y-77716614D01*
X81332962Y-77582038D01*
X81198386Y-77471595D01*
X81044850Y-77389528D01*
X80878254Y-77338992D01*
X80705000Y-77321928D01*
X78045000Y-77321928D01*
X77871746Y-77338992D01*
X77705150Y-77389528D01*
X77551614Y-77471595D01*
X77417038Y-77582038D01*
X77306595Y-77716614D01*
X77224528Y-77870150D01*
X77173992Y-78036746D01*
X77156928Y-78210000D01*
X73831108Y-78210000D01*
X73696864Y-78009091D01*
X73120909Y-77433136D01*
X72443657Y-76980611D01*
X72398726Y-76962000D01*
X186681274Y-76962000D01*
X186636343Y-76980611D01*
%TD*%
M02*
