%TF.GenerationSoftware,KiCad,Pcbnew,5.1.6-c6e7f7d~87~ubuntu20.04.1*%
%TF.CreationDate,2020-08-14T15:03:36-04:00*%
%TF.ProjectId,psu,7073752e-6b69-4636-9164-5f7063625858,rev?*%
%TF.SameCoordinates,Original*%
%TF.FileFunction,Copper,L1,Top*%
%TF.FilePolarity,Positive*%
%FSLAX46Y46*%
G04 Gerber Fmt 4.6, Leading zero omitted, Abs format (unit mm)*
G04 Created by KiCad (PCBNEW 5.1.6-c6e7f7d~87~ubuntu20.04.1) date 2020-08-14 15:03:36*
%MOMM*%
%LPD*%
G01*
G04 APERTURE LIST*
%TA.AperFunction,ComponentPad*%
%ADD10O,1.600000X1.600000*%
%TD*%
%TA.AperFunction,ComponentPad*%
%ADD11C,1.600000*%
%TD*%
%TA.AperFunction,ComponentPad*%
%ADD12C,7.000000*%
%TD*%
%TA.AperFunction,ComponentPad*%
%ADD13R,1.800000X1.800000*%
%TD*%
%TA.AperFunction,ComponentPad*%
%ADD14C,1.800000*%
%TD*%
%TA.AperFunction,ComponentPad*%
%ADD15O,3.160000X4.100000*%
%TD*%
%TA.AperFunction,ComponentPad*%
%ADD16R,1.700000X1.700000*%
%TD*%
%TA.AperFunction,ComponentPad*%
%ADD17O,1.700000X1.700000*%
%TD*%
%TA.AperFunction,ComponentPad*%
%ADD18O,4.100000X3.160000*%
%TD*%
%TA.AperFunction,ComponentPad*%
%ADD19R,1.500000X1.050000*%
%TD*%
%TA.AperFunction,ComponentPad*%
%ADD20O,1.500000X1.050000*%
%TD*%
%TA.AperFunction,ComponentPad*%
%ADD21R,1.905000X2.000000*%
%TD*%
%TA.AperFunction,ComponentPad*%
%ADD22O,1.905000X2.000000*%
%TD*%
%TA.AperFunction,ComponentPad*%
%ADD23C,1.524000*%
%TD*%
%TA.AperFunction,ViaPad*%
%ADD24C,0.635000*%
%TD*%
%TA.AperFunction,Conductor*%
%ADD25C,0.381000*%
%TD*%
%TA.AperFunction,Conductor*%
%ADD26C,1.270000*%
%TD*%
%TA.AperFunction,Conductor*%
%ADD27C,0.254000*%
%TD*%
G04 APERTURE END LIST*
D10*
%TO.P,R7,2*%
%TO.N,Net-(D1-Pad1)*%
X102870000Y-88265000D03*
D11*
%TO.P,R7,1*%
%TO.N,GND*%
X92710000Y-88265000D03*
%TD*%
D10*
%TO.P,R8,2*%
%TO.N,Net-(D2-Pad1)*%
X107315000Y-88265000D03*
D11*
%TO.P,R8,1*%
%TO.N,GND*%
X117475000Y-88265000D03*
%TD*%
D12*
%TO.P,REF\u002A\u002A,1*%
%TO.N,N/C*%
X70485000Y-80645000D03*
%TD*%
%TO.P,REF\u002A\u002A,1*%
%TO.N,N/C*%
X70485000Y-122555000D03*
%TD*%
%TO.P,REF\u002A\u002A,1*%
%TO.N,N/C*%
X188595000Y-122555000D03*
%TD*%
%TO.P,REF\u002A\u002A,1*%
%TO.N,N/C*%
X188595000Y-80645000D03*
%TD*%
D11*
%TO.P,C1,2*%
%TO.N,GND*%
X114975000Y-98425000D03*
%TO.P,C1,1*%
%TO.N,Net-(C1-Pad1)*%
X117475000Y-98425000D03*
%TD*%
%TO.P,C2,1*%
%TO.N,Net-(C2-Pad1)*%
X117475000Y-111125000D03*
%TO.P,C2,2*%
%TO.N,GND*%
X114975000Y-111125000D03*
%TD*%
D13*
%TO.P,D1,1*%
%TO.N,Net-(D1-Pad1)*%
X99695000Y-81280000D03*
D14*
%TO.P,D1,2*%
%TO.N,Net-(D1-Pad2)*%
X102235000Y-81280000D03*
%TD*%
%TO.P,D2,2*%
%TO.N,Net-(D2-Pad2)*%
X108585000Y-81280000D03*
D13*
%TO.P,D2,1*%
%TO.N,Net-(D2-Pad1)*%
X106045000Y-81280000D03*
%TD*%
%TO.P,J1,1*%
%TO.N,Net-(J1-Pad1)*%
%TA.AperFunction,ComponentPad*%
G36*
G01*
X77795000Y-81810000D02*
X77795000Y-78210000D01*
G75*
G02*
X78045000Y-77960000I250000J0D01*
G01*
X80705000Y-77960000D01*
G75*
G02*
X80955000Y-78210000I0J-250000D01*
G01*
X80955000Y-81810000D01*
G75*
G02*
X80705000Y-82060000I-250000J0D01*
G01*
X78045000Y-82060000D01*
G75*
G02*
X77795000Y-81810000I0J250000D01*
G01*
G37*
%TD.AperFunction*%
D15*
%TO.P,J1,2*%
%TO.N,GND*%
X83335000Y-80010000D03*
%TD*%
D16*
%TO.P,J2,1*%
%TO.N,Net-(J2-Pad1)*%
X69850000Y-97155000D03*
D17*
%TO.P,J2,2*%
%TO.N,Net-(J2-Pad2)*%
X69850000Y-99695000D03*
%TO.P,J2,3*%
%TO.N,GND*%
X69850000Y-102235000D03*
%TO.P,J2,4*%
X69850000Y-104775000D03*
%TD*%
%TO.P,J3,1*%
%TO.N,Net-(J3-Pad1)*%
%TA.AperFunction,ComponentPad*%
G36*
G01*
X184890000Y-89860000D02*
X188490000Y-89860000D01*
G75*
G02*
X188740000Y-90110000I0J-250000D01*
G01*
X188740000Y-92770000D01*
G75*
G02*
X188490000Y-93020000I-250000J0D01*
G01*
X184890000Y-93020000D01*
G75*
G02*
X184640000Y-92770000I0J250000D01*
G01*
X184640000Y-90110000D01*
G75*
G02*
X184890000Y-89860000I250000J0D01*
G01*
G37*
%TD.AperFunction*%
D18*
%TO.P,J3,2*%
%TO.N,GND*%
X186690000Y-95400000D03*
%TO.P,J3,3*%
%TO.N,Net-(J3-Pad3)*%
X186690000Y-99360000D03*
%TO.P,J3,4*%
%TO.N,GND*%
X186690000Y-103320000D03*
%TO.P,J3,5*%
%TO.N,Net-(J3-Pad5)*%
X186690000Y-107280000D03*
%TO.P,J3,6*%
%TO.N,GND*%
X186690000Y-111240000D03*
%TD*%
D19*
%TO.P,Q1,1*%
%TO.N,GND*%
X93345000Y-99695000D03*
D20*
%TO.P,Q1,3*%
%TO.N,Net-(Q1-Pad3)*%
X93345000Y-97155000D03*
%TO.P,Q1,2*%
%TO.N,Net-(Q1-Pad2)*%
X93345000Y-98425000D03*
%TD*%
D19*
%TO.P,Q2,1*%
%TO.N,GND*%
X93345000Y-111760000D03*
D20*
%TO.P,Q2,3*%
%TO.N,Net-(Q2-Pad3)*%
X93345000Y-109220000D03*
%TO.P,Q2,2*%
%TO.N,Net-(Q2-Pad2)*%
X93345000Y-110490000D03*
%TD*%
%TO.P,Q3,2*%
%TO.N,Net-(Q3-Pad2)*%
X102235000Y-98425000D03*
%TO.P,Q3,3*%
%TO.N,Net-(Q3-Pad3)*%
X102235000Y-97155000D03*
D19*
%TO.P,Q3,1*%
%TO.N,+9V*%
X102235000Y-99695000D03*
%TD*%
D20*
%TO.P,Q4,2*%
%TO.N,Net-(Q4-Pad2)*%
X102235000Y-110490000D03*
%TO.P,Q4,3*%
%TO.N,Net-(Q4-Pad3)*%
X102235000Y-109220000D03*
D19*
%TO.P,Q4,1*%
%TO.N,+9V*%
X102235000Y-111760000D03*
%TD*%
D21*
%TO.P,Q5,1*%
%TO.N,Net-(C1-Pad1)*%
X114300000Y-82550000D03*
D22*
%TO.P,Q5,2*%
%TO.N,+9V*%
X116840000Y-82550000D03*
%TO.P,Q5,3*%
%TO.N,Net-(D1-Pad2)*%
X119380000Y-82550000D03*
%TD*%
%TO.P,Q6,3*%
%TO.N,Net-(D2-Pad2)*%
X116205000Y-120015000D03*
%TO.P,Q6,2*%
%TO.N,+9V*%
X113665000Y-120015000D03*
D21*
%TO.P,Q6,1*%
%TO.N,Net-(C2-Pad1)*%
X111125000Y-120015000D03*
%TD*%
D11*
%TO.P,R1,1*%
%TO.N,Net-(Q1-Pad2)*%
X86995000Y-98425000D03*
D10*
%TO.P,R1,2*%
%TO.N,Net-(J2-Pad1)*%
X76835000Y-98425000D03*
%TD*%
%TO.P,R2,2*%
%TO.N,Net-(J2-Pad2)*%
X76835000Y-110490000D03*
D11*
%TO.P,R2,1*%
%TO.N,Net-(Q2-Pad2)*%
X86995000Y-110490000D03*
%TD*%
D10*
%TO.P,R3,2*%
%TO.N,Net-(Q1-Pad3)*%
X92710000Y-92710000D03*
D11*
%TO.P,R3,1*%
%TO.N,Net-(Q3-Pad2)*%
X102870000Y-92710000D03*
%TD*%
%TO.P,R4,1*%
%TO.N,Net-(Q4-Pad2)*%
X102870000Y-104775000D03*
D10*
%TO.P,R4,2*%
%TO.N,Net-(Q2-Pad3)*%
X92710000Y-104775000D03*
%TD*%
D11*
%TO.P,R5,1*%
%TO.N,Net-(Q3-Pad3)*%
X107315000Y-92710000D03*
D10*
%TO.P,R5,2*%
%TO.N,Net-(C1-Pad1)*%
X117475000Y-92710000D03*
%TD*%
%TO.P,R6,2*%
%TO.N,Net-(C2-Pad1)*%
X117475000Y-104775000D03*
D11*
%TO.P,R6,1*%
%TO.N,Net-(Q4-Pad3)*%
X107315000Y-104775000D03*
%TD*%
D15*
%TO.P,SW1,2*%
%TO.N,+9V*%
X94765000Y-80010000D03*
%TO.P,SW1,1*%
%TO.N,Net-(J1-Pad1)*%
%TA.AperFunction,ComponentPad*%
G36*
G01*
X89225000Y-81810000D02*
X89225000Y-78210000D01*
G75*
G02*
X89475000Y-77960000I250000J0D01*
G01*
X92135000Y-77960000D01*
G75*
G02*
X92385000Y-78210000I0J-250000D01*
G01*
X92385000Y-81810000D01*
G75*
G02*
X92135000Y-82060000I-250000J0D01*
G01*
X89475000Y-82060000D01*
G75*
G02*
X89225000Y-81810000I0J250000D01*
G01*
G37*
%TD.AperFunction*%
%TD*%
D23*
%TO.P,U1,1*%
%TO.N,Net-(D1-Pad2)*%
X128905000Y-79375000D03*
%TO.P,U1,2*%
%TO.N,GND*%
X128905000Y-97155000D03*
%TO.P,U1,3*%
%TO.N,Net-(J3-Pad3)*%
X168783000Y-79375000D03*
%TO.P,U1,4*%
%TO.N,GND*%
X168783000Y-97155000D03*
%TD*%
%TO.P,U2,1*%
%TO.N,Net-(D2-Pad2)*%
X125095000Y-104140000D03*
%TO.P,U2,2*%
%TO.N,GND*%
X125095000Y-123952000D03*
%TO.P,U2,3*%
%TO.N,Net-(J3-Pad5)*%
X169545000Y-104140000D03*
%TO.P,U2,4*%
%TO.N,GND*%
X169545000Y-123952000D03*
%TD*%
%TO.P,J4,1*%
%TO.N,GND*%
%TA.AperFunction,ComponentPad*%
G36*
G01*
X84145000Y-124990000D02*
X84145000Y-121390000D01*
G75*
G02*
X84395000Y-121140000I250000J0D01*
G01*
X87055000Y-121140000D01*
G75*
G02*
X87305000Y-121390000I0J-250000D01*
G01*
X87305000Y-124990000D01*
G75*
G02*
X87055000Y-125240000I-250000J0D01*
G01*
X84395000Y-125240000D01*
G75*
G02*
X84145000Y-124990000I0J250000D01*
G01*
G37*
%TD.AperFunction*%
D15*
%TO.P,J4,2*%
%TO.N,+9V*%
X89685000Y-123190000D03*
%TD*%
D24*
%TO.N,Net-(C2-Pad1)*%
X111125000Y-115570000D03*
%TO.N,Net-(D2-Pad2)*%
X124460000Y-78740000D03*
X124460000Y-93345000D03*
%TO.N,Net-(J2-Pad2)*%
X76835000Y-102235000D03*
%TD*%
D25*
%TO.N,Net-(C2-Pad1)*%
X117475000Y-111125000D02*
X113030000Y-115570000D01*
X113030000Y-115570000D02*
X111125000Y-115570000D01*
D26*
%TO.N,Net-(D1-Pad2)*%
X125730000Y-82550000D02*
X128905000Y-79375000D01*
X119380000Y-82550000D02*
X125730000Y-82550000D01*
D25*
X102235000Y-81280000D02*
X106045000Y-85090000D01*
X116840000Y-85090000D02*
X119380000Y-82550000D01*
X106045000Y-85090000D02*
X116840000Y-85090000D01*
%TO.N,Net-(D2-Pad2)*%
X108585000Y-81280000D02*
X111125000Y-78740000D01*
X111125000Y-78740000D02*
X124460000Y-78740000D01*
X124460000Y-103505000D02*
X125095000Y-104140000D01*
X124460000Y-93345000D02*
X124460000Y-103505000D01*
D26*
%TO.N,Net-(J1-Pad1)*%
X79375000Y-77960000D02*
X80297190Y-77037810D01*
X79375000Y-80010000D02*
X79375000Y-77960000D01*
X87832810Y-77037810D02*
X90805000Y-80010000D01*
X80297190Y-77037810D02*
X87832810Y-77037810D01*
D25*
%TO.N,Net-(J2-Pad1)*%
X75565000Y-97155000D02*
X76835000Y-98425000D01*
X69850000Y-97155000D02*
X75565000Y-97155000D01*
%TO.N,Net-(J2-Pad2)*%
X69850000Y-99695000D02*
X74295000Y-99695000D01*
X74295000Y-99695000D02*
X76835000Y-102235000D01*
D26*
%TO.N,Net-(J3-Pad3)*%
X181910000Y-99360000D02*
X186690000Y-99360000D01*
X178435000Y-95885000D02*
X181910000Y-99360000D01*
X178435000Y-85725000D02*
X178435000Y-95885000D01*
X172085000Y-79375000D02*
X178435000Y-85725000D01*
X168783000Y-79375000D02*
X172085000Y-79375000D01*
%TO.N,Net-(J3-Pad5)*%
X169545000Y-104140000D02*
X173355000Y-104140000D01*
X176495000Y-107280000D02*
X186690000Y-107280000D01*
X173355000Y-104140000D02*
X176495000Y-107280000D01*
D25*
%TO.N,Net-(Q1-Pad2)*%
X86995000Y-98425000D02*
X93345000Y-98425000D01*
%TO.N,Net-(Q2-Pad2)*%
X86995000Y-110490000D02*
X93345000Y-110490000D01*
%TO.N,Net-(Q3-Pad3)*%
X102235000Y-97155000D02*
X105410000Y-97155000D01*
X107315000Y-95250000D02*
X107315000Y-92710000D01*
X105410000Y-97155000D02*
X107315000Y-95250000D01*
%TD*%
D27*
%TO.N,GND*%
G36*
X78521086Y-77017864D02*
G01*
X78472631Y-77057630D01*
X78313926Y-77251012D01*
X78276021Y-77321928D01*
X78045000Y-77321928D01*
X77871746Y-77338992D01*
X77705150Y-77389528D01*
X77551614Y-77471595D01*
X77417038Y-77582038D01*
X77306595Y-77716614D01*
X77224528Y-77870150D01*
X77173992Y-78036746D01*
X77156928Y-78210000D01*
X77156928Y-81810000D01*
X77173992Y-81983254D01*
X77224528Y-82149850D01*
X77306595Y-82303386D01*
X77417038Y-82437962D01*
X77551614Y-82548405D01*
X77705150Y-82630472D01*
X77871746Y-82681008D01*
X78045000Y-82698072D01*
X80705000Y-82698072D01*
X80878254Y-82681008D01*
X81044850Y-82630472D01*
X81198386Y-82548405D01*
X81332962Y-82437962D01*
X81443405Y-82303386D01*
X81525472Y-82149850D01*
X81576008Y-81983254D01*
X81589700Y-81844238D01*
X81858562Y-82136044D01*
X82210009Y-82392262D01*
X82604689Y-82574993D01*
X82863631Y-82644263D01*
X83208000Y-82532324D01*
X83208000Y-80137000D01*
X83462000Y-80137000D01*
X83462000Y-82532324D01*
X83806369Y-82644263D01*
X84065311Y-82574993D01*
X84459991Y-82392262D01*
X84811438Y-82136044D01*
X85106147Y-81816185D01*
X85332792Y-81444977D01*
X85482663Y-81036685D01*
X85550000Y-80607000D01*
X85550000Y-80137000D01*
X83462000Y-80137000D01*
X83208000Y-80137000D01*
X83188000Y-80137000D01*
X83188000Y-79883000D01*
X83208000Y-79883000D01*
X83208000Y-79863000D01*
X83462000Y-79863000D01*
X83462000Y-79883000D01*
X85550000Y-79883000D01*
X85550000Y-79413000D01*
X85482663Y-78983315D01*
X85332792Y-78575023D01*
X85169642Y-78307810D01*
X87306760Y-78307810D01*
X88586928Y-79587979D01*
X88586928Y-81810000D01*
X88603992Y-81983254D01*
X88654528Y-82149850D01*
X88736595Y-82303386D01*
X88847038Y-82437962D01*
X88981614Y-82548405D01*
X89135150Y-82630472D01*
X89301746Y-82681008D01*
X89475000Y-82698072D01*
X92135000Y-82698072D01*
X92308254Y-82681008D01*
X92474850Y-82630472D01*
X92628386Y-82548405D01*
X92762962Y-82437962D01*
X92873405Y-82303386D01*
X92955472Y-82149850D01*
X93006008Y-81983254D01*
X93019644Y-81844801D01*
X93191181Y-82053820D01*
X93528459Y-82330616D01*
X93913256Y-82536294D01*
X94330785Y-82662950D01*
X94765000Y-82705717D01*
X95199216Y-82662950D01*
X95616745Y-82536294D01*
X96001542Y-82330616D01*
X96338820Y-82053820D01*
X96615616Y-81716542D01*
X96821294Y-81331744D01*
X96947950Y-80914215D01*
X96980000Y-80588809D01*
X96980000Y-80380000D01*
X98156928Y-80380000D01*
X98156928Y-82180000D01*
X98169188Y-82304482D01*
X98205498Y-82424180D01*
X98264463Y-82534494D01*
X98343815Y-82631185D01*
X98440506Y-82710537D01*
X98550820Y-82769502D01*
X98670518Y-82805812D01*
X98795000Y-82818072D01*
X100595000Y-82818072D01*
X100719482Y-82805812D01*
X100839180Y-82769502D01*
X100949494Y-82710537D01*
X101046185Y-82631185D01*
X101125537Y-82534494D01*
X101184502Y-82424180D01*
X101190056Y-82405873D01*
X101256495Y-82472312D01*
X101507905Y-82640299D01*
X101787257Y-82756011D01*
X102083816Y-82815000D01*
X102386184Y-82815000D01*
X102566667Y-82779100D01*
X105432611Y-85645045D01*
X105458459Y-85676541D01*
X105489955Y-85702389D01*
X105489958Y-85702392D01*
X105584157Y-85779699D01*
X105727566Y-85856353D01*
X105883174Y-85903556D01*
X106004447Y-85915500D01*
X106004449Y-85915500D01*
X106045000Y-85919494D01*
X106085550Y-85915500D01*
X116799450Y-85915500D01*
X116840000Y-85919494D01*
X116880550Y-85915500D01*
X116880553Y-85915500D01*
X117001826Y-85903556D01*
X117157434Y-85856353D01*
X117300842Y-85779699D01*
X117426541Y-85676541D01*
X117452398Y-85645034D01*
X118966449Y-84130983D01*
X119068797Y-84162030D01*
X119380000Y-84192681D01*
X119691204Y-84162030D01*
X119990449Y-84071255D01*
X120266235Y-83923845D01*
X120392770Y-83820000D01*
X125667627Y-83820000D01*
X125730000Y-83826143D01*
X125792373Y-83820000D01*
X125792380Y-83820000D01*
X125978963Y-83801623D01*
X126218359Y-83729003D01*
X126438988Y-83611075D01*
X126632370Y-83452370D01*
X126672141Y-83403909D01*
X129389732Y-80686319D01*
X129566727Y-80613005D01*
X129795535Y-80460120D01*
X129990120Y-80265535D01*
X130143005Y-80036727D01*
X130248314Y-79782490D01*
X130302000Y-79512592D01*
X130302000Y-79237408D01*
X167386000Y-79237408D01*
X167386000Y-79512592D01*
X167439686Y-79782490D01*
X167544995Y-80036727D01*
X167697880Y-80265535D01*
X167892465Y-80460120D01*
X168121273Y-80613005D01*
X168375510Y-80718314D01*
X168645408Y-80772000D01*
X168920592Y-80772000D01*
X169190490Y-80718314D01*
X169367485Y-80645000D01*
X171558950Y-80645000D01*
X177165000Y-86251051D01*
X177165001Y-95822617D01*
X177158857Y-95885000D01*
X177183377Y-96133963D01*
X177243084Y-96330788D01*
X177255998Y-96373359D01*
X177373926Y-96593988D01*
X177532631Y-96787370D01*
X177581087Y-96827137D01*
X180967863Y-100213914D01*
X181007630Y-100262370D01*
X181201012Y-100421075D01*
X181421641Y-100539003D01*
X181588416Y-100589594D01*
X181661036Y-100611623D01*
X181686755Y-100614156D01*
X181847620Y-100630000D01*
X181847626Y-100630000D01*
X181909999Y-100636143D01*
X181972372Y-100630000D01*
X184396842Y-100630000D01*
X184646180Y-100933820D01*
X184983458Y-101210616D01*
X185225713Y-101340104D01*
X184883815Y-101548853D01*
X184563956Y-101843562D01*
X184307738Y-102195009D01*
X184125007Y-102589689D01*
X184055737Y-102848631D01*
X184167676Y-103193000D01*
X186563000Y-103193000D01*
X186563000Y-103173000D01*
X186817000Y-103173000D01*
X186817000Y-103193000D01*
X189212324Y-103193000D01*
X189324263Y-102848631D01*
X189254993Y-102589689D01*
X189072262Y-102195009D01*
X188816044Y-101843562D01*
X188496185Y-101548853D01*
X188154287Y-101340104D01*
X188396542Y-101210616D01*
X188733820Y-100933820D01*
X189010616Y-100596542D01*
X189216294Y-100211745D01*
X189342950Y-99794216D01*
X189385717Y-99360000D01*
X189342950Y-98925784D01*
X189216294Y-98508255D01*
X189010616Y-98123458D01*
X188733820Y-97786180D01*
X188396542Y-97509384D01*
X188154287Y-97379896D01*
X188496185Y-97171147D01*
X188816044Y-96876438D01*
X189072262Y-96524991D01*
X189254993Y-96130311D01*
X189324263Y-95871369D01*
X189212324Y-95527000D01*
X186817000Y-95527000D01*
X186817000Y-95547000D01*
X186563000Y-95547000D01*
X186563000Y-95527000D01*
X184167676Y-95527000D01*
X184055737Y-95871369D01*
X184125007Y-96130311D01*
X184307738Y-96524991D01*
X184563956Y-96876438D01*
X184883815Y-97171147D01*
X185225713Y-97379896D01*
X184983458Y-97509384D01*
X184646180Y-97786180D01*
X184396842Y-98090000D01*
X182436051Y-98090000D01*
X179705000Y-95358950D01*
X179705000Y-90110000D01*
X184001928Y-90110000D01*
X184001928Y-92770000D01*
X184018992Y-92943254D01*
X184069528Y-93109850D01*
X184151595Y-93263386D01*
X184262038Y-93397962D01*
X184396614Y-93508405D01*
X184550150Y-93590472D01*
X184716746Y-93641008D01*
X184855762Y-93654700D01*
X184563956Y-93923562D01*
X184307738Y-94275009D01*
X184125007Y-94669689D01*
X184055737Y-94928631D01*
X184167676Y-95273000D01*
X186563000Y-95273000D01*
X186563000Y-95253000D01*
X186817000Y-95253000D01*
X186817000Y-95273000D01*
X189212324Y-95273000D01*
X189324263Y-94928631D01*
X189254993Y-94669689D01*
X189072262Y-94275009D01*
X188816044Y-93923562D01*
X188524238Y-93654700D01*
X188663254Y-93641008D01*
X188829850Y-93590472D01*
X188983386Y-93508405D01*
X189117962Y-93397962D01*
X189228405Y-93263386D01*
X189310472Y-93109850D01*
X189361008Y-92943254D01*
X189378072Y-92770000D01*
X189378072Y-90110000D01*
X189361008Y-89936746D01*
X189310472Y-89770150D01*
X189228405Y-89616614D01*
X189117962Y-89482038D01*
X188983386Y-89371595D01*
X188829850Y-89289528D01*
X188663254Y-89238992D01*
X188490000Y-89221928D01*
X184890000Y-89221928D01*
X184716746Y-89238992D01*
X184550150Y-89289528D01*
X184396614Y-89371595D01*
X184262038Y-89482038D01*
X184151595Y-89616614D01*
X184069528Y-89770150D01*
X184018992Y-89936746D01*
X184001928Y-90110000D01*
X179705000Y-90110000D01*
X179705000Y-85787372D01*
X179711143Y-85724999D01*
X179705000Y-85662626D01*
X179705000Y-85662620D01*
X179686623Y-85476037D01*
X179614003Y-85236641D01*
X179496075Y-85016012D01*
X179337370Y-84822630D01*
X179288915Y-84782864D01*
X173027141Y-78521091D01*
X172987370Y-78472630D01*
X172793988Y-78313925D01*
X172573359Y-78195997D01*
X172333963Y-78123377D01*
X172147380Y-78105000D01*
X172147373Y-78105000D01*
X172085000Y-78098857D01*
X172022627Y-78105000D01*
X169367485Y-78105000D01*
X169190490Y-78031686D01*
X168920592Y-77978000D01*
X168645408Y-77978000D01*
X168375510Y-78031686D01*
X168121273Y-78136995D01*
X167892465Y-78289880D01*
X167697880Y-78484465D01*
X167544995Y-78713273D01*
X167439686Y-78967510D01*
X167386000Y-79237408D01*
X130302000Y-79237408D01*
X130248314Y-78967510D01*
X130143005Y-78713273D01*
X129990120Y-78484465D01*
X129795535Y-78289880D01*
X129566727Y-78136995D01*
X129312490Y-78031686D01*
X129042592Y-77978000D01*
X128767408Y-77978000D01*
X128497510Y-78031686D01*
X128243273Y-78136995D01*
X128014465Y-78289880D01*
X127819880Y-78484465D01*
X127666995Y-78713273D01*
X127593681Y-78890268D01*
X125203950Y-81280000D01*
X120392769Y-81280000D01*
X120266234Y-81176155D01*
X119990448Y-81028745D01*
X119691203Y-80937970D01*
X119380000Y-80907319D01*
X119068796Y-80937970D01*
X118769551Y-81028745D01*
X118493765Y-81176155D01*
X118252037Y-81374537D01*
X118110000Y-81547609D01*
X117967963Y-81374537D01*
X117726234Y-81176155D01*
X117450448Y-81028745D01*
X117151203Y-80937970D01*
X116840000Y-80907319D01*
X116528796Y-80937970D01*
X116229551Y-81028745D01*
X115953765Y-81176155D01*
X115827905Y-81279446D01*
X115783037Y-81195506D01*
X115703685Y-81098815D01*
X115606994Y-81019463D01*
X115496680Y-80960498D01*
X115376982Y-80924188D01*
X115252500Y-80911928D01*
X113347500Y-80911928D01*
X113223018Y-80924188D01*
X113103320Y-80960498D01*
X112993006Y-81019463D01*
X112896315Y-81098815D01*
X112816963Y-81195506D01*
X112757998Y-81305820D01*
X112721688Y-81425518D01*
X112709428Y-81550000D01*
X112709428Y-83550000D01*
X112721688Y-83674482D01*
X112757998Y-83794180D01*
X112816963Y-83904494D01*
X112896315Y-84001185D01*
X112993006Y-84080537D01*
X113103320Y-84139502D01*
X113223018Y-84175812D01*
X113347500Y-84188072D01*
X115252500Y-84188072D01*
X115376982Y-84175812D01*
X115496680Y-84139502D01*
X115606994Y-84080537D01*
X115703685Y-84001185D01*
X115783037Y-83904494D01*
X115827905Y-83820553D01*
X115953766Y-83923845D01*
X116229552Y-84071255D01*
X116528797Y-84162030D01*
X116594105Y-84168462D01*
X116498068Y-84264500D01*
X106386934Y-84264500D01*
X104881732Y-82759299D01*
X104900820Y-82769502D01*
X105020518Y-82805812D01*
X105145000Y-82818072D01*
X106945000Y-82818072D01*
X107069482Y-82805812D01*
X107189180Y-82769502D01*
X107299494Y-82710537D01*
X107396185Y-82631185D01*
X107475537Y-82534494D01*
X107534502Y-82424180D01*
X107540056Y-82405873D01*
X107606495Y-82472312D01*
X107857905Y-82640299D01*
X108137257Y-82756011D01*
X108433816Y-82815000D01*
X108736184Y-82815000D01*
X109032743Y-82756011D01*
X109312095Y-82640299D01*
X109563505Y-82472312D01*
X109777312Y-82258505D01*
X109945299Y-82007095D01*
X110061011Y-81727743D01*
X110120000Y-81431184D01*
X110120000Y-81128816D01*
X110084100Y-80948333D01*
X111466933Y-79565500D01*
X123980993Y-79565500D01*
X124008822Y-79584095D01*
X124182166Y-79655896D01*
X124366187Y-79692500D01*
X124553813Y-79692500D01*
X124737834Y-79655896D01*
X124911178Y-79584095D01*
X125067184Y-79479855D01*
X125199855Y-79347184D01*
X125304095Y-79191178D01*
X125375896Y-79017834D01*
X125412500Y-78833813D01*
X125412500Y-78646187D01*
X125375896Y-78462166D01*
X125304095Y-78288822D01*
X125199855Y-78132816D01*
X125067184Y-78000145D01*
X124911178Y-77895905D01*
X124737834Y-77824104D01*
X124553813Y-77787500D01*
X124366187Y-77787500D01*
X124182166Y-77824104D01*
X124008822Y-77895905D01*
X123980993Y-77914500D01*
X111165542Y-77914500D01*
X111124999Y-77910507D01*
X111084456Y-77914500D01*
X111084447Y-77914500D01*
X110963174Y-77926444D01*
X110807566Y-77973647D01*
X110673417Y-78045352D01*
X110664156Y-78050302D01*
X110608033Y-78096361D01*
X110538459Y-78153459D01*
X110512606Y-78184961D01*
X108916667Y-79780900D01*
X108736184Y-79745000D01*
X108433816Y-79745000D01*
X108137257Y-79803989D01*
X107857905Y-79919701D01*
X107606495Y-80087688D01*
X107540056Y-80154127D01*
X107534502Y-80135820D01*
X107475537Y-80025506D01*
X107396185Y-79928815D01*
X107299494Y-79849463D01*
X107189180Y-79790498D01*
X107069482Y-79754188D01*
X106945000Y-79741928D01*
X105145000Y-79741928D01*
X105020518Y-79754188D01*
X104900820Y-79790498D01*
X104790506Y-79849463D01*
X104693815Y-79928815D01*
X104614463Y-80025506D01*
X104555498Y-80135820D01*
X104519188Y-80255518D01*
X104506928Y-80380000D01*
X104506928Y-82180000D01*
X104519188Y-82304482D01*
X104555498Y-82424180D01*
X104565701Y-82443268D01*
X103734100Y-81611667D01*
X103770000Y-81431184D01*
X103770000Y-81128816D01*
X103711011Y-80832257D01*
X103595299Y-80552905D01*
X103427312Y-80301495D01*
X103213505Y-80087688D01*
X102962095Y-79919701D01*
X102682743Y-79803989D01*
X102386184Y-79745000D01*
X102083816Y-79745000D01*
X101787257Y-79803989D01*
X101507905Y-79919701D01*
X101256495Y-80087688D01*
X101190056Y-80154127D01*
X101184502Y-80135820D01*
X101125537Y-80025506D01*
X101046185Y-79928815D01*
X100949494Y-79849463D01*
X100839180Y-79790498D01*
X100719482Y-79754188D01*
X100595000Y-79741928D01*
X98795000Y-79741928D01*
X98670518Y-79754188D01*
X98550820Y-79790498D01*
X98440506Y-79849463D01*
X98343815Y-79928815D01*
X98264463Y-80025506D01*
X98205498Y-80135820D01*
X98169188Y-80255518D01*
X98156928Y-80380000D01*
X96980000Y-80380000D01*
X96980000Y-79431190D01*
X96947950Y-79105784D01*
X96821294Y-78688255D01*
X96615616Y-78303458D01*
X96338820Y-77966180D01*
X96001542Y-77689384D01*
X95616744Y-77483706D01*
X95199215Y-77357050D01*
X94765000Y-77314283D01*
X94330784Y-77357050D01*
X93913255Y-77483706D01*
X93528458Y-77689384D01*
X93191180Y-77966180D01*
X93019644Y-78175198D01*
X93006008Y-78036746D01*
X92955472Y-77870150D01*
X92873405Y-77716614D01*
X92762962Y-77582038D01*
X92628386Y-77471595D01*
X92474850Y-77389528D01*
X92308254Y-77338992D01*
X92135000Y-77321928D01*
X89912978Y-77321928D01*
X89553050Y-76962000D01*
X186681274Y-76962000D01*
X186636343Y-76980611D01*
X185959091Y-77433136D01*
X185383136Y-78009091D01*
X184930611Y-78686343D01*
X184618906Y-79438865D01*
X184460000Y-80237738D01*
X184460000Y-81052262D01*
X184618906Y-81851135D01*
X184930611Y-82603657D01*
X185383136Y-83280909D01*
X185959091Y-83856864D01*
X186636343Y-84309389D01*
X187388865Y-84621094D01*
X188187738Y-84780000D01*
X189002262Y-84780000D01*
X189801135Y-84621094D01*
X190553657Y-84309389D01*
X191230909Y-83856864D01*
X191806864Y-83280909D01*
X192259389Y-82603657D01*
X192278000Y-82558726D01*
X192278000Y-120641274D01*
X192259389Y-120596343D01*
X191806864Y-119919091D01*
X191230909Y-119343136D01*
X190553657Y-118890611D01*
X189801135Y-118578906D01*
X189002262Y-118420000D01*
X188187738Y-118420000D01*
X187388865Y-118578906D01*
X186636343Y-118890611D01*
X185959091Y-119343136D01*
X185383136Y-119919091D01*
X184930611Y-120596343D01*
X184618906Y-121348865D01*
X184460000Y-122147738D01*
X184460000Y-122962262D01*
X184618906Y-123761135D01*
X184930611Y-124513657D01*
X185383136Y-125190909D01*
X185959091Y-125766864D01*
X186636343Y-126219389D01*
X186681274Y-126238000D01*
X72398726Y-126238000D01*
X72443657Y-126219389D01*
X73120909Y-125766864D01*
X73647773Y-125240000D01*
X83506928Y-125240000D01*
X83519188Y-125364482D01*
X83555498Y-125484180D01*
X83614463Y-125594494D01*
X83693815Y-125691185D01*
X83790506Y-125770537D01*
X83900820Y-125829502D01*
X84020518Y-125865812D01*
X84145000Y-125878072D01*
X85439250Y-125875000D01*
X85598000Y-125716250D01*
X85598000Y-123317000D01*
X83668750Y-123317000D01*
X83510000Y-123475750D01*
X83506928Y-125240000D01*
X73647773Y-125240000D01*
X73696864Y-125190909D01*
X74149389Y-124513657D01*
X74461094Y-123761135D01*
X74620000Y-122962262D01*
X74620000Y-122147738D01*
X74461094Y-121348865D01*
X74374580Y-121140000D01*
X83506928Y-121140000D01*
X83510000Y-122904250D01*
X83668750Y-123063000D01*
X85598000Y-123063000D01*
X85598000Y-120663750D01*
X85852000Y-120663750D01*
X85852000Y-123063000D01*
X85872000Y-123063000D01*
X85872000Y-123317000D01*
X85852000Y-123317000D01*
X85852000Y-125716250D01*
X86010750Y-125875000D01*
X87305000Y-125878072D01*
X87429482Y-125865812D01*
X87549180Y-125829502D01*
X87659494Y-125770537D01*
X87756185Y-125691185D01*
X87835537Y-125594494D01*
X87894502Y-125484180D01*
X87930812Y-125364482D01*
X87943072Y-125240000D01*
X87942704Y-125028529D01*
X88111181Y-125233820D01*
X88448459Y-125510616D01*
X88833256Y-125716294D01*
X89250785Y-125842950D01*
X89685000Y-125885717D01*
X90119216Y-125842950D01*
X90536745Y-125716294D01*
X90921542Y-125510616D01*
X91258820Y-125233820D01*
X91518362Y-124917565D01*
X124309040Y-124917565D01*
X124376020Y-125157656D01*
X124625048Y-125274756D01*
X124892135Y-125341023D01*
X125167017Y-125353910D01*
X125439133Y-125312922D01*
X125698023Y-125219636D01*
X125813980Y-125157656D01*
X125880960Y-124917565D01*
X168759040Y-124917565D01*
X168826020Y-125157656D01*
X169075048Y-125274756D01*
X169342135Y-125341023D01*
X169617017Y-125353910D01*
X169889133Y-125312922D01*
X170148023Y-125219636D01*
X170263980Y-125157656D01*
X170330960Y-124917565D01*
X169545000Y-124131605D01*
X168759040Y-124917565D01*
X125880960Y-124917565D01*
X125095000Y-124131605D01*
X124309040Y-124917565D01*
X91518362Y-124917565D01*
X91535616Y-124896542D01*
X91741294Y-124511744D01*
X91867950Y-124094215D01*
X91874863Y-124024017D01*
X123693090Y-124024017D01*
X123734078Y-124296133D01*
X123827364Y-124555023D01*
X123889344Y-124670980D01*
X124129435Y-124737960D01*
X124915395Y-123952000D01*
X125274605Y-123952000D01*
X126060565Y-124737960D01*
X126300656Y-124670980D01*
X126417756Y-124421952D01*
X126484023Y-124154865D01*
X126490157Y-124024017D01*
X168143090Y-124024017D01*
X168184078Y-124296133D01*
X168277364Y-124555023D01*
X168339344Y-124670980D01*
X168579435Y-124737960D01*
X169365395Y-123952000D01*
X169724605Y-123952000D01*
X170510565Y-124737960D01*
X170750656Y-124670980D01*
X170867756Y-124421952D01*
X170934023Y-124154865D01*
X170946910Y-123879983D01*
X170905922Y-123607867D01*
X170812636Y-123348977D01*
X170750656Y-123233020D01*
X170510565Y-123166040D01*
X169724605Y-123952000D01*
X169365395Y-123952000D01*
X168579435Y-123166040D01*
X168339344Y-123233020D01*
X168222244Y-123482048D01*
X168155977Y-123749135D01*
X168143090Y-124024017D01*
X126490157Y-124024017D01*
X126496910Y-123879983D01*
X126455922Y-123607867D01*
X126362636Y-123348977D01*
X126300656Y-123233020D01*
X126060565Y-123166040D01*
X125274605Y-123952000D01*
X124915395Y-123952000D01*
X124129435Y-123166040D01*
X123889344Y-123233020D01*
X123772244Y-123482048D01*
X123705977Y-123749135D01*
X123693090Y-124024017D01*
X91874863Y-124024017D01*
X91900000Y-123768809D01*
X91900000Y-122986435D01*
X124309040Y-122986435D01*
X125095000Y-123772395D01*
X125880960Y-122986435D01*
X168759040Y-122986435D01*
X169545000Y-123772395D01*
X170330960Y-122986435D01*
X170263980Y-122746344D01*
X170014952Y-122629244D01*
X169747865Y-122562977D01*
X169472983Y-122550090D01*
X169200867Y-122591078D01*
X168941977Y-122684364D01*
X168826020Y-122746344D01*
X168759040Y-122986435D01*
X125880960Y-122986435D01*
X125813980Y-122746344D01*
X125564952Y-122629244D01*
X125297865Y-122562977D01*
X125022983Y-122550090D01*
X124750867Y-122591078D01*
X124491977Y-122684364D01*
X124376020Y-122746344D01*
X124309040Y-122986435D01*
X91900000Y-122986435D01*
X91900000Y-122611190D01*
X91867950Y-122285784D01*
X91741294Y-121868255D01*
X91535616Y-121483458D01*
X91258820Y-121146180D01*
X90921542Y-120869384D01*
X90536744Y-120663706D01*
X90119215Y-120537050D01*
X89685000Y-120494283D01*
X89250784Y-120537050D01*
X88833255Y-120663706D01*
X88448458Y-120869384D01*
X88111180Y-121146180D01*
X87942704Y-121351470D01*
X87943072Y-121140000D01*
X87930812Y-121015518D01*
X87894502Y-120895820D01*
X87835537Y-120785506D01*
X87756185Y-120688815D01*
X87659494Y-120609463D01*
X87549180Y-120550498D01*
X87429482Y-120514188D01*
X87305000Y-120501928D01*
X86010750Y-120505000D01*
X85852000Y-120663750D01*
X85598000Y-120663750D01*
X85439250Y-120505000D01*
X84145000Y-120501928D01*
X84020518Y-120514188D01*
X83900820Y-120550498D01*
X83790506Y-120609463D01*
X83693815Y-120688815D01*
X83614463Y-120785506D01*
X83555498Y-120895820D01*
X83519188Y-121015518D01*
X83506928Y-121140000D01*
X74374580Y-121140000D01*
X74149389Y-120596343D01*
X73696864Y-119919091D01*
X73120909Y-119343136D01*
X72629819Y-119015000D01*
X109534428Y-119015000D01*
X109534428Y-121015000D01*
X109546688Y-121139482D01*
X109582998Y-121259180D01*
X109641963Y-121369494D01*
X109721315Y-121466185D01*
X109818006Y-121545537D01*
X109928320Y-121604502D01*
X110048018Y-121640812D01*
X110172500Y-121653072D01*
X112077500Y-121653072D01*
X112201982Y-121640812D01*
X112321680Y-121604502D01*
X112431994Y-121545537D01*
X112528685Y-121466185D01*
X112608037Y-121369494D01*
X112652905Y-121285553D01*
X112778766Y-121388845D01*
X113054552Y-121536255D01*
X113353797Y-121627030D01*
X113665000Y-121657681D01*
X113976204Y-121627030D01*
X114275449Y-121536255D01*
X114551235Y-121388845D01*
X114792963Y-121190463D01*
X114935000Y-121017391D01*
X115077037Y-121190463D01*
X115318766Y-121388845D01*
X115594552Y-121536255D01*
X115893797Y-121627030D01*
X116205000Y-121657681D01*
X116516204Y-121627030D01*
X116815449Y-121536255D01*
X117091235Y-121388845D01*
X117332963Y-121190463D01*
X117531345Y-120948734D01*
X117678755Y-120672948D01*
X117769530Y-120373703D01*
X117792500Y-120140485D01*
X117792500Y-119889514D01*
X117769530Y-119656296D01*
X117678755Y-119357051D01*
X117531345Y-119081265D01*
X117332963Y-118839537D01*
X117091234Y-118641155D01*
X116815448Y-118493745D01*
X116516203Y-118402970D01*
X116205000Y-118372319D01*
X115893796Y-118402970D01*
X115594551Y-118493745D01*
X115318765Y-118641155D01*
X115077037Y-118839537D01*
X114935000Y-119012609D01*
X114792963Y-118839537D01*
X114551234Y-118641155D01*
X114275448Y-118493745D01*
X113976203Y-118402970D01*
X113665000Y-118372319D01*
X113353796Y-118402970D01*
X113054551Y-118493745D01*
X112778765Y-118641155D01*
X112652905Y-118744446D01*
X112608037Y-118660506D01*
X112528685Y-118563815D01*
X112431994Y-118484463D01*
X112321680Y-118425498D01*
X112201982Y-118389188D01*
X112077500Y-118376928D01*
X110172500Y-118376928D01*
X110048018Y-118389188D01*
X109928320Y-118425498D01*
X109818006Y-118484463D01*
X109721315Y-118563815D01*
X109641963Y-118660506D01*
X109582998Y-118770820D01*
X109546688Y-118890518D01*
X109534428Y-119015000D01*
X72629819Y-119015000D01*
X72443657Y-118890611D01*
X71691135Y-118578906D01*
X70892262Y-118420000D01*
X70077738Y-118420000D01*
X69278865Y-118578906D01*
X68526343Y-118890611D01*
X67849091Y-119343136D01*
X67273136Y-119919091D01*
X66820611Y-120596343D01*
X66802000Y-120641274D01*
X66802000Y-115476187D01*
X110172500Y-115476187D01*
X110172500Y-115663813D01*
X110209104Y-115847834D01*
X110280905Y-116021178D01*
X110385145Y-116177184D01*
X110517816Y-116309855D01*
X110673822Y-116414095D01*
X110847166Y-116485896D01*
X111031187Y-116522500D01*
X111218813Y-116522500D01*
X111402834Y-116485896D01*
X111576178Y-116414095D01*
X111604007Y-116395500D01*
X112989450Y-116395500D01*
X113030000Y-116399494D01*
X113070550Y-116395500D01*
X113070553Y-116395500D01*
X113191826Y-116383556D01*
X113347434Y-116336353D01*
X113490842Y-116259699D01*
X113616541Y-116156541D01*
X113642398Y-116125034D01*
X117228376Y-112539056D01*
X117333665Y-112560000D01*
X117616335Y-112560000D01*
X117893574Y-112504853D01*
X118154727Y-112396680D01*
X118389759Y-112239637D01*
X118589637Y-112039759D01*
X118746680Y-111804727D01*
X118785350Y-111711369D01*
X184055737Y-111711369D01*
X184125007Y-111970311D01*
X184307738Y-112364991D01*
X184563956Y-112716438D01*
X184883815Y-113011147D01*
X185255023Y-113237792D01*
X185663315Y-113387663D01*
X186093000Y-113455000D01*
X186563000Y-113455000D01*
X186563000Y-111367000D01*
X186817000Y-111367000D01*
X186817000Y-113455000D01*
X187287000Y-113455000D01*
X187716685Y-113387663D01*
X188124977Y-113237792D01*
X188496185Y-113011147D01*
X188816044Y-112716438D01*
X189072262Y-112364991D01*
X189254993Y-111970311D01*
X189324263Y-111711369D01*
X189212324Y-111367000D01*
X186817000Y-111367000D01*
X186563000Y-111367000D01*
X184167676Y-111367000D01*
X184055737Y-111711369D01*
X118785350Y-111711369D01*
X118854853Y-111543574D01*
X118910000Y-111266335D01*
X118910000Y-110983665D01*
X118854853Y-110706426D01*
X118746680Y-110445273D01*
X118589637Y-110210241D01*
X118389759Y-110010363D01*
X118154727Y-109853320D01*
X117893574Y-109745147D01*
X117616335Y-109690000D01*
X117333665Y-109690000D01*
X117056426Y-109745147D01*
X116795273Y-109853320D01*
X116560241Y-110010363D01*
X116360363Y-110210241D01*
X116226308Y-110410869D01*
X116211671Y-110383486D01*
X115967702Y-110311903D01*
X115154605Y-111125000D01*
X115168748Y-111139143D01*
X114989143Y-111318748D01*
X114975000Y-111304605D01*
X114161903Y-112117702D01*
X114233486Y-112361671D01*
X114488996Y-112482571D01*
X114763184Y-112551300D01*
X114875720Y-112556847D01*
X112688068Y-114744500D01*
X111604007Y-114744500D01*
X111576178Y-114725905D01*
X111402834Y-114654104D01*
X111218813Y-114617500D01*
X111031187Y-114617500D01*
X110847166Y-114654104D01*
X110673822Y-114725905D01*
X110517816Y-114830145D01*
X110385145Y-114962816D01*
X110280905Y-115118822D01*
X110209104Y-115292166D01*
X110172500Y-115476187D01*
X66802000Y-115476187D01*
X66802000Y-112285000D01*
X91956928Y-112285000D01*
X91969188Y-112409482D01*
X92005498Y-112529180D01*
X92064463Y-112639494D01*
X92143815Y-112736185D01*
X92240506Y-112815537D01*
X92350820Y-112874502D01*
X92470518Y-112910812D01*
X92595000Y-112923072D01*
X93059250Y-112920000D01*
X93218000Y-112761250D01*
X93218000Y-111887000D01*
X93472000Y-111887000D01*
X93472000Y-112761250D01*
X93630750Y-112920000D01*
X94095000Y-112923072D01*
X94219482Y-112910812D01*
X94339180Y-112874502D01*
X94449494Y-112815537D01*
X94546185Y-112736185D01*
X94625537Y-112639494D01*
X94684502Y-112529180D01*
X94720812Y-112409482D01*
X94733072Y-112285000D01*
X94730000Y-112045750D01*
X94571250Y-111887000D01*
X93472000Y-111887000D01*
X93218000Y-111887000D01*
X92118750Y-111887000D01*
X91960000Y-112045750D01*
X91956928Y-112285000D01*
X66802000Y-112285000D01*
X66802000Y-110348665D01*
X75400000Y-110348665D01*
X75400000Y-110631335D01*
X75455147Y-110908574D01*
X75563320Y-111169727D01*
X75720363Y-111404759D01*
X75920241Y-111604637D01*
X76155273Y-111761680D01*
X76416426Y-111869853D01*
X76693665Y-111925000D01*
X76976335Y-111925000D01*
X77253574Y-111869853D01*
X77514727Y-111761680D01*
X77749759Y-111604637D01*
X77949637Y-111404759D01*
X78106680Y-111169727D01*
X78214853Y-110908574D01*
X78270000Y-110631335D01*
X78270000Y-110348665D01*
X85560000Y-110348665D01*
X85560000Y-110631335D01*
X85615147Y-110908574D01*
X85723320Y-111169727D01*
X85880363Y-111404759D01*
X86080241Y-111604637D01*
X86315273Y-111761680D01*
X86576426Y-111869853D01*
X86853665Y-111925000D01*
X87136335Y-111925000D01*
X87413574Y-111869853D01*
X87674727Y-111761680D01*
X87909759Y-111604637D01*
X88109637Y-111404759D01*
X88169278Y-111315500D01*
X91957962Y-111315500D01*
X91960000Y-111474250D01*
X92118750Y-111633000D01*
X92891891Y-111633000D01*
X92892600Y-111633215D01*
X93063021Y-111650000D01*
X93626979Y-111650000D01*
X93797400Y-111633215D01*
X93798109Y-111633000D01*
X94571250Y-111633000D01*
X94730000Y-111474250D01*
X94733072Y-111235000D01*
X94720812Y-111110518D01*
X94684502Y-110990820D01*
X94649907Y-110926098D01*
X94713215Y-110717400D01*
X94735612Y-110490000D01*
X94713215Y-110262600D01*
X94646885Y-110043940D01*
X94545895Y-109855000D01*
X94646885Y-109666060D01*
X94713215Y-109447400D01*
X94735612Y-109220000D01*
X100844388Y-109220000D01*
X100866785Y-109447400D01*
X100933115Y-109666060D01*
X101034105Y-109855000D01*
X100933115Y-110043940D01*
X100866785Y-110262600D01*
X100844388Y-110490000D01*
X100866785Y-110717400D01*
X100930093Y-110926098D01*
X100895498Y-110990820D01*
X100859188Y-111110518D01*
X100846928Y-111235000D01*
X100846928Y-112285000D01*
X100859188Y-112409482D01*
X100895498Y-112529180D01*
X100954463Y-112639494D01*
X101033815Y-112736185D01*
X101130506Y-112815537D01*
X101240820Y-112874502D01*
X101360518Y-112910812D01*
X101485000Y-112923072D01*
X102985000Y-112923072D01*
X103109482Y-112910812D01*
X103229180Y-112874502D01*
X103339494Y-112815537D01*
X103436185Y-112736185D01*
X103515537Y-112639494D01*
X103574502Y-112529180D01*
X103610812Y-112409482D01*
X103623072Y-112285000D01*
X103623072Y-111235000D01*
X103619183Y-111195512D01*
X113534783Y-111195512D01*
X113576213Y-111475130D01*
X113671397Y-111741292D01*
X113738329Y-111866514D01*
X113982298Y-111938097D01*
X114795395Y-111125000D01*
X113982298Y-110311903D01*
X113738329Y-110383486D01*
X113617429Y-110638996D01*
X113548700Y-110913184D01*
X113534783Y-111195512D01*
X103619183Y-111195512D01*
X103610812Y-111110518D01*
X103574502Y-110990820D01*
X103539907Y-110926098D01*
X103603215Y-110717400D01*
X103625612Y-110490000D01*
X103603215Y-110262600D01*
X103563689Y-110132298D01*
X114161903Y-110132298D01*
X114975000Y-110945395D01*
X115788097Y-110132298D01*
X115716514Y-109888329D01*
X115461004Y-109767429D01*
X115186816Y-109698700D01*
X114904488Y-109684783D01*
X114624870Y-109726213D01*
X114358708Y-109821397D01*
X114233486Y-109888329D01*
X114161903Y-110132298D01*
X103563689Y-110132298D01*
X103536885Y-110043940D01*
X103435895Y-109855000D01*
X103536885Y-109666060D01*
X103603215Y-109447400D01*
X103625612Y-109220000D01*
X103603215Y-108992600D01*
X103536885Y-108773940D01*
X103429171Y-108572421D01*
X103284212Y-108395788D01*
X103107579Y-108250829D01*
X102906060Y-108143115D01*
X102687400Y-108076785D01*
X102516979Y-108060000D01*
X101953021Y-108060000D01*
X101782600Y-108076785D01*
X101563940Y-108143115D01*
X101362421Y-108250829D01*
X101185788Y-108395788D01*
X101040829Y-108572421D01*
X100933115Y-108773940D01*
X100866785Y-108992600D01*
X100844388Y-109220000D01*
X94735612Y-109220000D01*
X94713215Y-108992600D01*
X94646885Y-108773940D01*
X94539171Y-108572421D01*
X94394212Y-108395788D01*
X94217579Y-108250829D01*
X94016060Y-108143115D01*
X93797400Y-108076785D01*
X93626979Y-108060000D01*
X93063021Y-108060000D01*
X92892600Y-108076785D01*
X92673940Y-108143115D01*
X92472421Y-108250829D01*
X92295788Y-108395788D01*
X92150829Y-108572421D01*
X92043115Y-108773940D01*
X91976785Y-108992600D01*
X91954388Y-109220000D01*
X91976785Y-109447400D01*
X92042642Y-109664500D01*
X88169278Y-109664500D01*
X88109637Y-109575241D01*
X87909759Y-109375363D01*
X87674727Y-109218320D01*
X87413574Y-109110147D01*
X87136335Y-109055000D01*
X86853665Y-109055000D01*
X86576426Y-109110147D01*
X86315273Y-109218320D01*
X86080241Y-109375363D01*
X85880363Y-109575241D01*
X85723320Y-109810273D01*
X85615147Y-110071426D01*
X85560000Y-110348665D01*
X78270000Y-110348665D01*
X78214853Y-110071426D01*
X78106680Y-109810273D01*
X77949637Y-109575241D01*
X77749759Y-109375363D01*
X77514727Y-109218320D01*
X77253574Y-109110147D01*
X76976335Y-109055000D01*
X76693665Y-109055000D01*
X76416426Y-109110147D01*
X76155273Y-109218320D01*
X75920241Y-109375363D01*
X75720363Y-109575241D01*
X75563320Y-109810273D01*
X75455147Y-110071426D01*
X75400000Y-110348665D01*
X66802000Y-110348665D01*
X66802000Y-105131890D01*
X68408524Y-105131890D01*
X68453175Y-105279099D01*
X68578359Y-105541920D01*
X68752412Y-105775269D01*
X68968645Y-105970178D01*
X69218748Y-106119157D01*
X69493109Y-106216481D01*
X69723000Y-106095814D01*
X69723000Y-104902000D01*
X69977000Y-104902000D01*
X69977000Y-106095814D01*
X70206891Y-106216481D01*
X70481252Y-106119157D01*
X70731355Y-105970178D01*
X70947588Y-105775269D01*
X71121641Y-105541920D01*
X71246825Y-105279099D01*
X71291476Y-105131890D01*
X71170155Y-104902000D01*
X69977000Y-104902000D01*
X69723000Y-104902000D01*
X68529845Y-104902000D01*
X68408524Y-105131890D01*
X66802000Y-105131890D01*
X66802000Y-102591890D01*
X68408524Y-102591890D01*
X68453175Y-102739099D01*
X68578359Y-103001920D01*
X68752412Y-103235269D01*
X68968645Y-103430178D01*
X69094255Y-103505000D01*
X68968645Y-103579822D01*
X68752412Y-103774731D01*
X68578359Y-104008080D01*
X68453175Y-104270901D01*
X68408524Y-104418110D01*
X68529845Y-104648000D01*
X69723000Y-104648000D01*
X69723000Y-102362000D01*
X69977000Y-102362000D01*
X69977000Y-104648000D01*
X71170155Y-104648000D01*
X71177720Y-104633665D01*
X91275000Y-104633665D01*
X91275000Y-104916335D01*
X91330147Y-105193574D01*
X91438320Y-105454727D01*
X91595363Y-105689759D01*
X91795241Y-105889637D01*
X92030273Y-106046680D01*
X92291426Y-106154853D01*
X92568665Y-106210000D01*
X92851335Y-106210000D01*
X93128574Y-106154853D01*
X93389727Y-106046680D01*
X93624759Y-105889637D01*
X93824637Y-105689759D01*
X93981680Y-105454727D01*
X94089853Y-105193574D01*
X94145000Y-104916335D01*
X94145000Y-104633665D01*
X101435000Y-104633665D01*
X101435000Y-104916335D01*
X101490147Y-105193574D01*
X101598320Y-105454727D01*
X101755363Y-105689759D01*
X101955241Y-105889637D01*
X102190273Y-106046680D01*
X102451426Y-106154853D01*
X102728665Y-106210000D01*
X103011335Y-106210000D01*
X103288574Y-106154853D01*
X103549727Y-106046680D01*
X103784759Y-105889637D01*
X103984637Y-105689759D01*
X104141680Y-105454727D01*
X104249853Y-105193574D01*
X104305000Y-104916335D01*
X104305000Y-104633665D01*
X105880000Y-104633665D01*
X105880000Y-104916335D01*
X105935147Y-105193574D01*
X106043320Y-105454727D01*
X106200363Y-105689759D01*
X106400241Y-105889637D01*
X106635273Y-106046680D01*
X106896426Y-106154853D01*
X107173665Y-106210000D01*
X107456335Y-106210000D01*
X107733574Y-106154853D01*
X107994727Y-106046680D01*
X108229759Y-105889637D01*
X108429637Y-105689759D01*
X108586680Y-105454727D01*
X108694853Y-105193574D01*
X108750000Y-104916335D01*
X108750000Y-104633665D01*
X116040000Y-104633665D01*
X116040000Y-104916335D01*
X116095147Y-105193574D01*
X116203320Y-105454727D01*
X116360363Y-105689759D01*
X116560241Y-105889637D01*
X116795273Y-106046680D01*
X117056426Y-106154853D01*
X117333665Y-106210000D01*
X117616335Y-106210000D01*
X117893574Y-106154853D01*
X118154727Y-106046680D01*
X118389759Y-105889637D01*
X118589637Y-105689759D01*
X118746680Y-105454727D01*
X118854853Y-105193574D01*
X118910000Y-104916335D01*
X118910000Y-104633665D01*
X118854853Y-104356426D01*
X118746680Y-104095273D01*
X118589637Y-103860241D01*
X118389759Y-103660363D01*
X118154727Y-103503320D01*
X117893574Y-103395147D01*
X117616335Y-103340000D01*
X117333665Y-103340000D01*
X117056426Y-103395147D01*
X116795273Y-103503320D01*
X116560241Y-103660363D01*
X116360363Y-103860241D01*
X116203320Y-104095273D01*
X116095147Y-104356426D01*
X116040000Y-104633665D01*
X108750000Y-104633665D01*
X108694853Y-104356426D01*
X108586680Y-104095273D01*
X108429637Y-103860241D01*
X108229759Y-103660363D01*
X107994727Y-103503320D01*
X107733574Y-103395147D01*
X107456335Y-103340000D01*
X107173665Y-103340000D01*
X106896426Y-103395147D01*
X106635273Y-103503320D01*
X106400241Y-103660363D01*
X106200363Y-103860241D01*
X106043320Y-104095273D01*
X105935147Y-104356426D01*
X105880000Y-104633665D01*
X104305000Y-104633665D01*
X104249853Y-104356426D01*
X104141680Y-104095273D01*
X103984637Y-103860241D01*
X103784759Y-103660363D01*
X103549727Y-103503320D01*
X103288574Y-103395147D01*
X103011335Y-103340000D01*
X102728665Y-103340000D01*
X102451426Y-103395147D01*
X102190273Y-103503320D01*
X101955241Y-103660363D01*
X101755363Y-103860241D01*
X101598320Y-104095273D01*
X101490147Y-104356426D01*
X101435000Y-104633665D01*
X94145000Y-104633665D01*
X94089853Y-104356426D01*
X93981680Y-104095273D01*
X93824637Y-103860241D01*
X93624759Y-103660363D01*
X93389727Y-103503320D01*
X93128574Y-103395147D01*
X92851335Y-103340000D01*
X92568665Y-103340000D01*
X92291426Y-103395147D01*
X92030273Y-103503320D01*
X91795241Y-103660363D01*
X91595363Y-103860241D01*
X91438320Y-104095273D01*
X91330147Y-104356426D01*
X91275000Y-104633665D01*
X71177720Y-104633665D01*
X71291476Y-104418110D01*
X71246825Y-104270901D01*
X71121641Y-104008080D01*
X70947588Y-103774731D01*
X70731355Y-103579822D01*
X70605745Y-103505000D01*
X70731355Y-103430178D01*
X70947588Y-103235269D01*
X71121641Y-103001920D01*
X71246825Y-102739099D01*
X71291476Y-102591890D01*
X71170155Y-102362000D01*
X69977000Y-102362000D01*
X69723000Y-102362000D01*
X68529845Y-102362000D01*
X68408524Y-102591890D01*
X66802000Y-102591890D01*
X66802000Y-96305000D01*
X68361928Y-96305000D01*
X68361928Y-98005000D01*
X68374188Y-98129482D01*
X68410498Y-98249180D01*
X68469463Y-98359494D01*
X68548815Y-98456185D01*
X68645506Y-98535537D01*
X68755820Y-98594502D01*
X68828380Y-98616513D01*
X68696525Y-98748368D01*
X68534010Y-98991589D01*
X68422068Y-99261842D01*
X68365000Y-99548740D01*
X68365000Y-99841260D01*
X68422068Y-100128158D01*
X68534010Y-100398411D01*
X68696525Y-100641632D01*
X68903368Y-100848475D01*
X69085534Y-100970195D01*
X68968645Y-101039822D01*
X68752412Y-101234731D01*
X68578359Y-101468080D01*
X68453175Y-101730901D01*
X68408524Y-101878110D01*
X68529845Y-102108000D01*
X69723000Y-102108000D01*
X69723000Y-102088000D01*
X69977000Y-102088000D01*
X69977000Y-102108000D01*
X71170155Y-102108000D01*
X71291476Y-101878110D01*
X71246825Y-101730901D01*
X71121641Y-101468080D01*
X70947588Y-101234731D01*
X70731355Y-101039822D01*
X70614466Y-100970195D01*
X70796632Y-100848475D01*
X71003475Y-100641632D01*
X71084413Y-100520500D01*
X73953068Y-100520500D01*
X75912574Y-102480007D01*
X75919104Y-102512834D01*
X75990905Y-102686178D01*
X76095145Y-102842184D01*
X76227816Y-102974855D01*
X76383822Y-103079095D01*
X76557166Y-103150896D01*
X76741187Y-103187500D01*
X76928813Y-103187500D01*
X77112834Y-103150896D01*
X77286178Y-103079095D01*
X77442184Y-102974855D01*
X77574855Y-102842184D01*
X77679095Y-102686178D01*
X77750896Y-102512834D01*
X77787500Y-102328813D01*
X77787500Y-102141187D01*
X77750896Y-101957166D01*
X77679095Y-101783822D01*
X77574855Y-101627816D01*
X77442184Y-101495145D01*
X77286178Y-101390905D01*
X77112834Y-101319104D01*
X77080007Y-101312574D01*
X75987433Y-100220000D01*
X91956928Y-100220000D01*
X91969188Y-100344482D01*
X92005498Y-100464180D01*
X92064463Y-100574494D01*
X92143815Y-100671185D01*
X92240506Y-100750537D01*
X92350820Y-100809502D01*
X92470518Y-100845812D01*
X92595000Y-100858072D01*
X93059250Y-100855000D01*
X93218000Y-100696250D01*
X93218000Y-99822000D01*
X93472000Y-99822000D01*
X93472000Y-100696250D01*
X93630750Y-100855000D01*
X94095000Y-100858072D01*
X94219482Y-100845812D01*
X94339180Y-100809502D01*
X94449494Y-100750537D01*
X94546185Y-100671185D01*
X94625537Y-100574494D01*
X94684502Y-100464180D01*
X94720812Y-100344482D01*
X94733072Y-100220000D01*
X94730000Y-99980750D01*
X94571250Y-99822000D01*
X93472000Y-99822000D01*
X93218000Y-99822000D01*
X92118750Y-99822000D01*
X91960000Y-99980750D01*
X91956928Y-100220000D01*
X75987433Y-100220000D01*
X74907398Y-99139966D01*
X74881541Y-99108459D01*
X74755842Y-99005301D01*
X74612434Y-98928647D01*
X74456826Y-98881444D01*
X74335553Y-98869500D01*
X74335550Y-98869500D01*
X74295000Y-98865506D01*
X74254450Y-98869500D01*
X71084413Y-98869500D01*
X71003475Y-98748368D01*
X70871620Y-98616513D01*
X70944180Y-98594502D01*
X71054494Y-98535537D01*
X71151185Y-98456185D01*
X71230537Y-98359494D01*
X71289502Y-98249180D01*
X71325812Y-98129482D01*
X71338072Y-98005000D01*
X71338072Y-97980500D01*
X75223068Y-97980500D01*
X75420944Y-98178376D01*
X75400000Y-98283665D01*
X75400000Y-98566335D01*
X75455147Y-98843574D01*
X75563320Y-99104727D01*
X75720363Y-99339759D01*
X75920241Y-99539637D01*
X76155273Y-99696680D01*
X76416426Y-99804853D01*
X76693665Y-99860000D01*
X76976335Y-99860000D01*
X77253574Y-99804853D01*
X77514727Y-99696680D01*
X77749759Y-99539637D01*
X77949637Y-99339759D01*
X78106680Y-99104727D01*
X78214853Y-98843574D01*
X78270000Y-98566335D01*
X78270000Y-98283665D01*
X85560000Y-98283665D01*
X85560000Y-98566335D01*
X85615147Y-98843574D01*
X85723320Y-99104727D01*
X85880363Y-99339759D01*
X86080241Y-99539637D01*
X86315273Y-99696680D01*
X86576426Y-99804853D01*
X86853665Y-99860000D01*
X87136335Y-99860000D01*
X87413574Y-99804853D01*
X87674727Y-99696680D01*
X87909759Y-99539637D01*
X88109637Y-99339759D01*
X88169278Y-99250500D01*
X91957962Y-99250500D01*
X91960000Y-99409250D01*
X92118750Y-99568000D01*
X92891891Y-99568000D01*
X92892600Y-99568215D01*
X93063021Y-99585000D01*
X93626979Y-99585000D01*
X93797400Y-99568215D01*
X93798109Y-99568000D01*
X94571250Y-99568000D01*
X94730000Y-99409250D01*
X94733072Y-99170000D01*
X94720812Y-99045518D01*
X94684502Y-98925820D01*
X94649907Y-98861098D01*
X94713215Y-98652400D01*
X94735612Y-98425000D01*
X94713215Y-98197600D01*
X94646885Y-97978940D01*
X94545895Y-97790000D01*
X94646885Y-97601060D01*
X94713215Y-97382400D01*
X94735612Y-97155000D01*
X100844388Y-97155000D01*
X100866785Y-97382400D01*
X100933115Y-97601060D01*
X101034105Y-97790000D01*
X100933115Y-97978940D01*
X100866785Y-98197600D01*
X100844388Y-98425000D01*
X100866785Y-98652400D01*
X100930093Y-98861098D01*
X100895498Y-98925820D01*
X100859188Y-99045518D01*
X100846928Y-99170000D01*
X100846928Y-100220000D01*
X100859188Y-100344482D01*
X100895498Y-100464180D01*
X100954463Y-100574494D01*
X101033815Y-100671185D01*
X101130506Y-100750537D01*
X101240820Y-100809502D01*
X101360518Y-100845812D01*
X101485000Y-100858072D01*
X102985000Y-100858072D01*
X103109482Y-100845812D01*
X103229180Y-100809502D01*
X103339494Y-100750537D01*
X103436185Y-100671185D01*
X103515537Y-100574494D01*
X103574502Y-100464180D01*
X103610812Y-100344482D01*
X103623072Y-100220000D01*
X103623072Y-99417702D01*
X114161903Y-99417702D01*
X114233486Y-99661671D01*
X114488996Y-99782571D01*
X114763184Y-99851300D01*
X115045512Y-99865217D01*
X115325130Y-99823787D01*
X115591292Y-99728603D01*
X115716514Y-99661671D01*
X115788097Y-99417702D01*
X114975000Y-98604605D01*
X114161903Y-99417702D01*
X103623072Y-99417702D01*
X103623072Y-99170000D01*
X103610812Y-99045518D01*
X103574502Y-98925820D01*
X103539907Y-98861098D01*
X103603215Y-98652400D01*
X103618667Y-98495512D01*
X113534783Y-98495512D01*
X113576213Y-98775130D01*
X113671397Y-99041292D01*
X113738329Y-99166514D01*
X113982298Y-99238097D01*
X114795395Y-98425000D01*
X115154605Y-98425000D01*
X115967702Y-99238097D01*
X116211671Y-99166514D01*
X116225324Y-99137659D01*
X116360363Y-99339759D01*
X116560241Y-99539637D01*
X116795273Y-99696680D01*
X117056426Y-99804853D01*
X117333665Y-99860000D01*
X117616335Y-99860000D01*
X117893574Y-99804853D01*
X118154727Y-99696680D01*
X118389759Y-99539637D01*
X118589637Y-99339759D01*
X118746680Y-99104727D01*
X118854853Y-98843574D01*
X118910000Y-98566335D01*
X118910000Y-98283665D01*
X118854853Y-98006426D01*
X118746680Y-97745273D01*
X118589637Y-97510241D01*
X118389759Y-97310363D01*
X118154727Y-97153320D01*
X117893574Y-97045147D01*
X117616335Y-96990000D01*
X117333665Y-96990000D01*
X117056426Y-97045147D01*
X116795273Y-97153320D01*
X116560241Y-97310363D01*
X116360363Y-97510241D01*
X116226308Y-97710869D01*
X116211671Y-97683486D01*
X115967702Y-97611903D01*
X115154605Y-98425000D01*
X114795395Y-98425000D01*
X113982298Y-97611903D01*
X113738329Y-97683486D01*
X113617429Y-97938996D01*
X113548700Y-98213184D01*
X113534783Y-98495512D01*
X103618667Y-98495512D01*
X103625612Y-98425000D01*
X103603215Y-98197600D01*
X103537358Y-97980500D01*
X105369450Y-97980500D01*
X105410000Y-97984494D01*
X105450550Y-97980500D01*
X105450553Y-97980500D01*
X105571826Y-97968556D01*
X105727434Y-97921353D01*
X105870842Y-97844699D01*
X105996541Y-97741541D01*
X106022398Y-97710034D01*
X106300134Y-97432298D01*
X114161903Y-97432298D01*
X114975000Y-98245395D01*
X115788097Y-97432298D01*
X115716514Y-97188329D01*
X115461004Y-97067429D01*
X115186816Y-96998700D01*
X114904488Y-96984783D01*
X114624870Y-97026213D01*
X114358708Y-97121397D01*
X114233486Y-97188329D01*
X114161903Y-97432298D01*
X106300134Y-97432298D01*
X107870046Y-95862388D01*
X107901541Y-95836541D01*
X107927389Y-95805045D01*
X107927392Y-95805042D01*
X108004699Y-95710843D01*
X108081353Y-95567434D01*
X108093618Y-95527000D01*
X108128556Y-95411826D01*
X108140500Y-95290553D01*
X108140500Y-95290551D01*
X108144494Y-95250000D01*
X108140500Y-95209450D01*
X108140500Y-93884278D01*
X108229759Y-93824637D01*
X108429637Y-93624759D01*
X108586680Y-93389727D01*
X108694853Y-93128574D01*
X108750000Y-92851335D01*
X108750000Y-92568665D01*
X116040000Y-92568665D01*
X116040000Y-92851335D01*
X116095147Y-93128574D01*
X116203320Y-93389727D01*
X116360363Y-93624759D01*
X116560241Y-93824637D01*
X116795273Y-93981680D01*
X117056426Y-94089853D01*
X117333665Y-94145000D01*
X117616335Y-94145000D01*
X117893574Y-94089853D01*
X118154727Y-93981680D01*
X118389759Y-93824637D01*
X118589637Y-93624759D01*
X118746680Y-93389727D01*
X118804065Y-93251187D01*
X123507500Y-93251187D01*
X123507500Y-93438813D01*
X123544104Y-93622834D01*
X123615905Y-93796178D01*
X123634500Y-93824007D01*
X123634501Y-103464440D01*
X123630506Y-103505000D01*
X123646445Y-103666826D01*
X123693647Y-103822433D01*
X123722910Y-103877179D01*
X123698000Y-104002408D01*
X123698000Y-104277592D01*
X123751686Y-104547490D01*
X123856995Y-104801727D01*
X124009880Y-105030535D01*
X124204465Y-105225120D01*
X124433273Y-105378005D01*
X124687510Y-105483314D01*
X124957408Y-105537000D01*
X125232592Y-105537000D01*
X125502490Y-105483314D01*
X125756727Y-105378005D01*
X125985535Y-105225120D01*
X126180120Y-105030535D01*
X126333005Y-104801727D01*
X126438314Y-104547490D01*
X126492000Y-104277592D01*
X126492000Y-104002408D01*
X168148000Y-104002408D01*
X168148000Y-104277592D01*
X168201686Y-104547490D01*
X168306995Y-104801727D01*
X168459880Y-105030535D01*
X168654465Y-105225120D01*
X168883273Y-105378005D01*
X169137510Y-105483314D01*
X169407408Y-105537000D01*
X169682592Y-105537000D01*
X169952490Y-105483314D01*
X170129485Y-105410000D01*
X172828950Y-105410000D01*
X175552863Y-108133914D01*
X175592630Y-108182370D01*
X175786012Y-108341075D01*
X176006641Y-108459003D01*
X176246037Y-108531623D01*
X176495000Y-108556144D01*
X176557380Y-108550000D01*
X184396842Y-108550000D01*
X184646180Y-108853820D01*
X184983458Y-109130616D01*
X185225713Y-109260104D01*
X184883815Y-109468853D01*
X184563956Y-109763562D01*
X184307738Y-110115009D01*
X184125007Y-110509689D01*
X184055737Y-110768631D01*
X184167676Y-111113000D01*
X186563000Y-111113000D01*
X186563000Y-111093000D01*
X186817000Y-111093000D01*
X186817000Y-111113000D01*
X189212324Y-111113000D01*
X189324263Y-110768631D01*
X189254993Y-110509689D01*
X189072262Y-110115009D01*
X188816044Y-109763562D01*
X188496185Y-109468853D01*
X188154287Y-109260104D01*
X188396542Y-109130616D01*
X188733820Y-108853820D01*
X189010616Y-108516542D01*
X189216294Y-108131745D01*
X189342950Y-107714216D01*
X189385717Y-107280000D01*
X189342950Y-106845784D01*
X189216294Y-106428255D01*
X189010616Y-106043458D01*
X188733820Y-105706180D01*
X188396542Y-105429384D01*
X188154287Y-105299896D01*
X188496185Y-105091147D01*
X188816044Y-104796438D01*
X189072262Y-104444991D01*
X189254993Y-104050311D01*
X189324263Y-103791369D01*
X189212324Y-103447000D01*
X186817000Y-103447000D01*
X186817000Y-103467000D01*
X186563000Y-103467000D01*
X186563000Y-103447000D01*
X184167676Y-103447000D01*
X184055737Y-103791369D01*
X184125007Y-104050311D01*
X184307738Y-104444991D01*
X184563956Y-104796438D01*
X184883815Y-105091147D01*
X185225713Y-105299896D01*
X184983458Y-105429384D01*
X184646180Y-105706180D01*
X184396842Y-106010000D01*
X177021051Y-106010000D01*
X174297141Y-103286091D01*
X174257370Y-103237630D01*
X174063988Y-103078925D01*
X173843359Y-102960997D01*
X173603963Y-102888377D01*
X173417380Y-102870000D01*
X173417373Y-102870000D01*
X173355000Y-102863857D01*
X173292627Y-102870000D01*
X170129485Y-102870000D01*
X169952490Y-102796686D01*
X169682592Y-102743000D01*
X169407408Y-102743000D01*
X169137510Y-102796686D01*
X168883273Y-102901995D01*
X168654465Y-103054880D01*
X168459880Y-103249465D01*
X168306995Y-103478273D01*
X168201686Y-103732510D01*
X168148000Y-104002408D01*
X126492000Y-104002408D01*
X126438314Y-103732510D01*
X126333005Y-103478273D01*
X126180120Y-103249465D01*
X125985535Y-103054880D01*
X125756727Y-102901995D01*
X125502490Y-102796686D01*
X125285500Y-102753524D01*
X125285500Y-98120565D01*
X128119040Y-98120565D01*
X128186020Y-98360656D01*
X128435048Y-98477756D01*
X128702135Y-98544023D01*
X128977017Y-98556910D01*
X129249133Y-98515922D01*
X129508023Y-98422636D01*
X129623980Y-98360656D01*
X129690960Y-98120565D01*
X167997040Y-98120565D01*
X168064020Y-98360656D01*
X168313048Y-98477756D01*
X168580135Y-98544023D01*
X168855017Y-98556910D01*
X169127133Y-98515922D01*
X169386023Y-98422636D01*
X169501980Y-98360656D01*
X169568960Y-98120565D01*
X168783000Y-97334605D01*
X167997040Y-98120565D01*
X129690960Y-98120565D01*
X128905000Y-97334605D01*
X128119040Y-98120565D01*
X125285500Y-98120565D01*
X125285500Y-97227017D01*
X127503090Y-97227017D01*
X127544078Y-97499133D01*
X127637364Y-97758023D01*
X127699344Y-97873980D01*
X127939435Y-97940960D01*
X128725395Y-97155000D01*
X129084605Y-97155000D01*
X129870565Y-97940960D01*
X130110656Y-97873980D01*
X130227756Y-97624952D01*
X130294023Y-97357865D01*
X130300157Y-97227017D01*
X167381090Y-97227017D01*
X167422078Y-97499133D01*
X167515364Y-97758023D01*
X167577344Y-97873980D01*
X167817435Y-97940960D01*
X168603395Y-97155000D01*
X168962605Y-97155000D01*
X169748565Y-97940960D01*
X169988656Y-97873980D01*
X170105756Y-97624952D01*
X170172023Y-97357865D01*
X170184910Y-97082983D01*
X170143922Y-96810867D01*
X170050636Y-96551977D01*
X169988656Y-96436020D01*
X169748565Y-96369040D01*
X168962605Y-97155000D01*
X168603395Y-97155000D01*
X167817435Y-96369040D01*
X167577344Y-96436020D01*
X167460244Y-96685048D01*
X167393977Y-96952135D01*
X167381090Y-97227017D01*
X130300157Y-97227017D01*
X130306910Y-97082983D01*
X130265922Y-96810867D01*
X130172636Y-96551977D01*
X130110656Y-96436020D01*
X129870565Y-96369040D01*
X129084605Y-97155000D01*
X128725395Y-97155000D01*
X127939435Y-96369040D01*
X127699344Y-96436020D01*
X127582244Y-96685048D01*
X127515977Y-96952135D01*
X127503090Y-97227017D01*
X125285500Y-97227017D01*
X125285500Y-96189435D01*
X128119040Y-96189435D01*
X128905000Y-96975395D01*
X129690960Y-96189435D01*
X167997040Y-96189435D01*
X168783000Y-96975395D01*
X169568960Y-96189435D01*
X169501980Y-95949344D01*
X169252952Y-95832244D01*
X168985865Y-95765977D01*
X168710983Y-95753090D01*
X168438867Y-95794078D01*
X168179977Y-95887364D01*
X168064020Y-95949344D01*
X167997040Y-96189435D01*
X129690960Y-96189435D01*
X129623980Y-95949344D01*
X129374952Y-95832244D01*
X129107865Y-95765977D01*
X128832983Y-95753090D01*
X128560867Y-95794078D01*
X128301977Y-95887364D01*
X128186020Y-95949344D01*
X128119040Y-96189435D01*
X125285500Y-96189435D01*
X125285500Y-93824007D01*
X125304095Y-93796178D01*
X125375896Y-93622834D01*
X125412500Y-93438813D01*
X125412500Y-93251187D01*
X125375896Y-93067166D01*
X125304095Y-92893822D01*
X125199855Y-92737816D01*
X125067184Y-92605145D01*
X124911178Y-92500905D01*
X124737834Y-92429104D01*
X124553813Y-92392500D01*
X124366187Y-92392500D01*
X124182166Y-92429104D01*
X124008822Y-92500905D01*
X123852816Y-92605145D01*
X123720145Y-92737816D01*
X123615905Y-92893822D01*
X123544104Y-93067166D01*
X123507500Y-93251187D01*
X118804065Y-93251187D01*
X118854853Y-93128574D01*
X118910000Y-92851335D01*
X118910000Y-92568665D01*
X118854853Y-92291426D01*
X118746680Y-92030273D01*
X118589637Y-91795241D01*
X118389759Y-91595363D01*
X118154727Y-91438320D01*
X117893574Y-91330147D01*
X117616335Y-91275000D01*
X117333665Y-91275000D01*
X117056426Y-91330147D01*
X116795273Y-91438320D01*
X116560241Y-91595363D01*
X116360363Y-91795241D01*
X116203320Y-92030273D01*
X116095147Y-92291426D01*
X116040000Y-92568665D01*
X108750000Y-92568665D01*
X108694853Y-92291426D01*
X108586680Y-92030273D01*
X108429637Y-91795241D01*
X108229759Y-91595363D01*
X107994727Y-91438320D01*
X107733574Y-91330147D01*
X107456335Y-91275000D01*
X107173665Y-91275000D01*
X106896426Y-91330147D01*
X106635273Y-91438320D01*
X106400241Y-91595363D01*
X106200363Y-91795241D01*
X106043320Y-92030273D01*
X105935147Y-92291426D01*
X105880000Y-92568665D01*
X105880000Y-92851335D01*
X105935147Y-93128574D01*
X106043320Y-93389727D01*
X106200363Y-93624759D01*
X106400241Y-93824637D01*
X106489501Y-93884278D01*
X106489500Y-94908066D01*
X105068068Y-96329500D01*
X103282643Y-96329500D01*
X103107579Y-96185829D01*
X102906060Y-96078115D01*
X102687400Y-96011785D01*
X102516979Y-95995000D01*
X101953021Y-95995000D01*
X101782600Y-96011785D01*
X101563940Y-96078115D01*
X101362421Y-96185829D01*
X101185788Y-96330788D01*
X101040829Y-96507421D01*
X100933115Y-96708940D01*
X100866785Y-96927600D01*
X100844388Y-97155000D01*
X94735612Y-97155000D01*
X94713215Y-96927600D01*
X94646885Y-96708940D01*
X94539171Y-96507421D01*
X94394212Y-96330788D01*
X94217579Y-96185829D01*
X94016060Y-96078115D01*
X93797400Y-96011785D01*
X93626979Y-95995000D01*
X93063021Y-95995000D01*
X92892600Y-96011785D01*
X92673940Y-96078115D01*
X92472421Y-96185829D01*
X92295788Y-96330788D01*
X92150829Y-96507421D01*
X92043115Y-96708940D01*
X91976785Y-96927600D01*
X91954388Y-97155000D01*
X91976785Y-97382400D01*
X92042642Y-97599500D01*
X88169278Y-97599500D01*
X88109637Y-97510241D01*
X87909759Y-97310363D01*
X87674727Y-97153320D01*
X87413574Y-97045147D01*
X87136335Y-96990000D01*
X86853665Y-96990000D01*
X86576426Y-97045147D01*
X86315273Y-97153320D01*
X86080241Y-97310363D01*
X85880363Y-97510241D01*
X85723320Y-97745273D01*
X85615147Y-98006426D01*
X85560000Y-98283665D01*
X78270000Y-98283665D01*
X78214853Y-98006426D01*
X78106680Y-97745273D01*
X77949637Y-97510241D01*
X77749759Y-97310363D01*
X77514727Y-97153320D01*
X77253574Y-97045147D01*
X76976335Y-96990000D01*
X76693665Y-96990000D01*
X76588376Y-97010944D01*
X76177398Y-96599966D01*
X76151541Y-96568459D01*
X76025842Y-96465301D01*
X75882434Y-96388647D01*
X75726826Y-96341444D01*
X75605553Y-96329500D01*
X75605550Y-96329500D01*
X75565000Y-96325506D01*
X75524450Y-96329500D01*
X71338072Y-96329500D01*
X71338072Y-96305000D01*
X71325812Y-96180518D01*
X71289502Y-96060820D01*
X71230537Y-95950506D01*
X71151185Y-95853815D01*
X71054494Y-95774463D01*
X70944180Y-95715498D01*
X70824482Y-95679188D01*
X70700000Y-95666928D01*
X69000000Y-95666928D01*
X68875518Y-95679188D01*
X68755820Y-95715498D01*
X68645506Y-95774463D01*
X68548815Y-95853815D01*
X68469463Y-95950506D01*
X68410498Y-96060820D01*
X68374188Y-96180518D01*
X68361928Y-96305000D01*
X66802000Y-96305000D01*
X66802000Y-92568665D01*
X91275000Y-92568665D01*
X91275000Y-92851335D01*
X91330147Y-93128574D01*
X91438320Y-93389727D01*
X91595363Y-93624759D01*
X91795241Y-93824637D01*
X92030273Y-93981680D01*
X92291426Y-94089853D01*
X92568665Y-94145000D01*
X92851335Y-94145000D01*
X93128574Y-94089853D01*
X93389727Y-93981680D01*
X93624759Y-93824637D01*
X93824637Y-93624759D01*
X93981680Y-93389727D01*
X94089853Y-93128574D01*
X94145000Y-92851335D01*
X94145000Y-92568665D01*
X101435000Y-92568665D01*
X101435000Y-92851335D01*
X101490147Y-93128574D01*
X101598320Y-93389727D01*
X101755363Y-93624759D01*
X101955241Y-93824637D01*
X102190273Y-93981680D01*
X102451426Y-94089853D01*
X102728665Y-94145000D01*
X103011335Y-94145000D01*
X103288574Y-94089853D01*
X103549727Y-93981680D01*
X103784759Y-93824637D01*
X103984637Y-93624759D01*
X104141680Y-93389727D01*
X104249853Y-93128574D01*
X104305000Y-92851335D01*
X104305000Y-92568665D01*
X104249853Y-92291426D01*
X104141680Y-92030273D01*
X103984637Y-91795241D01*
X103784759Y-91595363D01*
X103549727Y-91438320D01*
X103288574Y-91330147D01*
X103011335Y-91275000D01*
X102728665Y-91275000D01*
X102451426Y-91330147D01*
X102190273Y-91438320D01*
X101955241Y-91595363D01*
X101755363Y-91795241D01*
X101598320Y-92030273D01*
X101490147Y-92291426D01*
X101435000Y-92568665D01*
X94145000Y-92568665D01*
X94089853Y-92291426D01*
X93981680Y-92030273D01*
X93824637Y-91795241D01*
X93624759Y-91595363D01*
X93389727Y-91438320D01*
X93128574Y-91330147D01*
X92851335Y-91275000D01*
X92568665Y-91275000D01*
X92291426Y-91330147D01*
X92030273Y-91438320D01*
X91795241Y-91595363D01*
X91595363Y-91795241D01*
X91438320Y-92030273D01*
X91330147Y-92291426D01*
X91275000Y-92568665D01*
X66802000Y-92568665D01*
X66802000Y-89257702D01*
X91896903Y-89257702D01*
X91968486Y-89501671D01*
X92223996Y-89622571D01*
X92498184Y-89691300D01*
X92780512Y-89705217D01*
X93060130Y-89663787D01*
X93326292Y-89568603D01*
X93451514Y-89501671D01*
X93523097Y-89257702D01*
X92710000Y-88444605D01*
X91896903Y-89257702D01*
X66802000Y-89257702D01*
X66802000Y-88335512D01*
X91269783Y-88335512D01*
X91311213Y-88615130D01*
X91406397Y-88881292D01*
X91473329Y-89006514D01*
X91717298Y-89078097D01*
X92530395Y-88265000D01*
X92889605Y-88265000D01*
X93702702Y-89078097D01*
X93946671Y-89006514D01*
X94067571Y-88751004D01*
X94136300Y-88476816D01*
X94150217Y-88194488D01*
X94139724Y-88123665D01*
X101435000Y-88123665D01*
X101435000Y-88406335D01*
X101490147Y-88683574D01*
X101598320Y-88944727D01*
X101755363Y-89179759D01*
X101955241Y-89379637D01*
X102190273Y-89536680D01*
X102451426Y-89644853D01*
X102728665Y-89700000D01*
X103011335Y-89700000D01*
X103288574Y-89644853D01*
X103549727Y-89536680D01*
X103784759Y-89379637D01*
X103984637Y-89179759D01*
X104141680Y-88944727D01*
X104249853Y-88683574D01*
X104305000Y-88406335D01*
X104305000Y-88123665D01*
X105880000Y-88123665D01*
X105880000Y-88406335D01*
X105935147Y-88683574D01*
X106043320Y-88944727D01*
X106200363Y-89179759D01*
X106400241Y-89379637D01*
X106635273Y-89536680D01*
X106896426Y-89644853D01*
X107173665Y-89700000D01*
X107456335Y-89700000D01*
X107733574Y-89644853D01*
X107994727Y-89536680D01*
X108229759Y-89379637D01*
X108351694Y-89257702D01*
X116661903Y-89257702D01*
X116733486Y-89501671D01*
X116988996Y-89622571D01*
X117263184Y-89691300D01*
X117545512Y-89705217D01*
X117825130Y-89663787D01*
X118091292Y-89568603D01*
X118216514Y-89501671D01*
X118288097Y-89257702D01*
X117475000Y-88444605D01*
X116661903Y-89257702D01*
X108351694Y-89257702D01*
X108429637Y-89179759D01*
X108586680Y-88944727D01*
X108694853Y-88683574D01*
X108750000Y-88406335D01*
X108750000Y-88335512D01*
X116034783Y-88335512D01*
X116076213Y-88615130D01*
X116171397Y-88881292D01*
X116238329Y-89006514D01*
X116482298Y-89078097D01*
X117295395Y-88265000D01*
X117654605Y-88265000D01*
X118467702Y-89078097D01*
X118711671Y-89006514D01*
X118832571Y-88751004D01*
X118901300Y-88476816D01*
X118915217Y-88194488D01*
X118873787Y-87914870D01*
X118778603Y-87648708D01*
X118711671Y-87523486D01*
X118467702Y-87451903D01*
X117654605Y-88265000D01*
X117295395Y-88265000D01*
X116482298Y-87451903D01*
X116238329Y-87523486D01*
X116117429Y-87778996D01*
X116048700Y-88053184D01*
X116034783Y-88335512D01*
X108750000Y-88335512D01*
X108750000Y-88123665D01*
X108694853Y-87846426D01*
X108586680Y-87585273D01*
X108429637Y-87350241D01*
X108351694Y-87272298D01*
X116661903Y-87272298D01*
X117475000Y-88085395D01*
X118288097Y-87272298D01*
X118216514Y-87028329D01*
X117961004Y-86907429D01*
X117686816Y-86838700D01*
X117404488Y-86824783D01*
X117124870Y-86866213D01*
X116858708Y-86961397D01*
X116733486Y-87028329D01*
X116661903Y-87272298D01*
X108351694Y-87272298D01*
X108229759Y-87150363D01*
X107994727Y-86993320D01*
X107733574Y-86885147D01*
X107456335Y-86830000D01*
X107173665Y-86830000D01*
X106896426Y-86885147D01*
X106635273Y-86993320D01*
X106400241Y-87150363D01*
X106200363Y-87350241D01*
X106043320Y-87585273D01*
X105935147Y-87846426D01*
X105880000Y-88123665D01*
X104305000Y-88123665D01*
X104249853Y-87846426D01*
X104141680Y-87585273D01*
X103984637Y-87350241D01*
X103784759Y-87150363D01*
X103549727Y-86993320D01*
X103288574Y-86885147D01*
X103011335Y-86830000D01*
X102728665Y-86830000D01*
X102451426Y-86885147D01*
X102190273Y-86993320D01*
X101955241Y-87150363D01*
X101755363Y-87350241D01*
X101598320Y-87585273D01*
X101490147Y-87846426D01*
X101435000Y-88123665D01*
X94139724Y-88123665D01*
X94108787Y-87914870D01*
X94013603Y-87648708D01*
X93946671Y-87523486D01*
X93702702Y-87451903D01*
X92889605Y-88265000D01*
X92530395Y-88265000D01*
X91717298Y-87451903D01*
X91473329Y-87523486D01*
X91352429Y-87778996D01*
X91283700Y-88053184D01*
X91269783Y-88335512D01*
X66802000Y-88335512D01*
X66802000Y-87272298D01*
X91896903Y-87272298D01*
X92710000Y-88085395D01*
X93523097Y-87272298D01*
X93451514Y-87028329D01*
X93196004Y-86907429D01*
X92921816Y-86838700D01*
X92639488Y-86824783D01*
X92359870Y-86866213D01*
X92093708Y-86961397D01*
X91968486Y-87028329D01*
X91896903Y-87272298D01*
X66802000Y-87272298D01*
X66802000Y-82558726D01*
X66820611Y-82603657D01*
X67273136Y-83280909D01*
X67849091Y-83856864D01*
X68526343Y-84309389D01*
X69278865Y-84621094D01*
X70077738Y-84780000D01*
X70892262Y-84780000D01*
X71691135Y-84621094D01*
X72443657Y-84309389D01*
X73120909Y-83856864D01*
X73696864Y-83280909D01*
X74149389Y-82603657D01*
X74461094Y-81851135D01*
X74620000Y-81052262D01*
X74620000Y-80237738D01*
X74461094Y-79438865D01*
X74149389Y-78686343D01*
X73696864Y-78009091D01*
X73120909Y-77433136D01*
X72443657Y-76980611D01*
X72398726Y-76962000D01*
X78576950Y-76962000D01*
X78521086Y-77017864D01*
G37*
X78521086Y-77017864D02*
X78472631Y-77057630D01*
X78313926Y-77251012D01*
X78276021Y-77321928D01*
X78045000Y-77321928D01*
X77871746Y-77338992D01*
X77705150Y-77389528D01*
X77551614Y-77471595D01*
X77417038Y-77582038D01*
X77306595Y-77716614D01*
X77224528Y-77870150D01*
X77173992Y-78036746D01*
X77156928Y-78210000D01*
X77156928Y-81810000D01*
X77173992Y-81983254D01*
X77224528Y-82149850D01*
X77306595Y-82303386D01*
X77417038Y-82437962D01*
X77551614Y-82548405D01*
X77705150Y-82630472D01*
X77871746Y-82681008D01*
X78045000Y-82698072D01*
X80705000Y-82698072D01*
X80878254Y-82681008D01*
X81044850Y-82630472D01*
X81198386Y-82548405D01*
X81332962Y-82437962D01*
X81443405Y-82303386D01*
X81525472Y-82149850D01*
X81576008Y-81983254D01*
X81589700Y-81844238D01*
X81858562Y-82136044D01*
X82210009Y-82392262D01*
X82604689Y-82574993D01*
X82863631Y-82644263D01*
X83208000Y-82532324D01*
X83208000Y-80137000D01*
X83462000Y-80137000D01*
X83462000Y-82532324D01*
X83806369Y-82644263D01*
X84065311Y-82574993D01*
X84459991Y-82392262D01*
X84811438Y-82136044D01*
X85106147Y-81816185D01*
X85332792Y-81444977D01*
X85482663Y-81036685D01*
X85550000Y-80607000D01*
X85550000Y-80137000D01*
X83462000Y-80137000D01*
X83208000Y-80137000D01*
X83188000Y-80137000D01*
X83188000Y-79883000D01*
X83208000Y-79883000D01*
X83208000Y-79863000D01*
X83462000Y-79863000D01*
X83462000Y-79883000D01*
X85550000Y-79883000D01*
X85550000Y-79413000D01*
X85482663Y-78983315D01*
X85332792Y-78575023D01*
X85169642Y-78307810D01*
X87306760Y-78307810D01*
X88586928Y-79587979D01*
X88586928Y-81810000D01*
X88603992Y-81983254D01*
X88654528Y-82149850D01*
X88736595Y-82303386D01*
X88847038Y-82437962D01*
X88981614Y-82548405D01*
X89135150Y-82630472D01*
X89301746Y-82681008D01*
X89475000Y-82698072D01*
X92135000Y-82698072D01*
X92308254Y-82681008D01*
X92474850Y-82630472D01*
X92628386Y-82548405D01*
X92762962Y-82437962D01*
X92873405Y-82303386D01*
X92955472Y-82149850D01*
X93006008Y-81983254D01*
X93019644Y-81844801D01*
X93191181Y-82053820D01*
X93528459Y-82330616D01*
X93913256Y-82536294D01*
X94330785Y-82662950D01*
X94765000Y-82705717D01*
X95199216Y-82662950D01*
X95616745Y-82536294D01*
X96001542Y-82330616D01*
X96338820Y-82053820D01*
X96615616Y-81716542D01*
X96821294Y-81331744D01*
X96947950Y-80914215D01*
X96980000Y-80588809D01*
X96980000Y-80380000D01*
X98156928Y-80380000D01*
X98156928Y-82180000D01*
X98169188Y-82304482D01*
X98205498Y-82424180D01*
X98264463Y-82534494D01*
X98343815Y-82631185D01*
X98440506Y-82710537D01*
X98550820Y-82769502D01*
X98670518Y-82805812D01*
X98795000Y-82818072D01*
X100595000Y-82818072D01*
X100719482Y-82805812D01*
X100839180Y-82769502D01*
X100949494Y-82710537D01*
X101046185Y-82631185D01*
X101125537Y-82534494D01*
X101184502Y-82424180D01*
X101190056Y-82405873D01*
X101256495Y-82472312D01*
X101507905Y-82640299D01*
X101787257Y-82756011D01*
X102083816Y-82815000D01*
X102386184Y-82815000D01*
X102566667Y-82779100D01*
X105432611Y-85645045D01*
X105458459Y-85676541D01*
X105489955Y-85702389D01*
X105489958Y-85702392D01*
X105584157Y-85779699D01*
X105727566Y-85856353D01*
X105883174Y-85903556D01*
X106004447Y-85915500D01*
X106004449Y-85915500D01*
X106045000Y-85919494D01*
X106085550Y-85915500D01*
X116799450Y-85915500D01*
X116840000Y-85919494D01*
X116880550Y-85915500D01*
X116880553Y-85915500D01*
X117001826Y-85903556D01*
X117157434Y-85856353D01*
X117300842Y-85779699D01*
X117426541Y-85676541D01*
X117452398Y-85645034D01*
X118966449Y-84130983D01*
X119068797Y-84162030D01*
X119380000Y-84192681D01*
X119691204Y-84162030D01*
X119990449Y-84071255D01*
X120266235Y-83923845D01*
X120392770Y-83820000D01*
X125667627Y-83820000D01*
X125730000Y-83826143D01*
X125792373Y-83820000D01*
X125792380Y-83820000D01*
X125978963Y-83801623D01*
X126218359Y-83729003D01*
X126438988Y-83611075D01*
X126632370Y-83452370D01*
X126672141Y-83403909D01*
X129389732Y-80686319D01*
X129566727Y-80613005D01*
X129795535Y-80460120D01*
X129990120Y-80265535D01*
X130143005Y-80036727D01*
X130248314Y-79782490D01*
X130302000Y-79512592D01*
X130302000Y-79237408D01*
X167386000Y-79237408D01*
X167386000Y-79512592D01*
X167439686Y-79782490D01*
X167544995Y-80036727D01*
X167697880Y-80265535D01*
X167892465Y-80460120D01*
X168121273Y-80613005D01*
X168375510Y-80718314D01*
X168645408Y-80772000D01*
X168920592Y-80772000D01*
X169190490Y-80718314D01*
X169367485Y-80645000D01*
X171558950Y-80645000D01*
X177165000Y-86251051D01*
X177165001Y-95822617D01*
X177158857Y-95885000D01*
X177183377Y-96133963D01*
X177243084Y-96330788D01*
X177255998Y-96373359D01*
X177373926Y-96593988D01*
X177532631Y-96787370D01*
X177581087Y-96827137D01*
X180967863Y-100213914D01*
X181007630Y-100262370D01*
X181201012Y-100421075D01*
X181421641Y-100539003D01*
X181588416Y-100589594D01*
X181661036Y-100611623D01*
X181686755Y-100614156D01*
X181847620Y-100630000D01*
X181847626Y-100630000D01*
X181909999Y-100636143D01*
X181972372Y-100630000D01*
X184396842Y-100630000D01*
X184646180Y-100933820D01*
X184983458Y-101210616D01*
X185225713Y-101340104D01*
X184883815Y-101548853D01*
X184563956Y-101843562D01*
X184307738Y-102195009D01*
X184125007Y-102589689D01*
X184055737Y-102848631D01*
X184167676Y-103193000D01*
X186563000Y-103193000D01*
X186563000Y-103173000D01*
X186817000Y-103173000D01*
X186817000Y-103193000D01*
X189212324Y-103193000D01*
X189324263Y-102848631D01*
X189254993Y-102589689D01*
X189072262Y-102195009D01*
X188816044Y-101843562D01*
X188496185Y-101548853D01*
X188154287Y-101340104D01*
X188396542Y-101210616D01*
X188733820Y-100933820D01*
X189010616Y-100596542D01*
X189216294Y-100211745D01*
X189342950Y-99794216D01*
X189385717Y-99360000D01*
X189342950Y-98925784D01*
X189216294Y-98508255D01*
X189010616Y-98123458D01*
X188733820Y-97786180D01*
X188396542Y-97509384D01*
X188154287Y-97379896D01*
X188496185Y-97171147D01*
X188816044Y-96876438D01*
X189072262Y-96524991D01*
X189254993Y-96130311D01*
X189324263Y-95871369D01*
X189212324Y-95527000D01*
X186817000Y-95527000D01*
X186817000Y-95547000D01*
X186563000Y-95547000D01*
X186563000Y-95527000D01*
X184167676Y-95527000D01*
X184055737Y-95871369D01*
X184125007Y-96130311D01*
X184307738Y-96524991D01*
X184563956Y-96876438D01*
X184883815Y-97171147D01*
X185225713Y-97379896D01*
X184983458Y-97509384D01*
X184646180Y-97786180D01*
X184396842Y-98090000D01*
X182436051Y-98090000D01*
X179705000Y-95358950D01*
X179705000Y-90110000D01*
X184001928Y-90110000D01*
X184001928Y-92770000D01*
X184018992Y-92943254D01*
X184069528Y-93109850D01*
X184151595Y-93263386D01*
X184262038Y-93397962D01*
X184396614Y-93508405D01*
X184550150Y-93590472D01*
X184716746Y-93641008D01*
X184855762Y-93654700D01*
X184563956Y-93923562D01*
X184307738Y-94275009D01*
X184125007Y-94669689D01*
X184055737Y-94928631D01*
X184167676Y-95273000D01*
X186563000Y-95273000D01*
X186563000Y-95253000D01*
X186817000Y-95253000D01*
X186817000Y-95273000D01*
X189212324Y-95273000D01*
X189324263Y-94928631D01*
X189254993Y-94669689D01*
X189072262Y-94275009D01*
X188816044Y-93923562D01*
X188524238Y-93654700D01*
X188663254Y-93641008D01*
X188829850Y-93590472D01*
X188983386Y-93508405D01*
X189117962Y-93397962D01*
X189228405Y-93263386D01*
X189310472Y-93109850D01*
X189361008Y-92943254D01*
X189378072Y-92770000D01*
X189378072Y-90110000D01*
X189361008Y-89936746D01*
X189310472Y-89770150D01*
X189228405Y-89616614D01*
X189117962Y-89482038D01*
X188983386Y-89371595D01*
X188829850Y-89289528D01*
X188663254Y-89238992D01*
X188490000Y-89221928D01*
X184890000Y-89221928D01*
X184716746Y-89238992D01*
X184550150Y-89289528D01*
X184396614Y-89371595D01*
X184262038Y-89482038D01*
X184151595Y-89616614D01*
X184069528Y-89770150D01*
X184018992Y-89936746D01*
X184001928Y-90110000D01*
X179705000Y-90110000D01*
X179705000Y-85787372D01*
X179711143Y-85724999D01*
X179705000Y-85662626D01*
X179705000Y-85662620D01*
X179686623Y-85476037D01*
X179614003Y-85236641D01*
X179496075Y-85016012D01*
X179337370Y-84822630D01*
X179288915Y-84782864D01*
X173027141Y-78521091D01*
X172987370Y-78472630D01*
X172793988Y-78313925D01*
X172573359Y-78195997D01*
X172333963Y-78123377D01*
X172147380Y-78105000D01*
X172147373Y-78105000D01*
X172085000Y-78098857D01*
X172022627Y-78105000D01*
X169367485Y-78105000D01*
X169190490Y-78031686D01*
X168920592Y-77978000D01*
X168645408Y-77978000D01*
X168375510Y-78031686D01*
X168121273Y-78136995D01*
X167892465Y-78289880D01*
X167697880Y-78484465D01*
X167544995Y-78713273D01*
X167439686Y-78967510D01*
X167386000Y-79237408D01*
X130302000Y-79237408D01*
X130248314Y-78967510D01*
X130143005Y-78713273D01*
X129990120Y-78484465D01*
X129795535Y-78289880D01*
X129566727Y-78136995D01*
X129312490Y-78031686D01*
X129042592Y-77978000D01*
X128767408Y-77978000D01*
X128497510Y-78031686D01*
X128243273Y-78136995D01*
X128014465Y-78289880D01*
X127819880Y-78484465D01*
X127666995Y-78713273D01*
X127593681Y-78890268D01*
X125203950Y-81280000D01*
X120392769Y-81280000D01*
X120266234Y-81176155D01*
X119990448Y-81028745D01*
X119691203Y-80937970D01*
X119380000Y-80907319D01*
X119068796Y-80937970D01*
X118769551Y-81028745D01*
X118493765Y-81176155D01*
X118252037Y-81374537D01*
X118110000Y-81547609D01*
X117967963Y-81374537D01*
X117726234Y-81176155D01*
X117450448Y-81028745D01*
X117151203Y-80937970D01*
X116840000Y-80907319D01*
X116528796Y-80937970D01*
X116229551Y-81028745D01*
X115953765Y-81176155D01*
X115827905Y-81279446D01*
X115783037Y-81195506D01*
X115703685Y-81098815D01*
X115606994Y-81019463D01*
X115496680Y-80960498D01*
X115376982Y-80924188D01*
X115252500Y-80911928D01*
X113347500Y-80911928D01*
X113223018Y-80924188D01*
X113103320Y-80960498D01*
X112993006Y-81019463D01*
X112896315Y-81098815D01*
X112816963Y-81195506D01*
X112757998Y-81305820D01*
X112721688Y-81425518D01*
X112709428Y-81550000D01*
X112709428Y-83550000D01*
X112721688Y-83674482D01*
X112757998Y-83794180D01*
X112816963Y-83904494D01*
X112896315Y-84001185D01*
X112993006Y-84080537D01*
X113103320Y-84139502D01*
X113223018Y-84175812D01*
X113347500Y-84188072D01*
X115252500Y-84188072D01*
X115376982Y-84175812D01*
X115496680Y-84139502D01*
X115606994Y-84080537D01*
X115703685Y-84001185D01*
X115783037Y-83904494D01*
X115827905Y-83820553D01*
X115953766Y-83923845D01*
X116229552Y-84071255D01*
X116528797Y-84162030D01*
X116594105Y-84168462D01*
X116498068Y-84264500D01*
X106386934Y-84264500D01*
X104881732Y-82759299D01*
X104900820Y-82769502D01*
X105020518Y-82805812D01*
X105145000Y-82818072D01*
X106945000Y-82818072D01*
X107069482Y-82805812D01*
X107189180Y-82769502D01*
X107299494Y-82710537D01*
X107396185Y-82631185D01*
X107475537Y-82534494D01*
X107534502Y-82424180D01*
X107540056Y-82405873D01*
X107606495Y-82472312D01*
X107857905Y-82640299D01*
X108137257Y-82756011D01*
X108433816Y-82815000D01*
X108736184Y-82815000D01*
X109032743Y-82756011D01*
X109312095Y-82640299D01*
X109563505Y-82472312D01*
X109777312Y-82258505D01*
X109945299Y-82007095D01*
X110061011Y-81727743D01*
X110120000Y-81431184D01*
X110120000Y-81128816D01*
X110084100Y-80948333D01*
X111466933Y-79565500D01*
X123980993Y-79565500D01*
X124008822Y-79584095D01*
X124182166Y-79655896D01*
X124366187Y-79692500D01*
X124553813Y-79692500D01*
X124737834Y-79655896D01*
X124911178Y-79584095D01*
X125067184Y-79479855D01*
X125199855Y-79347184D01*
X125304095Y-79191178D01*
X125375896Y-79017834D01*
X125412500Y-78833813D01*
X125412500Y-78646187D01*
X125375896Y-78462166D01*
X125304095Y-78288822D01*
X125199855Y-78132816D01*
X125067184Y-78000145D01*
X124911178Y-77895905D01*
X124737834Y-77824104D01*
X124553813Y-77787500D01*
X124366187Y-77787500D01*
X124182166Y-77824104D01*
X124008822Y-77895905D01*
X123980993Y-77914500D01*
X111165542Y-77914500D01*
X111124999Y-77910507D01*
X111084456Y-77914500D01*
X111084447Y-77914500D01*
X110963174Y-77926444D01*
X110807566Y-77973647D01*
X110673417Y-78045352D01*
X110664156Y-78050302D01*
X110608033Y-78096361D01*
X110538459Y-78153459D01*
X110512606Y-78184961D01*
X108916667Y-79780900D01*
X108736184Y-79745000D01*
X108433816Y-79745000D01*
X108137257Y-79803989D01*
X107857905Y-79919701D01*
X107606495Y-80087688D01*
X107540056Y-80154127D01*
X107534502Y-80135820D01*
X107475537Y-80025506D01*
X107396185Y-79928815D01*
X107299494Y-79849463D01*
X107189180Y-79790498D01*
X107069482Y-79754188D01*
X106945000Y-79741928D01*
X105145000Y-79741928D01*
X105020518Y-79754188D01*
X104900820Y-79790498D01*
X104790506Y-79849463D01*
X104693815Y-79928815D01*
X104614463Y-80025506D01*
X104555498Y-80135820D01*
X104519188Y-80255518D01*
X104506928Y-80380000D01*
X104506928Y-82180000D01*
X104519188Y-82304482D01*
X104555498Y-82424180D01*
X104565701Y-82443268D01*
X103734100Y-81611667D01*
X103770000Y-81431184D01*
X103770000Y-81128816D01*
X103711011Y-80832257D01*
X103595299Y-80552905D01*
X103427312Y-80301495D01*
X103213505Y-80087688D01*
X102962095Y-79919701D01*
X102682743Y-79803989D01*
X102386184Y-79745000D01*
X102083816Y-79745000D01*
X101787257Y-79803989D01*
X101507905Y-79919701D01*
X101256495Y-80087688D01*
X101190056Y-80154127D01*
X101184502Y-80135820D01*
X101125537Y-80025506D01*
X101046185Y-79928815D01*
X100949494Y-79849463D01*
X100839180Y-79790498D01*
X100719482Y-79754188D01*
X100595000Y-79741928D01*
X98795000Y-79741928D01*
X98670518Y-79754188D01*
X98550820Y-79790498D01*
X98440506Y-79849463D01*
X98343815Y-79928815D01*
X98264463Y-80025506D01*
X98205498Y-80135820D01*
X98169188Y-80255518D01*
X98156928Y-80380000D01*
X96980000Y-80380000D01*
X96980000Y-79431190D01*
X96947950Y-79105784D01*
X96821294Y-78688255D01*
X96615616Y-78303458D01*
X96338820Y-77966180D01*
X96001542Y-77689384D01*
X95616744Y-77483706D01*
X95199215Y-77357050D01*
X94765000Y-77314283D01*
X94330784Y-77357050D01*
X93913255Y-77483706D01*
X93528458Y-77689384D01*
X93191180Y-77966180D01*
X93019644Y-78175198D01*
X93006008Y-78036746D01*
X92955472Y-77870150D01*
X92873405Y-77716614D01*
X92762962Y-77582038D01*
X92628386Y-77471595D01*
X92474850Y-77389528D01*
X92308254Y-77338992D01*
X92135000Y-77321928D01*
X89912978Y-77321928D01*
X89553050Y-76962000D01*
X186681274Y-76962000D01*
X186636343Y-76980611D01*
X185959091Y-77433136D01*
X185383136Y-78009091D01*
X184930611Y-78686343D01*
X184618906Y-79438865D01*
X184460000Y-80237738D01*
X184460000Y-81052262D01*
X184618906Y-81851135D01*
X184930611Y-82603657D01*
X185383136Y-83280909D01*
X185959091Y-83856864D01*
X186636343Y-84309389D01*
X187388865Y-84621094D01*
X188187738Y-84780000D01*
X189002262Y-84780000D01*
X189801135Y-84621094D01*
X190553657Y-84309389D01*
X191230909Y-83856864D01*
X191806864Y-83280909D01*
X192259389Y-82603657D01*
X192278000Y-82558726D01*
X192278000Y-120641274D01*
X192259389Y-120596343D01*
X191806864Y-119919091D01*
X191230909Y-119343136D01*
X190553657Y-118890611D01*
X189801135Y-118578906D01*
X189002262Y-118420000D01*
X188187738Y-118420000D01*
X187388865Y-118578906D01*
X186636343Y-118890611D01*
X185959091Y-119343136D01*
X185383136Y-119919091D01*
X184930611Y-120596343D01*
X184618906Y-121348865D01*
X184460000Y-122147738D01*
X184460000Y-122962262D01*
X184618906Y-123761135D01*
X184930611Y-124513657D01*
X185383136Y-125190909D01*
X185959091Y-125766864D01*
X186636343Y-126219389D01*
X186681274Y-126238000D01*
X72398726Y-126238000D01*
X72443657Y-126219389D01*
X73120909Y-125766864D01*
X73647773Y-125240000D01*
X83506928Y-125240000D01*
X83519188Y-125364482D01*
X83555498Y-125484180D01*
X83614463Y-125594494D01*
X83693815Y-125691185D01*
X83790506Y-125770537D01*
X83900820Y-125829502D01*
X84020518Y-125865812D01*
X84145000Y-125878072D01*
X85439250Y-125875000D01*
X85598000Y-125716250D01*
X85598000Y-123317000D01*
X83668750Y-123317000D01*
X83510000Y-123475750D01*
X83506928Y-125240000D01*
X73647773Y-125240000D01*
X73696864Y-125190909D01*
X74149389Y-124513657D01*
X74461094Y-123761135D01*
X74620000Y-122962262D01*
X74620000Y-122147738D01*
X74461094Y-121348865D01*
X74374580Y-121140000D01*
X83506928Y-121140000D01*
X83510000Y-122904250D01*
X83668750Y-123063000D01*
X85598000Y-123063000D01*
X85598000Y-120663750D01*
X85852000Y-120663750D01*
X85852000Y-123063000D01*
X85872000Y-123063000D01*
X85872000Y-123317000D01*
X85852000Y-123317000D01*
X85852000Y-125716250D01*
X86010750Y-125875000D01*
X87305000Y-125878072D01*
X87429482Y-125865812D01*
X87549180Y-125829502D01*
X87659494Y-125770537D01*
X87756185Y-125691185D01*
X87835537Y-125594494D01*
X87894502Y-125484180D01*
X87930812Y-125364482D01*
X87943072Y-125240000D01*
X87942704Y-125028529D01*
X88111181Y-125233820D01*
X88448459Y-125510616D01*
X88833256Y-125716294D01*
X89250785Y-125842950D01*
X89685000Y-125885717D01*
X90119216Y-125842950D01*
X90536745Y-125716294D01*
X90921542Y-125510616D01*
X91258820Y-125233820D01*
X91518362Y-124917565D01*
X124309040Y-124917565D01*
X124376020Y-125157656D01*
X124625048Y-125274756D01*
X124892135Y-125341023D01*
X125167017Y-125353910D01*
X125439133Y-125312922D01*
X125698023Y-125219636D01*
X125813980Y-125157656D01*
X125880960Y-124917565D01*
X168759040Y-124917565D01*
X168826020Y-125157656D01*
X169075048Y-125274756D01*
X169342135Y-125341023D01*
X169617017Y-125353910D01*
X169889133Y-125312922D01*
X170148023Y-125219636D01*
X170263980Y-125157656D01*
X170330960Y-124917565D01*
X169545000Y-124131605D01*
X168759040Y-124917565D01*
X125880960Y-124917565D01*
X125095000Y-124131605D01*
X124309040Y-124917565D01*
X91518362Y-124917565D01*
X91535616Y-124896542D01*
X91741294Y-124511744D01*
X91867950Y-124094215D01*
X91874863Y-124024017D01*
X123693090Y-124024017D01*
X123734078Y-124296133D01*
X123827364Y-124555023D01*
X123889344Y-124670980D01*
X124129435Y-124737960D01*
X124915395Y-123952000D01*
X125274605Y-123952000D01*
X126060565Y-124737960D01*
X126300656Y-124670980D01*
X126417756Y-124421952D01*
X126484023Y-124154865D01*
X126490157Y-124024017D01*
X168143090Y-124024017D01*
X168184078Y-124296133D01*
X168277364Y-124555023D01*
X168339344Y-124670980D01*
X168579435Y-124737960D01*
X169365395Y-123952000D01*
X169724605Y-123952000D01*
X170510565Y-124737960D01*
X170750656Y-124670980D01*
X170867756Y-124421952D01*
X170934023Y-124154865D01*
X170946910Y-123879983D01*
X170905922Y-123607867D01*
X170812636Y-123348977D01*
X170750656Y-123233020D01*
X170510565Y-123166040D01*
X169724605Y-123952000D01*
X169365395Y-123952000D01*
X168579435Y-123166040D01*
X168339344Y-123233020D01*
X168222244Y-123482048D01*
X168155977Y-123749135D01*
X168143090Y-124024017D01*
X126490157Y-124024017D01*
X126496910Y-123879983D01*
X126455922Y-123607867D01*
X126362636Y-123348977D01*
X126300656Y-123233020D01*
X126060565Y-123166040D01*
X125274605Y-123952000D01*
X124915395Y-123952000D01*
X124129435Y-123166040D01*
X123889344Y-123233020D01*
X123772244Y-123482048D01*
X123705977Y-123749135D01*
X123693090Y-124024017D01*
X91874863Y-124024017D01*
X91900000Y-123768809D01*
X91900000Y-122986435D01*
X124309040Y-122986435D01*
X125095000Y-123772395D01*
X125880960Y-122986435D01*
X168759040Y-122986435D01*
X169545000Y-123772395D01*
X170330960Y-122986435D01*
X170263980Y-122746344D01*
X170014952Y-122629244D01*
X169747865Y-122562977D01*
X169472983Y-122550090D01*
X169200867Y-122591078D01*
X168941977Y-122684364D01*
X168826020Y-122746344D01*
X168759040Y-122986435D01*
X125880960Y-122986435D01*
X125813980Y-122746344D01*
X125564952Y-122629244D01*
X125297865Y-122562977D01*
X125022983Y-122550090D01*
X124750867Y-122591078D01*
X124491977Y-122684364D01*
X124376020Y-122746344D01*
X124309040Y-122986435D01*
X91900000Y-122986435D01*
X91900000Y-122611190D01*
X91867950Y-122285784D01*
X91741294Y-121868255D01*
X91535616Y-121483458D01*
X91258820Y-121146180D01*
X90921542Y-120869384D01*
X90536744Y-120663706D01*
X90119215Y-120537050D01*
X89685000Y-120494283D01*
X89250784Y-120537050D01*
X88833255Y-120663706D01*
X88448458Y-120869384D01*
X88111180Y-121146180D01*
X87942704Y-121351470D01*
X87943072Y-121140000D01*
X87930812Y-121015518D01*
X87894502Y-120895820D01*
X87835537Y-120785506D01*
X87756185Y-120688815D01*
X87659494Y-120609463D01*
X87549180Y-120550498D01*
X87429482Y-120514188D01*
X87305000Y-120501928D01*
X86010750Y-120505000D01*
X85852000Y-120663750D01*
X85598000Y-120663750D01*
X85439250Y-120505000D01*
X84145000Y-120501928D01*
X84020518Y-120514188D01*
X83900820Y-120550498D01*
X83790506Y-120609463D01*
X83693815Y-120688815D01*
X83614463Y-120785506D01*
X83555498Y-120895820D01*
X83519188Y-121015518D01*
X83506928Y-121140000D01*
X74374580Y-121140000D01*
X74149389Y-120596343D01*
X73696864Y-119919091D01*
X73120909Y-119343136D01*
X72629819Y-119015000D01*
X109534428Y-119015000D01*
X109534428Y-121015000D01*
X109546688Y-121139482D01*
X109582998Y-121259180D01*
X109641963Y-121369494D01*
X109721315Y-121466185D01*
X109818006Y-121545537D01*
X109928320Y-121604502D01*
X110048018Y-121640812D01*
X110172500Y-121653072D01*
X112077500Y-121653072D01*
X112201982Y-121640812D01*
X112321680Y-121604502D01*
X112431994Y-121545537D01*
X112528685Y-121466185D01*
X112608037Y-121369494D01*
X112652905Y-121285553D01*
X112778766Y-121388845D01*
X113054552Y-121536255D01*
X113353797Y-121627030D01*
X113665000Y-121657681D01*
X113976204Y-121627030D01*
X114275449Y-121536255D01*
X114551235Y-121388845D01*
X114792963Y-121190463D01*
X114935000Y-121017391D01*
X115077037Y-121190463D01*
X115318766Y-121388845D01*
X115594552Y-121536255D01*
X115893797Y-121627030D01*
X116205000Y-121657681D01*
X116516204Y-121627030D01*
X116815449Y-121536255D01*
X117091235Y-121388845D01*
X117332963Y-121190463D01*
X117531345Y-120948734D01*
X117678755Y-120672948D01*
X117769530Y-120373703D01*
X117792500Y-120140485D01*
X117792500Y-119889514D01*
X117769530Y-119656296D01*
X117678755Y-119357051D01*
X117531345Y-119081265D01*
X117332963Y-118839537D01*
X117091234Y-118641155D01*
X116815448Y-118493745D01*
X116516203Y-118402970D01*
X116205000Y-118372319D01*
X115893796Y-118402970D01*
X115594551Y-118493745D01*
X115318765Y-118641155D01*
X115077037Y-118839537D01*
X114935000Y-119012609D01*
X114792963Y-118839537D01*
X114551234Y-118641155D01*
X114275448Y-118493745D01*
X113976203Y-118402970D01*
X113665000Y-118372319D01*
X113353796Y-118402970D01*
X113054551Y-118493745D01*
X112778765Y-118641155D01*
X112652905Y-118744446D01*
X112608037Y-118660506D01*
X112528685Y-118563815D01*
X112431994Y-118484463D01*
X112321680Y-118425498D01*
X112201982Y-118389188D01*
X112077500Y-118376928D01*
X110172500Y-118376928D01*
X110048018Y-118389188D01*
X109928320Y-118425498D01*
X109818006Y-118484463D01*
X109721315Y-118563815D01*
X109641963Y-118660506D01*
X109582998Y-118770820D01*
X109546688Y-118890518D01*
X109534428Y-119015000D01*
X72629819Y-119015000D01*
X72443657Y-118890611D01*
X71691135Y-118578906D01*
X70892262Y-118420000D01*
X70077738Y-118420000D01*
X69278865Y-118578906D01*
X68526343Y-118890611D01*
X67849091Y-119343136D01*
X67273136Y-119919091D01*
X66820611Y-120596343D01*
X66802000Y-120641274D01*
X66802000Y-115476187D01*
X110172500Y-115476187D01*
X110172500Y-115663813D01*
X110209104Y-115847834D01*
X110280905Y-116021178D01*
X110385145Y-116177184D01*
X110517816Y-116309855D01*
X110673822Y-116414095D01*
X110847166Y-116485896D01*
X111031187Y-116522500D01*
X111218813Y-116522500D01*
X111402834Y-116485896D01*
X111576178Y-116414095D01*
X111604007Y-116395500D01*
X112989450Y-116395500D01*
X113030000Y-116399494D01*
X113070550Y-116395500D01*
X113070553Y-116395500D01*
X113191826Y-116383556D01*
X113347434Y-116336353D01*
X113490842Y-116259699D01*
X113616541Y-116156541D01*
X113642398Y-116125034D01*
X117228376Y-112539056D01*
X117333665Y-112560000D01*
X117616335Y-112560000D01*
X117893574Y-112504853D01*
X118154727Y-112396680D01*
X118389759Y-112239637D01*
X118589637Y-112039759D01*
X118746680Y-111804727D01*
X118785350Y-111711369D01*
X184055737Y-111711369D01*
X184125007Y-111970311D01*
X184307738Y-112364991D01*
X184563956Y-112716438D01*
X184883815Y-113011147D01*
X185255023Y-113237792D01*
X185663315Y-113387663D01*
X186093000Y-113455000D01*
X186563000Y-113455000D01*
X186563000Y-111367000D01*
X186817000Y-111367000D01*
X186817000Y-113455000D01*
X187287000Y-113455000D01*
X187716685Y-113387663D01*
X188124977Y-113237792D01*
X188496185Y-113011147D01*
X188816044Y-112716438D01*
X189072262Y-112364991D01*
X189254993Y-111970311D01*
X189324263Y-111711369D01*
X189212324Y-111367000D01*
X186817000Y-111367000D01*
X186563000Y-111367000D01*
X184167676Y-111367000D01*
X184055737Y-111711369D01*
X118785350Y-111711369D01*
X118854853Y-111543574D01*
X118910000Y-111266335D01*
X118910000Y-110983665D01*
X118854853Y-110706426D01*
X118746680Y-110445273D01*
X118589637Y-110210241D01*
X118389759Y-110010363D01*
X118154727Y-109853320D01*
X117893574Y-109745147D01*
X117616335Y-109690000D01*
X117333665Y-109690000D01*
X117056426Y-109745147D01*
X116795273Y-109853320D01*
X116560241Y-110010363D01*
X116360363Y-110210241D01*
X116226308Y-110410869D01*
X116211671Y-110383486D01*
X115967702Y-110311903D01*
X115154605Y-111125000D01*
X115168748Y-111139143D01*
X114989143Y-111318748D01*
X114975000Y-111304605D01*
X114161903Y-112117702D01*
X114233486Y-112361671D01*
X114488996Y-112482571D01*
X114763184Y-112551300D01*
X114875720Y-112556847D01*
X112688068Y-114744500D01*
X111604007Y-114744500D01*
X111576178Y-114725905D01*
X111402834Y-114654104D01*
X111218813Y-114617500D01*
X111031187Y-114617500D01*
X110847166Y-114654104D01*
X110673822Y-114725905D01*
X110517816Y-114830145D01*
X110385145Y-114962816D01*
X110280905Y-115118822D01*
X110209104Y-115292166D01*
X110172500Y-115476187D01*
X66802000Y-115476187D01*
X66802000Y-112285000D01*
X91956928Y-112285000D01*
X91969188Y-112409482D01*
X92005498Y-112529180D01*
X92064463Y-112639494D01*
X92143815Y-112736185D01*
X92240506Y-112815537D01*
X92350820Y-112874502D01*
X92470518Y-112910812D01*
X92595000Y-112923072D01*
X93059250Y-112920000D01*
X93218000Y-112761250D01*
X93218000Y-111887000D01*
X93472000Y-111887000D01*
X93472000Y-112761250D01*
X93630750Y-112920000D01*
X94095000Y-112923072D01*
X94219482Y-112910812D01*
X94339180Y-112874502D01*
X94449494Y-112815537D01*
X94546185Y-112736185D01*
X94625537Y-112639494D01*
X94684502Y-112529180D01*
X94720812Y-112409482D01*
X94733072Y-112285000D01*
X94730000Y-112045750D01*
X94571250Y-111887000D01*
X93472000Y-111887000D01*
X93218000Y-111887000D01*
X92118750Y-111887000D01*
X91960000Y-112045750D01*
X91956928Y-112285000D01*
X66802000Y-112285000D01*
X66802000Y-110348665D01*
X75400000Y-110348665D01*
X75400000Y-110631335D01*
X75455147Y-110908574D01*
X75563320Y-111169727D01*
X75720363Y-111404759D01*
X75920241Y-111604637D01*
X76155273Y-111761680D01*
X76416426Y-111869853D01*
X76693665Y-111925000D01*
X76976335Y-111925000D01*
X77253574Y-111869853D01*
X77514727Y-111761680D01*
X77749759Y-111604637D01*
X77949637Y-111404759D01*
X78106680Y-111169727D01*
X78214853Y-110908574D01*
X78270000Y-110631335D01*
X78270000Y-110348665D01*
X85560000Y-110348665D01*
X85560000Y-110631335D01*
X85615147Y-110908574D01*
X85723320Y-111169727D01*
X85880363Y-111404759D01*
X86080241Y-111604637D01*
X86315273Y-111761680D01*
X86576426Y-111869853D01*
X86853665Y-111925000D01*
X87136335Y-111925000D01*
X87413574Y-111869853D01*
X87674727Y-111761680D01*
X87909759Y-111604637D01*
X88109637Y-111404759D01*
X88169278Y-111315500D01*
X91957962Y-111315500D01*
X91960000Y-111474250D01*
X92118750Y-111633000D01*
X92891891Y-111633000D01*
X92892600Y-111633215D01*
X93063021Y-111650000D01*
X93626979Y-111650000D01*
X93797400Y-111633215D01*
X93798109Y-111633000D01*
X94571250Y-111633000D01*
X94730000Y-111474250D01*
X94733072Y-111235000D01*
X94720812Y-111110518D01*
X94684502Y-110990820D01*
X94649907Y-110926098D01*
X94713215Y-110717400D01*
X94735612Y-110490000D01*
X94713215Y-110262600D01*
X94646885Y-110043940D01*
X94545895Y-109855000D01*
X94646885Y-109666060D01*
X94713215Y-109447400D01*
X94735612Y-109220000D01*
X100844388Y-109220000D01*
X100866785Y-109447400D01*
X100933115Y-109666060D01*
X101034105Y-109855000D01*
X100933115Y-110043940D01*
X100866785Y-110262600D01*
X100844388Y-110490000D01*
X100866785Y-110717400D01*
X100930093Y-110926098D01*
X100895498Y-110990820D01*
X100859188Y-111110518D01*
X100846928Y-111235000D01*
X100846928Y-112285000D01*
X100859188Y-112409482D01*
X100895498Y-112529180D01*
X100954463Y-112639494D01*
X101033815Y-112736185D01*
X101130506Y-112815537D01*
X101240820Y-112874502D01*
X101360518Y-112910812D01*
X101485000Y-112923072D01*
X102985000Y-112923072D01*
X103109482Y-112910812D01*
X103229180Y-112874502D01*
X103339494Y-112815537D01*
X103436185Y-112736185D01*
X103515537Y-112639494D01*
X103574502Y-112529180D01*
X103610812Y-112409482D01*
X103623072Y-112285000D01*
X103623072Y-111235000D01*
X103619183Y-111195512D01*
X113534783Y-111195512D01*
X113576213Y-111475130D01*
X113671397Y-111741292D01*
X113738329Y-111866514D01*
X113982298Y-111938097D01*
X114795395Y-111125000D01*
X113982298Y-110311903D01*
X113738329Y-110383486D01*
X113617429Y-110638996D01*
X113548700Y-110913184D01*
X113534783Y-111195512D01*
X103619183Y-111195512D01*
X103610812Y-111110518D01*
X103574502Y-110990820D01*
X103539907Y-110926098D01*
X103603215Y-110717400D01*
X103625612Y-110490000D01*
X103603215Y-110262600D01*
X103563689Y-110132298D01*
X114161903Y-110132298D01*
X114975000Y-110945395D01*
X115788097Y-110132298D01*
X115716514Y-109888329D01*
X115461004Y-109767429D01*
X115186816Y-109698700D01*
X114904488Y-109684783D01*
X114624870Y-109726213D01*
X114358708Y-109821397D01*
X114233486Y-109888329D01*
X114161903Y-110132298D01*
X103563689Y-110132298D01*
X103536885Y-110043940D01*
X103435895Y-109855000D01*
X103536885Y-109666060D01*
X103603215Y-109447400D01*
X103625612Y-109220000D01*
X103603215Y-108992600D01*
X103536885Y-108773940D01*
X103429171Y-108572421D01*
X103284212Y-108395788D01*
X103107579Y-108250829D01*
X102906060Y-108143115D01*
X102687400Y-108076785D01*
X102516979Y-108060000D01*
X101953021Y-108060000D01*
X101782600Y-108076785D01*
X101563940Y-108143115D01*
X101362421Y-108250829D01*
X101185788Y-108395788D01*
X101040829Y-108572421D01*
X100933115Y-108773940D01*
X100866785Y-108992600D01*
X100844388Y-109220000D01*
X94735612Y-109220000D01*
X94713215Y-108992600D01*
X94646885Y-108773940D01*
X94539171Y-108572421D01*
X94394212Y-108395788D01*
X94217579Y-108250829D01*
X94016060Y-108143115D01*
X93797400Y-108076785D01*
X93626979Y-108060000D01*
X93063021Y-108060000D01*
X92892600Y-108076785D01*
X92673940Y-108143115D01*
X92472421Y-108250829D01*
X92295788Y-108395788D01*
X92150829Y-108572421D01*
X92043115Y-108773940D01*
X91976785Y-108992600D01*
X91954388Y-109220000D01*
X91976785Y-109447400D01*
X92042642Y-109664500D01*
X88169278Y-109664500D01*
X88109637Y-109575241D01*
X87909759Y-109375363D01*
X87674727Y-109218320D01*
X87413574Y-109110147D01*
X87136335Y-109055000D01*
X86853665Y-109055000D01*
X86576426Y-109110147D01*
X86315273Y-109218320D01*
X86080241Y-109375363D01*
X85880363Y-109575241D01*
X85723320Y-109810273D01*
X85615147Y-110071426D01*
X85560000Y-110348665D01*
X78270000Y-110348665D01*
X78214853Y-110071426D01*
X78106680Y-109810273D01*
X77949637Y-109575241D01*
X77749759Y-109375363D01*
X77514727Y-109218320D01*
X77253574Y-109110147D01*
X76976335Y-109055000D01*
X76693665Y-109055000D01*
X76416426Y-109110147D01*
X76155273Y-109218320D01*
X75920241Y-109375363D01*
X75720363Y-109575241D01*
X75563320Y-109810273D01*
X75455147Y-110071426D01*
X75400000Y-110348665D01*
X66802000Y-110348665D01*
X66802000Y-105131890D01*
X68408524Y-105131890D01*
X68453175Y-105279099D01*
X68578359Y-105541920D01*
X68752412Y-105775269D01*
X68968645Y-105970178D01*
X69218748Y-106119157D01*
X69493109Y-106216481D01*
X69723000Y-106095814D01*
X69723000Y-104902000D01*
X69977000Y-104902000D01*
X69977000Y-106095814D01*
X70206891Y-106216481D01*
X70481252Y-106119157D01*
X70731355Y-105970178D01*
X70947588Y-105775269D01*
X71121641Y-105541920D01*
X71246825Y-105279099D01*
X71291476Y-105131890D01*
X71170155Y-104902000D01*
X69977000Y-104902000D01*
X69723000Y-104902000D01*
X68529845Y-104902000D01*
X68408524Y-105131890D01*
X66802000Y-105131890D01*
X66802000Y-102591890D01*
X68408524Y-102591890D01*
X68453175Y-102739099D01*
X68578359Y-103001920D01*
X68752412Y-103235269D01*
X68968645Y-103430178D01*
X69094255Y-103505000D01*
X68968645Y-103579822D01*
X68752412Y-103774731D01*
X68578359Y-104008080D01*
X68453175Y-104270901D01*
X68408524Y-104418110D01*
X68529845Y-104648000D01*
X69723000Y-104648000D01*
X69723000Y-102362000D01*
X69977000Y-102362000D01*
X69977000Y-104648000D01*
X71170155Y-104648000D01*
X71177720Y-104633665D01*
X91275000Y-104633665D01*
X91275000Y-104916335D01*
X91330147Y-105193574D01*
X91438320Y-105454727D01*
X91595363Y-105689759D01*
X91795241Y-105889637D01*
X92030273Y-106046680D01*
X92291426Y-106154853D01*
X92568665Y-106210000D01*
X92851335Y-106210000D01*
X93128574Y-106154853D01*
X93389727Y-106046680D01*
X93624759Y-105889637D01*
X93824637Y-105689759D01*
X93981680Y-105454727D01*
X94089853Y-105193574D01*
X94145000Y-104916335D01*
X94145000Y-104633665D01*
X101435000Y-104633665D01*
X101435000Y-104916335D01*
X101490147Y-105193574D01*
X101598320Y-105454727D01*
X101755363Y-105689759D01*
X101955241Y-105889637D01*
X102190273Y-106046680D01*
X102451426Y-106154853D01*
X102728665Y-106210000D01*
X103011335Y-106210000D01*
X103288574Y-106154853D01*
X103549727Y-106046680D01*
X103784759Y-105889637D01*
X103984637Y-105689759D01*
X104141680Y-105454727D01*
X104249853Y-105193574D01*
X104305000Y-104916335D01*
X104305000Y-104633665D01*
X105880000Y-104633665D01*
X105880000Y-104916335D01*
X105935147Y-105193574D01*
X106043320Y-105454727D01*
X106200363Y-105689759D01*
X106400241Y-105889637D01*
X106635273Y-106046680D01*
X106896426Y-106154853D01*
X107173665Y-106210000D01*
X107456335Y-106210000D01*
X107733574Y-106154853D01*
X107994727Y-106046680D01*
X108229759Y-105889637D01*
X108429637Y-105689759D01*
X108586680Y-105454727D01*
X108694853Y-105193574D01*
X108750000Y-104916335D01*
X108750000Y-104633665D01*
X116040000Y-104633665D01*
X116040000Y-104916335D01*
X116095147Y-105193574D01*
X116203320Y-105454727D01*
X116360363Y-105689759D01*
X116560241Y-105889637D01*
X116795273Y-106046680D01*
X117056426Y-106154853D01*
X117333665Y-106210000D01*
X117616335Y-106210000D01*
X117893574Y-106154853D01*
X118154727Y-106046680D01*
X118389759Y-105889637D01*
X118589637Y-105689759D01*
X118746680Y-105454727D01*
X118854853Y-105193574D01*
X118910000Y-104916335D01*
X118910000Y-104633665D01*
X118854853Y-104356426D01*
X118746680Y-104095273D01*
X118589637Y-103860241D01*
X118389759Y-103660363D01*
X118154727Y-103503320D01*
X117893574Y-103395147D01*
X117616335Y-103340000D01*
X117333665Y-103340000D01*
X117056426Y-103395147D01*
X116795273Y-103503320D01*
X116560241Y-103660363D01*
X116360363Y-103860241D01*
X116203320Y-104095273D01*
X116095147Y-104356426D01*
X116040000Y-104633665D01*
X108750000Y-104633665D01*
X108694853Y-104356426D01*
X108586680Y-104095273D01*
X108429637Y-103860241D01*
X108229759Y-103660363D01*
X107994727Y-103503320D01*
X107733574Y-103395147D01*
X107456335Y-103340000D01*
X107173665Y-103340000D01*
X106896426Y-103395147D01*
X106635273Y-103503320D01*
X106400241Y-103660363D01*
X106200363Y-103860241D01*
X106043320Y-104095273D01*
X105935147Y-104356426D01*
X105880000Y-104633665D01*
X104305000Y-104633665D01*
X104249853Y-104356426D01*
X104141680Y-104095273D01*
X103984637Y-103860241D01*
X103784759Y-103660363D01*
X103549727Y-103503320D01*
X103288574Y-103395147D01*
X103011335Y-103340000D01*
X102728665Y-103340000D01*
X102451426Y-103395147D01*
X102190273Y-103503320D01*
X101955241Y-103660363D01*
X101755363Y-103860241D01*
X101598320Y-104095273D01*
X101490147Y-104356426D01*
X101435000Y-104633665D01*
X94145000Y-104633665D01*
X94089853Y-104356426D01*
X93981680Y-104095273D01*
X93824637Y-103860241D01*
X93624759Y-103660363D01*
X93389727Y-103503320D01*
X93128574Y-103395147D01*
X92851335Y-103340000D01*
X92568665Y-103340000D01*
X92291426Y-103395147D01*
X92030273Y-103503320D01*
X91795241Y-103660363D01*
X91595363Y-103860241D01*
X91438320Y-104095273D01*
X91330147Y-104356426D01*
X91275000Y-104633665D01*
X71177720Y-104633665D01*
X71291476Y-104418110D01*
X71246825Y-104270901D01*
X71121641Y-104008080D01*
X70947588Y-103774731D01*
X70731355Y-103579822D01*
X70605745Y-103505000D01*
X70731355Y-103430178D01*
X70947588Y-103235269D01*
X71121641Y-103001920D01*
X71246825Y-102739099D01*
X71291476Y-102591890D01*
X71170155Y-102362000D01*
X69977000Y-102362000D01*
X69723000Y-102362000D01*
X68529845Y-102362000D01*
X68408524Y-102591890D01*
X66802000Y-102591890D01*
X66802000Y-96305000D01*
X68361928Y-96305000D01*
X68361928Y-98005000D01*
X68374188Y-98129482D01*
X68410498Y-98249180D01*
X68469463Y-98359494D01*
X68548815Y-98456185D01*
X68645506Y-98535537D01*
X68755820Y-98594502D01*
X68828380Y-98616513D01*
X68696525Y-98748368D01*
X68534010Y-98991589D01*
X68422068Y-99261842D01*
X68365000Y-99548740D01*
X68365000Y-99841260D01*
X68422068Y-100128158D01*
X68534010Y-100398411D01*
X68696525Y-100641632D01*
X68903368Y-100848475D01*
X69085534Y-100970195D01*
X68968645Y-101039822D01*
X68752412Y-101234731D01*
X68578359Y-101468080D01*
X68453175Y-101730901D01*
X68408524Y-101878110D01*
X68529845Y-102108000D01*
X69723000Y-102108000D01*
X69723000Y-102088000D01*
X69977000Y-102088000D01*
X69977000Y-102108000D01*
X71170155Y-102108000D01*
X71291476Y-101878110D01*
X71246825Y-101730901D01*
X71121641Y-101468080D01*
X70947588Y-101234731D01*
X70731355Y-101039822D01*
X70614466Y-100970195D01*
X70796632Y-100848475D01*
X71003475Y-100641632D01*
X71084413Y-100520500D01*
X73953068Y-100520500D01*
X75912574Y-102480007D01*
X75919104Y-102512834D01*
X75990905Y-102686178D01*
X76095145Y-102842184D01*
X76227816Y-102974855D01*
X76383822Y-103079095D01*
X76557166Y-103150896D01*
X76741187Y-103187500D01*
X76928813Y-103187500D01*
X77112834Y-103150896D01*
X77286178Y-103079095D01*
X77442184Y-102974855D01*
X77574855Y-102842184D01*
X77679095Y-102686178D01*
X77750896Y-102512834D01*
X77787500Y-102328813D01*
X77787500Y-102141187D01*
X77750896Y-101957166D01*
X77679095Y-101783822D01*
X77574855Y-101627816D01*
X77442184Y-101495145D01*
X77286178Y-101390905D01*
X77112834Y-101319104D01*
X77080007Y-101312574D01*
X75987433Y-100220000D01*
X91956928Y-100220000D01*
X91969188Y-100344482D01*
X92005498Y-100464180D01*
X92064463Y-100574494D01*
X92143815Y-100671185D01*
X92240506Y-100750537D01*
X92350820Y-100809502D01*
X92470518Y-100845812D01*
X92595000Y-100858072D01*
X93059250Y-100855000D01*
X93218000Y-100696250D01*
X93218000Y-99822000D01*
X93472000Y-99822000D01*
X93472000Y-100696250D01*
X93630750Y-100855000D01*
X94095000Y-100858072D01*
X94219482Y-100845812D01*
X94339180Y-100809502D01*
X94449494Y-100750537D01*
X94546185Y-100671185D01*
X94625537Y-100574494D01*
X94684502Y-100464180D01*
X94720812Y-100344482D01*
X94733072Y-100220000D01*
X94730000Y-99980750D01*
X94571250Y-99822000D01*
X93472000Y-99822000D01*
X93218000Y-99822000D01*
X92118750Y-99822000D01*
X91960000Y-99980750D01*
X91956928Y-100220000D01*
X75987433Y-100220000D01*
X74907398Y-99139966D01*
X74881541Y-99108459D01*
X74755842Y-99005301D01*
X74612434Y-98928647D01*
X74456826Y-98881444D01*
X74335553Y-98869500D01*
X74335550Y-98869500D01*
X74295000Y-98865506D01*
X74254450Y-98869500D01*
X71084413Y-98869500D01*
X71003475Y-98748368D01*
X70871620Y-98616513D01*
X70944180Y-98594502D01*
X71054494Y-98535537D01*
X71151185Y-98456185D01*
X71230537Y-98359494D01*
X71289502Y-98249180D01*
X71325812Y-98129482D01*
X71338072Y-98005000D01*
X71338072Y-97980500D01*
X75223068Y-97980500D01*
X75420944Y-98178376D01*
X75400000Y-98283665D01*
X75400000Y-98566335D01*
X75455147Y-98843574D01*
X75563320Y-99104727D01*
X75720363Y-99339759D01*
X75920241Y-99539637D01*
X76155273Y-99696680D01*
X76416426Y-99804853D01*
X76693665Y-99860000D01*
X76976335Y-99860000D01*
X77253574Y-99804853D01*
X77514727Y-99696680D01*
X77749759Y-99539637D01*
X77949637Y-99339759D01*
X78106680Y-99104727D01*
X78214853Y-98843574D01*
X78270000Y-98566335D01*
X78270000Y-98283665D01*
X85560000Y-98283665D01*
X85560000Y-98566335D01*
X85615147Y-98843574D01*
X85723320Y-99104727D01*
X85880363Y-99339759D01*
X86080241Y-99539637D01*
X86315273Y-99696680D01*
X86576426Y-99804853D01*
X86853665Y-99860000D01*
X87136335Y-99860000D01*
X87413574Y-99804853D01*
X87674727Y-99696680D01*
X87909759Y-99539637D01*
X88109637Y-99339759D01*
X88169278Y-99250500D01*
X91957962Y-99250500D01*
X91960000Y-99409250D01*
X92118750Y-99568000D01*
X92891891Y-99568000D01*
X92892600Y-99568215D01*
X93063021Y-99585000D01*
X93626979Y-99585000D01*
X93797400Y-99568215D01*
X93798109Y-99568000D01*
X94571250Y-99568000D01*
X94730000Y-99409250D01*
X94733072Y-99170000D01*
X94720812Y-99045518D01*
X94684502Y-98925820D01*
X94649907Y-98861098D01*
X94713215Y-98652400D01*
X94735612Y-98425000D01*
X94713215Y-98197600D01*
X94646885Y-97978940D01*
X94545895Y-97790000D01*
X94646885Y-97601060D01*
X94713215Y-97382400D01*
X94735612Y-97155000D01*
X100844388Y-97155000D01*
X100866785Y-97382400D01*
X100933115Y-97601060D01*
X101034105Y-97790000D01*
X100933115Y-97978940D01*
X100866785Y-98197600D01*
X100844388Y-98425000D01*
X100866785Y-98652400D01*
X100930093Y-98861098D01*
X100895498Y-98925820D01*
X100859188Y-99045518D01*
X100846928Y-99170000D01*
X100846928Y-100220000D01*
X100859188Y-100344482D01*
X100895498Y-100464180D01*
X100954463Y-100574494D01*
X101033815Y-100671185D01*
X101130506Y-100750537D01*
X101240820Y-100809502D01*
X101360518Y-100845812D01*
X101485000Y-100858072D01*
X102985000Y-100858072D01*
X103109482Y-100845812D01*
X103229180Y-100809502D01*
X103339494Y-100750537D01*
X103436185Y-100671185D01*
X103515537Y-100574494D01*
X103574502Y-100464180D01*
X103610812Y-100344482D01*
X103623072Y-100220000D01*
X103623072Y-99417702D01*
X114161903Y-99417702D01*
X114233486Y-99661671D01*
X114488996Y-99782571D01*
X114763184Y-99851300D01*
X115045512Y-99865217D01*
X115325130Y-99823787D01*
X115591292Y-99728603D01*
X115716514Y-99661671D01*
X115788097Y-99417702D01*
X114975000Y-98604605D01*
X114161903Y-99417702D01*
X103623072Y-99417702D01*
X103623072Y-99170000D01*
X103610812Y-99045518D01*
X103574502Y-98925820D01*
X103539907Y-98861098D01*
X103603215Y-98652400D01*
X103618667Y-98495512D01*
X113534783Y-98495512D01*
X113576213Y-98775130D01*
X113671397Y-99041292D01*
X113738329Y-99166514D01*
X113982298Y-99238097D01*
X114795395Y-98425000D01*
X115154605Y-98425000D01*
X115967702Y-99238097D01*
X116211671Y-99166514D01*
X116225324Y-99137659D01*
X116360363Y-99339759D01*
X116560241Y-99539637D01*
X116795273Y-99696680D01*
X117056426Y-99804853D01*
X117333665Y-99860000D01*
X117616335Y-99860000D01*
X117893574Y-99804853D01*
X118154727Y-99696680D01*
X118389759Y-99539637D01*
X118589637Y-99339759D01*
X118746680Y-99104727D01*
X118854853Y-98843574D01*
X118910000Y-98566335D01*
X118910000Y-98283665D01*
X118854853Y-98006426D01*
X118746680Y-97745273D01*
X118589637Y-97510241D01*
X118389759Y-97310363D01*
X118154727Y-97153320D01*
X117893574Y-97045147D01*
X117616335Y-96990000D01*
X117333665Y-96990000D01*
X117056426Y-97045147D01*
X116795273Y-97153320D01*
X116560241Y-97310363D01*
X116360363Y-97510241D01*
X116226308Y-97710869D01*
X116211671Y-97683486D01*
X115967702Y-97611903D01*
X115154605Y-98425000D01*
X114795395Y-98425000D01*
X113982298Y-97611903D01*
X113738329Y-97683486D01*
X113617429Y-97938996D01*
X113548700Y-98213184D01*
X113534783Y-98495512D01*
X103618667Y-98495512D01*
X103625612Y-98425000D01*
X103603215Y-98197600D01*
X103537358Y-97980500D01*
X105369450Y-97980500D01*
X105410000Y-97984494D01*
X105450550Y-97980500D01*
X105450553Y-97980500D01*
X105571826Y-97968556D01*
X105727434Y-97921353D01*
X105870842Y-97844699D01*
X105996541Y-97741541D01*
X106022398Y-97710034D01*
X106300134Y-97432298D01*
X114161903Y-97432298D01*
X114975000Y-98245395D01*
X115788097Y-97432298D01*
X115716514Y-97188329D01*
X115461004Y-97067429D01*
X115186816Y-96998700D01*
X114904488Y-96984783D01*
X114624870Y-97026213D01*
X114358708Y-97121397D01*
X114233486Y-97188329D01*
X114161903Y-97432298D01*
X106300134Y-97432298D01*
X107870046Y-95862388D01*
X107901541Y-95836541D01*
X107927389Y-95805045D01*
X107927392Y-95805042D01*
X108004699Y-95710843D01*
X108081353Y-95567434D01*
X108093618Y-95527000D01*
X108128556Y-95411826D01*
X108140500Y-95290553D01*
X108140500Y-95290551D01*
X108144494Y-95250000D01*
X108140500Y-95209450D01*
X108140500Y-93884278D01*
X108229759Y-93824637D01*
X108429637Y-93624759D01*
X108586680Y-93389727D01*
X108694853Y-93128574D01*
X108750000Y-92851335D01*
X108750000Y-92568665D01*
X116040000Y-92568665D01*
X116040000Y-92851335D01*
X116095147Y-93128574D01*
X116203320Y-93389727D01*
X116360363Y-93624759D01*
X116560241Y-93824637D01*
X116795273Y-93981680D01*
X117056426Y-94089853D01*
X117333665Y-94145000D01*
X117616335Y-94145000D01*
X117893574Y-94089853D01*
X118154727Y-93981680D01*
X118389759Y-93824637D01*
X118589637Y-93624759D01*
X118746680Y-93389727D01*
X118804065Y-93251187D01*
X123507500Y-93251187D01*
X123507500Y-93438813D01*
X123544104Y-93622834D01*
X123615905Y-93796178D01*
X123634500Y-93824007D01*
X123634501Y-103464440D01*
X123630506Y-103505000D01*
X123646445Y-103666826D01*
X123693647Y-103822433D01*
X123722910Y-103877179D01*
X123698000Y-104002408D01*
X123698000Y-104277592D01*
X123751686Y-104547490D01*
X123856995Y-104801727D01*
X124009880Y-105030535D01*
X124204465Y-105225120D01*
X124433273Y-105378005D01*
X124687510Y-105483314D01*
X124957408Y-105537000D01*
X125232592Y-105537000D01*
X125502490Y-105483314D01*
X125756727Y-105378005D01*
X125985535Y-105225120D01*
X126180120Y-105030535D01*
X126333005Y-104801727D01*
X126438314Y-104547490D01*
X126492000Y-104277592D01*
X126492000Y-104002408D01*
X168148000Y-104002408D01*
X168148000Y-104277592D01*
X168201686Y-104547490D01*
X168306995Y-104801727D01*
X168459880Y-105030535D01*
X168654465Y-105225120D01*
X168883273Y-105378005D01*
X169137510Y-105483314D01*
X169407408Y-105537000D01*
X169682592Y-105537000D01*
X169952490Y-105483314D01*
X170129485Y-105410000D01*
X172828950Y-105410000D01*
X175552863Y-108133914D01*
X175592630Y-108182370D01*
X175786012Y-108341075D01*
X176006641Y-108459003D01*
X176246037Y-108531623D01*
X176495000Y-108556144D01*
X176557380Y-108550000D01*
X184396842Y-108550000D01*
X184646180Y-108853820D01*
X184983458Y-109130616D01*
X185225713Y-109260104D01*
X184883815Y-109468853D01*
X184563956Y-109763562D01*
X184307738Y-110115009D01*
X184125007Y-110509689D01*
X184055737Y-110768631D01*
X184167676Y-111113000D01*
X186563000Y-111113000D01*
X186563000Y-111093000D01*
X186817000Y-111093000D01*
X186817000Y-111113000D01*
X189212324Y-111113000D01*
X189324263Y-110768631D01*
X189254993Y-110509689D01*
X189072262Y-110115009D01*
X188816044Y-109763562D01*
X188496185Y-109468853D01*
X188154287Y-109260104D01*
X188396542Y-109130616D01*
X188733820Y-108853820D01*
X189010616Y-108516542D01*
X189216294Y-108131745D01*
X189342950Y-107714216D01*
X189385717Y-107280000D01*
X189342950Y-106845784D01*
X189216294Y-106428255D01*
X189010616Y-106043458D01*
X188733820Y-105706180D01*
X188396542Y-105429384D01*
X188154287Y-105299896D01*
X188496185Y-105091147D01*
X188816044Y-104796438D01*
X189072262Y-104444991D01*
X189254993Y-104050311D01*
X189324263Y-103791369D01*
X189212324Y-103447000D01*
X186817000Y-103447000D01*
X186817000Y-103467000D01*
X186563000Y-103467000D01*
X186563000Y-103447000D01*
X184167676Y-103447000D01*
X184055737Y-103791369D01*
X184125007Y-104050311D01*
X184307738Y-104444991D01*
X184563956Y-104796438D01*
X184883815Y-105091147D01*
X185225713Y-105299896D01*
X184983458Y-105429384D01*
X184646180Y-105706180D01*
X184396842Y-106010000D01*
X177021051Y-106010000D01*
X174297141Y-103286091D01*
X174257370Y-103237630D01*
X174063988Y-103078925D01*
X173843359Y-102960997D01*
X173603963Y-102888377D01*
X173417380Y-102870000D01*
X173417373Y-102870000D01*
X173355000Y-102863857D01*
X173292627Y-102870000D01*
X170129485Y-102870000D01*
X169952490Y-102796686D01*
X169682592Y-102743000D01*
X169407408Y-102743000D01*
X169137510Y-102796686D01*
X168883273Y-102901995D01*
X168654465Y-103054880D01*
X168459880Y-103249465D01*
X168306995Y-103478273D01*
X168201686Y-103732510D01*
X168148000Y-104002408D01*
X126492000Y-104002408D01*
X126438314Y-103732510D01*
X126333005Y-103478273D01*
X126180120Y-103249465D01*
X125985535Y-103054880D01*
X125756727Y-102901995D01*
X125502490Y-102796686D01*
X125285500Y-102753524D01*
X125285500Y-98120565D01*
X128119040Y-98120565D01*
X128186020Y-98360656D01*
X128435048Y-98477756D01*
X128702135Y-98544023D01*
X128977017Y-98556910D01*
X129249133Y-98515922D01*
X129508023Y-98422636D01*
X129623980Y-98360656D01*
X129690960Y-98120565D01*
X167997040Y-98120565D01*
X168064020Y-98360656D01*
X168313048Y-98477756D01*
X168580135Y-98544023D01*
X168855017Y-98556910D01*
X169127133Y-98515922D01*
X169386023Y-98422636D01*
X169501980Y-98360656D01*
X169568960Y-98120565D01*
X168783000Y-97334605D01*
X167997040Y-98120565D01*
X129690960Y-98120565D01*
X128905000Y-97334605D01*
X128119040Y-98120565D01*
X125285500Y-98120565D01*
X125285500Y-97227017D01*
X127503090Y-97227017D01*
X127544078Y-97499133D01*
X127637364Y-97758023D01*
X127699344Y-97873980D01*
X127939435Y-97940960D01*
X128725395Y-97155000D01*
X129084605Y-97155000D01*
X129870565Y-97940960D01*
X130110656Y-97873980D01*
X130227756Y-97624952D01*
X130294023Y-97357865D01*
X130300157Y-97227017D01*
X167381090Y-97227017D01*
X167422078Y-97499133D01*
X167515364Y-97758023D01*
X167577344Y-97873980D01*
X167817435Y-97940960D01*
X168603395Y-97155000D01*
X168962605Y-97155000D01*
X169748565Y-97940960D01*
X169988656Y-97873980D01*
X170105756Y-97624952D01*
X170172023Y-97357865D01*
X170184910Y-97082983D01*
X170143922Y-96810867D01*
X170050636Y-96551977D01*
X169988656Y-96436020D01*
X169748565Y-96369040D01*
X168962605Y-97155000D01*
X168603395Y-97155000D01*
X167817435Y-96369040D01*
X167577344Y-96436020D01*
X167460244Y-96685048D01*
X167393977Y-96952135D01*
X167381090Y-97227017D01*
X130300157Y-97227017D01*
X130306910Y-97082983D01*
X130265922Y-96810867D01*
X130172636Y-96551977D01*
X130110656Y-96436020D01*
X129870565Y-96369040D01*
X129084605Y-97155000D01*
X128725395Y-97155000D01*
X127939435Y-96369040D01*
X127699344Y-96436020D01*
X127582244Y-96685048D01*
X127515977Y-96952135D01*
X127503090Y-97227017D01*
X125285500Y-97227017D01*
X125285500Y-96189435D01*
X128119040Y-96189435D01*
X128905000Y-96975395D01*
X129690960Y-96189435D01*
X167997040Y-96189435D01*
X168783000Y-96975395D01*
X169568960Y-96189435D01*
X169501980Y-95949344D01*
X169252952Y-95832244D01*
X168985865Y-95765977D01*
X168710983Y-95753090D01*
X168438867Y-95794078D01*
X168179977Y-95887364D01*
X168064020Y-95949344D01*
X167997040Y-96189435D01*
X129690960Y-96189435D01*
X129623980Y-95949344D01*
X129374952Y-95832244D01*
X129107865Y-95765977D01*
X128832983Y-95753090D01*
X128560867Y-95794078D01*
X128301977Y-95887364D01*
X128186020Y-95949344D01*
X128119040Y-96189435D01*
X125285500Y-96189435D01*
X125285500Y-93824007D01*
X125304095Y-93796178D01*
X125375896Y-93622834D01*
X125412500Y-93438813D01*
X125412500Y-93251187D01*
X125375896Y-93067166D01*
X125304095Y-92893822D01*
X125199855Y-92737816D01*
X125067184Y-92605145D01*
X124911178Y-92500905D01*
X124737834Y-92429104D01*
X124553813Y-92392500D01*
X124366187Y-92392500D01*
X124182166Y-92429104D01*
X124008822Y-92500905D01*
X123852816Y-92605145D01*
X123720145Y-92737816D01*
X123615905Y-92893822D01*
X123544104Y-93067166D01*
X123507500Y-93251187D01*
X118804065Y-93251187D01*
X118854853Y-93128574D01*
X118910000Y-92851335D01*
X118910000Y-92568665D01*
X118854853Y-92291426D01*
X118746680Y-92030273D01*
X118589637Y-91795241D01*
X118389759Y-91595363D01*
X118154727Y-91438320D01*
X117893574Y-91330147D01*
X117616335Y-91275000D01*
X117333665Y-91275000D01*
X117056426Y-91330147D01*
X116795273Y-91438320D01*
X116560241Y-91595363D01*
X116360363Y-91795241D01*
X116203320Y-92030273D01*
X116095147Y-92291426D01*
X116040000Y-92568665D01*
X108750000Y-92568665D01*
X108694853Y-92291426D01*
X108586680Y-92030273D01*
X108429637Y-91795241D01*
X108229759Y-91595363D01*
X107994727Y-91438320D01*
X107733574Y-91330147D01*
X107456335Y-91275000D01*
X107173665Y-91275000D01*
X106896426Y-91330147D01*
X106635273Y-91438320D01*
X106400241Y-91595363D01*
X106200363Y-91795241D01*
X106043320Y-92030273D01*
X105935147Y-92291426D01*
X105880000Y-92568665D01*
X105880000Y-92851335D01*
X105935147Y-93128574D01*
X106043320Y-93389727D01*
X106200363Y-93624759D01*
X106400241Y-93824637D01*
X106489501Y-93884278D01*
X106489500Y-94908066D01*
X105068068Y-96329500D01*
X103282643Y-96329500D01*
X103107579Y-96185829D01*
X102906060Y-96078115D01*
X102687400Y-96011785D01*
X102516979Y-95995000D01*
X101953021Y-95995000D01*
X101782600Y-96011785D01*
X101563940Y-96078115D01*
X101362421Y-96185829D01*
X101185788Y-96330788D01*
X101040829Y-96507421D01*
X100933115Y-96708940D01*
X100866785Y-96927600D01*
X100844388Y-97155000D01*
X94735612Y-97155000D01*
X94713215Y-96927600D01*
X94646885Y-96708940D01*
X94539171Y-96507421D01*
X94394212Y-96330788D01*
X94217579Y-96185829D01*
X94016060Y-96078115D01*
X93797400Y-96011785D01*
X93626979Y-95995000D01*
X93063021Y-95995000D01*
X92892600Y-96011785D01*
X92673940Y-96078115D01*
X92472421Y-96185829D01*
X92295788Y-96330788D01*
X92150829Y-96507421D01*
X92043115Y-96708940D01*
X91976785Y-96927600D01*
X91954388Y-97155000D01*
X91976785Y-97382400D01*
X92042642Y-97599500D01*
X88169278Y-97599500D01*
X88109637Y-97510241D01*
X87909759Y-97310363D01*
X87674727Y-97153320D01*
X87413574Y-97045147D01*
X87136335Y-96990000D01*
X86853665Y-96990000D01*
X86576426Y-97045147D01*
X86315273Y-97153320D01*
X86080241Y-97310363D01*
X85880363Y-97510241D01*
X85723320Y-97745273D01*
X85615147Y-98006426D01*
X85560000Y-98283665D01*
X78270000Y-98283665D01*
X78214853Y-98006426D01*
X78106680Y-97745273D01*
X77949637Y-97510241D01*
X77749759Y-97310363D01*
X77514727Y-97153320D01*
X77253574Y-97045147D01*
X76976335Y-96990000D01*
X76693665Y-96990000D01*
X76588376Y-97010944D01*
X76177398Y-96599966D01*
X76151541Y-96568459D01*
X76025842Y-96465301D01*
X75882434Y-96388647D01*
X75726826Y-96341444D01*
X75605553Y-96329500D01*
X75605550Y-96329500D01*
X75565000Y-96325506D01*
X75524450Y-96329500D01*
X71338072Y-96329500D01*
X71338072Y-96305000D01*
X71325812Y-96180518D01*
X71289502Y-96060820D01*
X71230537Y-95950506D01*
X71151185Y-95853815D01*
X71054494Y-95774463D01*
X70944180Y-95715498D01*
X70824482Y-95679188D01*
X70700000Y-95666928D01*
X69000000Y-95666928D01*
X68875518Y-95679188D01*
X68755820Y-95715498D01*
X68645506Y-95774463D01*
X68548815Y-95853815D01*
X68469463Y-95950506D01*
X68410498Y-96060820D01*
X68374188Y-96180518D01*
X68361928Y-96305000D01*
X66802000Y-96305000D01*
X66802000Y-92568665D01*
X91275000Y-92568665D01*
X91275000Y-92851335D01*
X91330147Y-93128574D01*
X91438320Y-93389727D01*
X91595363Y-93624759D01*
X91795241Y-93824637D01*
X92030273Y-93981680D01*
X92291426Y-94089853D01*
X92568665Y-94145000D01*
X92851335Y-94145000D01*
X93128574Y-94089853D01*
X93389727Y-93981680D01*
X93624759Y-93824637D01*
X93824637Y-93624759D01*
X93981680Y-93389727D01*
X94089853Y-93128574D01*
X94145000Y-92851335D01*
X94145000Y-92568665D01*
X101435000Y-92568665D01*
X101435000Y-92851335D01*
X101490147Y-93128574D01*
X101598320Y-93389727D01*
X101755363Y-93624759D01*
X101955241Y-93824637D01*
X102190273Y-93981680D01*
X102451426Y-94089853D01*
X102728665Y-94145000D01*
X103011335Y-94145000D01*
X103288574Y-94089853D01*
X103549727Y-93981680D01*
X103784759Y-93824637D01*
X103984637Y-93624759D01*
X104141680Y-93389727D01*
X104249853Y-93128574D01*
X104305000Y-92851335D01*
X104305000Y-92568665D01*
X104249853Y-92291426D01*
X104141680Y-92030273D01*
X103984637Y-91795241D01*
X103784759Y-91595363D01*
X103549727Y-91438320D01*
X103288574Y-91330147D01*
X103011335Y-91275000D01*
X102728665Y-91275000D01*
X102451426Y-91330147D01*
X102190273Y-91438320D01*
X101955241Y-91595363D01*
X101755363Y-91795241D01*
X101598320Y-92030273D01*
X101490147Y-92291426D01*
X101435000Y-92568665D01*
X94145000Y-92568665D01*
X94089853Y-92291426D01*
X93981680Y-92030273D01*
X93824637Y-91795241D01*
X93624759Y-91595363D01*
X93389727Y-91438320D01*
X93128574Y-91330147D01*
X92851335Y-91275000D01*
X92568665Y-91275000D01*
X92291426Y-91330147D01*
X92030273Y-91438320D01*
X91795241Y-91595363D01*
X91595363Y-91795241D01*
X91438320Y-92030273D01*
X91330147Y-92291426D01*
X91275000Y-92568665D01*
X66802000Y-92568665D01*
X66802000Y-89257702D01*
X91896903Y-89257702D01*
X91968486Y-89501671D01*
X92223996Y-89622571D01*
X92498184Y-89691300D01*
X92780512Y-89705217D01*
X93060130Y-89663787D01*
X93326292Y-89568603D01*
X93451514Y-89501671D01*
X93523097Y-89257702D01*
X92710000Y-88444605D01*
X91896903Y-89257702D01*
X66802000Y-89257702D01*
X66802000Y-88335512D01*
X91269783Y-88335512D01*
X91311213Y-88615130D01*
X91406397Y-88881292D01*
X91473329Y-89006514D01*
X91717298Y-89078097D01*
X92530395Y-88265000D01*
X92889605Y-88265000D01*
X93702702Y-89078097D01*
X93946671Y-89006514D01*
X94067571Y-88751004D01*
X94136300Y-88476816D01*
X94150217Y-88194488D01*
X94139724Y-88123665D01*
X101435000Y-88123665D01*
X101435000Y-88406335D01*
X101490147Y-88683574D01*
X101598320Y-88944727D01*
X101755363Y-89179759D01*
X101955241Y-89379637D01*
X102190273Y-89536680D01*
X102451426Y-89644853D01*
X102728665Y-89700000D01*
X103011335Y-89700000D01*
X103288574Y-89644853D01*
X103549727Y-89536680D01*
X103784759Y-89379637D01*
X103984637Y-89179759D01*
X104141680Y-88944727D01*
X104249853Y-88683574D01*
X104305000Y-88406335D01*
X104305000Y-88123665D01*
X105880000Y-88123665D01*
X105880000Y-88406335D01*
X105935147Y-88683574D01*
X106043320Y-88944727D01*
X106200363Y-89179759D01*
X106400241Y-89379637D01*
X106635273Y-89536680D01*
X106896426Y-89644853D01*
X107173665Y-89700000D01*
X107456335Y-89700000D01*
X107733574Y-89644853D01*
X107994727Y-89536680D01*
X108229759Y-89379637D01*
X108351694Y-89257702D01*
X116661903Y-89257702D01*
X116733486Y-89501671D01*
X116988996Y-89622571D01*
X117263184Y-89691300D01*
X117545512Y-89705217D01*
X117825130Y-89663787D01*
X118091292Y-89568603D01*
X118216514Y-89501671D01*
X118288097Y-89257702D01*
X117475000Y-88444605D01*
X116661903Y-89257702D01*
X108351694Y-89257702D01*
X108429637Y-89179759D01*
X108586680Y-88944727D01*
X108694853Y-88683574D01*
X108750000Y-88406335D01*
X108750000Y-88335512D01*
X116034783Y-88335512D01*
X116076213Y-88615130D01*
X116171397Y-88881292D01*
X116238329Y-89006514D01*
X116482298Y-89078097D01*
X117295395Y-88265000D01*
X117654605Y-88265000D01*
X118467702Y-89078097D01*
X118711671Y-89006514D01*
X118832571Y-88751004D01*
X118901300Y-88476816D01*
X118915217Y-88194488D01*
X118873787Y-87914870D01*
X118778603Y-87648708D01*
X118711671Y-87523486D01*
X118467702Y-87451903D01*
X117654605Y-88265000D01*
X117295395Y-88265000D01*
X116482298Y-87451903D01*
X116238329Y-87523486D01*
X116117429Y-87778996D01*
X116048700Y-88053184D01*
X116034783Y-88335512D01*
X108750000Y-88335512D01*
X108750000Y-88123665D01*
X108694853Y-87846426D01*
X108586680Y-87585273D01*
X108429637Y-87350241D01*
X108351694Y-87272298D01*
X116661903Y-87272298D01*
X117475000Y-88085395D01*
X118288097Y-87272298D01*
X118216514Y-87028329D01*
X117961004Y-86907429D01*
X117686816Y-86838700D01*
X117404488Y-86824783D01*
X117124870Y-86866213D01*
X116858708Y-86961397D01*
X116733486Y-87028329D01*
X116661903Y-87272298D01*
X108351694Y-87272298D01*
X108229759Y-87150363D01*
X107994727Y-86993320D01*
X107733574Y-86885147D01*
X107456335Y-86830000D01*
X107173665Y-86830000D01*
X106896426Y-86885147D01*
X106635273Y-86993320D01*
X106400241Y-87150363D01*
X106200363Y-87350241D01*
X106043320Y-87585273D01*
X105935147Y-87846426D01*
X105880000Y-88123665D01*
X104305000Y-88123665D01*
X104249853Y-87846426D01*
X104141680Y-87585273D01*
X103984637Y-87350241D01*
X103784759Y-87150363D01*
X103549727Y-86993320D01*
X103288574Y-86885147D01*
X103011335Y-86830000D01*
X102728665Y-86830000D01*
X102451426Y-86885147D01*
X102190273Y-86993320D01*
X101955241Y-87150363D01*
X101755363Y-87350241D01*
X101598320Y-87585273D01*
X101490147Y-87846426D01*
X101435000Y-88123665D01*
X94139724Y-88123665D01*
X94108787Y-87914870D01*
X94013603Y-87648708D01*
X93946671Y-87523486D01*
X93702702Y-87451903D01*
X92889605Y-88265000D01*
X92530395Y-88265000D01*
X91717298Y-87451903D01*
X91473329Y-87523486D01*
X91352429Y-87778996D01*
X91283700Y-88053184D01*
X91269783Y-88335512D01*
X66802000Y-88335512D01*
X66802000Y-87272298D01*
X91896903Y-87272298D01*
X92710000Y-88085395D01*
X93523097Y-87272298D01*
X93451514Y-87028329D01*
X93196004Y-86907429D01*
X92921816Y-86838700D01*
X92639488Y-86824783D01*
X92359870Y-86866213D01*
X92093708Y-86961397D01*
X91968486Y-87028329D01*
X91896903Y-87272298D01*
X66802000Y-87272298D01*
X66802000Y-82558726D01*
X66820611Y-82603657D01*
X67273136Y-83280909D01*
X67849091Y-83856864D01*
X68526343Y-84309389D01*
X69278865Y-84621094D01*
X70077738Y-84780000D01*
X70892262Y-84780000D01*
X71691135Y-84621094D01*
X72443657Y-84309389D01*
X73120909Y-83856864D01*
X73696864Y-83280909D01*
X74149389Y-82603657D01*
X74461094Y-81851135D01*
X74620000Y-81052262D01*
X74620000Y-80237738D01*
X74461094Y-79438865D01*
X74149389Y-78686343D01*
X73696864Y-78009091D01*
X73120909Y-77433136D01*
X72443657Y-76980611D01*
X72398726Y-76962000D01*
X78576950Y-76962000D01*
X78521086Y-77017864D01*
%TD*%
M02*
