M48
; DRILL file {KiCad 5.1.6-c6e7f7d~87~ubuntu20.04.1} date Fri Aug 14 15:03:40 2020
; FORMAT={-:-/ absolute / inch / decimal}
; #@! TF.CreationDate,2020-08-14T15:03:40-04:00
; #@! TF.GenerationSoftware,Kicad,Pcbnew,5.1.6-c6e7f7d~87~ubuntu20.04.1
; #@! TF.FileFunction,Plated,1,2,PTH
FMAT,2
INCH
T1C0.0080
T2C0.0295
T3C0.0315
T4C0.0354
T5C0.0394
T6C0.0420
T7C0.0433
T8C0.0669
T9C0.1378
%
G90
G05
T1
X3.025Y-4.025
X4.375Y-4.55
X4.9Y-3.1
X4.9Y-3.675
T2
X4.025Y-4.3
X4.025Y-4.35
X4.025Y-4.4
X4.025Y-3.825
X4.025Y-3.875
X4.025Y-3.925
X3.675Y-4.3
X3.675Y-4.35
X3.675Y-4.4
X3.675Y-3.825
X3.675Y-3.875
X3.675Y-3.925
T3
X3.65Y-3.65
X4.05Y-3.65
X3.65Y-4.125
X4.05Y-4.125
X4.5266Y-4.375
X4.625Y-4.375
X4.5266Y-3.875
X4.625Y-3.875
X4.225Y-3.475
X4.625Y-3.475
X4.225Y-3.65
X4.625Y-3.65
X3.65Y-3.475
X4.05Y-3.475
X4.225Y-4.125
X4.625Y-4.125
X3.025Y-3.875
X3.425Y-3.875
X3.025Y-4.35
X3.425Y-4.35
T4
X3.925Y-3.2
X4.025Y-3.2
X4.175Y-3.2
X4.275Y-3.2
T5
X2.75Y-3.825
X2.75Y-3.925
X2.75Y-4.025
X2.75Y-4.125
T6
X5.075Y-3.125
X5.075Y-3.825
X6.645Y-3.125
X6.645Y-3.825
X4.925Y-4.1
X4.925Y-4.88
X6.675Y-4.1
X6.675Y-4.88
T7
X4.375Y-4.725
X4.475Y-4.725
X4.575Y-4.725
X4.5Y-3.25
X4.6Y-3.25
X4.7Y-3.25
T8
X3.125Y-3.15
X3.2809Y-3.15
X3.575Y-3.15
X3.7309Y-3.15
X7.35Y-3.6
X7.35Y-3.7559
X7.35Y-3.9118
X7.35Y-4.0677
X7.35Y-4.2236
X7.35Y-4.3795
X3.375Y-4.85
X3.5309Y-4.85
T9
X2.775Y-4.825
X2.775Y-3.175
X7.425Y-3.175
X7.425Y-4.825
T0
M30
