%TF.GenerationSoftware,KiCad,Pcbnew,5.1.6-c6e7f7d~87~ubuntu20.04.1*%
%TF.CreationDate,2020-08-14T15:03:36-04:00*%
%TF.ProjectId,psu,7073752e-6b69-4636-9164-5f7063625858,rev?*%
%TF.SameCoordinates,Original*%
%TF.FileFunction,Legend,Top*%
%TF.FilePolarity,Positive*%
%FSLAX46Y46*%
G04 Gerber Fmt 4.6, Leading zero omitted, Abs format (unit mm)*
G04 Created by KiCad (PCBNEW 5.1.6-c6e7f7d~87~ubuntu20.04.1) date 2020-08-14 15:03:36*
%MOMM*%
%LPD*%
G01*
G04 APERTURE LIST*
%ADD10C,0.150000*%
%ADD11C,0.177800*%
%ADD12C,0.120000*%
%ADD13C,0.152400*%
G04 APERTURE END LIST*
D10*
X107338857Y-77652571D02*
X107005523Y-77652571D01*
X107005523Y-78176380D02*
X107005523Y-77176380D01*
X107481714Y-77176380D01*
X107862666Y-78176380D02*
X107862666Y-77509714D01*
X107862666Y-77176380D02*
X107815047Y-77224000D01*
X107862666Y-77271619D01*
X107910285Y-77224000D01*
X107862666Y-77176380D01*
X107862666Y-77271619D01*
X108481714Y-78176380D02*
X108386476Y-78128761D01*
X108338857Y-78033523D01*
X108338857Y-77176380D01*
X99853904Y-77176380D02*
X100187238Y-78176380D01*
X100520571Y-77176380D01*
X100853904Y-77509714D02*
X100853904Y-78509714D01*
X100853904Y-77557333D02*
X100949142Y-77509714D01*
X101139619Y-77509714D01*
X101234857Y-77557333D01*
X101282476Y-77604952D01*
X101330095Y-77700190D01*
X101330095Y-77985904D01*
X101282476Y-78081142D01*
X101234857Y-78128761D01*
X101139619Y-78176380D01*
X100949142Y-78176380D01*
X100853904Y-78128761D01*
X101758666Y-77509714D02*
X101758666Y-78509714D01*
X101758666Y-77557333D02*
X101853904Y-77509714D01*
X102044380Y-77509714D01*
X102139619Y-77557333D01*
X102187238Y-77604952D01*
X102234857Y-77700190D01*
X102234857Y-77985904D01*
X102187238Y-78081142D01*
X102139619Y-78128761D01*
X102044380Y-78176380D01*
X101853904Y-78176380D01*
X101758666Y-78128761D01*
X72390095Y-104656000D02*
X72294857Y-104608380D01*
X72152000Y-104608380D01*
X72009142Y-104656000D01*
X71913904Y-104751238D01*
X71866285Y-104846476D01*
X71818666Y-105036952D01*
X71818666Y-105179809D01*
X71866285Y-105370285D01*
X71913904Y-105465523D01*
X72009142Y-105560761D01*
X72152000Y-105608380D01*
X72247238Y-105608380D01*
X72390095Y-105560761D01*
X72437714Y-105513142D01*
X72437714Y-105179809D01*
X72247238Y-105179809D01*
X72866285Y-105608380D02*
X72866285Y-104608380D01*
X73437714Y-105608380D01*
X73437714Y-104608380D01*
X73913904Y-105608380D02*
X73913904Y-104608380D01*
X74152000Y-104608380D01*
X74294857Y-104656000D01*
X74390095Y-104751238D01*
X74437714Y-104846476D01*
X74485333Y-105036952D01*
X74485333Y-105179809D01*
X74437714Y-105370285D01*
X74390095Y-105465523D01*
X74294857Y-105560761D01*
X74152000Y-105608380D01*
X73913904Y-105608380D01*
X72390095Y-102116000D02*
X72294857Y-102068380D01*
X72152000Y-102068380D01*
X72009142Y-102116000D01*
X71913904Y-102211238D01*
X71866285Y-102306476D01*
X71818666Y-102496952D01*
X71818666Y-102639809D01*
X71866285Y-102830285D01*
X71913904Y-102925523D01*
X72009142Y-103020761D01*
X72152000Y-103068380D01*
X72247238Y-103068380D01*
X72390095Y-103020761D01*
X72437714Y-102973142D01*
X72437714Y-102639809D01*
X72247238Y-102639809D01*
X72866285Y-103068380D02*
X72866285Y-102068380D01*
X73437714Y-103068380D01*
X73437714Y-102068380D01*
X73913904Y-103068380D02*
X73913904Y-102068380D01*
X74152000Y-102068380D01*
X74294857Y-102116000D01*
X74390095Y-102211238D01*
X74437714Y-102306476D01*
X74485333Y-102496952D01*
X74485333Y-102639809D01*
X74437714Y-102830285D01*
X74390095Y-102925523D01*
X74294857Y-103020761D01*
X74152000Y-103068380D01*
X73913904Y-103068380D01*
X72207619Y-100480761D02*
X72112380Y-100528380D01*
X71921904Y-100528380D01*
X71826666Y-100480761D01*
X71779047Y-100385523D01*
X71779047Y-100004571D01*
X71826666Y-99909333D01*
X71921904Y-99861714D01*
X72112380Y-99861714D01*
X72207619Y-99909333D01*
X72255238Y-100004571D01*
X72255238Y-100099809D01*
X71779047Y-100195047D01*
X72683809Y-99861714D02*
X72683809Y-100528380D01*
X72683809Y-99956952D02*
X72731428Y-99909333D01*
X72826666Y-99861714D01*
X72969523Y-99861714D01*
X73064761Y-99909333D01*
X73112380Y-100004571D01*
X73112380Y-100528380D01*
X73540952Y-99623619D02*
X73588571Y-99576000D01*
X73683809Y-99528380D01*
X73921904Y-99528380D01*
X74017142Y-99576000D01*
X74064761Y-99623619D01*
X74112380Y-99718857D01*
X74112380Y-99814095D01*
X74064761Y-99956952D01*
X73493333Y-100528380D01*
X74112380Y-100528380D01*
X74540952Y-100433142D02*
X74588571Y-100480761D01*
X74540952Y-100528380D01*
X74493333Y-100480761D01*
X74540952Y-100433142D01*
X74540952Y-100528380D01*
X75493333Y-99528380D02*
X75017142Y-99528380D01*
X74969523Y-100004571D01*
X75017142Y-99956952D01*
X75112380Y-99909333D01*
X75350476Y-99909333D01*
X75445714Y-99956952D01*
X75493333Y-100004571D01*
X75540952Y-100099809D01*
X75540952Y-100337904D01*
X75493333Y-100433142D01*
X75445714Y-100480761D01*
X75350476Y-100528380D01*
X75112380Y-100528380D01*
X75017142Y-100480761D01*
X74969523Y-100433142D01*
X72445714Y-96924761D02*
X72350476Y-96972380D01*
X72160000Y-96972380D01*
X72064761Y-96924761D01*
X72017142Y-96829523D01*
X72017142Y-96448571D01*
X72064761Y-96353333D01*
X72160000Y-96305714D01*
X72350476Y-96305714D01*
X72445714Y-96353333D01*
X72493333Y-96448571D01*
X72493333Y-96543809D01*
X72017142Y-96639047D01*
X72921904Y-96305714D02*
X72921904Y-96972380D01*
X72921904Y-96400952D02*
X72969523Y-96353333D01*
X73064761Y-96305714D01*
X73207619Y-96305714D01*
X73302857Y-96353333D01*
X73350476Y-96448571D01*
X73350476Y-96972380D01*
X74350476Y-96972380D02*
X73779047Y-96972380D01*
X74064761Y-96972380D02*
X74064761Y-95972380D01*
X73969523Y-96115238D01*
X73874285Y-96210476D01*
X73779047Y-96258095D01*
X74921904Y-96400952D02*
X74826666Y-96353333D01*
X74779047Y-96305714D01*
X74731428Y-96210476D01*
X74731428Y-96162857D01*
X74779047Y-96067619D01*
X74826666Y-96020000D01*
X74921904Y-95972380D01*
X75112380Y-95972380D01*
X75207619Y-96020000D01*
X75255238Y-96067619D01*
X75302857Y-96162857D01*
X75302857Y-96210476D01*
X75255238Y-96305714D01*
X75207619Y-96353333D01*
X75112380Y-96400952D01*
X74921904Y-96400952D01*
X74826666Y-96448571D01*
X74779047Y-96496190D01*
X74731428Y-96591428D01*
X74731428Y-96781904D01*
X74779047Y-96877142D01*
X74826666Y-96924761D01*
X74921904Y-96972380D01*
X75112380Y-96972380D01*
X75207619Y-96924761D01*
X75255238Y-96877142D01*
X75302857Y-96781904D01*
X75302857Y-96591428D01*
X75255238Y-96496190D01*
X75207619Y-96448571D01*
X75112380Y-96400952D01*
X68056380Y-92305142D02*
X68008761Y-92352761D01*
X67865904Y-92400380D01*
X67770666Y-92400380D01*
X67627809Y-92352761D01*
X67532571Y-92257523D01*
X67484952Y-92162285D01*
X67437333Y-91971809D01*
X67437333Y-91828952D01*
X67484952Y-91638476D01*
X67532571Y-91543238D01*
X67627809Y-91448000D01*
X67770666Y-91400380D01*
X67865904Y-91400380D01*
X68008761Y-91448000D01*
X68056380Y-91495619D01*
X68342095Y-91400380D02*
X68913523Y-91400380D01*
X68627809Y-92400380D02*
X68627809Y-91400380D01*
X69818285Y-92400380D02*
X69484952Y-91924190D01*
X69246857Y-92400380D02*
X69246857Y-91400380D01*
X69627809Y-91400380D01*
X69723047Y-91448000D01*
X69770666Y-91495619D01*
X69818285Y-91590857D01*
X69818285Y-91733714D01*
X69770666Y-91828952D01*
X69723047Y-91876571D01*
X69627809Y-91924190D01*
X69246857Y-91924190D01*
X70723047Y-92400380D02*
X70246857Y-92400380D01*
X70246857Y-91400380D01*
X71818285Y-92400380D02*
X71818285Y-91733714D01*
X71818285Y-91400380D02*
X71770666Y-91448000D01*
X71818285Y-91495619D01*
X71865904Y-91448000D01*
X71818285Y-91400380D01*
X71818285Y-91495619D01*
X72294476Y-91733714D02*
X72294476Y-92400380D01*
X72294476Y-91828952D02*
X72342095Y-91781333D01*
X72437333Y-91733714D01*
X72580190Y-91733714D01*
X72675428Y-91781333D01*
X72723047Y-91876571D01*
X72723047Y-92400380D01*
X184055047Y-87161714D02*
X184436000Y-87161714D01*
X184197904Y-86828380D02*
X184197904Y-87685523D01*
X184245523Y-87780761D01*
X184340761Y-87828380D01*
X184436000Y-87828380D01*
X184912190Y-87828380D02*
X184816952Y-87780761D01*
X184769333Y-87733142D01*
X184721714Y-87637904D01*
X184721714Y-87352190D01*
X184769333Y-87256952D01*
X184816952Y-87209333D01*
X184912190Y-87161714D01*
X185055047Y-87161714D01*
X185150285Y-87209333D01*
X185197904Y-87256952D01*
X185245523Y-87352190D01*
X185245523Y-87637904D01*
X185197904Y-87733142D01*
X185150285Y-87780761D01*
X185055047Y-87828380D01*
X184912190Y-87828380D01*
X186293142Y-86828380D02*
X186626476Y-87828380D01*
X186959809Y-86828380D01*
X187626476Y-87304571D02*
X187293142Y-87304571D01*
X187293142Y-87828380D02*
X187293142Y-86828380D01*
X187769333Y-86828380D01*
X188150285Y-87828380D02*
X188150285Y-86828380D01*
X188388380Y-86828380D01*
X188531238Y-86876000D01*
X188626476Y-86971238D01*
X188674095Y-87066476D01*
X188721714Y-87256952D01*
X188721714Y-87399809D01*
X188674095Y-87590285D01*
X188626476Y-87685523D01*
X188531238Y-87780761D01*
X188388380Y-87828380D01*
X188150285Y-87828380D01*
X178054095Y-111260000D02*
X177958857Y-111212380D01*
X177816000Y-111212380D01*
X177673142Y-111260000D01*
X177577904Y-111355238D01*
X177530285Y-111450476D01*
X177482666Y-111640952D01*
X177482666Y-111783809D01*
X177530285Y-111974285D01*
X177577904Y-112069523D01*
X177673142Y-112164761D01*
X177816000Y-112212380D01*
X177911238Y-112212380D01*
X178054095Y-112164761D01*
X178101714Y-112117142D01*
X178101714Y-111783809D01*
X177911238Y-111783809D01*
X178530285Y-112212380D02*
X178530285Y-111212380D01*
X179101714Y-112212380D01*
X179101714Y-111212380D01*
X179577904Y-112212380D02*
X179577904Y-111212380D01*
X179816000Y-111212380D01*
X179958857Y-111260000D01*
X180054095Y-111355238D01*
X180101714Y-111450476D01*
X180149333Y-111640952D01*
X180149333Y-111783809D01*
X180101714Y-111974285D01*
X180054095Y-112069523D01*
X179958857Y-112164761D01*
X179816000Y-112212380D01*
X179577904Y-112212380D01*
X176816000Y-107259428D02*
X177577904Y-107259428D01*
X177196952Y-107640380D02*
X177196952Y-106878476D01*
X178006476Y-106735619D02*
X178054095Y-106688000D01*
X178149333Y-106640380D01*
X178387428Y-106640380D01*
X178482666Y-106688000D01*
X178530285Y-106735619D01*
X178577904Y-106830857D01*
X178577904Y-106926095D01*
X178530285Y-107068952D01*
X177958857Y-107640380D01*
X178577904Y-107640380D01*
X179006476Y-107545142D02*
X179054095Y-107592761D01*
X179006476Y-107640380D01*
X178958857Y-107592761D01*
X179006476Y-107545142D01*
X179006476Y-107640380D01*
X179958857Y-106640380D02*
X179482666Y-106640380D01*
X179435047Y-107116571D01*
X179482666Y-107068952D01*
X179577904Y-107021333D01*
X179816000Y-107021333D01*
X179911238Y-107068952D01*
X179958857Y-107116571D01*
X180006476Y-107211809D01*
X180006476Y-107449904D01*
X179958857Y-107545142D01*
X179911238Y-107592761D01*
X179816000Y-107640380D01*
X179577904Y-107640380D01*
X179482666Y-107592761D01*
X179435047Y-107545142D01*
X180292190Y-106640380D02*
X180625523Y-107640380D01*
X180958857Y-106640380D01*
X178054095Y-101608000D02*
X177958857Y-101560380D01*
X177816000Y-101560380D01*
X177673142Y-101608000D01*
X177577904Y-101703238D01*
X177530285Y-101798476D01*
X177482666Y-101988952D01*
X177482666Y-102131809D01*
X177530285Y-102322285D01*
X177577904Y-102417523D01*
X177673142Y-102512761D01*
X177816000Y-102560380D01*
X177911238Y-102560380D01*
X178054095Y-102512761D01*
X178101714Y-102465142D01*
X178101714Y-102131809D01*
X177911238Y-102131809D01*
X178530285Y-102560380D02*
X178530285Y-101560380D01*
X179101714Y-102560380D01*
X179101714Y-101560380D01*
X179577904Y-102560380D02*
X179577904Y-101560380D01*
X179816000Y-101560380D01*
X179958857Y-101608000D01*
X180054095Y-101703238D01*
X180101714Y-101798476D01*
X180149333Y-101988952D01*
X180149333Y-102131809D01*
X180101714Y-102322285D01*
X180054095Y-102417523D01*
X179958857Y-102512761D01*
X179816000Y-102560380D01*
X179577904Y-102560380D01*
X177054095Y-99131428D02*
X177816000Y-99131428D01*
X177435047Y-99512380D02*
X177435047Y-98750476D01*
X178816000Y-99512380D02*
X178244571Y-99512380D01*
X178530285Y-99512380D02*
X178530285Y-98512380D01*
X178435047Y-98655238D01*
X178339809Y-98750476D01*
X178244571Y-98798095D01*
X179387428Y-98940952D02*
X179292190Y-98893333D01*
X179244571Y-98845714D01*
X179196952Y-98750476D01*
X179196952Y-98702857D01*
X179244571Y-98607619D01*
X179292190Y-98560000D01*
X179387428Y-98512380D01*
X179577904Y-98512380D01*
X179673142Y-98560000D01*
X179720761Y-98607619D01*
X179768380Y-98702857D01*
X179768380Y-98750476D01*
X179720761Y-98845714D01*
X179673142Y-98893333D01*
X179577904Y-98940952D01*
X179387428Y-98940952D01*
X179292190Y-98988571D01*
X179244571Y-99036190D01*
X179196952Y-99131428D01*
X179196952Y-99321904D01*
X179244571Y-99417142D01*
X179292190Y-99464761D01*
X179387428Y-99512380D01*
X179577904Y-99512380D01*
X179673142Y-99464761D01*
X179720761Y-99417142D01*
X179768380Y-99321904D01*
X179768380Y-99131428D01*
X179720761Y-99036190D01*
X179673142Y-98988571D01*
X179577904Y-98940952D01*
X180054095Y-98512380D02*
X180387428Y-99512380D01*
X180720761Y-98512380D01*
X178054095Y-94496000D02*
X177958857Y-94448380D01*
X177816000Y-94448380D01*
X177673142Y-94496000D01*
X177577904Y-94591238D01*
X177530285Y-94686476D01*
X177482666Y-94876952D01*
X177482666Y-95019809D01*
X177530285Y-95210285D01*
X177577904Y-95305523D01*
X177673142Y-95400761D01*
X177816000Y-95448380D01*
X177911238Y-95448380D01*
X178054095Y-95400761D01*
X178101714Y-95353142D01*
X178101714Y-95019809D01*
X177911238Y-95019809D01*
X178530285Y-95448380D02*
X178530285Y-94448380D01*
X179101714Y-95448380D01*
X179101714Y-94448380D01*
X179577904Y-95448380D02*
X179577904Y-94448380D01*
X179816000Y-94448380D01*
X179958857Y-94496000D01*
X180054095Y-94591238D01*
X180101714Y-94686476D01*
X180149333Y-94876952D01*
X180149333Y-95019809D01*
X180101714Y-95210285D01*
X180054095Y-95305523D01*
X179958857Y-95400761D01*
X179816000Y-95448380D01*
X179577904Y-95448380D01*
X178030285Y-91384380D02*
X178030285Y-90384380D01*
X178601714Y-91384380D01*
X178601714Y-90384380D01*
X179649333Y-91289142D02*
X179601714Y-91336761D01*
X179458857Y-91384380D01*
X179363619Y-91384380D01*
X179220761Y-91336761D01*
X179125523Y-91241523D01*
X179077904Y-91146285D01*
X179030285Y-90955809D01*
X179030285Y-90812952D01*
X179077904Y-90622476D01*
X179125523Y-90527238D01*
X179220761Y-90432000D01*
X179363619Y-90384380D01*
X179458857Y-90384380D01*
X179601714Y-90432000D01*
X179649333Y-90479619D01*
X85360190Y-116911428D02*
X86122095Y-116911428D01*
X89645904Y-116911428D02*
X90407809Y-116911428D01*
X90026857Y-117292380D02*
X90026857Y-116530476D01*
X78756190Y-86622428D02*
X79518095Y-86622428D01*
X79137142Y-87003380D02*
X79137142Y-86241476D01*
X83041904Y-86622428D02*
X83803809Y-86622428D01*
X79589523Y-88653380D02*
X79780000Y-88653380D01*
X79875238Y-88605761D01*
X79922857Y-88558142D01*
X80018095Y-88415285D01*
X80065714Y-88224809D01*
X80065714Y-87843857D01*
X80018095Y-87748619D01*
X79970476Y-87701000D01*
X79875238Y-87653380D01*
X79684761Y-87653380D01*
X79589523Y-87701000D01*
X79541904Y-87748619D01*
X79494285Y-87843857D01*
X79494285Y-88081952D01*
X79541904Y-88177190D01*
X79589523Y-88224809D01*
X79684761Y-88272428D01*
X79875238Y-88272428D01*
X79970476Y-88224809D01*
X80018095Y-88177190D01*
X80065714Y-88081952D01*
X80351428Y-87653380D02*
X80684761Y-88653380D01*
X81018095Y-87653380D01*
X82113333Y-88653380D02*
X82113333Y-87986714D01*
X82113333Y-87653380D02*
X82065714Y-87701000D01*
X82113333Y-87748619D01*
X82160952Y-87701000D01*
X82113333Y-87653380D01*
X82113333Y-87748619D01*
X82589523Y-87986714D02*
X82589523Y-88653380D01*
X82589523Y-88081952D02*
X82637142Y-88034333D01*
X82732380Y-87986714D01*
X82875238Y-87986714D01*
X82970476Y-88034333D01*
X83018095Y-88129571D01*
X83018095Y-88653380D01*
X93385142Y-122372380D02*
X93575619Y-122372380D01*
X93670857Y-122324761D01*
X93718476Y-122277142D01*
X93813714Y-122134285D01*
X93861333Y-121943809D01*
X93861333Y-121562857D01*
X93813714Y-121467619D01*
X93766095Y-121420000D01*
X93670857Y-121372380D01*
X93480380Y-121372380D01*
X93385142Y-121420000D01*
X93337523Y-121467619D01*
X93289904Y-121562857D01*
X93289904Y-121800952D01*
X93337523Y-121896190D01*
X93385142Y-121943809D01*
X93480380Y-121991428D01*
X93670857Y-121991428D01*
X93766095Y-121943809D01*
X93813714Y-121896190D01*
X93861333Y-121800952D01*
X94147047Y-121372380D02*
X94480380Y-122372380D01*
X94813714Y-121372380D01*
X95766095Y-121705714D02*
X96147047Y-121705714D01*
X95908952Y-121372380D02*
X95908952Y-122229523D01*
X95956571Y-122324761D01*
X96051809Y-122372380D01*
X96147047Y-122372380D01*
X96623238Y-122372380D02*
X96528000Y-122324761D01*
X96480380Y-122277142D01*
X96432761Y-122181904D01*
X96432761Y-121896190D01*
X96480380Y-121800952D01*
X96528000Y-121753333D01*
X96623238Y-121705714D01*
X96766095Y-121705714D01*
X96861333Y-121753333D01*
X96908952Y-121800952D01*
X96956571Y-121896190D01*
X96956571Y-122181904D01*
X96908952Y-122277142D01*
X96861333Y-122324761D01*
X96766095Y-122372380D01*
X96623238Y-122372380D01*
X98718476Y-122277142D02*
X98670857Y-122324761D01*
X98528000Y-122372380D01*
X98432761Y-122372380D01*
X98289904Y-122324761D01*
X98194666Y-122229523D01*
X98147047Y-122134285D01*
X98099428Y-121943809D01*
X98099428Y-121800952D01*
X98147047Y-121610476D01*
X98194666Y-121515238D01*
X98289904Y-121420000D01*
X98432761Y-121372380D01*
X98528000Y-121372380D01*
X98670857Y-121420000D01*
X98718476Y-121467619D01*
X99147047Y-122372380D02*
X99147047Y-121372380D01*
X99528000Y-121372380D01*
X99623238Y-121420000D01*
X99670857Y-121467619D01*
X99718476Y-121562857D01*
X99718476Y-121705714D01*
X99670857Y-121800952D01*
X99623238Y-121848571D01*
X99528000Y-121896190D01*
X99147047Y-121896190D01*
X100147047Y-121372380D02*
X100147047Y-122181904D01*
X100194666Y-122277142D01*
X100242285Y-122324761D01*
X100337523Y-122372380D01*
X100528000Y-122372380D01*
X100623238Y-122324761D01*
X100670857Y-122277142D01*
X100718476Y-122181904D01*
X100718476Y-121372380D01*
D11*
X67594903Y-113834333D02*
X67594903Y-115273666D01*
X67679570Y-115443000D01*
X67764236Y-115527666D01*
X67933570Y-115612333D01*
X68272236Y-115612333D01*
X68441570Y-115527666D01*
X68526236Y-115443000D01*
X68610903Y-115273666D01*
X68610903Y-113834333D01*
X69457570Y-115612333D02*
X69457570Y-113834333D01*
X70134903Y-113834333D01*
X70304236Y-113919000D01*
X70388903Y-114003666D01*
X70473570Y-114173000D01*
X70473570Y-114427000D01*
X70388903Y-114596333D01*
X70304236Y-114681000D01*
X70134903Y-114765666D01*
X69457570Y-114765666D01*
X72251570Y-115443000D02*
X72166903Y-115527666D01*
X71912903Y-115612333D01*
X71743570Y-115612333D01*
X71489570Y-115527666D01*
X71320236Y-115358333D01*
X71235570Y-115189000D01*
X71150903Y-114850333D01*
X71150903Y-114596333D01*
X71235570Y-114257666D01*
X71320236Y-114088333D01*
X71489570Y-113919000D01*
X71743570Y-113834333D01*
X71912903Y-113834333D01*
X72166903Y-113919000D01*
X72251570Y-114003666D01*
X73352236Y-113834333D02*
X73690903Y-113834333D01*
X73860236Y-113919000D01*
X74029570Y-114088333D01*
X74114236Y-114427000D01*
X74114236Y-115019666D01*
X74029570Y-115358333D01*
X73860236Y-115527666D01*
X73690903Y-115612333D01*
X73352236Y-115612333D01*
X73182903Y-115527666D01*
X73013570Y-115358333D01*
X72928903Y-115019666D01*
X72928903Y-114427000D01*
X73013570Y-114088333D01*
X73182903Y-113919000D01*
X73352236Y-113834333D01*
X77246903Y-115612333D02*
X76654236Y-114765666D01*
X76230903Y-115612333D02*
X76230903Y-113834333D01*
X76908236Y-113834333D01*
X77077570Y-113919000D01*
X77162236Y-114003666D01*
X77246903Y-114173000D01*
X77246903Y-114427000D01*
X77162236Y-114596333D01*
X77077570Y-114681000D01*
X76908236Y-114765666D01*
X76230903Y-114765666D01*
X78686236Y-115527666D02*
X78516903Y-115612333D01*
X78178236Y-115612333D01*
X78008903Y-115527666D01*
X77924236Y-115358333D01*
X77924236Y-114681000D01*
X78008903Y-114511666D01*
X78178236Y-114427000D01*
X78516903Y-114427000D01*
X78686236Y-114511666D01*
X78770903Y-114681000D01*
X78770903Y-114850333D01*
X77924236Y-115019666D01*
X79278903Y-114427000D02*
X79956236Y-114427000D01*
X79532903Y-113834333D02*
X79532903Y-115358333D01*
X79617570Y-115527666D01*
X79786903Y-115612333D01*
X79956236Y-115612333D01*
X80548903Y-115612333D02*
X80548903Y-114427000D01*
X80548903Y-114765666D02*
X80633570Y-114596333D01*
X80718236Y-114511666D01*
X80887570Y-114427000D01*
X81056903Y-114427000D01*
X81903570Y-115612333D02*
X81734236Y-115527666D01*
X81649570Y-115443000D01*
X81564903Y-115273666D01*
X81564903Y-114765666D01*
X81649570Y-114596333D01*
X81734236Y-114511666D01*
X81903570Y-114427000D01*
X82157570Y-114427000D01*
X82326903Y-114511666D01*
X82411570Y-114596333D01*
X82496236Y-114765666D01*
X82496236Y-115273666D01*
X82411570Y-115443000D01*
X82326903Y-115527666D01*
X82157570Y-115612333D01*
X81903570Y-115612333D01*
X83258236Y-114935000D02*
X84612903Y-114935000D01*
X85374903Y-114003666D02*
X85459570Y-113919000D01*
X85628903Y-113834333D01*
X86052236Y-113834333D01*
X86221570Y-113919000D01*
X86306236Y-114003666D01*
X86390903Y-114173000D01*
X86390903Y-114342333D01*
X86306236Y-114596333D01*
X85290236Y-115612333D01*
X86390903Y-115612333D01*
X87999570Y-113834333D02*
X87152903Y-113834333D01*
X87068236Y-114681000D01*
X87152903Y-114596333D01*
X87322236Y-114511666D01*
X87745570Y-114511666D01*
X87914903Y-114596333D01*
X87999570Y-114681000D01*
X88084236Y-114850333D01*
X88084236Y-115273666D01*
X87999570Y-115443000D01*
X87914903Y-115527666D01*
X87745570Y-115612333D01*
X87322236Y-115612333D01*
X87152903Y-115527666D01*
X87068236Y-115443000D01*
X91555570Y-115612333D02*
X91555570Y-113834333D01*
X92232903Y-113834333D01*
X92402236Y-113919000D01*
X92486903Y-114003666D01*
X92571570Y-114173000D01*
X92571570Y-114427000D01*
X92486903Y-114596333D01*
X92402236Y-114681000D01*
X92232903Y-114765666D01*
X91555570Y-114765666D01*
X93587570Y-115612333D02*
X93418236Y-115527666D01*
X93333570Y-115443000D01*
X93248903Y-115273666D01*
X93248903Y-114765666D01*
X93333570Y-114596333D01*
X93418236Y-114511666D01*
X93587570Y-114427000D01*
X93841570Y-114427000D01*
X94010903Y-114511666D01*
X94095570Y-114596333D01*
X94180236Y-114765666D01*
X94180236Y-115273666D01*
X94095570Y-115443000D01*
X94010903Y-115527666D01*
X93841570Y-115612333D01*
X93587570Y-115612333D01*
X94772903Y-114427000D02*
X95111570Y-115612333D01*
X95450236Y-114765666D01*
X95788903Y-115612333D01*
X96127570Y-114427000D01*
X97482236Y-115527666D02*
X97312903Y-115612333D01*
X96974236Y-115612333D01*
X96804903Y-115527666D01*
X96720236Y-115358333D01*
X96720236Y-114681000D01*
X96804903Y-114511666D01*
X96974236Y-114427000D01*
X97312903Y-114427000D01*
X97482236Y-114511666D01*
X97566903Y-114681000D01*
X97566903Y-114850333D01*
X96720236Y-115019666D01*
X98328903Y-115612333D02*
X98328903Y-114427000D01*
X98328903Y-114765666D02*
X98413570Y-114596333D01*
X98498236Y-114511666D01*
X98667570Y-114427000D01*
X98836903Y-114427000D01*
X100699570Y-115527666D02*
X100953570Y-115612333D01*
X101376903Y-115612333D01*
X101546236Y-115527666D01*
X101630903Y-115443000D01*
X101715570Y-115273666D01*
X101715570Y-115104333D01*
X101630903Y-114935000D01*
X101546236Y-114850333D01*
X101376903Y-114765666D01*
X101038236Y-114681000D01*
X100868903Y-114596333D01*
X100784236Y-114511666D01*
X100699570Y-114342333D01*
X100699570Y-114173000D01*
X100784236Y-114003666D01*
X100868903Y-113919000D01*
X101038236Y-113834333D01*
X101461570Y-113834333D01*
X101715570Y-113919000D01*
X103239570Y-114427000D02*
X103239570Y-115612333D01*
X102477570Y-114427000D02*
X102477570Y-115358333D01*
X102562236Y-115527666D01*
X102731570Y-115612333D01*
X102985570Y-115612333D01*
X103154903Y-115527666D01*
X103239570Y-115443000D01*
X104086236Y-114427000D02*
X104086236Y-116205000D01*
X104086236Y-114511666D02*
X104255570Y-114427000D01*
X104594236Y-114427000D01*
X104763570Y-114511666D01*
X104848236Y-114596333D01*
X104932903Y-114765666D01*
X104932903Y-115273666D01*
X104848236Y-115443000D01*
X104763570Y-115527666D01*
X104594236Y-115612333D01*
X104255570Y-115612333D01*
X104086236Y-115527666D01*
X105694903Y-114427000D02*
X105694903Y-116205000D01*
X105694903Y-114511666D02*
X105864236Y-114427000D01*
X106202903Y-114427000D01*
X106372236Y-114511666D01*
X106456903Y-114596333D01*
X106541570Y-114765666D01*
X106541570Y-115273666D01*
X106456903Y-115443000D01*
X106372236Y-115527666D01*
X106202903Y-115612333D01*
X105864236Y-115612333D01*
X105694903Y-115527666D01*
X107557570Y-115612333D02*
X107388236Y-115527666D01*
X107303570Y-115358333D01*
X107303570Y-113834333D01*
X108065570Y-114427000D02*
X108488903Y-115612333D01*
X108912236Y-114427000D02*
X108488903Y-115612333D01*
X108319570Y-116035666D01*
X108234903Y-116120333D01*
X108065570Y-116205000D01*
D12*
%TO.C,R7*%
X101830000Y-88265000D02*
X101060000Y-88265000D01*
X93750000Y-88265000D02*
X94520000Y-88265000D01*
X101060000Y-86895000D02*
X94520000Y-86895000D01*
X101060000Y-89635000D02*
X101060000Y-86895000D01*
X94520000Y-89635000D02*
X101060000Y-89635000D01*
X94520000Y-86895000D02*
X94520000Y-89635000D01*
%TO.C,R8*%
X108355000Y-88265000D02*
X109125000Y-88265000D01*
X116435000Y-88265000D02*
X115665000Y-88265000D01*
X109125000Y-89635000D02*
X115665000Y-89635000D01*
X109125000Y-86895000D02*
X109125000Y-89635000D01*
X115665000Y-86895000D02*
X109125000Y-86895000D01*
X115665000Y-89635000D02*
X115665000Y-86895000D01*
%TO.C,C1*%
X118245000Y-99845000D02*
X114205000Y-99845000D01*
X118245000Y-97005000D02*
X114205000Y-97005000D01*
X118245000Y-99845000D02*
X118245000Y-99220000D01*
X118245000Y-97630000D02*
X118245000Y-97005000D01*
X114205000Y-99845000D02*
X114205000Y-99220000D01*
X114205000Y-97630000D02*
X114205000Y-97005000D01*
%TO.C,C2*%
X114205000Y-110330000D02*
X114205000Y-109705000D01*
X114205000Y-112545000D02*
X114205000Y-111920000D01*
X118245000Y-110330000D02*
X118245000Y-109705000D01*
X118245000Y-112545000D02*
X118245000Y-111920000D01*
X118245000Y-109705000D02*
X114205000Y-109705000D01*
X118245000Y-112545000D02*
X114205000Y-112545000D01*
%TO.C,D1*%
X99405000Y-82360000D02*
X99405000Y-82516000D01*
X99405000Y-80044000D02*
X99405000Y-80200000D01*
X102637335Y-80201392D02*
G75*
G03*
X99405000Y-80044484I-1672335J-1078608D01*
G01*
X102637335Y-82358608D02*
G75*
G02*
X99405000Y-82515516I-1672335J1078608D01*
G01*
X102006130Y-80200163D02*
G75*
G03*
X99924039Y-80200000I-1041130J-1079837D01*
G01*
X102006130Y-82359837D02*
G75*
G02*
X99924039Y-82360000I-1041130J1079837D01*
G01*
%TO.C,D2*%
X105755000Y-80044000D02*
X105755000Y-80200000D01*
X105755000Y-82360000D02*
X105755000Y-82516000D01*
X108356130Y-82359837D02*
G75*
G02*
X106274039Y-82360000I-1041130J1079837D01*
G01*
X108356130Y-80200163D02*
G75*
G03*
X106274039Y-80200000I-1041130J-1079837D01*
G01*
X108987335Y-82358608D02*
G75*
G02*
X105755000Y-82515516I-1672335J1078608D01*
G01*
X108987335Y-80201392D02*
G75*
G03*
X105755000Y-80044484I-1672335J-1078608D01*
G01*
%TO.C,J1*%
X84135000Y-75390000D02*
X84135000Y-74790000D01*
X82535000Y-75390000D02*
X84135000Y-75390000D01*
X82535000Y-74790000D02*
X82535000Y-75390000D01*
X80175000Y-75390000D02*
X80175000Y-74790000D01*
X78575000Y-75390000D02*
X80175000Y-75390000D01*
X78575000Y-74790000D02*
X78575000Y-75390000D01*
X83335000Y-82350000D02*
X83335000Y-84020000D01*
X79375000Y-82350000D02*
X83335000Y-82350000D01*
X79375000Y-84020000D02*
X79375000Y-82350000D01*
X83335000Y-84020000D02*
X83335000Y-85020000D01*
X79375000Y-84020000D02*
X83335000Y-84020000D01*
X79375000Y-85020000D02*
X79375000Y-84020000D01*
X77065000Y-78010000D02*
X77065000Y-82010000D01*
X77355000Y-84015000D02*
X77355000Y-74790000D01*
X79260000Y-84015000D02*
X77355000Y-84015000D01*
X79260000Y-85020000D02*
X79260000Y-84015000D01*
X83450000Y-85020000D02*
X79260000Y-85020000D01*
X83450000Y-84015000D02*
X83450000Y-85020000D01*
X85355000Y-84015000D02*
X83450000Y-84015000D01*
X85355000Y-74790000D02*
X85355000Y-84015000D01*
X77355000Y-74790000D02*
X85355000Y-74790000D01*
%TO.C,J2*%
X68520000Y-95825000D02*
X69850000Y-95825000D01*
X68520000Y-97155000D02*
X68520000Y-95825000D01*
X68520000Y-98425000D02*
X71180000Y-98425000D01*
X71180000Y-98425000D02*
X71180000Y-106105000D01*
X68520000Y-98425000D02*
X68520000Y-106105000D01*
X68520000Y-106105000D02*
X71180000Y-106105000D01*
%TO.C,J3*%
X191310000Y-112040000D02*
X191910000Y-112040000D01*
X191310000Y-110440000D02*
X191310000Y-112040000D01*
X191910000Y-110440000D02*
X191310000Y-110440000D01*
X191310000Y-108080000D02*
X191910000Y-108080000D01*
X191310000Y-106480000D02*
X191310000Y-108080000D01*
X191910000Y-106480000D02*
X191310000Y-106480000D01*
X191310000Y-104120000D02*
X191910000Y-104120000D01*
X191310000Y-102520000D02*
X191310000Y-104120000D01*
X191910000Y-102520000D02*
X191310000Y-102520000D01*
X191310000Y-100160000D02*
X191910000Y-100160000D01*
X191310000Y-98560000D02*
X191310000Y-100160000D01*
X191910000Y-98560000D02*
X191310000Y-98560000D01*
X191310000Y-96200000D02*
X191910000Y-96200000D01*
X191310000Y-94600000D02*
X191310000Y-96200000D01*
X191910000Y-94600000D02*
X191310000Y-94600000D01*
X191310000Y-92240000D02*
X191910000Y-92240000D01*
X191310000Y-90640000D02*
X191310000Y-92240000D01*
X191910000Y-90640000D02*
X191310000Y-90640000D01*
X184350000Y-111240000D02*
X182680000Y-111240000D01*
X184350000Y-101820000D02*
X184350000Y-111240000D01*
X182680000Y-101820000D02*
X184350000Y-101820000D01*
X182680000Y-111240000D02*
X181680000Y-111240000D01*
X182680000Y-101820000D02*
X182680000Y-111240000D01*
X181680000Y-101820000D02*
X182680000Y-101820000D01*
X184350000Y-100860000D02*
X182680000Y-100860000D01*
X184350000Y-91440000D02*
X184350000Y-100860000D01*
X182680000Y-91440000D02*
X184350000Y-91440000D01*
X182680000Y-100860000D02*
X181680000Y-100860000D01*
X182680000Y-91440000D02*
X182680000Y-100860000D01*
X181680000Y-91440000D02*
X182680000Y-91440000D01*
X188690000Y-89130000D02*
X184690000Y-89130000D01*
X182685000Y-89420000D02*
X191910000Y-89420000D01*
X182685000Y-91325000D02*
X182685000Y-89420000D01*
X181680000Y-91325000D02*
X182685000Y-91325000D01*
X181680000Y-111355000D02*
X181680000Y-91325000D01*
X182685000Y-111355000D02*
X181680000Y-111355000D01*
X182685000Y-113260000D02*
X182685000Y-111355000D01*
X191910000Y-113260000D02*
X182685000Y-113260000D01*
X191910000Y-89420000D02*
X191910000Y-113260000D01*
%TO.C,Q1*%
X95195000Y-100225000D02*
X95195000Y-96625000D01*
X95183478Y-96586522D02*
G75*
G03*
X90745000Y-98425000I-1838478J-1838478D01*
G01*
X95183478Y-100263478D02*
G75*
G02*
X90745000Y-98425000I-1838478J1838478D01*
G01*
%TO.C,Q2*%
X95195000Y-112290000D02*
X95195000Y-108690000D01*
X95183478Y-108651522D02*
G75*
G03*
X90745000Y-110490000I-1838478J-1838478D01*
G01*
X95183478Y-112328478D02*
G75*
G02*
X90745000Y-110490000I-1838478J1838478D01*
G01*
%TO.C,Q3*%
X104085000Y-100225000D02*
X104085000Y-96625000D01*
X104073478Y-100263478D02*
G75*
G02*
X99635000Y-98425000I-1838478J1838478D01*
G01*
X104073478Y-96586522D02*
G75*
G03*
X99635000Y-98425000I-1838478J-1838478D01*
G01*
%TO.C,Q4*%
X104085000Y-112290000D02*
X104085000Y-108690000D01*
X104073478Y-112328478D02*
G75*
G02*
X99635000Y-110490000I-1838478J1838478D01*
G01*
X104073478Y-108651522D02*
G75*
G03*
X99635000Y-110490000I-1838478J-1838478D01*
G01*
%TO.C,Q5*%
X118691000Y-79280000D02*
X118691000Y-80790000D01*
X114990000Y-79280000D02*
X114990000Y-80790000D01*
X111720000Y-80790000D02*
X121960000Y-80790000D01*
X121960000Y-79280000D02*
X121960000Y-83921000D01*
X111720000Y-79280000D02*
X111720000Y-83921000D01*
X111720000Y-83921000D02*
X121960000Y-83921000D01*
X111720000Y-79280000D02*
X121960000Y-79280000D01*
%TO.C,Q6*%
X108545000Y-116745000D02*
X118785000Y-116745000D01*
X108545000Y-121386000D02*
X118785000Y-121386000D01*
X108545000Y-116745000D02*
X108545000Y-121386000D01*
X118785000Y-116745000D02*
X118785000Y-121386000D01*
X108545000Y-118255000D02*
X118785000Y-118255000D01*
X111815000Y-116745000D02*
X111815000Y-118255000D01*
X115516000Y-116745000D02*
X115516000Y-118255000D01*
%TO.C,R1*%
X77875000Y-98425000D02*
X78645000Y-98425000D01*
X85955000Y-98425000D02*
X85185000Y-98425000D01*
X78645000Y-99795000D02*
X85185000Y-99795000D01*
X78645000Y-97055000D02*
X78645000Y-99795000D01*
X85185000Y-97055000D02*
X78645000Y-97055000D01*
X85185000Y-99795000D02*
X85185000Y-97055000D01*
%TO.C,R2*%
X85185000Y-111860000D02*
X85185000Y-109120000D01*
X85185000Y-109120000D02*
X78645000Y-109120000D01*
X78645000Y-109120000D02*
X78645000Y-111860000D01*
X78645000Y-111860000D02*
X85185000Y-111860000D01*
X85955000Y-110490000D02*
X85185000Y-110490000D01*
X77875000Y-110490000D02*
X78645000Y-110490000D01*
%TO.C,R3*%
X101060000Y-94080000D02*
X101060000Y-91340000D01*
X101060000Y-91340000D02*
X94520000Y-91340000D01*
X94520000Y-91340000D02*
X94520000Y-94080000D01*
X94520000Y-94080000D02*
X101060000Y-94080000D01*
X101830000Y-92710000D02*
X101060000Y-92710000D01*
X93750000Y-92710000D02*
X94520000Y-92710000D01*
%TO.C,R4*%
X93750000Y-104775000D02*
X94520000Y-104775000D01*
X101830000Y-104775000D02*
X101060000Y-104775000D01*
X94520000Y-106145000D02*
X101060000Y-106145000D01*
X94520000Y-103405000D02*
X94520000Y-106145000D01*
X101060000Y-103405000D02*
X94520000Y-103405000D01*
X101060000Y-106145000D02*
X101060000Y-103405000D01*
%TO.C,R5*%
X116435000Y-92710000D02*
X115665000Y-92710000D01*
X108355000Y-92710000D02*
X109125000Y-92710000D01*
X115665000Y-91340000D02*
X109125000Y-91340000D01*
X115665000Y-94080000D02*
X115665000Y-91340000D01*
X109125000Y-94080000D02*
X115665000Y-94080000D01*
X109125000Y-91340000D02*
X109125000Y-94080000D01*
%TO.C,R6*%
X109125000Y-103405000D02*
X109125000Y-106145000D01*
X109125000Y-106145000D02*
X115665000Y-106145000D01*
X115665000Y-106145000D02*
X115665000Y-103405000D01*
X115665000Y-103405000D02*
X109125000Y-103405000D01*
X108355000Y-104775000D02*
X109125000Y-104775000D01*
X116435000Y-104775000D02*
X115665000Y-104775000D01*
%TO.C,SW1*%
X88785000Y-74790000D02*
X96785000Y-74790000D01*
X96785000Y-74790000D02*
X96785000Y-84015000D01*
X96785000Y-84015000D02*
X94880000Y-84015000D01*
X94880000Y-84015000D02*
X94880000Y-85020000D01*
X94880000Y-85020000D02*
X90690000Y-85020000D01*
X90690000Y-85020000D02*
X90690000Y-84015000D01*
X90690000Y-84015000D02*
X88785000Y-84015000D01*
X88785000Y-84015000D02*
X88785000Y-74790000D01*
X88495000Y-78010000D02*
X88495000Y-82010000D01*
X90805000Y-85020000D02*
X90805000Y-84020000D01*
X90805000Y-84020000D02*
X94765000Y-84020000D01*
X94765000Y-84020000D02*
X94765000Y-85020000D01*
X90805000Y-84020000D02*
X90805000Y-82350000D01*
X90805000Y-82350000D02*
X94765000Y-82350000D01*
X94765000Y-82350000D02*
X94765000Y-84020000D01*
X90005000Y-74790000D02*
X90005000Y-75390000D01*
X90005000Y-75390000D02*
X91605000Y-75390000D01*
X91605000Y-75390000D02*
X91605000Y-74790000D01*
X93965000Y-74790000D02*
X93965000Y-75390000D01*
X93965000Y-75390000D02*
X95565000Y-75390000D01*
X95565000Y-75390000D02*
X95565000Y-74790000D01*
%TO.C,U1*%
X127635000Y-98425000D02*
X127635000Y-78105000D01*
X170815000Y-98425000D02*
X127635000Y-98425000D01*
X170815000Y-78105000D02*
X170815000Y-98425000D01*
X127635000Y-78105000D02*
X170815000Y-78105000D01*
%TO.C,U2*%
X123825000Y-120650000D02*
X123825000Y-125730000D01*
X167005000Y-102870000D02*
X170815000Y-102870000D01*
X123825000Y-123190000D02*
X123825000Y-102870000D01*
X170815000Y-125730000D02*
X123825000Y-125730000D01*
X170815000Y-102870000D02*
X170815000Y-125730000D01*
X123825000Y-102870000D02*
X167005000Y-102870000D01*
%TO.C,J4*%
X90485000Y-118570000D02*
X90485000Y-117970000D01*
X88885000Y-118570000D02*
X90485000Y-118570000D01*
X88885000Y-117970000D02*
X88885000Y-118570000D01*
X86525000Y-118570000D02*
X86525000Y-117970000D01*
X84925000Y-118570000D02*
X86525000Y-118570000D01*
X84925000Y-117970000D02*
X84925000Y-118570000D01*
X89685000Y-125530000D02*
X89685000Y-127200000D01*
X85725000Y-125530000D02*
X89685000Y-125530000D01*
X85725000Y-127200000D02*
X85725000Y-125530000D01*
X89685000Y-127200000D02*
X89685000Y-128200000D01*
X85725000Y-127200000D02*
X89685000Y-127200000D01*
X85725000Y-128200000D02*
X85725000Y-127200000D01*
X83415000Y-121190000D02*
X83415000Y-125190000D01*
X83705000Y-127195000D02*
X83705000Y-117970000D01*
X85610000Y-127195000D02*
X83705000Y-127195000D01*
X85610000Y-128200000D02*
X85610000Y-127195000D01*
X89800000Y-128200000D02*
X85610000Y-128200000D01*
X89800000Y-127195000D02*
X89800000Y-128200000D01*
X91705000Y-127195000D02*
X89800000Y-127195000D01*
X91705000Y-117970000D02*
X91705000Y-127195000D01*
X83705000Y-117970000D02*
X91705000Y-117970000D01*
%TO.C,R7*%
D10*
X97877333Y-86812380D02*
X97544000Y-86336190D01*
X97305904Y-86812380D02*
X97305904Y-85812380D01*
X97686857Y-85812380D01*
X97782095Y-85860000D01*
X97829714Y-85907619D01*
X97877333Y-86002857D01*
X97877333Y-86145714D01*
X97829714Y-86240952D01*
X97782095Y-86288571D01*
X97686857Y-86336190D01*
X97305904Y-86336190D01*
X98210666Y-85812380D02*
X98877333Y-85812380D01*
X98448761Y-86812380D01*
%TO.C,R8*%
X112609333Y-90876380D02*
X112276000Y-90400190D01*
X112037904Y-90876380D02*
X112037904Y-89876380D01*
X112418857Y-89876380D01*
X112514095Y-89924000D01*
X112561714Y-89971619D01*
X112609333Y-90066857D01*
X112609333Y-90209714D01*
X112561714Y-90304952D01*
X112514095Y-90352571D01*
X112418857Y-90400190D01*
X112037904Y-90400190D01*
X113180761Y-90304952D02*
X113085523Y-90257333D01*
X113037904Y-90209714D01*
X112990285Y-90114476D01*
X112990285Y-90066857D01*
X113037904Y-89971619D01*
X113085523Y-89924000D01*
X113180761Y-89876380D01*
X113371238Y-89876380D01*
X113466476Y-89924000D01*
X113514095Y-89971619D01*
X113561714Y-90066857D01*
X113561714Y-90114476D01*
X113514095Y-90209714D01*
X113466476Y-90257333D01*
X113371238Y-90304952D01*
X113180761Y-90304952D01*
X113085523Y-90352571D01*
X113037904Y-90400190D01*
X112990285Y-90495428D01*
X112990285Y-90685904D01*
X113037904Y-90781142D01*
X113085523Y-90828761D01*
X113180761Y-90876380D01*
X113371238Y-90876380D01*
X113466476Y-90828761D01*
X113514095Y-90781142D01*
X113561714Y-90685904D01*
X113561714Y-90495428D01*
X113514095Y-90400190D01*
X113466476Y-90352571D01*
X113371238Y-90304952D01*
%TO.C,C1*%
X116058333Y-101332142D02*
X116010714Y-101379761D01*
X115867857Y-101427380D01*
X115772619Y-101427380D01*
X115629761Y-101379761D01*
X115534523Y-101284523D01*
X115486904Y-101189285D01*
X115439285Y-100998809D01*
X115439285Y-100855952D01*
X115486904Y-100665476D01*
X115534523Y-100570238D01*
X115629761Y-100475000D01*
X115772619Y-100427380D01*
X115867857Y-100427380D01*
X116010714Y-100475000D01*
X116058333Y-100522619D01*
X117010714Y-101427380D02*
X116439285Y-101427380D01*
X116725000Y-101427380D02*
X116725000Y-100427380D01*
X116629761Y-100570238D01*
X116534523Y-100665476D01*
X116439285Y-100713095D01*
%TO.C,C2*%
X111593333Y-111609142D02*
X111545714Y-111656761D01*
X111402857Y-111704380D01*
X111307619Y-111704380D01*
X111164761Y-111656761D01*
X111069523Y-111561523D01*
X111021904Y-111466285D01*
X110974285Y-111275809D01*
X110974285Y-111132952D01*
X111021904Y-110942476D01*
X111069523Y-110847238D01*
X111164761Y-110752000D01*
X111307619Y-110704380D01*
X111402857Y-110704380D01*
X111545714Y-110752000D01*
X111593333Y-110799619D01*
X111974285Y-110799619D02*
X112021904Y-110752000D01*
X112117142Y-110704380D01*
X112355238Y-110704380D01*
X112450476Y-110752000D01*
X112498095Y-110799619D01*
X112545714Y-110894857D01*
X112545714Y-110990095D01*
X112498095Y-111132952D01*
X111926666Y-111704380D01*
X112545714Y-111704380D01*
%TO.C,D1*%
X100353904Y-84780380D02*
X100353904Y-83780380D01*
X100592000Y-83780380D01*
X100734857Y-83828000D01*
X100830095Y-83923238D01*
X100877714Y-84018476D01*
X100925333Y-84208952D01*
X100925333Y-84351809D01*
X100877714Y-84542285D01*
X100830095Y-84637523D01*
X100734857Y-84732761D01*
X100592000Y-84780380D01*
X100353904Y-84780380D01*
X101877714Y-84780380D02*
X101306285Y-84780380D01*
X101592000Y-84780380D02*
X101592000Y-83780380D01*
X101496761Y-83923238D01*
X101401523Y-84018476D01*
X101306285Y-84066095D01*
%TO.C,D2*%
X106576904Y-84780380D02*
X106576904Y-83780380D01*
X106815000Y-83780380D01*
X106957857Y-83828000D01*
X107053095Y-83923238D01*
X107100714Y-84018476D01*
X107148333Y-84208952D01*
X107148333Y-84351809D01*
X107100714Y-84542285D01*
X107053095Y-84637523D01*
X106957857Y-84732761D01*
X106815000Y-84780380D01*
X106576904Y-84780380D01*
X107529285Y-83875619D02*
X107576904Y-83828000D01*
X107672142Y-83780380D01*
X107910238Y-83780380D01*
X108005476Y-83828000D01*
X108053095Y-83875619D01*
X108100714Y-83970857D01*
X108100714Y-84066095D01*
X108053095Y-84208952D01*
X107481666Y-84780380D01*
X108100714Y-84780380D01*
%TO.C,J1*%
X74850666Y-84796380D02*
X74850666Y-85510666D01*
X74803047Y-85653523D01*
X74707809Y-85748761D01*
X74564952Y-85796380D01*
X74469714Y-85796380D01*
X75850666Y-85796380D02*
X75279238Y-85796380D01*
X75564952Y-85796380D02*
X75564952Y-84796380D01*
X75469714Y-84939238D01*
X75374476Y-85034476D01*
X75279238Y-85082095D01*
%TO.C,J2*%
X69516666Y-94277380D02*
X69516666Y-94991666D01*
X69469047Y-95134523D01*
X69373809Y-95229761D01*
X69230952Y-95277380D01*
X69135714Y-95277380D01*
X69945238Y-94372619D02*
X69992857Y-94325000D01*
X70088095Y-94277380D01*
X70326190Y-94277380D01*
X70421428Y-94325000D01*
X70469047Y-94372619D01*
X70516666Y-94467857D01*
X70516666Y-94563095D01*
X70469047Y-94705952D01*
X69897619Y-95277380D01*
X70516666Y-95277380D01*
%TO.C,J3*%
X192452380Y-101673333D02*
X193166666Y-101673333D01*
X193309523Y-101720952D01*
X193404761Y-101816190D01*
X193452380Y-101959047D01*
X193452380Y-102054285D01*
X192452380Y-101292380D02*
X192452380Y-100673333D01*
X192833333Y-101006666D01*
X192833333Y-100863809D01*
X192880952Y-100768571D01*
X192928571Y-100720952D01*
X193023809Y-100673333D01*
X193261904Y-100673333D01*
X193357142Y-100720952D01*
X193404761Y-100768571D01*
X193452380Y-100863809D01*
X193452380Y-101149523D01*
X193404761Y-101244761D01*
X193357142Y-101292380D01*
%TO.C,Q1*%
X89312761Y-98591619D02*
X89217523Y-98544000D01*
X89122285Y-98448761D01*
X88979428Y-98305904D01*
X88884190Y-98258285D01*
X88788952Y-98258285D01*
X88836571Y-98496380D02*
X88741333Y-98448761D01*
X88646095Y-98353523D01*
X88598476Y-98163047D01*
X88598476Y-97829714D01*
X88646095Y-97639238D01*
X88741333Y-97544000D01*
X88836571Y-97496380D01*
X89027047Y-97496380D01*
X89122285Y-97544000D01*
X89217523Y-97639238D01*
X89265142Y-97829714D01*
X89265142Y-98163047D01*
X89217523Y-98353523D01*
X89122285Y-98448761D01*
X89027047Y-98496380D01*
X88836571Y-98496380D01*
X90217523Y-98496380D02*
X89646095Y-98496380D01*
X89931809Y-98496380D02*
X89931809Y-97496380D01*
X89836571Y-97639238D01*
X89741333Y-97734476D01*
X89646095Y-97782095D01*
%TO.C,Q2*%
X89312761Y-109259619D02*
X89217523Y-109212000D01*
X89122285Y-109116761D01*
X88979428Y-108973904D01*
X88884190Y-108926285D01*
X88788952Y-108926285D01*
X88836571Y-109164380D02*
X88741333Y-109116761D01*
X88646095Y-109021523D01*
X88598476Y-108831047D01*
X88598476Y-108497714D01*
X88646095Y-108307238D01*
X88741333Y-108212000D01*
X88836571Y-108164380D01*
X89027047Y-108164380D01*
X89122285Y-108212000D01*
X89217523Y-108307238D01*
X89265142Y-108497714D01*
X89265142Y-108831047D01*
X89217523Y-109021523D01*
X89122285Y-109116761D01*
X89027047Y-109164380D01*
X88836571Y-109164380D01*
X89646095Y-108259619D02*
X89693714Y-108212000D01*
X89788952Y-108164380D01*
X90027047Y-108164380D01*
X90122285Y-108212000D01*
X90169904Y-108259619D01*
X90217523Y-108354857D01*
X90217523Y-108450095D01*
X90169904Y-108592952D01*
X89598476Y-109164380D01*
X90217523Y-109164380D01*
%TO.C,Q3*%
X98456761Y-98591619D02*
X98361523Y-98544000D01*
X98266285Y-98448761D01*
X98123428Y-98305904D01*
X98028190Y-98258285D01*
X97932952Y-98258285D01*
X97980571Y-98496380D02*
X97885333Y-98448761D01*
X97790095Y-98353523D01*
X97742476Y-98163047D01*
X97742476Y-97829714D01*
X97790095Y-97639238D01*
X97885333Y-97544000D01*
X97980571Y-97496380D01*
X98171047Y-97496380D01*
X98266285Y-97544000D01*
X98361523Y-97639238D01*
X98409142Y-97829714D01*
X98409142Y-98163047D01*
X98361523Y-98353523D01*
X98266285Y-98448761D01*
X98171047Y-98496380D01*
X97980571Y-98496380D01*
X98742476Y-97496380D02*
X99361523Y-97496380D01*
X99028190Y-97877333D01*
X99171047Y-97877333D01*
X99266285Y-97924952D01*
X99313904Y-97972571D01*
X99361523Y-98067809D01*
X99361523Y-98305904D01*
X99313904Y-98401142D01*
X99266285Y-98448761D01*
X99171047Y-98496380D01*
X98885333Y-98496380D01*
X98790095Y-98448761D01*
X98742476Y-98401142D01*
%TO.C,Q4*%
X97948761Y-109259619D02*
X97853523Y-109212000D01*
X97758285Y-109116761D01*
X97615428Y-108973904D01*
X97520190Y-108926285D01*
X97424952Y-108926285D01*
X97472571Y-109164380D02*
X97377333Y-109116761D01*
X97282095Y-109021523D01*
X97234476Y-108831047D01*
X97234476Y-108497714D01*
X97282095Y-108307238D01*
X97377333Y-108212000D01*
X97472571Y-108164380D01*
X97663047Y-108164380D01*
X97758285Y-108212000D01*
X97853523Y-108307238D01*
X97901142Y-108497714D01*
X97901142Y-108831047D01*
X97853523Y-109021523D01*
X97758285Y-109116761D01*
X97663047Y-109164380D01*
X97472571Y-109164380D01*
X98758285Y-108497714D02*
X98758285Y-109164380D01*
X98520190Y-108116761D02*
X98282095Y-108831047D01*
X98901142Y-108831047D01*
%TO.C,Q5*%
X116744761Y-78827619D02*
X116649523Y-78780000D01*
X116554285Y-78684761D01*
X116411428Y-78541904D01*
X116316190Y-78494285D01*
X116220952Y-78494285D01*
X116268571Y-78732380D02*
X116173333Y-78684761D01*
X116078095Y-78589523D01*
X116030476Y-78399047D01*
X116030476Y-78065714D01*
X116078095Y-77875238D01*
X116173333Y-77780000D01*
X116268571Y-77732380D01*
X116459047Y-77732380D01*
X116554285Y-77780000D01*
X116649523Y-77875238D01*
X116697142Y-78065714D01*
X116697142Y-78399047D01*
X116649523Y-78589523D01*
X116554285Y-78684761D01*
X116459047Y-78732380D01*
X116268571Y-78732380D01*
X117601904Y-77732380D02*
X117125714Y-77732380D01*
X117078095Y-78208571D01*
X117125714Y-78160952D01*
X117220952Y-78113333D01*
X117459047Y-78113333D01*
X117554285Y-78160952D01*
X117601904Y-78208571D01*
X117649523Y-78303809D01*
X117649523Y-78541904D01*
X117601904Y-78637142D01*
X117554285Y-78684761D01*
X117459047Y-78732380D01*
X117220952Y-78732380D01*
X117125714Y-78684761D01*
X117078095Y-78637142D01*
%TO.C,Q6*%
X113569761Y-116292619D02*
X113474523Y-116245000D01*
X113379285Y-116149761D01*
X113236428Y-116006904D01*
X113141190Y-115959285D01*
X113045952Y-115959285D01*
X113093571Y-116197380D02*
X112998333Y-116149761D01*
X112903095Y-116054523D01*
X112855476Y-115864047D01*
X112855476Y-115530714D01*
X112903095Y-115340238D01*
X112998333Y-115245000D01*
X113093571Y-115197380D01*
X113284047Y-115197380D01*
X113379285Y-115245000D01*
X113474523Y-115340238D01*
X113522142Y-115530714D01*
X113522142Y-115864047D01*
X113474523Y-116054523D01*
X113379285Y-116149761D01*
X113284047Y-116197380D01*
X113093571Y-116197380D01*
X114379285Y-115197380D02*
X114188809Y-115197380D01*
X114093571Y-115245000D01*
X114045952Y-115292619D01*
X113950714Y-115435476D01*
X113903095Y-115625952D01*
X113903095Y-116006904D01*
X113950714Y-116102142D01*
X113998333Y-116149761D01*
X114093571Y-116197380D01*
X114284047Y-116197380D01*
X114379285Y-116149761D01*
X114426904Y-116102142D01*
X114474523Y-116006904D01*
X114474523Y-115768809D01*
X114426904Y-115673571D01*
X114379285Y-115625952D01*
X114284047Y-115578333D01*
X114093571Y-115578333D01*
X113998333Y-115625952D01*
X113950714Y-115673571D01*
X113903095Y-115768809D01*
%TO.C,R1*%
X81748333Y-96464380D02*
X81415000Y-95988190D01*
X81176904Y-96464380D02*
X81176904Y-95464380D01*
X81557857Y-95464380D01*
X81653095Y-95512000D01*
X81700714Y-95559619D01*
X81748333Y-95654857D01*
X81748333Y-95797714D01*
X81700714Y-95892952D01*
X81653095Y-95940571D01*
X81557857Y-95988190D01*
X81176904Y-95988190D01*
X82700714Y-96464380D02*
X82129285Y-96464380D01*
X82415000Y-96464380D02*
X82415000Y-95464380D01*
X82319761Y-95607238D01*
X82224523Y-95702476D01*
X82129285Y-95750095D01*
%TO.C,R2*%
X81621333Y-108656380D02*
X81288000Y-108180190D01*
X81049904Y-108656380D02*
X81049904Y-107656380D01*
X81430857Y-107656380D01*
X81526095Y-107704000D01*
X81573714Y-107751619D01*
X81621333Y-107846857D01*
X81621333Y-107989714D01*
X81573714Y-108084952D01*
X81526095Y-108132571D01*
X81430857Y-108180190D01*
X81049904Y-108180190D01*
X82002285Y-107751619D02*
X82049904Y-107704000D01*
X82145142Y-107656380D01*
X82383238Y-107656380D01*
X82478476Y-107704000D01*
X82526095Y-107751619D01*
X82573714Y-107846857D01*
X82573714Y-107942095D01*
X82526095Y-108084952D01*
X81954666Y-108656380D01*
X82573714Y-108656380D01*
%TO.C,R3*%
X97877333Y-90876380D02*
X97544000Y-90400190D01*
X97305904Y-90876380D02*
X97305904Y-89876380D01*
X97686857Y-89876380D01*
X97782095Y-89924000D01*
X97829714Y-89971619D01*
X97877333Y-90066857D01*
X97877333Y-90209714D01*
X97829714Y-90304952D01*
X97782095Y-90352571D01*
X97686857Y-90400190D01*
X97305904Y-90400190D01*
X98210666Y-89876380D02*
X98829714Y-89876380D01*
X98496380Y-90257333D01*
X98639238Y-90257333D01*
X98734476Y-90304952D01*
X98782095Y-90352571D01*
X98829714Y-90447809D01*
X98829714Y-90685904D01*
X98782095Y-90781142D01*
X98734476Y-90828761D01*
X98639238Y-90876380D01*
X98353523Y-90876380D01*
X98258285Y-90828761D01*
X98210666Y-90781142D01*
%TO.C,R4*%
X97623333Y-103068380D02*
X97290000Y-102592190D01*
X97051904Y-103068380D02*
X97051904Y-102068380D01*
X97432857Y-102068380D01*
X97528095Y-102116000D01*
X97575714Y-102163619D01*
X97623333Y-102258857D01*
X97623333Y-102401714D01*
X97575714Y-102496952D01*
X97528095Y-102544571D01*
X97432857Y-102592190D01*
X97051904Y-102592190D01*
X98480476Y-102401714D02*
X98480476Y-103068380D01*
X98242380Y-102020761D02*
X98004285Y-102735047D01*
X98623333Y-102735047D01*
%TO.C,R5*%
X112609333Y-86812380D02*
X112276000Y-86336190D01*
X112037904Y-86812380D02*
X112037904Y-85812380D01*
X112418857Y-85812380D01*
X112514095Y-85860000D01*
X112561714Y-85907619D01*
X112609333Y-86002857D01*
X112609333Y-86145714D01*
X112561714Y-86240952D01*
X112514095Y-86288571D01*
X112418857Y-86336190D01*
X112037904Y-86336190D01*
X113514095Y-85812380D02*
X113037904Y-85812380D01*
X112990285Y-86288571D01*
X113037904Y-86240952D01*
X113133142Y-86193333D01*
X113371238Y-86193333D01*
X113466476Y-86240952D01*
X113514095Y-86288571D01*
X113561714Y-86383809D01*
X113561714Y-86621904D01*
X113514095Y-86717142D01*
X113466476Y-86764761D01*
X113371238Y-86812380D01*
X113133142Y-86812380D01*
X113037904Y-86764761D01*
X112990285Y-86717142D01*
%TO.C,R6*%
X112228333Y-102857380D02*
X111895000Y-102381190D01*
X111656904Y-102857380D02*
X111656904Y-101857380D01*
X112037857Y-101857380D01*
X112133095Y-101905000D01*
X112180714Y-101952619D01*
X112228333Y-102047857D01*
X112228333Y-102190714D01*
X112180714Y-102285952D01*
X112133095Y-102333571D01*
X112037857Y-102381190D01*
X111656904Y-102381190D01*
X113085476Y-101857380D02*
X112895000Y-101857380D01*
X112799761Y-101905000D01*
X112752142Y-101952619D01*
X112656904Y-102095476D01*
X112609285Y-102285952D01*
X112609285Y-102666904D01*
X112656904Y-102762142D01*
X112704523Y-102809761D01*
X112799761Y-102857380D01*
X112990238Y-102857380D01*
X113085476Y-102809761D01*
X113133095Y-102762142D01*
X113180714Y-102666904D01*
X113180714Y-102428809D01*
X113133095Y-102333571D01*
X113085476Y-102285952D01*
X112990238Y-102238333D01*
X112799761Y-102238333D01*
X112704523Y-102285952D01*
X112656904Y-102333571D01*
X112609285Y-102428809D01*
%TO.C,SW1*%
X88074666Y-86764761D02*
X88217523Y-86812380D01*
X88455619Y-86812380D01*
X88550857Y-86764761D01*
X88598476Y-86717142D01*
X88646095Y-86621904D01*
X88646095Y-86526666D01*
X88598476Y-86431428D01*
X88550857Y-86383809D01*
X88455619Y-86336190D01*
X88265142Y-86288571D01*
X88169904Y-86240952D01*
X88122285Y-86193333D01*
X88074666Y-86098095D01*
X88074666Y-86002857D01*
X88122285Y-85907619D01*
X88169904Y-85860000D01*
X88265142Y-85812380D01*
X88503238Y-85812380D01*
X88646095Y-85860000D01*
X88979428Y-85812380D02*
X89217523Y-86812380D01*
X89408000Y-86098095D01*
X89598476Y-86812380D01*
X89836571Y-85812380D01*
X90741333Y-86812380D02*
X90169904Y-86812380D01*
X90455619Y-86812380D02*
X90455619Y-85812380D01*
X90360380Y-85955238D01*
X90265142Y-86050476D01*
X90169904Y-86098095D01*
%TO.C,U1*%
X147193095Y-76287380D02*
X147193095Y-77096904D01*
X147240714Y-77192142D01*
X147288333Y-77239761D01*
X147383571Y-77287380D01*
X147574047Y-77287380D01*
X147669285Y-77239761D01*
X147716904Y-77192142D01*
X147764523Y-77096904D01*
X147764523Y-76287380D01*
X148764523Y-77287380D02*
X148193095Y-77287380D01*
X148478809Y-77287380D02*
X148478809Y-76287380D01*
X148383571Y-76430238D01*
X148288333Y-76525476D01*
X148193095Y-76573095D01*
D13*
X123353285Y-80064428D02*
X123353285Y-78540428D01*
X124079000Y-80064428D02*
X124079000Y-78540428D01*
X124949857Y-80064428D01*
X124949857Y-78540428D01*
X125675571Y-79483857D02*
X126836714Y-79483857D01*
X126256142Y-80064428D02*
X126256142Y-78903285D01*
X123353285Y-97844428D02*
X123353285Y-96320428D01*
X124079000Y-97844428D02*
X124079000Y-96320428D01*
X124949857Y-97844428D01*
X124949857Y-96320428D01*
X125675571Y-97263857D02*
X126836714Y-97263857D01*
X172157571Y-78540428D02*
X172447857Y-78540428D01*
X172593000Y-78613000D01*
X172738142Y-78758142D01*
X172810714Y-79048428D01*
X172810714Y-79556428D01*
X172738142Y-79846714D01*
X172593000Y-79991857D01*
X172447857Y-80064428D01*
X172157571Y-80064428D01*
X172012428Y-79991857D01*
X171867285Y-79846714D01*
X171794714Y-79556428D01*
X171794714Y-79048428D01*
X171867285Y-78758142D01*
X172012428Y-78613000D01*
X172157571Y-78540428D01*
X173463857Y-78540428D02*
X173463857Y-79774142D01*
X173536428Y-79919285D01*
X173609000Y-79991857D01*
X173754142Y-80064428D01*
X174044428Y-80064428D01*
X174189571Y-79991857D01*
X174262142Y-79919285D01*
X174334714Y-79774142D01*
X174334714Y-78540428D01*
X174842714Y-78540428D02*
X175713571Y-78540428D01*
X175278142Y-80064428D02*
X175278142Y-78540428D01*
X176221571Y-79483857D02*
X177382714Y-79483857D01*
X176802142Y-80064428D02*
X176802142Y-78903285D01*
X172157571Y-96320428D02*
X172447857Y-96320428D01*
X172593000Y-96393000D01*
X172738142Y-96538142D01*
X172810714Y-96828428D01*
X172810714Y-97336428D01*
X172738142Y-97626714D01*
X172593000Y-97771857D01*
X172447857Y-97844428D01*
X172157571Y-97844428D01*
X172012428Y-97771857D01*
X171867285Y-97626714D01*
X171794714Y-97336428D01*
X171794714Y-96828428D01*
X171867285Y-96538142D01*
X172012428Y-96393000D01*
X172157571Y-96320428D01*
X173463857Y-96320428D02*
X173463857Y-97554142D01*
X173536428Y-97699285D01*
X173609000Y-97771857D01*
X173754142Y-97844428D01*
X174044428Y-97844428D01*
X174189571Y-97771857D01*
X174262142Y-97699285D01*
X174334714Y-97554142D01*
X174334714Y-96320428D01*
X174842714Y-96320428D02*
X175713571Y-96320428D01*
X175278142Y-97844428D02*
X175278142Y-96320428D01*
X176221571Y-97263857D02*
X177382714Y-97263857D01*
%TO.C,U2*%
D10*
X143383095Y-101052380D02*
X143383095Y-101861904D01*
X143430714Y-101957142D01*
X143478333Y-102004761D01*
X143573571Y-102052380D01*
X143764047Y-102052380D01*
X143859285Y-102004761D01*
X143906904Y-101957142D01*
X143954523Y-101861904D01*
X143954523Y-101052380D01*
X144383095Y-101147619D02*
X144430714Y-101100000D01*
X144525952Y-101052380D01*
X144764047Y-101052380D01*
X144859285Y-101100000D01*
X144906904Y-101147619D01*
X144954523Y-101242857D01*
X144954523Y-101338095D01*
X144906904Y-101480952D01*
X144335476Y-102052380D01*
X144954523Y-102052380D01*
D13*
X119543285Y-104829428D02*
X119543285Y-103305428D01*
X120269000Y-104829428D02*
X120269000Y-103305428D01*
X121139857Y-104829428D01*
X121139857Y-103305428D01*
X121865571Y-104248857D02*
X123026714Y-104248857D01*
X122446142Y-104829428D02*
X122446142Y-103668285D01*
X119543285Y-125149428D02*
X119543285Y-123625428D01*
X120269000Y-125149428D02*
X120269000Y-123625428D01*
X121139857Y-125149428D01*
X121139857Y-123625428D01*
X121865571Y-124568857D02*
X123026714Y-124568857D01*
X173427571Y-103305428D02*
X173717857Y-103305428D01*
X173863000Y-103378000D01*
X174008142Y-103523142D01*
X174080714Y-103813428D01*
X174080714Y-104321428D01*
X174008142Y-104611714D01*
X173863000Y-104756857D01*
X173717857Y-104829428D01*
X173427571Y-104829428D01*
X173282428Y-104756857D01*
X173137285Y-104611714D01*
X173064714Y-104321428D01*
X173064714Y-103813428D01*
X173137285Y-103523142D01*
X173282428Y-103378000D01*
X173427571Y-103305428D01*
X174733857Y-103305428D02*
X174733857Y-104539142D01*
X174806428Y-104684285D01*
X174879000Y-104756857D01*
X175024142Y-104829428D01*
X175314428Y-104829428D01*
X175459571Y-104756857D01*
X175532142Y-104684285D01*
X175604714Y-104539142D01*
X175604714Y-103305428D01*
X176112714Y-103305428D02*
X176983571Y-103305428D01*
X176548142Y-104829428D02*
X176548142Y-103305428D01*
X177491571Y-104248857D02*
X178652714Y-104248857D01*
X178072142Y-104829428D02*
X178072142Y-103668285D01*
X173427571Y-122355428D02*
X173717857Y-122355428D01*
X173863000Y-122428000D01*
X174008142Y-122573142D01*
X174080714Y-122863428D01*
X174080714Y-123371428D01*
X174008142Y-123661714D01*
X173863000Y-123806857D01*
X173717857Y-123879428D01*
X173427571Y-123879428D01*
X173282428Y-123806857D01*
X173137285Y-123661714D01*
X173064714Y-123371428D01*
X173064714Y-122863428D01*
X173137285Y-122573142D01*
X173282428Y-122428000D01*
X173427571Y-122355428D01*
X174733857Y-122355428D02*
X174733857Y-123589142D01*
X174806428Y-123734285D01*
X174879000Y-123806857D01*
X175024142Y-123879428D01*
X175314428Y-123879428D01*
X175459571Y-123806857D01*
X175532142Y-123734285D01*
X175604714Y-123589142D01*
X175604714Y-122355428D01*
X176112714Y-122355428D02*
X176983571Y-122355428D01*
X176548142Y-123879428D02*
X176548142Y-122355428D01*
X177491571Y-123298857D02*
X178652714Y-123298857D01*
%TO.C,J4*%
D10*
X93646666Y-118324380D02*
X93646666Y-119038666D01*
X93599047Y-119181523D01*
X93503809Y-119276761D01*
X93360952Y-119324380D01*
X93265714Y-119324380D01*
X94551428Y-118657714D02*
X94551428Y-119324380D01*
X94313333Y-118276761D02*
X94075238Y-118991047D01*
X94694285Y-118991047D01*
%TD*%
M02*
