%TF.GenerationSoftware,KiCad,Pcbnew,5.1.6-c6e7f7d~86~ubuntu20.04.1*%
%TF.CreationDate,2020-07-03T06:45:37-04:00*%
%TF.ProjectId,vfd-display,7666642d-6469-4737-906c-61792e6b6963,rev?*%
%TF.SameCoordinates,Original*%
%TF.FileFunction,Legend,Top*%
%TF.FilePolarity,Positive*%
%FSLAX46Y46*%
G04 Gerber Fmt 4.6, Leading zero omitted, Abs format (unit mm)*
G04 Created by KiCad (PCBNEW 5.1.6-c6e7f7d~86~ubuntu20.04.1) date 2020-07-03 06:45:37*
%MOMM*%
%LPD*%
G01*
G04 APERTURE LIST*
%ADD10C,0.150000*%
%ADD11C,0.120000*%
G04 APERTURE END LIST*
D10*
X189285952Y-41362380D02*
X189952619Y-41362380D01*
X189524047Y-42362380D01*
X190762142Y-41695714D02*
X190762142Y-42362380D01*
X190524047Y-41314761D02*
X190285952Y-42029047D01*
X190905000Y-42029047D01*
X191762142Y-42362380D02*
X191285952Y-42362380D01*
X191285952Y-41362380D01*
X192047857Y-42314761D02*
X192190714Y-42362380D01*
X192428809Y-42362380D01*
X192524047Y-42314761D01*
X192571666Y-42267142D01*
X192619285Y-42171904D01*
X192619285Y-42076666D01*
X192571666Y-41981428D01*
X192524047Y-41933809D01*
X192428809Y-41886190D01*
X192238333Y-41838571D01*
X192143095Y-41790952D01*
X192095476Y-41743333D01*
X192047857Y-41648095D01*
X192047857Y-41552857D01*
X192095476Y-41457619D01*
X192143095Y-41410000D01*
X192238333Y-41362380D01*
X192476428Y-41362380D01*
X192619285Y-41410000D01*
X193571666Y-42362380D02*
X193000238Y-42362380D01*
X193285952Y-42362380D02*
X193285952Y-41362380D01*
X193190714Y-41505238D01*
X193095476Y-41600476D01*
X193000238Y-41648095D01*
X193952619Y-41457619D02*
X194000238Y-41410000D01*
X194095476Y-41362380D01*
X194333571Y-41362380D01*
X194428809Y-41410000D01*
X194476428Y-41457619D01*
X194524047Y-41552857D01*
X194524047Y-41648095D01*
X194476428Y-41790952D01*
X193905000Y-42362380D01*
X194524047Y-42362380D01*
X195428809Y-41362380D02*
X194952619Y-41362380D01*
X194905000Y-41838571D01*
X194952619Y-41790952D01*
X195047857Y-41743333D01*
X195285952Y-41743333D01*
X195381190Y-41790952D01*
X195428809Y-41838571D01*
X195476428Y-41933809D01*
X195476428Y-42171904D01*
X195428809Y-42267142D01*
X195381190Y-42314761D01*
X195285952Y-42362380D01*
X195047857Y-42362380D01*
X194952619Y-42314761D01*
X194905000Y-42267142D01*
X157535952Y-41997380D02*
X158202619Y-41997380D01*
X157774047Y-42997380D01*
X159012142Y-42330714D02*
X159012142Y-42997380D01*
X158774047Y-41949761D02*
X158535952Y-42664047D01*
X159155000Y-42664047D01*
X160012142Y-42997380D02*
X159535952Y-42997380D01*
X159535952Y-41997380D01*
X160297857Y-42949761D02*
X160440714Y-42997380D01*
X160678809Y-42997380D01*
X160774047Y-42949761D01*
X160821666Y-42902142D01*
X160869285Y-42806904D01*
X160869285Y-42711666D01*
X160821666Y-42616428D01*
X160774047Y-42568809D01*
X160678809Y-42521190D01*
X160488333Y-42473571D01*
X160393095Y-42425952D01*
X160345476Y-42378333D01*
X160297857Y-42283095D01*
X160297857Y-42187857D01*
X160345476Y-42092619D01*
X160393095Y-42045000D01*
X160488333Y-41997380D01*
X160726428Y-41997380D01*
X160869285Y-42045000D01*
X161821666Y-42997380D02*
X161250238Y-42997380D01*
X161535952Y-42997380D02*
X161535952Y-41997380D01*
X161440714Y-42140238D01*
X161345476Y-42235476D01*
X161250238Y-42283095D01*
X162155000Y-41997380D02*
X162821666Y-41997380D01*
X162393095Y-42997380D01*
X163631190Y-42330714D02*
X163631190Y-42997380D01*
X163393095Y-41949761D02*
X163155000Y-42664047D01*
X163774047Y-42664047D01*
X89344523Y-36282380D02*
X88868333Y-36282380D01*
X88820714Y-36758571D01*
X88868333Y-36710952D01*
X88963571Y-36663333D01*
X89201666Y-36663333D01*
X89296904Y-36710952D01*
X89344523Y-36758571D01*
X89392142Y-36853809D01*
X89392142Y-37091904D01*
X89344523Y-37187142D01*
X89296904Y-37234761D01*
X89201666Y-37282380D01*
X88963571Y-37282380D01*
X88868333Y-37234761D01*
X88820714Y-37187142D01*
X89677857Y-36282380D02*
X90011190Y-37282380D01*
X90344523Y-36282380D01*
X80089523Y-36377619D02*
X80137142Y-36330000D01*
X80232380Y-36282380D01*
X80470476Y-36282380D01*
X80565714Y-36330000D01*
X80613333Y-36377619D01*
X80660952Y-36472857D01*
X80660952Y-36568095D01*
X80613333Y-36710952D01*
X80041904Y-37282380D01*
X80660952Y-37282380D01*
X81565714Y-36282380D02*
X81089523Y-36282380D01*
X81041904Y-36758571D01*
X81089523Y-36710952D01*
X81184761Y-36663333D01*
X81422857Y-36663333D01*
X81518095Y-36710952D01*
X81565714Y-36758571D01*
X81613333Y-36853809D01*
X81613333Y-37091904D01*
X81565714Y-37187142D01*
X81518095Y-37234761D01*
X81422857Y-37282380D01*
X81184761Y-37282380D01*
X81089523Y-37234761D01*
X81041904Y-37187142D01*
X81899047Y-36282380D02*
X82232380Y-37282380D01*
X82565714Y-36282380D01*
X72231428Y-36377619D02*
X72279047Y-36330000D01*
X72374285Y-36282380D01*
X72612380Y-36282380D01*
X72707619Y-36330000D01*
X72755238Y-36377619D01*
X72802857Y-36472857D01*
X72802857Y-36568095D01*
X72755238Y-36710952D01*
X72183809Y-37282380D01*
X72802857Y-37282380D01*
X73231428Y-37187142D02*
X73279047Y-37234761D01*
X73231428Y-37282380D01*
X73183809Y-37234761D01*
X73231428Y-37187142D01*
X73231428Y-37282380D01*
X74183809Y-36282380D02*
X73707619Y-36282380D01*
X73660000Y-36758571D01*
X73707619Y-36710952D01*
X73802857Y-36663333D01*
X74040952Y-36663333D01*
X74136190Y-36710952D01*
X74183809Y-36758571D01*
X74231428Y-36853809D01*
X74231428Y-37091904D01*
X74183809Y-37187142D01*
X74136190Y-37234761D01*
X74040952Y-37282380D01*
X73802857Y-37282380D01*
X73707619Y-37234761D01*
X73660000Y-37187142D01*
X74517142Y-36282380D02*
X74850476Y-37282380D01*
X75183809Y-36282380D01*
X58420952Y-79192380D02*
X58420952Y-78192380D01*
X58754285Y-78192380D02*
X59087619Y-79192380D01*
X59420952Y-78192380D01*
X59754285Y-78811428D02*
X60516190Y-78811428D01*
X61420952Y-78192380D02*
X61230476Y-78192380D01*
X61135238Y-78240000D01*
X61087619Y-78287619D01*
X60992380Y-78430476D01*
X60944761Y-78620952D01*
X60944761Y-79001904D01*
X60992380Y-79097142D01*
X61040000Y-79144761D01*
X61135238Y-79192380D01*
X61325714Y-79192380D01*
X61420952Y-79144761D01*
X61468571Y-79097142D01*
X61516190Y-79001904D01*
X61516190Y-78763809D01*
X61468571Y-78668571D01*
X61420952Y-78620952D01*
X61325714Y-78573333D01*
X61135238Y-78573333D01*
X61040000Y-78620952D01*
X60992380Y-78668571D01*
X60944761Y-78763809D01*
X62706666Y-79192380D02*
X62706666Y-78525714D01*
X62706666Y-78620952D02*
X62754285Y-78573333D01*
X62849523Y-78525714D01*
X62992380Y-78525714D01*
X63087619Y-78573333D01*
X63135238Y-78668571D01*
X63135238Y-79192380D01*
X63135238Y-78668571D02*
X63182857Y-78573333D01*
X63278095Y-78525714D01*
X63420952Y-78525714D01*
X63516190Y-78573333D01*
X63563809Y-78668571D01*
X63563809Y-79192380D01*
X64182857Y-79192380D02*
X64087619Y-79144761D01*
X64040000Y-79097142D01*
X63992380Y-79001904D01*
X63992380Y-78716190D01*
X64040000Y-78620952D01*
X64087619Y-78573333D01*
X64182857Y-78525714D01*
X64325714Y-78525714D01*
X64420952Y-78573333D01*
X64468571Y-78620952D01*
X64516190Y-78716190D01*
X64516190Y-79001904D01*
X64468571Y-79097142D01*
X64420952Y-79144761D01*
X64325714Y-79192380D01*
X64182857Y-79192380D01*
X65373333Y-78525714D02*
X65373333Y-79192380D01*
X64944761Y-78525714D02*
X64944761Y-79049523D01*
X64992380Y-79144761D01*
X65087619Y-79192380D01*
X65230476Y-79192380D01*
X65325714Y-79144761D01*
X65373333Y-79097142D01*
X65849523Y-78525714D02*
X65849523Y-79192380D01*
X65849523Y-78620952D02*
X65897142Y-78573333D01*
X65992380Y-78525714D01*
X66135238Y-78525714D01*
X66230476Y-78573333D01*
X66278095Y-78668571D01*
X66278095Y-79192380D01*
X66611428Y-78525714D02*
X66992380Y-78525714D01*
X66754285Y-78192380D02*
X66754285Y-79049523D01*
X66801904Y-79144761D01*
X66897142Y-79192380D01*
X66992380Y-79192380D01*
X68230476Y-79192380D02*
X68135238Y-79144761D01*
X68087619Y-79097142D01*
X68040000Y-79001904D01*
X68040000Y-78716190D01*
X68087619Y-78620952D01*
X68135238Y-78573333D01*
X68230476Y-78525714D01*
X68373333Y-78525714D01*
X68468571Y-78573333D01*
X68516190Y-78620952D01*
X68563809Y-78716190D01*
X68563809Y-79001904D01*
X68516190Y-79097142D01*
X68468571Y-79144761D01*
X68373333Y-79192380D01*
X68230476Y-79192380D01*
X68992380Y-78525714D02*
X68992380Y-79192380D01*
X68992380Y-78620952D02*
X69040000Y-78573333D01*
X69135238Y-78525714D01*
X69278095Y-78525714D01*
X69373333Y-78573333D01*
X69420952Y-78668571D01*
X69420952Y-79192380D01*
X70659047Y-79192380D02*
X70659047Y-78192380D01*
X70659047Y-78573333D02*
X70754285Y-78525714D01*
X70944761Y-78525714D01*
X71040000Y-78573333D01*
X71087619Y-78620952D01*
X71135238Y-78716190D01*
X71135238Y-79001904D01*
X71087619Y-79097142D01*
X71040000Y-79144761D01*
X70944761Y-79192380D01*
X70754285Y-79192380D01*
X70659047Y-79144761D01*
X71992380Y-79192380D02*
X71992380Y-78668571D01*
X71944761Y-78573333D01*
X71849523Y-78525714D01*
X71659047Y-78525714D01*
X71563809Y-78573333D01*
X71992380Y-79144761D02*
X71897142Y-79192380D01*
X71659047Y-79192380D01*
X71563809Y-79144761D01*
X71516190Y-79049523D01*
X71516190Y-78954285D01*
X71563809Y-78859047D01*
X71659047Y-78811428D01*
X71897142Y-78811428D01*
X71992380Y-78763809D01*
X72897142Y-79144761D02*
X72801904Y-79192380D01*
X72611428Y-79192380D01*
X72516190Y-79144761D01*
X72468571Y-79097142D01*
X72420952Y-79001904D01*
X72420952Y-78716190D01*
X72468571Y-78620952D01*
X72516190Y-78573333D01*
X72611428Y-78525714D01*
X72801904Y-78525714D01*
X72897142Y-78573333D01*
X73325714Y-79192380D02*
X73325714Y-78192380D01*
X73420952Y-78811428D02*
X73706666Y-79192380D01*
X73706666Y-78525714D02*
X73325714Y-78906666D01*
X138184761Y-53522619D02*
X138232380Y-53475000D01*
X138327619Y-53427380D01*
X138565714Y-53427380D01*
X138660952Y-53475000D01*
X138708571Y-53522619D01*
X138756190Y-53617857D01*
X138756190Y-53713095D01*
X138708571Y-53855952D01*
X138137142Y-54427380D01*
X138756190Y-54427380D01*
X139375238Y-53427380D02*
X139470476Y-53427380D01*
X139565714Y-53475000D01*
X139613333Y-53522619D01*
X139660952Y-53617857D01*
X139708571Y-53808333D01*
X139708571Y-54046428D01*
X139660952Y-54236904D01*
X139613333Y-54332142D01*
X139565714Y-54379761D01*
X139470476Y-54427380D01*
X139375238Y-54427380D01*
X139280000Y-54379761D01*
X139232380Y-54332142D01*
X139184761Y-54236904D01*
X139137142Y-54046428D01*
X139137142Y-53808333D01*
X139184761Y-53617857D01*
X139232380Y-53522619D01*
X139280000Y-53475000D01*
X139375238Y-53427380D01*
X140089523Y-53522619D02*
X140137142Y-53475000D01*
X140232380Y-53427380D01*
X140470476Y-53427380D01*
X140565714Y-53475000D01*
X140613333Y-53522619D01*
X140660952Y-53617857D01*
X140660952Y-53713095D01*
X140613333Y-53855952D01*
X140041904Y-54427380D01*
X140660952Y-54427380D01*
X141280000Y-53427380D02*
X141375238Y-53427380D01*
X141470476Y-53475000D01*
X141518095Y-53522619D01*
X141565714Y-53617857D01*
X141613333Y-53808333D01*
X141613333Y-54046428D01*
X141565714Y-54236904D01*
X141518095Y-54332142D01*
X141470476Y-54379761D01*
X141375238Y-54427380D01*
X141280000Y-54427380D01*
X141184761Y-54379761D01*
X141137142Y-54332142D01*
X141089523Y-54236904D01*
X141041904Y-54046428D01*
X141041904Y-53808333D01*
X141089523Y-53617857D01*
X141137142Y-53522619D01*
X141184761Y-53475000D01*
X141280000Y-53427380D01*
X142041904Y-54046428D02*
X142803809Y-54046428D01*
X143470476Y-53427380D02*
X143565714Y-53427380D01*
X143660952Y-53475000D01*
X143708571Y-53522619D01*
X143756190Y-53617857D01*
X143803809Y-53808333D01*
X143803809Y-54046428D01*
X143756190Y-54236904D01*
X143708571Y-54332142D01*
X143660952Y-54379761D01*
X143565714Y-54427380D01*
X143470476Y-54427380D01*
X143375238Y-54379761D01*
X143327619Y-54332142D01*
X143280000Y-54236904D01*
X143232380Y-54046428D01*
X143232380Y-53808333D01*
X143280000Y-53617857D01*
X143327619Y-53522619D01*
X143375238Y-53475000D01*
X143470476Y-53427380D01*
X144137142Y-53427380D02*
X144803809Y-53427380D01*
X144375238Y-54427380D01*
X148041904Y-54427380D02*
X147708571Y-53951190D01*
X147470476Y-54427380D02*
X147470476Y-53427380D01*
X147851428Y-53427380D01*
X147946666Y-53475000D01*
X147994285Y-53522619D01*
X148041904Y-53617857D01*
X148041904Y-53760714D01*
X147994285Y-53855952D01*
X147946666Y-53903571D01*
X147851428Y-53951190D01*
X147470476Y-53951190D01*
X148851428Y-54379761D02*
X148756190Y-54427380D01*
X148565714Y-54427380D01*
X148470476Y-54379761D01*
X148422857Y-54284523D01*
X148422857Y-53903571D01*
X148470476Y-53808333D01*
X148565714Y-53760714D01*
X148756190Y-53760714D01*
X148851428Y-53808333D01*
X148899047Y-53903571D01*
X148899047Y-53998809D01*
X148422857Y-54094047D01*
X149232380Y-53760714D02*
X149470476Y-54427380D01*
X149708571Y-53760714D01*
X151375238Y-54427380D02*
X150803809Y-54427380D01*
X151089523Y-54427380D02*
X151089523Y-53427380D01*
X150994285Y-53570238D01*
X150899047Y-53665476D01*
X150803809Y-53713095D01*
X139002619Y-51855714D02*
X139002619Y-52665238D01*
X138955000Y-52760476D01*
X138907380Y-52808095D01*
X138812142Y-52855714D01*
X138669285Y-52855714D01*
X138574047Y-52808095D01*
X139002619Y-52474761D02*
X138907380Y-52522380D01*
X138716904Y-52522380D01*
X138621666Y-52474761D01*
X138574047Y-52427142D01*
X138526428Y-52331904D01*
X138526428Y-52046190D01*
X138574047Y-51950952D01*
X138621666Y-51903333D01*
X138716904Y-51855714D01*
X138907380Y-51855714D01*
X139002619Y-51903333D01*
X139478809Y-52522380D02*
X139478809Y-51855714D01*
X139478809Y-51522380D02*
X139431190Y-51570000D01*
X139478809Y-51617619D01*
X139526428Y-51570000D01*
X139478809Y-51522380D01*
X139478809Y-51617619D01*
X139812142Y-51855714D02*
X140193095Y-51855714D01*
X139955000Y-51522380D02*
X139955000Y-52379523D01*
X140002619Y-52474761D01*
X140097857Y-52522380D01*
X140193095Y-52522380D01*
X140526428Y-52522380D02*
X140526428Y-51522380D01*
X140955000Y-52522380D02*
X140955000Y-51998571D01*
X140907380Y-51903333D01*
X140812142Y-51855714D01*
X140669285Y-51855714D01*
X140574047Y-51903333D01*
X140526428Y-51950952D01*
X141859761Y-51855714D02*
X141859761Y-52522380D01*
X141431190Y-51855714D02*
X141431190Y-52379523D01*
X141478809Y-52474761D01*
X141574047Y-52522380D01*
X141716904Y-52522380D01*
X141812142Y-52474761D01*
X141859761Y-52427142D01*
X142335952Y-52522380D02*
X142335952Y-51522380D01*
X142335952Y-51903333D02*
X142431190Y-51855714D01*
X142621666Y-51855714D01*
X142716904Y-51903333D01*
X142764523Y-51950952D01*
X142812142Y-52046190D01*
X142812142Y-52331904D01*
X142764523Y-52427142D01*
X142716904Y-52474761D01*
X142621666Y-52522380D01*
X142431190Y-52522380D01*
X142335952Y-52474761D01*
X144383571Y-52474761D02*
X144288333Y-52522380D01*
X144097857Y-52522380D01*
X144002619Y-52474761D01*
X143955000Y-52379523D01*
X143955000Y-51998571D01*
X144002619Y-51903333D01*
X144097857Y-51855714D01*
X144288333Y-51855714D01*
X144383571Y-51903333D01*
X144431190Y-51998571D01*
X144431190Y-52093809D01*
X143955000Y-52189047D01*
X144812142Y-52474761D02*
X144907380Y-52522380D01*
X145097857Y-52522380D01*
X145193095Y-52474761D01*
X145240714Y-52379523D01*
X145240714Y-52331904D01*
X145193095Y-52236666D01*
X145097857Y-52189047D01*
X144955000Y-52189047D01*
X144859761Y-52141428D01*
X144812142Y-52046190D01*
X144812142Y-51998571D01*
X144859761Y-51903333D01*
X144955000Y-51855714D01*
X145097857Y-51855714D01*
X145193095Y-51903333D01*
X145669285Y-52522380D02*
X145669285Y-51522380D01*
X146097857Y-52522380D02*
X146097857Y-51998571D01*
X146050238Y-51903333D01*
X145955000Y-51855714D01*
X145812142Y-51855714D01*
X145716904Y-51903333D01*
X145669285Y-51950952D01*
X147002619Y-52522380D02*
X147002619Y-51998571D01*
X146955000Y-51903333D01*
X146859761Y-51855714D01*
X146669285Y-51855714D01*
X146574047Y-51903333D01*
X147002619Y-52474761D02*
X146907380Y-52522380D01*
X146669285Y-52522380D01*
X146574047Y-52474761D01*
X146526428Y-52379523D01*
X146526428Y-52284285D01*
X146574047Y-52189047D01*
X146669285Y-52141428D01*
X146907380Y-52141428D01*
X147002619Y-52093809D01*
X147383571Y-51855714D02*
X147907380Y-51855714D01*
X147383571Y-52522380D01*
X147907380Y-52522380D01*
X148669285Y-52474761D02*
X148574047Y-52522380D01*
X148383571Y-52522380D01*
X148288333Y-52474761D01*
X148240714Y-52379523D01*
X148240714Y-51998571D01*
X148288333Y-51903333D01*
X148383571Y-51855714D01*
X148574047Y-51855714D01*
X148669285Y-51903333D01*
X148716904Y-51998571D01*
X148716904Y-52093809D01*
X148240714Y-52189047D01*
X149145476Y-51855714D02*
X149145476Y-52522380D01*
X149145476Y-51950952D02*
X149193095Y-51903333D01*
X149288333Y-51855714D01*
X149431190Y-51855714D01*
X149526428Y-51903333D01*
X149574047Y-51998571D01*
X149574047Y-52522380D01*
X150764523Y-51474761D02*
X149907380Y-52760476D01*
X151097857Y-52522380D02*
X151097857Y-51855714D01*
X151097857Y-52046190D02*
X151145476Y-51950952D01*
X151193095Y-51903333D01*
X151288333Y-51855714D01*
X151383571Y-51855714D01*
X152097857Y-52474761D02*
X152002619Y-52522380D01*
X151812142Y-52522380D01*
X151716904Y-52474761D01*
X151669285Y-52379523D01*
X151669285Y-51998571D01*
X151716904Y-51903333D01*
X151812142Y-51855714D01*
X152002619Y-51855714D01*
X152097857Y-51903333D01*
X152145476Y-51998571D01*
X152145476Y-52093809D01*
X151669285Y-52189047D01*
X152431190Y-51855714D02*
X152812142Y-51855714D01*
X152574047Y-51522380D02*
X152574047Y-52379523D01*
X152621666Y-52474761D01*
X152716904Y-52522380D01*
X152812142Y-52522380D01*
X153145476Y-52522380D02*
X153145476Y-51855714D01*
X153145476Y-52046190D02*
X153193095Y-51950952D01*
X153240714Y-51903333D01*
X153335952Y-51855714D01*
X153431190Y-51855714D01*
X153907380Y-52522380D02*
X153812142Y-52474761D01*
X153764523Y-52427142D01*
X153716904Y-52331904D01*
X153716904Y-52046190D01*
X153764523Y-51950952D01*
X153812142Y-51903333D01*
X153907380Y-51855714D01*
X154050238Y-51855714D01*
X154145476Y-51903333D01*
X154193095Y-51950952D01*
X154240714Y-52046190D01*
X154240714Y-52331904D01*
X154193095Y-52427142D01*
X154145476Y-52474761D01*
X154050238Y-52522380D01*
X153907380Y-52522380D01*
X154669285Y-52141428D02*
X155431190Y-52141428D01*
X155859761Y-51617619D02*
X155907380Y-51570000D01*
X156002619Y-51522380D01*
X156240714Y-51522380D01*
X156335952Y-51570000D01*
X156383571Y-51617619D01*
X156431190Y-51712857D01*
X156431190Y-51808095D01*
X156383571Y-51950952D01*
X155812142Y-52522380D01*
X156431190Y-52522380D01*
X157335952Y-51522380D02*
X156859761Y-51522380D01*
X156812142Y-51998571D01*
X156859761Y-51950952D01*
X156955000Y-51903333D01*
X157193095Y-51903333D01*
X157288333Y-51950952D01*
X157335952Y-51998571D01*
X157383571Y-52093809D01*
X157383571Y-52331904D01*
X157335952Y-52427142D01*
X157288333Y-52474761D01*
X157193095Y-52522380D01*
X156955000Y-52522380D01*
X156859761Y-52474761D01*
X156812142Y-52427142D01*
X97953285Y-52505428D02*
X97953285Y-53739142D01*
X98025857Y-53884285D01*
X98098428Y-53956857D01*
X98243571Y-54029428D01*
X98533857Y-54029428D01*
X98679000Y-53956857D01*
X98751571Y-53884285D01*
X98824142Y-53739142D01*
X98824142Y-52505428D01*
X99549857Y-54029428D02*
X99549857Y-52505428D01*
X100130428Y-52505428D01*
X100275571Y-52578000D01*
X100348142Y-52650571D01*
X100420714Y-52795714D01*
X100420714Y-53013428D01*
X100348142Y-53158571D01*
X100275571Y-53231142D01*
X100130428Y-53303714D01*
X99549857Y-53303714D01*
X101944714Y-53884285D02*
X101872142Y-53956857D01*
X101654428Y-54029428D01*
X101509285Y-54029428D01*
X101291571Y-53956857D01*
X101146428Y-53811714D01*
X101073857Y-53666571D01*
X101001285Y-53376285D01*
X101001285Y-53158571D01*
X101073857Y-52868285D01*
X101146428Y-52723142D01*
X101291571Y-52578000D01*
X101509285Y-52505428D01*
X101654428Y-52505428D01*
X101872142Y-52578000D01*
X101944714Y-52650571D01*
X102888142Y-52505428D02*
X103178428Y-52505428D01*
X103323571Y-52578000D01*
X103468714Y-52723142D01*
X103541285Y-53013428D01*
X103541285Y-53521428D01*
X103468714Y-53811714D01*
X103323571Y-53956857D01*
X103178428Y-54029428D01*
X102888142Y-54029428D01*
X102743000Y-53956857D01*
X102597857Y-53811714D01*
X102525285Y-53521428D01*
X102525285Y-53013428D01*
X102597857Y-52723142D01*
X102743000Y-52578000D01*
X102888142Y-52505428D01*
X105355571Y-54029428D02*
X105355571Y-53013428D01*
X105355571Y-53303714D02*
X105428142Y-53158571D01*
X105500714Y-53086000D01*
X105645857Y-53013428D01*
X105791000Y-53013428D01*
X106879571Y-53956857D02*
X106734428Y-54029428D01*
X106444142Y-54029428D01*
X106299000Y-53956857D01*
X106226428Y-53811714D01*
X106226428Y-53231142D01*
X106299000Y-53086000D01*
X106444142Y-53013428D01*
X106734428Y-53013428D01*
X106879571Y-53086000D01*
X106952142Y-53231142D01*
X106952142Y-53376285D01*
X106226428Y-53521428D01*
X107387571Y-53013428D02*
X107968142Y-53013428D01*
X107605285Y-52505428D02*
X107605285Y-53811714D01*
X107677857Y-53956857D01*
X107823000Y-54029428D01*
X107968142Y-54029428D01*
X108476142Y-54029428D02*
X108476142Y-53013428D01*
X108476142Y-53303714D02*
X108548714Y-53158571D01*
X108621285Y-53086000D01*
X108766428Y-53013428D01*
X108911571Y-53013428D01*
X109637285Y-54029428D02*
X109492142Y-53956857D01*
X109419571Y-53884285D01*
X109347000Y-53739142D01*
X109347000Y-53303714D01*
X109419571Y-53158571D01*
X109492142Y-53086000D01*
X109637285Y-53013428D01*
X109855000Y-53013428D01*
X110000142Y-53086000D01*
X110072714Y-53158571D01*
X110145285Y-53303714D01*
X110145285Y-53739142D01*
X110072714Y-53884285D01*
X110000142Y-53956857D01*
X109855000Y-54029428D01*
X109637285Y-54029428D01*
X110798428Y-53448857D02*
X111959571Y-53448857D01*
X112612714Y-52650571D02*
X112685285Y-52578000D01*
X112830428Y-52505428D01*
X113193285Y-52505428D01*
X113338428Y-52578000D01*
X113411000Y-52650571D01*
X113483571Y-52795714D01*
X113483571Y-52940857D01*
X113411000Y-53158571D01*
X112540142Y-54029428D01*
X113483571Y-54029428D01*
X114862428Y-52505428D02*
X114136714Y-52505428D01*
X114064142Y-53231142D01*
X114136714Y-53158571D01*
X114281857Y-53086000D01*
X114644714Y-53086000D01*
X114789857Y-53158571D01*
X114862428Y-53231142D01*
X114935000Y-53376285D01*
X114935000Y-53739142D01*
X114862428Y-53884285D01*
X114789857Y-53956857D01*
X114644714Y-54029428D01*
X114281857Y-54029428D01*
X114136714Y-53956857D01*
X114064142Y-53884285D01*
X116531571Y-52505428D02*
X117039571Y-54029428D01*
X117547571Y-52505428D01*
X118563571Y-53231142D02*
X118055571Y-53231142D01*
X118055571Y-54029428D02*
X118055571Y-52505428D01*
X118781285Y-52505428D01*
X119361857Y-54029428D02*
X119361857Y-52505428D01*
X119724714Y-52505428D01*
X119942428Y-52578000D01*
X120087571Y-52723142D01*
X120160142Y-52868285D01*
X120232714Y-53158571D01*
X120232714Y-53376285D01*
X120160142Y-53666571D01*
X120087571Y-53811714D01*
X119942428Y-53956857D01*
X119724714Y-54029428D01*
X119361857Y-54029428D01*
X122700142Y-54029428D02*
X122700142Y-52505428D01*
X122700142Y-53956857D02*
X122555000Y-54029428D01*
X122264714Y-54029428D01*
X122119571Y-53956857D01*
X122047000Y-53884285D01*
X121974428Y-53739142D01*
X121974428Y-53303714D01*
X122047000Y-53158571D01*
X122119571Y-53086000D01*
X122264714Y-53013428D01*
X122555000Y-53013428D01*
X122700142Y-53086000D01*
X123425857Y-54029428D02*
X123425857Y-53013428D01*
X123425857Y-52505428D02*
X123353285Y-52578000D01*
X123425857Y-52650571D01*
X123498428Y-52578000D01*
X123425857Y-52505428D01*
X123425857Y-52650571D01*
X124079000Y-53956857D02*
X124224142Y-54029428D01*
X124514428Y-54029428D01*
X124659571Y-53956857D01*
X124732142Y-53811714D01*
X124732142Y-53739142D01*
X124659571Y-53594000D01*
X124514428Y-53521428D01*
X124296714Y-53521428D01*
X124151571Y-53448857D01*
X124079000Y-53303714D01*
X124079000Y-53231142D01*
X124151571Y-53086000D01*
X124296714Y-53013428D01*
X124514428Y-53013428D01*
X124659571Y-53086000D01*
X125385285Y-53013428D02*
X125385285Y-54537428D01*
X125385285Y-53086000D02*
X125530428Y-53013428D01*
X125820714Y-53013428D01*
X125965857Y-53086000D01*
X126038428Y-53158571D01*
X126111000Y-53303714D01*
X126111000Y-53739142D01*
X126038428Y-53884285D01*
X125965857Y-53956857D01*
X125820714Y-54029428D01*
X125530428Y-54029428D01*
X125385285Y-53956857D01*
X126981857Y-54029428D02*
X126836714Y-53956857D01*
X126764142Y-53811714D01*
X126764142Y-52505428D01*
X128215571Y-54029428D02*
X128215571Y-53231142D01*
X128143000Y-53086000D01*
X127997857Y-53013428D01*
X127707571Y-53013428D01*
X127562428Y-53086000D01*
X128215571Y-53956857D02*
X128070428Y-54029428D01*
X127707571Y-54029428D01*
X127562428Y-53956857D01*
X127489857Y-53811714D01*
X127489857Y-53666571D01*
X127562428Y-53521428D01*
X127707571Y-53448857D01*
X128070428Y-53448857D01*
X128215571Y-53376285D01*
X128796142Y-53013428D02*
X129159000Y-54029428D01*
X129521857Y-53013428D02*
X129159000Y-54029428D01*
X129013857Y-54392285D01*
X128941285Y-54464857D01*
X128796142Y-54537428D01*
D11*
%TO.C,C1*%
X96615000Y-52865000D02*
X96615000Y-53490000D01*
X96615000Y-50650000D02*
X96615000Y-51275000D01*
X92575000Y-52865000D02*
X92575000Y-53490000D01*
X92575000Y-50650000D02*
X92575000Y-51275000D01*
X92575000Y-53490000D02*
X96615000Y-53490000D01*
X92575000Y-50650000D02*
X96615000Y-50650000D01*
%TO.C,C2*%
X53840000Y-50650000D02*
X57880000Y-50650000D01*
X53840000Y-53490000D02*
X57880000Y-53490000D01*
X53840000Y-50650000D02*
X53840000Y-51275000D01*
X53840000Y-52865000D02*
X53840000Y-53490000D01*
X57880000Y-50650000D02*
X57880000Y-51275000D01*
X57880000Y-52865000D02*
X57880000Y-53490000D01*
%TO.C,C3*%
X53180000Y-81375000D02*
X52555000Y-81375000D01*
X55395000Y-81375000D02*
X54770000Y-81375000D01*
X53180000Y-77335000D02*
X52555000Y-77335000D01*
X55395000Y-77335000D02*
X54770000Y-77335000D01*
X52555000Y-77335000D02*
X52555000Y-81375000D01*
X55395000Y-77335000D02*
X55395000Y-81375000D01*
%TO.C,C4*%
X113165000Y-47140000D02*
X109125000Y-47140000D01*
X113165000Y-44300000D02*
X109125000Y-44300000D01*
X113165000Y-47140000D02*
X113165000Y-46515000D01*
X113165000Y-44925000D02*
X113165000Y-44300000D01*
X109125000Y-47140000D02*
X109125000Y-46515000D01*
X109125000Y-44925000D02*
X109125000Y-44300000D01*
%TO.C,C5*%
X135350000Y-53500000D02*
X135350000Y-54125000D01*
X135350000Y-51285000D02*
X135350000Y-51910000D01*
X131310000Y-53500000D02*
X131310000Y-54125000D01*
X131310000Y-51285000D02*
X131310000Y-51910000D01*
X131310000Y-54125000D02*
X135350000Y-54125000D01*
X131310000Y-51285000D02*
X135350000Y-51285000D01*
%TO.C,C6*%
X247800000Y-76700000D02*
X247800000Y-80740000D01*
X244960000Y-76700000D02*
X244960000Y-80740000D01*
X247800000Y-76700000D02*
X247175000Y-76700000D01*
X245585000Y-76700000D02*
X244960000Y-76700000D01*
X247800000Y-80740000D02*
X247175000Y-80740000D01*
X245585000Y-80740000D02*
X244960000Y-80740000D01*
%TO.C,C7*%
X171950000Y-50650000D02*
X175990000Y-50650000D01*
X171950000Y-53490000D02*
X175990000Y-53490000D01*
X171950000Y-50650000D02*
X171950000Y-51275000D01*
X171950000Y-52865000D02*
X171950000Y-53490000D01*
X175990000Y-50650000D02*
X175990000Y-51275000D01*
X175990000Y-52865000D02*
X175990000Y-53490000D01*
%TO.C,C8*%
X242030000Y-45245000D02*
X242030000Y-45870000D01*
X242030000Y-43030000D02*
X242030000Y-43655000D01*
X237990000Y-45245000D02*
X237990000Y-45870000D01*
X237990000Y-43030000D02*
X237990000Y-43655000D01*
X237990000Y-45870000D02*
X242030000Y-45870000D01*
X237990000Y-43030000D02*
X242030000Y-43030000D01*
%TO.C,C9*%
X184935000Y-41140000D02*
X184935000Y-45180000D01*
X182095000Y-41140000D02*
X182095000Y-45180000D01*
X184935000Y-41140000D02*
X184310000Y-41140000D01*
X182720000Y-41140000D02*
X182095000Y-41140000D01*
X184935000Y-45180000D02*
X184310000Y-45180000D01*
X182720000Y-45180000D02*
X182095000Y-45180000D01*
%TO.C,C10*%
X101505000Y-44925000D02*
X101505000Y-44300000D01*
X101505000Y-47140000D02*
X101505000Y-46515000D01*
X105545000Y-44925000D02*
X105545000Y-44300000D01*
X105545000Y-47140000D02*
X105545000Y-46515000D01*
X105545000Y-44300000D02*
X101505000Y-44300000D01*
X105545000Y-47140000D02*
X101505000Y-47140000D01*
%TO.C,C11*%
X215360000Y-53500000D02*
X215360000Y-54125000D01*
X215360000Y-51285000D02*
X215360000Y-51910000D01*
X211320000Y-53500000D02*
X211320000Y-54125000D01*
X211320000Y-51285000D02*
X211320000Y-51910000D01*
X211320000Y-54125000D02*
X215360000Y-54125000D01*
X211320000Y-51285000D02*
X215360000Y-51285000D01*
%TO.C,C12*%
X151915000Y-40505000D02*
X151915000Y-44545000D01*
X149075000Y-40505000D02*
X149075000Y-44545000D01*
X151915000Y-40505000D02*
X151290000Y-40505000D01*
X149700000Y-40505000D02*
X149075000Y-40505000D01*
X151915000Y-44545000D02*
X151290000Y-44545000D01*
X149700000Y-44545000D02*
X149075000Y-44545000D01*
%TO.C,D1*%
X126020000Y-39971000D02*
X126020000Y-39815000D01*
X126020000Y-37655000D02*
X126020000Y-37499000D01*
X122787665Y-39813608D02*
G75*
G03*
X126020000Y-39970516I1672335J1078608D01*
G01*
X122787665Y-37656392D02*
G75*
G02*
X126020000Y-37499484I1672335J-1078608D01*
G01*
X123418870Y-39814837D02*
G75*
G03*
X125500961Y-39815000I1041130J1079837D01*
G01*
X123418870Y-37655163D02*
G75*
G02*
X125500961Y-37655000I1041130J-1079837D01*
G01*
%TO.C,D2*%
X126020000Y-44005000D02*
X126020000Y-43849000D01*
X126020000Y-46321000D02*
X126020000Y-46165000D01*
X123418870Y-44005163D02*
G75*
G02*
X125500961Y-44005000I1041130J-1079837D01*
G01*
X123418870Y-46164837D02*
G75*
G03*
X125500961Y-46165000I1041130J1079837D01*
G01*
X122787665Y-44006392D02*
G75*
G02*
X126020000Y-43849484I1672335J-1078608D01*
G01*
X122787665Y-46163608D02*
G75*
G03*
X126020000Y-46320516I1672335J1078608D01*
G01*
%TO.C,J1*%
X227390000Y-53400000D02*
X227390000Y-48200000D01*
X222250000Y-53400000D02*
X227390000Y-53400000D01*
X219650000Y-48200000D02*
X227390000Y-48200000D01*
X222250000Y-53400000D02*
X222250000Y-50800000D01*
X222250000Y-50800000D02*
X219650000Y-50800000D01*
X219650000Y-50800000D02*
X219650000Y-48200000D01*
X220980000Y-53400000D02*
X219650000Y-53400000D01*
X219650000Y-53400000D02*
X219650000Y-52070000D01*
%TO.C,J2*%
X91555000Y-49035000D02*
X67715000Y-49035000D01*
X67715000Y-49035000D02*
X67715000Y-39810000D01*
X67715000Y-39810000D02*
X69620000Y-39810000D01*
X69620000Y-39810000D02*
X69620000Y-38805000D01*
X69620000Y-38805000D02*
X89650000Y-38805000D01*
X89650000Y-38805000D02*
X89650000Y-39810000D01*
X89650000Y-39810000D02*
X91555000Y-39810000D01*
X91555000Y-39810000D02*
X91555000Y-49035000D01*
X91845000Y-45815000D02*
X91845000Y-41815000D01*
X89535000Y-38805000D02*
X89535000Y-39805000D01*
X89535000Y-39805000D02*
X80115000Y-39805000D01*
X80115000Y-39805000D02*
X80115000Y-38805000D01*
X89535000Y-39805000D02*
X89535000Y-41475000D01*
X89535000Y-41475000D02*
X80115000Y-41475000D01*
X80115000Y-41475000D02*
X80115000Y-39805000D01*
X79155000Y-38805000D02*
X79155000Y-39805000D01*
X79155000Y-39805000D02*
X69735000Y-39805000D01*
X69735000Y-39805000D02*
X69735000Y-38805000D01*
X79155000Y-39805000D02*
X79155000Y-41475000D01*
X79155000Y-41475000D02*
X69735000Y-41475000D01*
X69735000Y-41475000D02*
X69735000Y-39805000D01*
X90335000Y-49035000D02*
X90335000Y-48435000D01*
X90335000Y-48435000D02*
X88735000Y-48435000D01*
X88735000Y-48435000D02*
X88735000Y-49035000D01*
X86375000Y-49035000D02*
X86375000Y-48435000D01*
X86375000Y-48435000D02*
X84775000Y-48435000D01*
X84775000Y-48435000D02*
X84775000Y-49035000D01*
X82415000Y-49035000D02*
X82415000Y-48435000D01*
X82415000Y-48435000D02*
X80815000Y-48435000D01*
X80815000Y-48435000D02*
X80815000Y-49035000D01*
X78455000Y-49035000D02*
X78455000Y-48435000D01*
X78455000Y-48435000D02*
X76855000Y-48435000D01*
X76855000Y-48435000D02*
X76855000Y-49035000D01*
X74495000Y-49035000D02*
X74495000Y-48435000D01*
X74495000Y-48435000D02*
X72895000Y-48435000D01*
X72895000Y-48435000D02*
X72895000Y-49035000D01*
X70535000Y-49035000D02*
X70535000Y-48435000D01*
X70535000Y-48435000D02*
X68935000Y-48435000D01*
X68935000Y-48435000D02*
X68935000Y-49035000D01*
%TO.C,J3*%
X234375000Y-41335000D02*
X234375000Y-36135000D01*
X216535000Y-41335000D02*
X234375000Y-41335000D01*
X213935000Y-36135000D02*
X234375000Y-36135000D01*
X216535000Y-41335000D02*
X216535000Y-38735000D01*
X216535000Y-38735000D02*
X213935000Y-38735000D01*
X213935000Y-38735000D02*
X213935000Y-36135000D01*
X215265000Y-41335000D02*
X213935000Y-41335000D01*
X213935000Y-41335000D02*
X213935000Y-40005000D01*
%TO.C,R1*%
X243300000Y-49630000D02*
X243300000Y-46890000D01*
X243300000Y-46890000D02*
X236760000Y-46890000D01*
X236760000Y-46890000D02*
X236760000Y-49630000D01*
X236760000Y-49630000D02*
X243300000Y-49630000D01*
X244070000Y-48260000D02*
X243300000Y-48260000D01*
X235990000Y-48260000D02*
X236760000Y-48260000D01*
%TO.C,R2*%
X235990000Y-52070000D02*
X236760000Y-52070000D01*
X244070000Y-52070000D02*
X243300000Y-52070000D01*
X236760000Y-53440000D02*
X243300000Y-53440000D01*
X236760000Y-50700000D02*
X236760000Y-53440000D01*
X243300000Y-50700000D02*
X236760000Y-50700000D01*
X243300000Y-53440000D02*
X243300000Y-50700000D01*
%TO.C,R3*%
X198660000Y-50700000D02*
X198660000Y-53440000D01*
X198660000Y-53440000D02*
X205200000Y-53440000D01*
X205200000Y-53440000D02*
X205200000Y-50700000D01*
X205200000Y-50700000D02*
X198660000Y-50700000D01*
X197890000Y-52070000D02*
X198660000Y-52070000D01*
X205970000Y-52070000D02*
X205200000Y-52070000D01*
%TO.C,R4*%
X138525000Y-40105000D02*
X138525000Y-37365000D01*
X138525000Y-37365000D02*
X131985000Y-37365000D01*
X131985000Y-37365000D02*
X131985000Y-40105000D01*
X131985000Y-40105000D02*
X138525000Y-40105000D01*
X139295000Y-38735000D02*
X138525000Y-38735000D01*
X131215000Y-38735000D02*
X131985000Y-38735000D01*
%TO.C,R5*%
X219305000Y-45720000D02*
X218535000Y-45720000D01*
X211225000Y-45720000D02*
X211995000Y-45720000D01*
X218535000Y-44350000D02*
X211995000Y-44350000D01*
X218535000Y-47090000D02*
X218535000Y-44350000D01*
X211995000Y-47090000D02*
X218535000Y-47090000D01*
X211995000Y-44350000D02*
X211995000Y-47090000D01*
%TO.C,R6*%
X184055000Y-50700000D02*
X184055000Y-53440000D01*
X184055000Y-53440000D02*
X190595000Y-53440000D01*
X190595000Y-53440000D02*
X190595000Y-50700000D01*
X190595000Y-50700000D02*
X184055000Y-50700000D01*
X183285000Y-52070000D02*
X184055000Y-52070000D01*
X191365000Y-52070000D02*
X190595000Y-52070000D01*
%TO.C,R7*%
X131215000Y-43180000D02*
X131985000Y-43180000D01*
X139295000Y-43180000D02*
X138525000Y-43180000D01*
X131985000Y-44550000D02*
X138525000Y-44550000D01*
X131985000Y-41810000D02*
X131985000Y-44550000D01*
X138525000Y-41810000D02*
X131985000Y-41810000D01*
X138525000Y-44550000D02*
X138525000Y-41810000D01*
%TO.C,U1*%
X139253631Y-88900000D02*
G75*
G03*
X139253631Y-88900000I-1077631J0D01*
G01*
X136144000Y-84836000D02*
X137922000Y-86106000D01*
X142240000Y-95504000D02*
X141732000Y-94996000D01*
X142240000Y-95504000D02*
X142748000Y-94996000D01*
X142240000Y-94234000D02*
X142240000Y-95504000D01*
X148860000Y-88900000D02*
G75*
G03*
X148860000Y-88900000I-6620000J0D01*
G01*
%TO.C,U2*%
X63053631Y-88900000D02*
G75*
G03*
X63053631Y-88900000I-1077631J0D01*
G01*
X59944000Y-84836000D02*
X61722000Y-86106000D01*
X66040000Y-95504000D02*
X65532000Y-94996000D01*
X66040000Y-95504000D02*
X66548000Y-94996000D01*
X66040000Y-94234000D02*
X66040000Y-95504000D01*
X72660000Y-88900000D02*
G75*
G03*
X72660000Y-88900000I-6620000J0D01*
G01*
%TO.C,U3*%
X130750000Y-58710000D02*
X130750000Y-63770000D01*
X166430000Y-58710000D02*
X130750000Y-58710000D01*
X166430000Y-70830000D02*
X166430000Y-58710000D01*
X130750000Y-70830000D02*
X166430000Y-70830000D01*
X130750000Y-65770000D02*
X130750000Y-70830000D01*
X130750000Y-63770000D02*
G75*
G02*
X130750000Y-65770000I0J-1000000D01*
G01*
%TO.C,U4*%
X53280000Y-58710000D02*
X53280000Y-63770000D01*
X88960000Y-58710000D02*
X53280000Y-58710000D01*
X88960000Y-70830000D02*
X88960000Y-58710000D01*
X53280000Y-70830000D02*
X88960000Y-70830000D01*
X53280000Y-65770000D02*
X53280000Y-70830000D01*
X53280000Y-63770000D02*
G75*
G02*
X53280000Y-65770000I0J-1000000D01*
G01*
%TO.C,U5*%
X164100000Y-88900000D02*
G75*
G03*
X164100000Y-88900000I-6620000J0D01*
G01*
X157480000Y-94234000D02*
X157480000Y-95504000D01*
X157480000Y-95504000D02*
X157988000Y-94996000D01*
X157480000Y-95504000D02*
X156972000Y-94996000D01*
X151384000Y-84836000D02*
X153162000Y-86106000D01*
X154493631Y-88900000D02*
G75*
G03*
X154493631Y-88900000I-1077631J0D01*
G01*
%TO.C,U6*%
X78293631Y-88900000D02*
G75*
G03*
X78293631Y-88900000I-1077631J0D01*
G01*
X75184000Y-84836000D02*
X76962000Y-86106000D01*
X81280000Y-95504000D02*
X80772000Y-94996000D01*
X81280000Y-95504000D02*
X81788000Y-94996000D01*
X81280000Y-94234000D02*
X81280000Y-95504000D01*
X87900000Y-88900000D02*
G75*
G03*
X87900000Y-88900000I-6620000J0D01*
G01*
%TO.C,U7*%
X179340000Y-88900000D02*
G75*
G03*
X179340000Y-88900000I-6620000J0D01*
G01*
X172720000Y-94234000D02*
X172720000Y-95504000D01*
X172720000Y-95504000D02*
X173228000Y-94996000D01*
X172720000Y-95504000D02*
X172212000Y-94996000D01*
X166624000Y-84836000D02*
X168402000Y-86106000D01*
X169733631Y-88900000D02*
G75*
G03*
X169733631Y-88900000I-1077631J0D01*
G01*
%TO.C,U8*%
X103140000Y-88900000D02*
G75*
G03*
X103140000Y-88900000I-6620000J0D01*
G01*
X96520000Y-94234000D02*
X96520000Y-95504000D01*
X96520000Y-95504000D02*
X97028000Y-94996000D01*
X96520000Y-95504000D02*
X96012000Y-94996000D01*
X90424000Y-84836000D02*
X92202000Y-86106000D01*
X93533631Y-88900000D02*
G75*
G03*
X93533631Y-88900000I-1077631J0D01*
G01*
%TO.C,U9*%
X184973631Y-88900000D02*
G75*
G03*
X184973631Y-88900000I-1077631J0D01*
G01*
X181864000Y-84836000D02*
X183642000Y-86106000D01*
X187960000Y-95504000D02*
X187452000Y-94996000D01*
X187960000Y-95504000D02*
X188468000Y-94996000D01*
X187960000Y-94234000D02*
X187960000Y-95504000D01*
X194580000Y-88900000D02*
G75*
G03*
X194580000Y-88900000I-6620000J0D01*
G01*
%TO.C,U10*%
X118380000Y-88900000D02*
G75*
G03*
X118380000Y-88900000I-6620000J0D01*
G01*
X111760000Y-94234000D02*
X111760000Y-95504000D01*
X111760000Y-95504000D02*
X112268000Y-94996000D01*
X111760000Y-95504000D02*
X111252000Y-94996000D01*
X105664000Y-84836000D02*
X107442000Y-86106000D01*
X108773631Y-88900000D02*
G75*
G03*
X108773631Y-88900000I-1077631J0D01*
G01*
%TO.C,U11*%
X171390000Y-65770000D02*
X171390000Y-70830000D01*
X171390000Y-70830000D02*
X207070000Y-70830000D01*
X207070000Y-70830000D02*
X207070000Y-58710000D01*
X207070000Y-58710000D02*
X171390000Y-58710000D01*
X171390000Y-58710000D02*
X171390000Y-63770000D01*
X171390000Y-63770000D02*
G75*
G02*
X171390000Y-65770000I0J-1000000D01*
G01*
%TO.C,U12*%
X92015000Y-65770000D02*
X92015000Y-70830000D01*
X92015000Y-70830000D02*
X127695000Y-70830000D01*
X127695000Y-70830000D02*
X127695000Y-58710000D01*
X127695000Y-58710000D02*
X92015000Y-58710000D01*
X92015000Y-58710000D02*
X92015000Y-63770000D01*
X92015000Y-63770000D02*
G75*
G02*
X92015000Y-65770000I0J-1000000D01*
G01*
%TO.C,U13*%
X209820000Y-88900000D02*
G75*
G03*
X209820000Y-88900000I-6620000J0D01*
G01*
X203200000Y-94234000D02*
X203200000Y-95504000D01*
X203200000Y-95504000D02*
X203708000Y-94996000D01*
X203200000Y-95504000D02*
X202692000Y-94996000D01*
X197104000Y-84836000D02*
X198882000Y-86106000D01*
X200213631Y-88900000D02*
G75*
G03*
X200213631Y-88900000I-1077631J0D01*
G01*
%TO.C,U14*%
X124013631Y-88900000D02*
G75*
G03*
X124013631Y-88900000I-1077631J0D01*
G01*
X120904000Y-84836000D02*
X122682000Y-86106000D01*
X127000000Y-95504000D02*
X126492000Y-94996000D01*
X127000000Y-95504000D02*
X127508000Y-94996000D01*
X127000000Y-94234000D02*
X127000000Y-95504000D01*
X133620000Y-88900000D02*
G75*
G03*
X133620000Y-88900000I-6620000J0D01*
G01*
%TO.C,U15*%
X215453631Y-88900000D02*
G75*
G03*
X215453631Y-88900000I-1077631J0D01*
G01*
X212344000Y-84836000D02*
X214122000Y-86106000D01*
X218440000Y-95504000D02*
X217932000Y-94996000D01*
X218440000Y-95504000D02*
X218948000Y-94996000D01*
X218440000Y-94234000D02*
X218440000Y-95504000D01*
X225060000Y-88900000D02*
G75*
G03*
X225060000Y-88900000I-6620000J0D01*
G01*
%TO.C,U17*%
X210760000Y-65770000D02*
X210760000Y-70830000D01*
X210760000Y-70830000D02*
X246440000Y-70830000D01*
X246440000Y-70830000D02*
X246440000Y-58710000D01*
X246440000Y-58710000D02*
X210760000Y-58710000D01*
X210760000Y-58710000D02*
X210760000Y-63770000D01*
X210760000Y-63770000D02*
G75*
G02*
X210760000Y-65770000I0J-1000000D01*
G01*
%TO.C,U18*%
X240300000Y-88900000D02*
G75*
G03*
X240300000Y-88900000I-6620000J0D01*
G01*
X233680000Y-94234000D02*
X233680000Y-95504000D01*
X233680000Y-95504000D02*
X234188000Y-94996000D01*
X233680000Y-95504000D02*
X233172000Y-94996000D01*
X227584000Y-84836000D02*
X229362000Y-86106000D01*
X230693631Y-88900000D02*
G75*
G03*
X230693631Y-88900000I-1077631J0D01*
G01*
%TO.C,U19*%
X186630000Y-43545000D02*
X186630000Y-44795000D01*
X186630000Y-44795000D02*
X204530000Y-44795000D01*
X204530000Y-44795000D02*
X204530000Y-40295000D01*
X204530000Y-40295000D02*
X186630000Y-40295000D01*
X186630000Y-40295000D02*
X186630000Y-41545000D01*
X186630000Y-41545000D02*
G75*
G02*
X186630000Y-43545000I0J-1000000D01*
G01*
%TO.C,U20*%
X154245000Y-43545000D02*
X154245000Y-44795000D01*
X154245000Y-44795000D02*
X174685000Y-44795000D01*
X174685000Y-44795000D02*
X174685000Y-40295000D01*
X174685000Y-40295000D02*
X154245000Y-40295000D01*
X154245000Y-40295000D02*
X154245000Y-41545000D01*
X154245000Y-41545000D02*
G75*
G02*
X154245000Y-43545000I0J-1000000D01*
G01*
%TO.C,U16*%
X102195000Y-38640000D02*
X112435000Y-38640000D01*
X102195000Y-43281000D02*
X112435000Y-43281000D01*
X102195000Y-38640000D02*
X102195000Y-43281000D01*
X112435000Y-38640000D02*
X112435000Y-43281000D01*
X102195000Y-40150000D02*
X112435000Y-40150000D01*
X105465000Y-38640000D02*
X105465000Y-40150000D01*
X109166000Y-38640000D02*
X109166000Y-40150000D01*
%TO.C,REF\u002A\u002A*%
D10*
X244411666Y-91837380D02*
X244078333Y-91361190D01*
X243840238Y-91837380D02*
X243840238Y-90837380D01*
X244221190Y-90837380D01*
X244316428Y-90885000D01*
X244364047Y-90932619D01*
X244411666Y-91027857D01*
X244411666Y-91170714D01*
X244364047Y-91265952D01*
X244316428Y-91313571D01*
X244221190Y-91361190D01*
X243840238Y-91361190D01*
X244840238Y-91313571D02*
X245173571Y-91313571D01*
X245316428Y-91837380D02*
X244840238Y-91837380D01*
X244840238Y-90837380D01*
X245316428Y-90837380D01*
X246078333Y-91313571D02*
X245745000Y-91313571D01*
X245745000Y-91837380D02*
X245745000Y-90837380D01*
X246221190Y-90837380D01*
X246745000Y-90837380D02*
X246745000Y-91075476D01*
X246506904Y-90980238D02*
X246745000Y-91075476D01*
X246983095Y-90980238D01*
X246602142Y-91265952D02*
X246745000Y-91075476D01*
X246887857Y-91265952D01*
X247506904Y-90837380D02*
X247506904Y-91075476D01*
X247268809Y-90980238D02*
X247506904Y-91075476D01*
X247745000Y-90980238D01*
X247364047Y-91265952D02*
X247506904Y-91075476D01*
X247649761Y-91265952D01*
X244411666Y-35322380D02*
X244078333Y-34846190D01*
X243840238Y-35322380D02*
X243840238Y-34322380D01*
X244221190Y-34322380D01*
X244316428Y-34370000D01*
X244364047Y-34417619D01*
X244411666Y-34512857D01*
X244411666Y-34655714D01*
X244364047Y-34750952D01*
X244316428Y-34798571D01*
X244221190Y-34846190D01*
X243840238Y-34846190D01*
X244840238Y-34798571D02*
X245173571Y-34798571D01*
X245316428Y-35322380D02*
X244840238Y-35322380D01*
X244840238Y-34322380D01*
X245316428Y-34322380D01*
X246078333Y-34798571D02*
X245745000Y-34798571D01*
X245745000Y-35322380D02*
X245745000Y-34322380D01*
X246221190Y-34322380D01*
X246745000Y-34322380D02*
X246745000Y-34560476D01*
X246506904Y-34465238D02*
X246745000Y-34560476D01*
X246983095Y-34465238D01*
X246602142Y-34750952D02*
X246745000Y-34560476D01*
X246887857Y-34750952D01*
X247506904Y-34322380D02*
X247506904Y-34560476D01*
X247268809Y-34465238D02*
X247506904Y-34560476D01*
X247745000Y-34465238D01*
X247364047Y-34750952D02*
X247506904Y-34560476D01*
X247649761Y-34750952D01*
X52641666Y-91837380D02*
X52308333Y-91361190D01*
X52070238Y-91837380D02*
X52070238Y-90837380D01*
X52451190Y-90837380D01*
X52546428Y-90885000D01*
X52594047Y-90932619D01*
X52641666Y-91027857D01*
X52641666Y-91170714D01*
X52594047Y-91265952D01*
X52546428Y-91313571D01*
X52451190Y-91361190D01*
X52070238Y-91361190D01*
X53070238Y-91313571D02*
X53403571Y-91313571D01*
X53546428Y-91837380D02*
X53070238Y-91837380D01*
X53070238Y-90837380D01*
X53546428Y-90837380D01*
X54308333Y-91313571D02*
X53975000Y-91313571D01*
X53975000Y-91837380D02*
X53975000Y-90837380D01*
X54451190Y-90837380D01*
X54975000Y-90837380D02*
X54975000Y-91075476D01*
X54736904Y-90980238D02*
X54975000Y-91075476D01*
X55213095Y-90980238D01*
X54832142Y-91265952D02*
X54975000Y-91075476D01*
X55117857Y-91265952D01*
X55736904Y-90837380D02*
X55736904Y-91075476D01*
X55498809Y-90980238D02*
X55736904Y-91075476D01*
X55975000Y-90980238D01*
X55594047Y-91265952D02*
X55736904Y-91075476D01*
X55879761Y-91265952D01*
X52641666Y-35322380D02*
X52308333Y-34846190D01*
X52070238Y-35322380D02*
X52070238Y-34322380D01*
X52451190Y-34322380D01*
X52546428Y-34370000D01*
X52594047Y-34417619D01*
X52641666Y-34512857D01*
X52641666Y-34655714D01*
X52594047Y-34750952D01*
X52546428Y-34798571D01*
X52451190Y-34846190D01*
X52070238Y-34846190D01*
X53070238Y-34798571D02*
X53403571Y-34798571D01*
X53546428Y-35322380D02*
X53070238Y-35322380D01*
X53070238Y-34322380D01*
X53546428Y-34322380D01*
X54308333Y-34798571D02*
X53975000Y-34798571D01*
X53975000Y-35322380D02*
X53975000Y-34322380D01*
X54451190Y-34322380D01*
X54975000Y-34322380D02*
X54975000Y-34560476D01*
X54736904Y-34465238D02*
X54975000Y-34560476D01*
X55213095Y-34465238D01*
X54832142Y-34750952D02*
X54975000Y-34560476D01*
X55117857Y-34750952D01*
X55736904Y-34322380D02*
X55736904Y-34560476D01*
X55498809Y-34465238D02*
X55736904Y-34560476D01*
X55975000Y-34465238D01*
X55594047Y-34750952D02*
X55736904Y-34560476D01*
X55879761Y-34750952D01*
%TO.C,C1*%
X94428333Y-49877142D02*
X94380714Y-49924761D01*
X94237857Y-49972380D01*
X94142619Y-49972380D01*
X93999761Y-49924761D01*
X93904523Y-49829523D01*
X93856904Y-49734285D01*
X93809285Y-49543809D01*
X93809285Y-49400952D01*
X93856904Y-49210476D01*
X93904523Y-49115238D01*
X93999761Y-49020000D01*
X94142619Y-48972380D01*
X94237857Y-48972380D01*
X94380714Y-49020000D01*
X94428333Y-49067619D01*
X95380714Y-49972380D02*
X94809285Y-49972380D01*
X95095000Y-49972380D02*
X95095000Y-48972380D01*
X94999761Y-49115238D01*
X94904523Y-49210476D01*
X94809285Y-49258095D01*
%TO.C,C2*%
X55693333Y-49877142D02*
X55645714Y-49924761D01*
X55502857Y-49972380D01*
X55407619Y-49972380D01*
X55264761Y-49924761D01*
X55169523Y-49829523D01*
X55121904Y-49734285D01*
X55074285Y-49543809D01*
X55074285Y-49400952D01*
X55121904Y-49210476D01*
X55169523Y-49115238D01*
X55264761Y-49020000D01*
X55407619Y-48972380D01*
X55502857Y-48972380D01*
X55645714Y-49020000D01*
X55693333Y-49067619D01*
X56074285Y-49067619D02*
X56121904Y-49020000D01*
X56217142Y-48972380D01*
X56455238Y-48972380D01*
X56550476Y-49020000D01*
X56598095Y-49067619D01*
X56645714Y-49162857D01*
X56645714Y-49258095D01*
X56598095Y-49400952D01*
X56026666Y-49972380D01*
X56645714Y-49972380D01*
%TO.C,C3*%
X56882142Y-79521666D02*
X56929761Y-79569285D01*
X56977380Y-79712142D01*
X56977380Y-79807380D01*
X56929761Y-79950238D01*
X56834523Y-80045476D01*
X56739285Y-80093095D01*
X56548809Y-80140714D01*
X56405952Y-80140714D01*
X56215476Y-80093095D01*
X56120238Y-80045476D01*
X56025000Y-79950238D01*
X55977380Y-79807380D01*
X55977380Y-79712142D01*
X56025000Y-79569285D01*
X56072619Y-79521666D01*
X55977380Y-79188333D02*
X55977380Y-78569285D01*
X56358333Y-78902619D01*
X56358333Y-78759761D01*
X56405952Y-78664523D01*
X56453571Y-78616904D01*
X56548809Y-78569285D01*
X56786904Y-78569285D01*
X56882142Y-78616904D01*
X56929761Y-78664523D01*
X56977380Y-78759761D01*
X56977380Y-79045476D01*
X56929761Y-79140714D01*
X56882142Y-79188333D01*
%TO.C,C4*%
X110978333Y-48627142D02*
X110930714Y-48674761D01*
X110787857Y-48722380D01*
X110692619Y-48722380D01*
X110549761Y-48674761D01*
X110454523Y-48579523D01*
X110406904Y-48484285D01*
X110359285Y-48293809D01*
X110359285Y-48150952D01*
X110406904Y-47960476D01*
X110454523Y-47865238D01*
X110549761Y-47770000D01*
X110692619Y-47722380D01*
X110787857Y-47722380D01*
X110930714Y-47770000D01*
X110978333Y-47817619D01*
X111835476Y-48055714D02*
X111835476Y-48722380D01*
X111597380Y-47674761D02*
X111359285Y-48389047D01*
X111978333Y-48389047D01*
%TO.C,C5*%
X133163333Y-50512142D02*
X133115714Y-50559761D01*
X132972857Y-50607380D01*
X132877619Y-50607380D01*
X132734761Y-50559761D01*
X132639523Y-50464523D01*
X132591904Y-50369285D01*
X132544285Y-50178809D01*
X132544285Y-50035952D01*
X132591904Y-49845476D01*
X132639523Y-49750238D01*
X132734761Y-49655000D01*
X132877619Y-49607380D01*
X132972857Y-49607380D01*
X133115714Y-49655000D01*
X133163333Y-49702619D01*
X134068095Y-49607380D02*
X133591904Y-49607380D01*
X133544285Y-50083571D01*
X133591904Y-50035952D01*
X133687142Y-49988333D01*
X133925238Y-49988333D01*
X134020476Y-50035952D01*
X134068095Y-50083571D01*
X134115714Y-50178809D01*
X134115714Y-50416904D01*
X134068095Y-50512142D01*
X134020476Y-50559761D01*
X133925238Y-50607380D01*
X133687142Y-50607380D01*
X133591904Y-50559761D01*
X133544285Y-50512142D01*
%TO.C,C6*%
X249287142Y-78886666D02*
X249334761Y-78934285D01*
X249382380Y-79077142D01*
X249382380Y-79172380D01*
X249334761Y-79315238D01*
X249239523Y-79410476D01*
X249144285Y-79458095D01*
X248953809Y-79505714D01*
X248810952Y-79505714D01*
X248620476Y-79458095D01*
X248525238Y-79410476D01*
X248430000Y-79315238D01*
X248382380Y-79172380D01*
X248382380Y-79077142D01*
X248430000Y-78934285D01*
X248477619Y-78886666D01*
X248382380Y-78029523D02*
X248382380Y-78220000D01*
X248430000Y-78315238D01*
X248477619Y-78362857D01*
X248620476Y-78458095D01*
X248810952Y-78505714D01*
X249191904Y-78505714D01*
X249287142Y-78458095D01*
X249334761Y-78410476D01*
X249382380Y-78315238D01*
X249382380Y-78124761D01*
X249334761Y-78029523D01*
X249287142Y-77981904D01*
X249191904Y-77934285D01*
X248953809Y-77934285D01*
X248858571Y-77981904D01*
X248810952Y-78029523D01*
X248763333Y-78124761D01*
X248763333Y-78315238D01*
X248810952Y-78410476D01*
X248858571Y-78458095D01*
X248953809Y-78505714D01*
%TO.C,C7*%
X173803333Y-49877142D02*
X173755714Y-49924761D01*
X173612857Y-49972380D01*
X173517619Y-49972380D01*
X173374761Y-49924761D01*
X173279523Y-49829523D01*
X173231904Y-49734285D01*
X173184285Y-49543809D01*
X173184285Y-49400952D01*
X173231904Y-49210476D01*
X173279523Y-49115238D01*
X173374761Y-49020000D01*
X173517619Y-48972380D01*
X173612857Y-48972380D01*
X173755714Y-49020000D01*
X173803333Y-49067619D01*
X174136666Y-48972380D02*
X174803333Y-48972380D01*
X174374761Y-49972380D01*
%TO.C,C8*%
X239843333Y-42257142D02*
X239795714Y-42304761D01*
X239652857Y-42352380D01*
X239557619Y-42352380D01*
X239414761Y-42304761D01*
X239319523Y-42209523D01*
X239271904Y-42114285D01*
X239224285Y-41923809D01*
X239224285Y-41780952D01*
X239271904Y-41590476D01*
X239319523Y-41495238D01*
X239414761Y-41400000D01*
X239557619Y-41352380D01*
X239652857Y-41352380D01*
X239795714Y-41400000D01*
X239843333Y-41447619D01*
X240414761Y-41780952D02*
X240319523Y-41733333D01*
X240271904Y-41685714D01*
X240224285Y-41590476D01*
X240224285Y-41542857D01*
X240271904Y-41447619D01*
X240319523Y-41400000D01*
X240414761Y-41352380D01*
X240605238Y-41352380D01*
X240700476Y-41400000D01*
X240748095Y-41447619D01*
X240795714Y-41542857D01*
X240795714Y-41590476D01*
X240748095Y-41685714D01*
X240700476Y-41733333D01*
X240605238Y-41780952D01*
X240414761Y-41780952D01*
X240319523Y-41828571D01*
X240271904Y-41876190D01*
X240224285Y-41971428D01*
X240224285Y-42161904D01*
X240271904Y-42257142D01*
X240319523Y-42304761D01*
X240414761Y-42352380D01*
X240605238Y-42352380D01*
X240700476Y-42304761D01*
X240748095Y-42257142D01*
X240795714Y-42161904D01*
X240795714Y-41971428D01*
X240748095Y-41876190D01*
X240700476Y-41828571D01*
X240605238Y-41780952D01*
%TO.C,C9*%
X180173333Y-42902142D02*
X180125714Y-42949761D01*
X179982857Y-42997380D01*
X179887619Y-42997380D01*
X179744761Y-42949761D01*
X179649523Y-42854523D01*
X179601904Y-42759285D01*
X179554285Y-42568809D01*
X179554285Y-42425952D01*
X179601904Y-42235476D01*
X179649523Y-42140238D01*
X179744761Y-42045000D01*
X179887619Y-41997380D01*
X179982857Y-41997380D01*
X180125714Y-42045000D01*
X180173333Y-42092619D01*
X180649523Y-42997380D02*
X180840000Y-42997380D01*
X180935238Y-42949761D01*
X180982857Y-42902142D01*
X181078095Y-42759285D01*
X181125714Y-42568809D01*
X181125714Y-42187857D01*
X181078095Y-42092619D01*
X181030476Y-42045000D01*
X180935238Y-41997380D01*
X180744761Y-41997380D01*
X180649523Y-42045000D01*
X180601904Y-42092619D01*
X180554285Y-42187857D01*
X180554285Y-42425952D01*
X180601904Y-42521190D01*
X180649523Y-42568809D01*
X180744761Y-42616428D01*
X180935238Y-42616428D01*
X181030476Y-42568809D01*
X181078095Y-42521190D01*
X181125714Y-42425952D01*
%TO.C,C10*%
X102882142Y-48627142D02*
X102834523Y-48674761D01*
X102691666Y-48722380D01*
X102596428Y-48722380D01*
X102453571Y-48674761D01*
X102358333Y-48579523D01*
X102310714Y-48484285D01*
X102263095Y-48293809D01*
X102263095Y-48150952D01*
X102310714Y-47960476D01*
X102358333Y-47865238D01*
X102453571Y-47770000D01*
X102596428Y-47722380D01*
X102691666Y-47722380D01*
X102834523Y-47770000D01*
X102882142Y-47817619D01*
X103834523Y-48722380D02*
X103263095Y-48722380D01*
X103548809Y-48722380D02*
X103548809Y-47722380D01*
X103453571Y-47865238D01*
X103358333Y-47960476D01*
X103263095Y-48008095D01*
X104453571Y-47722380D02*
X104548809Y-47722380D01*
X104644047Y-47770000D01*
X104691666Y-47817619D01*
X104739285Y-47912857D01*
X104786904Y-48103333D01*
X104786904Y-48341428D01*
X104739285Y-48531904D01*
X104691666Y-48627142D01*
X104644047Y-48674761D01*
X104548809Y-48722380D01*
X104453571Y-48722380D01*
X104358333Y-48674761D01*
X104310714Y-48627142D01*
X104263095Y-48531904D01*
X104215476Y-48341428D01*
X104215476Y-48103333D01*
X104263095Y-47912857D01*
X104310714Y-47817619D01*
X104358333Y-47770000D01*
X104453571Y-47722380D01*
%TO.C,C11*%
X212697142Y-50512142D02*
X212649523Y-50559761D01*
X212506666Y-50607380D01*
X212411428Y-50607380D01*
X212268571Y-50559761D01*
X212173333Y-50464523D01*
X212125714Y-50369285D01*
X212078095Y-50178809D01*
X212078095Y-50035952D01*
X212125714Y-49845476D01*
X212173333Y-49750238D01*
X212268571Y-49655000D01*
X212411428Y-49607380D01*
X212506666Y-49607380D01*
X212649523Y-49655000D01*
X212697142Y-49702619D01*
X213649523Y-50607380D02*
X213078095Y-50607380D01*
X213363809Y-50607380D02*
X213363809Y-49607380D01*
X213268571Y-49750238D01*
X213173333Y-49845476D01*
X213078095Y-49893095D01*
X214601904Y-50607380D02*
X214030476Y-50607380D01*
X214316190Y-50607380D02*
X214316190Y-49607380D01*
X214220952Y-49750238D01*
X214125714Y-49845476D01*
X214030476Y-49893095D01*
%TO.C,C12*%
X150852142Y-38742857D02*
X150899761Y-38790476D01*
X150947380Y-38933333D01*
X150947380Y-39028571D01*
X150899761Y-39171428D01*
X150804523Y-39266666D01*
X150709285Y-39314285D01*
X150518809Y-39361904D01*
X150375952Y-39361904D01*
X150185476Y-39314285D01*
X150090238Y-39266666D01*
X149995000Y-39171428D01*
X149947380Y-39028571D01*
X149947380Y-38933333D01*
X149995000Y-38790476D01*
X150042619Y-38742857D01*
X150947380Y-37790476D02*
X150947380Y-38361904D01*
X150947380Y-38076190D02*
X149947380Y-38076190D01*
X150090238Y-38171428D01*
X150185476Y-38266666D01*
X150233095Y-38361904D01*
X150042619Y-37409523D02*
X149995000Y-37361904D01*
X149947380Y-37266666D01*
X149947380Y-37028571D01*
X149995000Y-36933333D01*
X150042619Y-36885714D01*
X150137857Y-36838095D01*
X150233095Y-36838095D01*
X150375952Y-36885714D01*
X150947380Y-37457142D01*
X150947380Y-36838095D01*
%TO.C,D1*%
X119911904Y-39187380D02*
X119911904Y-38187380D01*
X120150000Y-38187380D01*
X120292857Y-38235000D01*
X120388095Y-38330238D01*
X120435714Y-38425476D01*
X120483333Y-38615952D01*
X120483333Y-38758809D01*
X120435714Y-38949285D01*
X120388095Y-39044523D01*
X120292857Y-39139761D01*
X120150000Y-39187380D01*
X119911904Y-39187380D01*
X121435714Y-39187380D02*
X120864285Y-39187380D01*
X121150000Y-39187380D02*
X121150000Y-38187380D01*
X121054761Y-38330238D01*
X120959523Y-38425476D01*
X120864285Y-38473095D01*
%TO.C,D2*%
X119911904Y-45537380D02*
X119911904Y-44537380D01*
X120150000Y-44537380D01*
X120292857Y-44585000D01*
X120388095Y-44680238D01*
X120435714Y-44775476D01*
X120483333Y-44965952D01*
X120483333Y-45108809D01*
X120435714Y-45299285D01*
X120388095Y-45394523D01*
X120292857Y-45489761D01*
X120150000Y-45537380D01*
X119911904Y-45537380D01*
X120864285Y-44632619D02*
X120911904Y-44585000D01*
X121007142Y-44537380D01*
X121245238Y-44537380D01*
X121340476Y-44585000D01*
X121388095Y-44632619D01*
X121435714Y-44727857D01*
X121435714Y-44823095D01*
X121388095Y-44965952D01*
X120816666Y-45537380D01*
X121435714Y-45537380D01*
%TO.C,J1*%
X228901666Y-49617380D02*
X228901666Y-50331666D01*
X228854047Y-50474523D01*
X228758809Y-50569761D01*
X228615952Y-50617380D01*
X228520714Y-50617380D01*
X229901666Y-50617380D02*
X229330238Y-50617380D01*
X229615952Y-50617380D02*
X229615952Y-49617380D01*
X229520714Y-49760238D01*
X229425476Y-49855476D01*
X229330238Y-49903095D01*
%TO.C,J2*%
X79301666Y-49577380D02*
X79301666Y-50291666D01*
X79254047Y-50434523D01*
X79158809Y-50529761D01*
X79015952Y-50577380D01*
X78920714Y-50577380D01*
X79730238Y-49672619D02*
X79777857Y-49625000D01*
X79873095Y-49577380D01*
X80111190Y-49577380D01*
X80206428Y-49625000D01*
X80254047Y-49672619D01*
X80301666Y-49767857D01*
X80301666Y-49863095D01*
X80254047Y-50005952D01*
X79682619Y-50577380D01*
X80301666Y-50577380D01*
%TO.C,J3*%
X211756666Y-36917380D02*
X211756666Y-37631666D01*
X211709047Y-37774523D01*
X211613809Y-37869761D01*
X211470952Y-37917380D01*
X211375714Y-37917380D01*
X212137619Y-36917380D02*
X212756666Y-36917380D01*
X212423333Y-37298333D01*
X212566190Y-37298333D01*
X212661428Y-37345952D01*
X212709047Y-37393571D01*
X212756666Y-37488809D01*
X212756666Y-37726904D01*
X212709047Y-37822142D01*
X212661428Y-37869761D01*
X212566190Y-37917380D01*
X212280476Y-37917380D01*
X212185238Y-37869761D01*
X212137619Y-37822142D01*
%TO.C,R1*%
X235418333Y-46807380D02*
X235085000Y-46331190D01*
X234846904Y-46807380D02*
X234846904Y-45807380D01*
X235227857Y-45807380D01*
X235323095Y-45855000D01*
X235370714Y-45902619D01*
X235418333Y-45997857D01*
X235418333Y-46140714D01*
X235370714Y-46235952D01*
X235323095Y-46283571D01*
X235227857Y-46331190D01*
X234846904Y-46331190D01*
X236370714Y-46807380D02*
X235799285Y-46807380D01*
X236085000Y-46807380D02*
X236085000Y-45807380D01*
X235989761Y-45950238D01*
X235894523Y-46045476D01*
X235799285Y-46093095D01*
%TO.C,R2*%
X235418333Y-50617380D02*
X235085000Y-50141190D01*
X234846904Y-50617380D02*
X234846904Y-49617380D01*
X235227857Y-49617380D01*
X235323095Y-49665000D01*
X235370714Y-49712619D01*
X235418333Y-49807857D01*
X235418333Y-49950714D01*
X235370714Y-50045952D01*
X235323095Y-50093571D01*
X235227857Y-50141190D01*
X234846904Y-50141190D01*
X235799285Y-49712619D02*
X235846904Y-49665000D01*
X235942142Y-49617380D01*
X236180238Y-49617380D01*
X236275476Y-49665000D01*
X236323095Y-49712619D01*
X236370714Y-49807857D01*
X236370714Y-49903095D01*
X236323095Y-50045952D01*
X235751666Y-50617380D01*
X236370714Y-50617380D01*
%TO.C,R3*%
X201763333Y-50152380D02*
X201430000Y-49676190D01*
X201191904Y-50152380D02*
X201191904Y-49152380D01*
X201572857Y-49152380D01*
X201668095Y-49200000D01*
X201715714Y-49247619D01*
X201763333Y-49342857D01*
X201763333Y-49485714D01*
X201715714Y-49580952D01*
X201668095Y-49628571D01*
X201572857Y-49676190D01*
X201191904Y-49676190D01*
X202096666Y-49152380D02*
X202715714Y-49152380D01*
X202382380Y-49533333D01*
X202525238Y-49533333D01*
X202620476Y-49580952D01*
X202668095Y-49628571D01*
X202715714Y-49723809D01*
X202715714Y-49961904D01*
X202668095Y-50057142D01*
X202620476Y-50104761D01*
X202525238Y-50152380D01*
X202239523Y-50152380D01*
X202144285Y-50104761D01*
X202096666Y-50057142D01*
%TO.C,R4*%
X135088333Y-41557380D02*
X134755000Y-41081190D01*
X134516904Y-41557380D02*
X134516904Y-40557380D01*
X134897857Y-40557380D01*
X134993095Y-40605000D01*
X135040714Y-40652619D01*
X135088333Y-40747857D01*
X135088333Y-40890714D01*
X135040714Y-40985952D01*
X134993095Y-41033571D01*
X134897857Y-41081190D01*
X134516904Y-41081190D01*
X135945476Y-40890714D02*
X135945476Y-41557380D01*
X135707380Y-40509761D02*
X135469285Y-41224047D01*
X136088333Y-41224047D01*
%TO.C,R5*%
X215098333Y-43802380D02*
X214765000Y-43326190D01*
X214526904Y-43802380D02*
X214526904Y-42802380D01*
X214907857Y-42802380D01*
X215003095Y-42850000D01*
X215050714Y-42897619D01*
X215098333Y-42992857D01*
X215098333Y-43135714D01*
X215050714Y-43230952D01*
X215003095Y-43278571D01*
X214907857Y-43326190D01*
X214526904Y-43326190D01*
X216003095Y-42802380D02*
X215526904Y-42802380D01*
X215479285Y-43278571D01*
X215526904Y-43230952D01*
X215622142Y-43183333D01*
X215860238Y-43183333D01*
X215955476Y-43230952D01*
X216003095Y-43278571D01*
X216050714Y-43373809D01*
X216050714Y-43611904D01*
X216003095Y-43707142D01*
X215955476Y-43754761D01*
X215860238Y-43802380D01*
X215622142Y-43802380D01*
X215526904Y-43754761D01*
X215479285Y-43707142D01*
%TO.C,R6*%
X187158333Y-50152380D02*
X186825000Y-49676190D01*
X186586904Y-50152380D02*
X186586904Y-49152380D01*
X186967857Y-49152380D01*
X187063095Y-49200000D01*
X187110714Y-49247619D01*
X187158333Y-49342857D01*
X187158333Y-49485714D01*
X187110714Y-49580952D01*
X187063095Y-49628571D01*
X186967857Y-49676190D01*
X186586904Y-49676190D01*
X188015476Y-49152380D02*
X187825000Y-49152380D01*
X187729761Y-49200000D01*
X187682142Y-49247619D01*
X187586904Y-49390476D01*
X187539285Y-49580952D01*
X187539285Y-49961904D01*
X187586904Y-50057142D01*
X187634523Y-50104761D01*
X187729761Y-50152380D01*
X187920238Y-50152380D01*
X188015476Y-50104761D01*
X188063095Y-50057142D01*
X188110714Y-49961904D01*
X188110714Y-49723809D01*
X188063095Y-49628571D01*
X188015476Y-49580952D01*
X187920238Y-49533333D01*
X187729761Y-49533333D01*
X187634523Y-49580952D01*
X187586904Y-49628571D01*
X187539285Y-49723809D01*
%TO.C,R7*%
X135088333Y-46002380D02*
X134755000Y-45526190D01*
X134516904Y-46002380D02*
X134516904Y-45002380D01*
X134897857Y-45002380D01*
X134993095Y-45050000D01*
X135040714Y-45097619D01*
X135088333Y-45192857D01*
X135088333Y-45335714D01*
X135040714Y-45430952D01*
X134993095Y-45478571D01*
X134897857Y-45526190D01*
X134516904Y-45526190D01*
X135421666Y-45002380D02*
X136088333Y-45002380D01*
X135659761Y-46002380D01*
%TO.C,U1*%
X141478095Y-80807380D02*
X141478095Y-81616904D01*
X141525714Y-81712142D01*
X141573333Y-81759761D01*
X141668571Y-81807380D01*
X141859047Y-81807380D01*
X141954285Y-81759761D01*
X142001904Y-81712142D01*
X142049523Y-81616904D01*
X142049523Y-80807380D01*
X143049523Y-81807380D02*
X142478095Y-81807380D01*
X142763809Y-81807380D02*
X142763809Y-80807380D01*
X142668571Y-80950238D01*
X142573333Y-81045476D01*
X142478095Y-81093095D01*
X135667714Y-85034380D02*
X135096285Y-85034380D01*
X135382000Y-85034380D02*
X135382000Y-84034380D01*
X135286761Y-84177238D01*
X135191523Y-84272476D01*
X135096285Y-84320095D01*
%TO.C,U2*%
X65278095Y-80807380D02*
X65278095Y-81616904D01*
X65325714Y-81712142D01*
X65373333Y-81759761D01*
X65468571Y-81807380D01*
X65659047Y-81807380D01*
X65754285Y-81759761D01*
X65801904Y-81712142D01*
X65849523Y-81616904D01*
X65849523Y-80807380D01*
X66278095Y-80902619D02*
X66325714Y-80855000D01*
X66420952Y-80807380D01*
X66659047Y-80807380D01*
X66754285Y-80855000D01*
X66801904Y-80902619D01*
X66849523Y-80997857D01*
X66849523Y-81093095D01*
X66801904Y-81235952D01*
X66230476Y-81807380D01*
X66849523Y-81807380D01*
X59467714Y-85034380D02*
X58896285Y-85034380D01*
X59182000Y-85034380D02*
X59182000Y-84034380D01*
X59086761Y-84177238D01*
X58991523Y-84272476D01*
X58896285Y-84320095D01*
%TO.C,U3*%
X129202380Y-65531904D02*
X130011904Y-65531904D01*
X130107142Y-65484285D01*
X130154761Y-65436666D01*
X130202380Y-65341428D01*
X130202380Y-65150952D01*
X130154761Y-65055714D01*
X130107142Y-65008095D01*
X130011904Y-64960476D01*
X129202380Y-64960476D01*
X129202380Y-64579523D02*
X129202380Y-63960476D01*
X129583333Y-64293809D01*
X129583333Y-64150952D01*
X129630952Y-64055714D01*
X129678571Y-64008095D01*
X129773809Y-63960476D01*
X130011904Y-63960476D01*
X130107142Y-64008095D01*
X130154761Y-64055714D01*
X130202380Y-64150952D01*
X130202380Y-64436666D01*
X130154761Y-64531904D01*
X130107142Y-64579523D01*
%TO.C,U4*%
X51732380Y-65531904D02*
X52541904Y-65531904D01*
X52637142Y-65484285D01*
X52684761Y-65436666D01*
X52732380Y-65341428D01*
X52732380Y-65150952D01*
X52684761Y-65055714D01*
X52637142Y-65008095D01*
X52541904Y-64960476D01*
X51732380Y-64960476D01*
X52065714Y-64055714D02*
X52732380Y-64055714D01*
X51684761Y-64293809D02*
X52399047Y-64531904D01*
X52399047Y-63912857D01*
%TO.C,U5*%
X156718095Y-80807380D02*
X156718095Y-81616904D01*
X156765714Y-81712142D01*
X156813333Y-81759761D01*
X156908571Y-81807380D01*
X157099047Y-81807380D01*
X157194285Y-81759761D01*
X157241904Y-81712142D01*
X157289523Y-81616904D01*
X157289523Y-80807380D01*
X158241904Y-80807380D02*
X157765714Y-80807380D01*
X157718095Y-81283571D01*
X157765714Y-81235952D01*
X157860952Y-81188333D01*
X158099047Y-81188333D01*
X158194285Y-81235952D01*
X158241904Y-81283571D01*
X158289523Y-81378809D01*
X158289523Y-81616904D01*
X158241904Y-81712142D01*
X158194285Y-81759761D01*
X158099047Y-81807380D01*
X157860952Y-81807380D01*
X157765714Y-81759761D01*
X157718095Y-81712142D01*
X150907714Y-85034380D02*
X150336285Y-85034380D01*
X150622000Y-85034380D02*
X150622000Y-84034380D01*
X150526761Y-84177238D01*
X150431523Y-84272476D01*
X150336285Y-84320095D01*
%TO.C,U6*%
X80518095Y-80807380D02*
X80518095Y-81616904D01*
X80565714Y-81712142D01*
X80613333Y-81759761D01*
X80708571Y-81807380D01*
X80899047Y-81807380D01*
X80994285Y-81759761D01*
X81041904Y-81712142D01*
X81089523Y-81616904D01*
X81089523Y-80807380D01*
X81994285Y-80807380D02*
X81803809Y-80807380D01*
X81708571Y-80855000D01*
X81660952Y-80902619D01*
X81565714Y-81045476D01*
X81518095Y-81235952D01*
X81518095Y-81616904D01*
X81565714Y-81712142D01*
X81613333Y-81759761D01*
X81708571Y-81807380D01*
X81899047Y-81807380D01*
X81994285Y-81759761D01*
X82041904Y-81712142D01*
X82089523Y-81616904D01*
X82089523Y-81378809D01*
X82041904Y-81283571D01*
X81994285Y-81235952D01*
X81899047Y-81188333D01*
X81708571Y-81188333D01*
X81613333Y-81235952D01*
X81565714Y-81283571D01*
X81518095Y-81378809D01*
X74707714Y-85034380D02*
X74136285Y-85034380D01*
X74422000Y-85034380D02*
X74422000Y-84034380D01*
X74326761Y-84177238D01*
X74231523Y-84272476D01*
X74136285Y-84320095D01*
%TO.C,U7*%
X171958095Y-80807380D02*
X171958095Y-81616904D01*
X172005714Y-81712142D01*
X172053333Y-81759761D01*
X172148571Y-81807380D01*
X172339047Y-81807380D01*
X172434285Y-81759761D01*
X172481904Y-81712142D01*
X172529523Y-81616904D01*
X172529523Y-80807380D01*
X172910476Y-80807380D02*
X173577142Y-80807380D01*
X173148571Y-81807380D01*
X166147714Y-85034380D02*
X165576285Y-85034380D01*
X165862000Y-85034380D02*
X165862000Y-84034380D01*
X165766761Y-84177238D01*
X165671523Y-84272476D01*
X165576285Y-84320095D01*
%TO.C,U8*%
X95758095Y-80807380D02*
X95758095Y-81616904D01*
X95805714Y-81712142D01*
X95853333Y-81759761D01*
X95948571Y-81807380D01*
X96139047Y-81807380D01*
X96234285Y-81759761D01*
X96281904Y-81712142D01*
X96329523Y-81616904D01*
X96329523Y-80807380D01*
X96948571Y-81235952D02*
X96853333Y-81188333D01*
X96805714Y-81140714D01*
X96758095Y-81045476D01*
X96758095Y-80997857D01*
X96805714Y-80902619D01*
X96853333Y-80855000D01*
X96948571Y-80807380D01*
X97139047Y-80807380D01*
X97234285Y-80855000D01*
X97281904Y-80902619D01*
X97329523Y-80997857D01*
X97329523Y-81045476D01*
X97281904Y-81140714D01*
X97234285Y-81188333D01*
X97139047Y-81235952D01*
X96948571Y-81235952D01*
X96853333Y-81283571D01*
X96805714Y-81331190D01*
X96758095Y-81426428D01*
X96758095Y-81616904D01*
X96805714Y-81712142D01*
X96853333Y-81759761D01*
X96948571Y-81807380D01*
X97139047Y-81807380D01*
X97234285Y-81759761D01*
X97281904Y-81712142D01*
X97329523Y-81616904D01*
X97329523Y-81426428D01*
X97281904Y-81331190D01*
X97234285Y-81283571D01*
X97139047Y-81235952D01*
X89947714Y-85034380D02*
X89376285Y-85034380D01*
X89662000Y-85034380D02*
X89662000Y-84034380D01*
X89566761Y-84177238D01*
X89471523Y-84272476D01*
X89376285Y-84320095D01*
%TO.C,U9*%
X187198095Y-80807380D02*
X187198095Y-81616904D01*
X187245714Y-81712142D01*
X187293333Y-81759761D01*
X187388571Y-81807380D01*
X187579047Y-81807380D01*
X187674285Y-81759761D01*
X187721904Y-81712142D01*
X187769523Y-81616904D01*
X187769523Y-80807380D01*
X188293333Y-81807380D02*
X188483809Y-81807380D01*
X188579047Y-81759761D01*
X188626666Y-81712142D01*
X188721904Y-81569285D01*
X188769523Y-81378809D01*
X188769523Y-80997857D01*
X188721904Y-80902619D01*
X188674285Y-80855000D01*
X188579047Y-80807380D01*
X188388571Y-80807380D01*
X188293333Y-80855000D01*
X188245714Y-80902619D01*
X188198095Y-80997857D01*
X188198095Y-81235952D01*
X188245714Y-81331190D01*
X188293333Y-81378809D01*
X188388571Y-81426428D01*
X188579047Y-81426428D01*
X188674285Y-81378809D01*
X188721904Y-81331190D01*
X188769523Y-81235952D01*
X181387714Y-85034380D02*
X180816285Y-85034380D01*
X181102000Y-85034380D02*
X181102000Y-84034380D01*
X181006761Y-84177238D01*
X180911523Y-84272476D01*
X180816285Y-84320095D01*
%TO.C,U10*%
X110521904Y-80807380D02*
X110521904Y-81616904D01*
X110569523Y-81712142D01*
X110617142Y-81759761D01*
X110712380Y-81807380D01*
X110902857Y-81807380D01*
X110998095Y-81759761D01*
X111045714Y-81712142D01*
X111093333Y-81616904D01*
X111093333Y-80807380D01*
X112093333Y-81807380D02*
X111521904Y-81807380D01*
X111807619Y-81807380D02*
X111807619Y-80807380D01*
X111712380Y-80950238D01*
X111617142Y-81045476D01*
X111521904Y-81093095D01*
X112712380Y-80807380D02*
X112807619Y-80807380D01*
X112902857Y-80855000D01*
X112950476Y-80902619D01*
X112998095Y-80997857D01*
X113045714Y-81188333D01*
X113045714Y-81426428D01*
X112998095Y-81616904D01*
X112950476Y-81712142D01*
X112902857Y-81759761D01*
X112807619Y-81807380D01*
X112712380Y-81807380D01*
X112617142Y-81759761D01*
X112569523Y-81712142D01*
X112521904Y-81616904D01*
X112474285Y-81426428D01*
X112474285Y-81188333D01*
X112521904Y-80997857D01*
X112569523Y-80902619D01*
X112617142Y-80855000D01*
X112712380Y-80807380D01*
X105187714Y-85034380D02*
X104616285Y-85034380D01*
X104902000Y-85034380D02*
X104902000Y-84034380D01*
X104806761Y-84177238D01*
X104711523Y-84272476D01*
X104616285Y-84320095D01*
%TO.C,U11*%
X169842380Y-66008095D02*
X170651904Y-66008095D01*
X170747142Y-65960476D01*
X170794761Y-65912857D01*
X170842380Y-65817619D01*
X170842380Y-65627142D01*
X170794761Y-65531904D01*
X170747142Y-65484285D01*
X170651904Y-65436666D01*
X169842380Y-65436666D01*
X170842380Y-64436666D02*
X170842380Y-65008095D01*
X170842380Y-64722380D02*
X169842380Y-64722380D01*
X169985238Y-64817619D01*
X170080476Y-64912857D01*
X170128095Y-65008095D01*
X170842380Y-63484285D02*
X170842380Y-64055714D01*
X170842380Y-63770000D02*
X169842380Y-63770000D01*
X169985238Y-63865238D01*
X170080476Y-63960476D01*
X170128095Y-64055714D01*
%TO.C,U12*%
X90467380Y-66008095D02*
X91276904Y-66008095D01*
X91372142Y-65960476D01*
X91419761Y-65912857D01*
X91467380Y-65817619D01*
X91467380Y-65627142D01*
X91419761Y-65531904D01*
X91372142Y-65484285D01*
X91276904Y-65436666D01*
X90467380Y-65436666D01*
X91467380Y-64436666D02*
X91467380Y-65008095D01*
X91467380Y-64722380D02*
X90467380Y-64722380D01*
X90610238Y-64817619D01*
X90705476Y-64912857D01*
X90753095Y-65008095D01*
X90562619Y-64055714D02*
X90515000Y-64008095D01*
X90467380Y-63912857D01*
X90467380Y-63674761D01*
X90515000Y-63579523D01*
X90562619Y-63531904D01*
X90657857Y-63484285D01*
X90753095Y-63484285D01*
X90895952Y-63531904D01*
X91467380Y-64103333D01*
X91467380Y-63484285D01*
%TO.C,U13*%
X201961904Y-80807380D02*
X201961904Y-81616904D01*
X202009523Y-81712142D01*
X202057142Y-81759761D01*
X202152380Y-81807380D01*
X202342857Y-81807380D01*
X202438095Y-81759761D01*
X202485714Y-81712142D01*
X202533333Y-81616904D01*
X202533333Y-80807380D01*
X203533333Y-81807380D02*
X202961904Y-81807380D01*
X203247619Y-81807380D02*
X203247619Y-80807380D01*
X203152380Y-80950238D01*
X203057142Y-81045476D01*
X202961904Y-81093095D01*
X203866666Y-80807380D02*
X204485714Y-80807380D01*
X204152380Y-81188333D01*
X204295238Y-81188333D01*
X204390476Y-81235952D01*
X204438095Y-81283571D01*
X204485714Y-81378809D01*
X204485714Y-81616904D01*
X204438095Y-81712142D01*
X204390476Y-81759761D01*
X204295238Y-81807380D01*
X204009523Y-81807380D01*
X203914285Y-81759761D01*
X203866666Y-81712142D01*
X196627714Y-85034380D02*
X196056285Y-85034380D01*
X196342000Y-85034380D02*
X196342000Y-84034380D01*
X196246761Y-84177238D01*
X196151523Y-84272476D01*
X196056285Y-84320095D01*
%TO.C,U14*%
X125761904Y-80807380D02*
X125761904Y-81616904D01*
X125809523Y-81712142D01*
X125857142Y-81759761D01*
X125952380Y-81807380D01*
X126142857Y-81807380D01*
X126238095Y-81759761D01*
X126285714Y-81712142D01*
X126333333Y-81616904D01*
X126333333Y-80807380D01*
X127333333Y-81807380D02*
X126761904Y-81807380D01*
X127047619Y-81807380D02*
X127047619Y-80807380D01*
X126952380Y-80950238D01*
X126857142Y-81045476D01*
X126761904Y-81093095D01*
X128190476Y-81140714D02*
X128190476Y-81807380D01*
X127952380Y-80759761D02*
X127714285Y-81474047D01*
X128333333Y-81474047D01*
X120427714Y-85034380D02*
X119856285Y-85034380D01*
X120142000Y-85034380D02*
X120142000Y-84034380D01*
X120046761Y-84177238D01*
X119951523Y-84272476D01*
X119856285Y-84320095D01*
%TO.C,U15*%
X217201904Y-80807380D02*
X217201904Y-81616904D01*
X217249523Y-81712142D01*
X217297142Y-81759761D01*
X217392380Y-81807380D01*
X217582857Y-81807380D01*
X217678095Y-81759761D01*
X217725714Y-81712142D01*
X217773333Y-81616904D01*
X217773333Y-80807380D01*
X218773333Y-81807380D02*
X218201904Y-81807380D01*
X218487619Y-81807380D02*
X218487619Y-80807380D01*
X218392380Y-80950238D01*
X218297142Y-81045476D01*
X218201904Y-81093095D01*
X219678095Y-80807380D02*
X219201904Y-80807380D01*
X219154285Y-81283571D01*
X219201904Y-81235952D01*
X219297142Y-81188333D01*
X219535238Y-81188333D01*
X219630476Y-81235952D01*
X219678095Y-81283571D01*
X219725714Y-81378809D01*
X219725714Y-81616904D01*
X219678095Y-81712142D01*
X219630476Y-81759761D01*
X219535238Y-81807380D01*
X219297142Y-81807380D01*
X219201904Y-81759761D01*
X219154285Y-81712142D01*
X211867714Y-85034380D02*
X211296285Y-85034380D01*
X211582000Y-85034380D02*
X211582000Y-84034380D01*
X211486761Y-84177238D01*
X211391523Y-84272476D01*
X211296285Y-84320095D01*
%TO.C,U17*%
X209212380Y-66008095D02*
X210021904Y-66008095D01*
X210117142Y-65960476D01*
X210164761Y-65912857D01*
X210212380Y-65817619D01*
X210212380Y-65627142D01*
X210164761Y-65531904D01*
X210117142Y-65484285D01*
X210021904Y-65436666D01*
X209212380Y-65436666D01*
X210212380Y-64436666D02*
X210212380Y-65008095D01*
X210212380Y-64722380D02*
X209212380Y-64722380D01*
X209355238Y-64817619D01*
X209450476Y-64912857D01*
X209498095Y-65008095D01*
X209212380Y-64103333D02*
X209212380Y-63436666D01*
X210212380Y-63865238D01*
%TO.C,U18*%
X232441904Y-80807380D02*
X232441904Y-81616904D01*
X232489523Y-81712142D01*
X232537142Y-81759761D01*
X232632380Y-81807380D01*
X232822857Y-81807380D01*
X232918095Y-81759761D01*
X232965714Y-81712142D01*
X233013333Y-81616904D01*
X233013333Y-80807380D01*
X234013333Y-81807380D02*
X233441904Y-81807380D01*
X233727619Y-81807380D02*
X233727619Y-80807380D01*
X233632380Y-80950238D01*
X233537142Y-81045476D01*
X233441904Y-81093095D01*
X234584761Y-81235952D02*
X234489523Y-81188333D01*
X234441904Y-81140714D01*
X234394285Y-81045476D01*
X234394285Y-80997857D01*
X234441904Y-80902619D01*
X234489523Y-80855000D01*
X234584761Y-80807380D01*
X234775238Y-80807380D01*
X234870476Y-80855000D01*
X234918095Y-80902619D01*
X234965714Y-80997857D01*
X234965714Y-81045476D01*
X234918095Y-81140714D01*
X234870476Y-81188333D01*
X234775238Y-81235952D01*
X234584761Y-81235952D01*
X234489523Y-81283571D01*
X234441904Y-81331190D01*
X234394285Y-81426428D01*
X234394285Y-81616904D01*
X234441904Y-81712142D01*
X234489523Y-81759761D01*
X234584761Y-81807380D01*
X234775238Y-81807380D01*
X234870476Y-81759761D01*
X234918095Y-81712142D01*
X234965714Y-81616904D01*
X234965714Y-81426428D01*
X234918095Y-81331190D01*
X234870476Y-81283571D01*
X234775238Y-81235952D01*
X227107714Y-85034380D02*
X226536285Y-85034380D01*
X226822000Y-85034380D02*
X226822000Y-84034380D01*
X226726761Y-84177238D01*
X226631523Y-84272476D01*
X226536285Y-84320095D01*
%TO.C,U19*%
X183546904Y-38822380D02*
X183546904Y-39631904D01*
X183594523Y-39727142D01*
X183642142Y-39774761D01*
X183737380Y-39822380D01*
X183927857Y-39822380D01*
X184023095Y-39774761D01*
X184070714Y-39727142D01*
X184118333Y-39631904D01*
X184118333Y-38822380D01*
X185118333Y-39822380D02*
X184546904Y-39822380D01*
X184832619Y-39822380D02*
X184832619Y-38822380D01*
X184737380Y-38965238D01*
X184642142Y-39060476D01*
X184546904Y-39108095D01*
X185594523Y-39822380D02*
X185785000Y-39822380D01*
X185880238Y-39774761D01*
X185927857Y-39727142D01*
X186023095Y-39584285D01*
X186070714Y-39393809D01*
X186070714Y-39012857D01*
X186023095Y-38917619D01*
X185975476Y-38870000D01*
X185880238Y-38822380D01*
X185689761Y-38822380D01*
X185594523Y-38870000D01*
X185546904Y-38917619D01*
X185499285Y-39012857D01*
X185499285Y-39250952D01*
X185546904Y-39346190D01*
X185594523Y-39393809D01*
X185689761Y-39441428D01*
X185880238Y-39441428D01*
X185975476Y-39393809D01*
X186023095Y-39346190D01*
X186070714Y-39250952D01*
%TO.C,U20*%
X152697380Y-43783095D02*
X153506904Y-43783095D01*
X153602142Y-43735476D01*
X153649761Y-43687857D01*
X153697380Y-43592619D01*
X153697380Y-43402142D01*
X153649761Y-43306904D01*
X153602142Y-43259285D01*
X153506904Y-43211666D01*
X152697380Y-43211666D01*
X152792619Y-42783095D02*
X152745000Y-42735476D01*
X152697380Y-42640238D01*
X152697380Y-42402142D01*
X152745000Y-42306904D01*
X152792619Y-42259285D01*
X152887857Y-42211666D01*
X152983095Y-42211666D01*
X153125952Y-42259285D01*
X153697380Y-42830714D01*
X153697380Y-42211666D01*
X152697380Y-41592619D02*
X152697380Y-41497380D01*
X152745000Y-41402142D01*
X152792619Y-41354523D01*
X152887857Y-41306904D01*
X153078333Y-41259285D01*
X153316428Y-41259285D01*
X153506904Y-41306904D01*
X153602142Y-41354523D01*
X153649761Y-41402142D01*
X153697380Y-41497380D01*
X153697380Y-41592619D01*
X153649761Y-41687857D01*
X153602142Y-41735476D01*
X153506904Y-41783095D01*
X153316428Y-41830714D01*
X153078333Y-41830714D01*
X152887857Y-41783095D01*
X152792619Y-41735476D01*
X152745000Y-41687857D01*
X152697380Y-41592619D01*
%TO.C,U16*%
X106076904Y-37092380D02*
X106076904Y-37901904D01*
X106124523Y-37997142D01*
X106172142Y-38044761D01*
X106267380Y-38092380D01*
X106457857Y-38092380D01*
X106553095Y-38044761D01*
X106600714Y-37997142D01*
X106648333Y-37901904D01*
X106648333Y-37092380D01*
X107648333Y-38092380D02*
X107076904Y-38092380D01*
X107362619Y-38092380D02*
X107362619Y-37092380D01*
X107267380Y-37235238D01*
X107172142Y-37330476D01*
X107076904Y-37378095D01*
X108505476Y-37092380D02*
X108315000Y-37092380D01*
X108219761Y-37140000D01*
X108172142Y-37187619D01*
X108076904Y-37330476D01*
X108029285Y-37520952D01*
X108029285Y-37901904D01*
X108076904Y-37997142D01*
X108124523Y-38044761D01*
X108219761Y-38092380D01*
X108410238Y-38092380D01*
X108505476Y-38044761D01*
X108553095Y-37997142D01*
X108600714Y-37901904D01*
X108600714Y-37663809D01*
X108553095Y-37568571D01*
X108505476Y-37520952D01*
X108410238Y-37473333D01*
X108219761Y-37473333D01*
X108124523Y-37520952D01*
X108076904Y-37568571D01*
X108029285Y-37663809D01*
%TD*%
M02*
