%TF.GenerationSoftware,KiCad,Pcbnew,5.1.6-c6e7f7d~86~ubuntu20.04.1*%
%TF.CreationDate,2020-07-03T06:45:37-04:00*%
%TF.ProjectId,vfd-display,7666642d-6469-4737-906c-61792e6b6963,rev?*%
%TF.SameCoordinates,Original*%
%TF.FileFunction,Legend,Bot*%
%TF.FilePolarity,Positive*%
%FSLAX46Y46*%
G04 Gerber Fmt 4.6, Leading zero omitted, Abs format (unit mm)*
G04 Created by KiCad (PCBNEW 5.1.6-c6e7f7d~86~ubuntu20.04.1) date 2020-07-03 06:45:37*
%MOMM*%
%LPD*%
G01*
G04 APERTURE LIST*
%ADD10C,0.150000*%
G04 APERTURE END LIST*
D10*
X136633857Y-80218038D02*
X137795000Y-80218038D01*
X137214428Y-80218038D02*
X137214428Y-78186038D01*
X137407952Y-78476323D01*
X137601476Y-78669847D01*
X137795000Y-78766609D01*
X135859761Y-78379561D02*
X135763000Y-78282800D01*
X135569476Y-78186038D01*
X135085666Y-78186038D01*
X134892142Y-78282800D01*
X134795380Y-78379561D01*
X134698619Y-78573085D01*
X134698619Y-78766609D01*
X134795380Y-79056895D01*
X135956523Y-80218038D01*
X134698619Y-80218038D01*
X134021285Y-78186038D02*
X132666619Y-80218038D01*
X132666619Y-78186038D02*
X134021285Y-80218038D01*
X128796142Y-80218038D02*
X128796142Y-78186038D01*
X128118809Y-78186038D02*
X127441476Y-80218038D01*
X126764142Y-78186038D01*
X126086809Y-79443942D02*
X124538619Y-79443942D01*
X122700142Y-78186038D02*
X123087190Y-78186038D01*
X123280714Y-78282800D01*
X123377476Y-78379561D01*
X123571000Y-78669847D01*
X123667761Y-79056895D01*
X123667761Y-79830990D01*
X123571000Y-80024514D01*
X123474238Y-80121276D01*
X123280714Y-80218038D01*
X122893666Y-80218038D01*
X122700142Y-80121276D01*
X122603380Y-80024514D01*
X122506619Y-79830990D01*
X122506619Y-79347180D01*
X122603380Y-79153657D01*
X122700142Y-79056895D01*
X122893666Y-78960133D01*
X123280714Y-78960133D01*
X123474238Y-79056895D01*
X123571000Y-79153657D01*
X123667761Y-79347180D01*
X120377857Y-78863371D02*
X119603761Y-78863371D01*
X120087571Y-78186038D02*
X120087571Y-79927752D01*
X119990809Y-80121276D01*
X119797285Y-80218038D01*
X119603761Y-80218038D01*
X118055571Y-78863371D02*
X118055571Y-80218038D01*
X118926428Y-78863371D02*
X118926428Y-79927752D01*
X118829666Y-80121276D01*
X118636142Y-80218038D01*
X118345857Y-80218038D01*
X118152333Y-80121276D01*
X118055571Y-80024514D01*
X117087952Y-80218038D02*
X117087952Y-78186038D01*
X117087952Y-78960133D02*
X116894428Y-78863371D01*
X116507380Y-78863371D01*
X116313857Y-78960133D01*
X116217095Y-79056895D01*
X116120333Y-79250419D01*
X116120333Y-79830990D01*
X116217095Y-80024514D01*
X116313857Y-80121276D01*
X116507380Y-80218038D01*
X116894428Y-80218038D01*
X117087952Y-80121276D01*
X114475380Y-80121276D02*
X114668904Y-80218038D01*
X115055952Y-80218038D01*
X115249476Y-80121276D01*
X115346238Y-79927752D01*
X115346238Y-79153657D01*
X115249476Y-78960133D01*
X115055952Y-78863371D01*
X114668904Y-78863371D01*
X114475380Y-78960133D01*
X114378619Y-79153657D01*
X114378619Y-79347180D01*
X115346238Y-79540704D01*
X110411380Y-80218038D02*
X110411380Y-78863371D01*
X110411380Y-79056895D02*
X110314619Y-78960133D01*
X110121095Y-78863371D01*
X109830809Y-78863371D01*
X109637285Y-78960133D01*
X109540523Y-79153657D01*
X109540523Y-80218038D01*
X109540523Y-79153657D02*
X109443761Y-78960133D01*
X109250238Y-78863371D01*
X108959952Y-78863371D01*
X108766428Y-78960133D01*
X108669666Y-79153657D01*
X108669666Y-80218038D01*
X107411761Y-80218038D02*
X107605285Y-80121276D01*
X107702047Y-80024514D01*
X107798809Y-79830990D01*
X107798809Y-79250419D01*
X107702047Y-79056895D01*
X107605285Y-78960133D01*
X107411761Y-78863371D01*
X107121476Y-78863371D01*
X106927952Y-78960133D01*
X106831190Y-79056895D01*
X106734428Y-79250419D01*
X106734428Y-79830990D01*
X106831190Y-80024514D01*
X106927952Y-80121276D01*
X107121476Y-80218038D01*
X107411761Y-80218038D01*
X104992714Y-78863371D02*
X104992714Y-80218038D01*
X105863571Y-78863371D02*
X105863571Y-79927752D01*
X105766809Y-80121276D01*
X105573285Y-80218038D01*
X105283000Y-80218038D01*
X105089476Y-80121276D01*
X104992714Y-80024514D01*
X104025095Y-78863371D02*
X104025095Y-80218038D01*
X104025095Y-79056895D02*
X103928333Y-78960133D01*
X103734809Y-78863371D01*
X103444523Y-78863371D01*
X103251000Y-78960133D01*
X103154238Y-79153657D01*
X103154238Y-80218038D01*
X102476904Y-78863371D02*
X101702809Y-78863371D01*
X102186619Y-78186038D02*
X102186619Y-79927752D01*
X102089857Y-80121276D01*
X101896333Y-80218038D01*
X101702809Y-80218038D01*
X99767571Y-78863371D02*
X98993476Y-78863371D01*
X99477285Y-78186038D02*
X99477285Y-79927752D01*
X99380523Y-80121276D01*
X99187000Y-80218038D01*
X98993476Y-80218038D01*
X98316142Y-80218038D02*
X98316142Y-78186038D01*
X97445285Y-80218038D02*
X97445285Y-79153657D01*
X97542047Y-78960133D01*
X97735571Y-78863371D01*
X98025857Y-78863371D01*
X98219380Y-78960133D01*
X98316142Y-79056895D01*
X96477666Y-80218038D02*
X96477666Y-78863371D01*
X96477666Y-78186038D02*
X96574428Y-78282800D01*
X96477666Y-78379561D01*
X96380904Y-78282800D01*
X96477666Y-78186038D01*
X96477666Y-78379561D01*
X95606809Y-80121276D02*
X95413285Y-80218038D01*
X95026238Y-80218038D01*
X94832714Y-80121276D01*
X94735952Y-79927752D01*
X94735952Y-79830990D01*
X94832714Y-79637466D01*
X95026238Y-79540704D01*
X95316523Y-79540704D01*
X95510047Y-79443942D01*
X95606809Y-79250419D01*
X95606809Y-79153657D01*
X95510047Y-78960133D01*
X95316523Y-78863371D01*
X95026238Y-78863371D01*
X94832714Y-78960133D01*
X92413666Y-80121276D02*
X92220142Y-80218038D01*
X91833095Y-80218038D01*
X91639571Y-80121276D01*
X91542809Y-79927752D01*
X91542809Y-79830990D01*
X91639571Y-79637466D01*
X91833095Y-79540704D01*
X92123380Y-79540704D01*
X92316904Y-79443942D01*
X92413666Y-79250419D01*
X92413666Y-79153657D01*
X92316904Y-78960133D01*
X92123380Y-78863371D01*
X91833095Y-78863371D01*
X91639571Y-78960133D01*
X90671952Y-80218038D02*
X90671952Y-78863371D01*
X90671952Y-78186038D02*
X90768714Y-78282800D01*
X90671952Y-78379561D01*
X90575190Y-78282800D01*
X90671952Y-78186038D01*
X90671952Y-78379561D01*
X88833476Y-80218038D02*
X88833476Y-78186038D01*
X88833476Y-80121276D02*
X89027000Y-80218038D01*
X89414047Y-80218038D01*
X89607571Y-80121276D01*
X89704333Y-80024514D01*
X89801095Y-79830990D01*
X89801095Y-79250419D01*
X89704333Y-79056895D01*
X89607571Y-78960133D01*
X89414047Y-78863371D01*
X89027000Y-78863371D01*
X88833476Y-78960133D01*
X87091761Y-80121276D02*
X87285285Y-80218038D01*
X87672333Y-80218038D01*
X87865857Y-80121276D01*
X87962619Y-79927752D01*
X87962619Y-79153657D01*
X87865857Y-78960133D01*
X87672333Y-78863371D01*
X87285285Y-78863371D01*
X87091761Y-78960133D01*
X86995000Y-79153657D01*
X86995000Y-79347180D01*
X87962619Y-79540704D01*
M02*
