M48
; DRILL file {KiCad 5.1.6-c6e7f7d~86~ubuntu20.04.1} date Fri Jul  3 06:44:18 2020
; FORMAT={-:-/ absolute / inch / decimal}
; #@! TF.CreationDate,2020-07-03T06:44:18-04:00
; #@! TF.GenerationSoftware,Kicad,Pcbnew,5.1.6-c6e7f7d~86~ubuntu20.04.1
; #@! TF.FileFunction,Plated,1,2,PTH
FMAT,2
INCH
T1C0.0100
T2C0.0150
T3C0.0315
T4C0.0354
T5C0.0394
T6C0.0433
T7C0.0669
T8C0.1378
%
G90
G05
T1
X2.25Y-2.675
X2.275Y-2.525
X2.275Y-3.05
X2.35Y-3.025
X2.45Y-1.975
X2.45Y-3.0
X2.55Y-2.975
X2.65Y-2.95
X2.75Y-3.225
X2.85Y-3.325
X2.85Y-3.725
X2.9Y-3.425
X2.95Y-3.1
X2.95Y-3.225
X3.0Y-3.05
X3.025Y-1.975
X3.05Y-2.525
X3.05Y-3.075
X3.15Y-3.05
X3.3Y-3.05
X3.35Y-2.55
X3.35Y-3.075
X3.375Y-3.725
X3.4Y-3.1
X3.45Y-2.45
X3.55Y-3.2
X3.6Y-3.05
X3.65Y-2.95
X3.725Y-2.975
X3.75Y-1.65
X3.775Y-2.675
X3.8Y-3.0
X3.825Y-2.675
X3.85Y-3.075
X3.875Y-3.025
X3.925Y-1.975
X3.975Y-3.025
X3.975Y-3.7
X4.075Y-3.15
X4.075Y-3.2
X4.125Y-3.225
X4.175Y-3.175
X4.2Y-2.925
X4.225Y-3.05
X4.275Y-3.1
X4.375Y-3.1
X4.475Y-3.1
X4.575Y-3.025
X4.625Y-3.725
X4.675Y-2.925
X4.75Y-1.975
X4.775Y-3.225
X4.85Y-3.05
X4.875Y-2.55
X4.875Y-3.075
X4.9Y-3.025
X4.925Y-3.1
X4.975Y-2.45
X5.0Y-3.125
X5.075Y-3.15
X5.1Y-1.9
X5.125Y-3.175
X5.2Y-3.2
X5.2Y-3.725
X5.25Y-3.0
X5.3Y-2.6
X5.3Y-2.675
X5.3Y-3.025
X5.4Y-3.05
X5.5Y-3.075
X5.6Y-2.975
X5.675Y-1.975
X5.7Y-3.1
X5.775Y-3.725
X5.8Y-3.125
X5.9Y-1.9
X5.95Y-3.0
X5.95Y-3.125
X6.0Y-3.125
X6.05Y-3.025
X6.075Y-1.975
X6.1Y-3.025
X6.2Y-2.95
X6.275Y-2.1
X6.325Y-2.95
X6.35Y-3.025
X6.4Y-2.55
X6.425Y-3.725
X6.45Y-3.125
X6.5Y-2.45
X6.625Y-1.7
X6.65Y-2.775
X6.65Y-2.875
X6.65Y-2.95
X6.65Y-3.1
X6.7Y-2.975
X6.8Y-3.075
X6.825Y-2.15
X6.875Y-3.05
X6.9Y-2.625
X6.9Y-2.675
X6.975Y-1.6
X6.975Y-1.925
X7.0Y-3.175
X7.0Y-3.725
X7.05Y-1.8
X7.1Y-3.2
X7.175Y-2.15
X7.175Y-3.15
X7.2Y-1.925
X7.2Y-3.05
X7.25Y-2.95
X7.3Y-1.8
X7.3Y-3.025
X7.3Y-3.075
X7.4Y-1.7
X7.4Y-3.1
X7.5Y-3.1
X7.55Y-1.95
X7.55Y-2.375
X7.6Y-1.675
X7.6Y-3.025
X7.6Y-3.725
X7.7Y-1.7
X7.7Y-2.95
X7.7Y-3.425
X7.725Y-3.4
X7.8Y-3.075
X7.825Y-1.725
X7.875Y-2.95
X7.9Y-1.675
X7.9Y-3.05
X7.9213Y-3.0287
X8.0Y-1.7
X8.0Y-2.55
X8.0Y-3.1
X8.075Y-3.125
X8.1Y-2.45
X8.15Y-3.025
X8.2Y-1.475
X8.2Y-1.75
X8.2Y-1.9
X8.2Y-3.15
X8.2Y-3.725
X8.225Y-1.95
X8.225Y-2.125
X8.275Y-1.675
X8.275Y-2.0
X8.3Y-3.225
X8.35Y-2.975
X8.45Y-2.375
X8.475Y-1.9
X8.5Y-2.6
X8.8Y-3.725
X8.85Y-1.725
X8.925Y-1.85
X8.925Y-3.3
X8.925Y-3.4
X8.975Y-3.475
X9.05Y-3.0
X9.1Y-3.225
X9.15Y-3.05
X9.15Y-3.175
X9.2Y-2.975
X9.2Y-3.125
X9.25Y-3.075
X9.3Y-3.0
X9.375Y-3.225
X9.4Y-3.075
X9.45Y-3.125
X9.5Y-3.05
X9.55Y-2.55
X9.65Y-2.45
T2
X3.225Y-2.075
X3.6Y-2.15
X6.65Y-2.375
T3
X3.6425Y-3.5
X3.6636Y-3.4213
X3.6636Y-3.5787
X3.7213Y-3.6364
X3.7213Y-3.3636
X3.8Y-3.3425
X3.8Y-3.6575
X3.8787Y-3.3636
X3.8787Y-3.6364
X3.9364Y-3.4213
X3.9364Y-3.5787
X3.9575Y-3.5
X7.225Y-1.65
X7.225Y-1.7484
X9.0425Y-3.5
X9.0636Y-3.4213
X9.0636Y-3.5787
X9.1213Y-3.6364
X9.1213Y-3.3636
X9.2Y-3.3425
X9.2Y-3.6575
X9.2787Y-3.3636
X9.2787Y-3.6364
X9.3364Y-3.4213
X9.3364Y-3.5787
X9.3575Y-3.5
X4.0266Y-1.8
X4.125Y-1.8
X6.8Y-2.05
X6.8984Y-2.05
X9.4Y-1.75
X9.4984Y-1.75
X6.0425Y-3.5
X6.0636Y-3.4213
X6.0636Y-3.5787
X6.1213Y-3.6364
X6.1213Y-3.3636
X6.2Y-3.3425
X6.2Y-3.6575
X6.2787Y-3.3636
X6.2787Y-3.6364
X6.3364Y-3.4213
X6.3364Y-3.5787
X6.3575Y-3.5
X2.125Y-3.075
X2.125Y-3.1734
X9.25Y-1.9
X9.65Y-1.9
X6.8Y-2.25
X6.8Y-2.85
X6.9Y-2.25
X6.9Y-2.85
X7.0Y-2.25
X7.0Y-2.85
X7.1Y-2.25
X7.1Y-2.85
X7.2Y-2.25
X7.2Y-2.85
X7.3Y-2.25
X7.3Y-2.85
X7.4Y-2.25
X7.4Y-2.85
X7.5Y-2.25
X7.5Y-2.85
X7.6Y-2.25
X7.6Y-2.85
X7.7Y-2.25
X7.7Y-2.85
X7.8Y-2.25
X7.8Y-2.85
X7.9Y-2.25
X7.9Y-2.85
X8.0Y-2.25
X8.0Y-2.85
X8.1Y-2.25
X8.1Y-2.85
X3.675Y-2.25
X3.675Y-2.85
X3.775Y-2.25
X3.775Y-2.85
X3.875Y-2.25
X3.875Y-2.85
X3.975Y-2.25
X3.975Y-2.85
X4.075Y-2.25
X4.075Y-2.85
X4.175Y-2.25
X4.175Y-2.85
X4.275Y-2.25
X4.275Y-2.85
X4.375Y-2.25
X4.375Y-2.85
X4.475Y-2.25
X4.475Y-2.85
X4.575Y-2.25
X4.575Y-2.85
X4.675Y-2.25
X4.675Y-2.85
X4.775Y-2.25
X4.775Y-2.85
X4.875Y-2.25
X4.875Y-2.85
X4.975Y-2.25
X4.975Y-2.85
X7.2425Y-3.5
X7.2636Y-3.4213
X7.2636Y-3.5787
X7.3213Y-3.6364
X7.3213Y-3.3636
X7.4Y-3.3425
X7.4Y-3.6575
X7.4787Y-3.3636
X7.4787Y-3.6364
X7.5364Y-3.4213
X7.5364Y-3.5787
X7.5575Y-3.5
X6.125Y-1.525
X6.125Y-1.825
X6.225Y-1.525
X6.225Y-1.825
X6.325Y-1.525
X6.325Y-1.825
X6.425Y-1.525
X6.425Y-1.825
X6.525Y-1.525
X6.525Y-1.825
X6.625Y-1.525
X6.625Y-1.825
X6.725Y-1.525
X6.725Y-1.825
X6.825Y-1.525
X6.825Y-1.825
X4.8425Y-3.5
X4.8636Y-3.4213
X4.8636Y-3.5787
X4.9213Y-3.6364
X4.9213Y-3.3636
X5.0Y-3.3425
X5.0Y-3.6575
X5.0787Y-3.3636
X5.0787Y-3.6364
X5.1364Y-3.4213
X5.1364Y-3.5787
X5.1575Y-3.5
X5.125Y-1.525
X5.525Y-1.525
X3.0425Y-3.5
X3.0636Y-3.4213
X3.0636Y-3.5787
X3.1213Y-3.6364
X3.1213Y-3.3636
X3.2Y-3.3425
X3.2Y-3.6575
X3.2787Y-3.3636
X3.2787Y-3.6364
X3.3364Y-3.4213
X3.3364Y-3.5787
X3.3575Y-3.5
X7.75Y-2.05
X8.15Y-2.05
X6.6425Y-3.5
X6.6636Y-3.4213
X6.6636Y-3.5787
X6.7213Y-3.6364
X6.7213Y-3.3636
X6.8Y-3.3425
X6.8Y-3.6575
X6.8787Y-3.3636
X6.8787Y-3.6364
X6.9364Y-3.4213
X6.9364Y-3.5787
X6.9575Y-3.5
X4.2425Y-3.5
X4.2636Y-3.4213
X4.2636Y-3.5787
X4.3213Y-3.6364
X4.3213Y-3.3636
X4.4Y-3.3425
X4.4Y-3.6575
X4.4787Y-3.3636
X4.4787Y-3.6364
X4.5364Y-3.4213
X4.5364Y-3.5787
X4.5575Y-3.5
X2.15Y-2.25
X2.15Y-2.85
X2.25Y-2.25
X2.25Y-2.85
X2.35Y-2.25
X2.35Y-2.85
X2.45Y-2.25
X2.45Y-2.85
X2.55Y-2.25
X2.55Y-2.85
X2.65Y-2.25
X2.65Y-2.85
X2.75Y-2.25
X2.75Y-2.85
X2.85Y-2.25
X2.85Y-2.85
X2.95Y-2.25
X2.95Y-2.85
X3.05Y-2.25
X3.05Y-2.85
X3.15Y-2.25
X3.15Y-2.85
X3.25Y-2.25
X3.25Y-2.85
X3.35Y-2.25
X3.35Y-2.85
X3.45Y-2.25
X3.45Y-2.85
X5.2Y-2.25
X5.2Y-2.85
X5.3Y-2.25
X5.3Y-2.85
X5.4Y-2.25
X5.4Y-2.85
X5.5Y-2.25
X5.5Y-2.85
X5.6Y-2.25
X5.6Y-2.85
X5.7Y-2.25
X5.7Y-2.85
X5.8Y-2.25
X5.8Y-2.85
X5.9Y-2.25
X5.9Y-2.85
X6.0Y-2.25
X6.0Y-2.85
X6.1Y-2.25
X6.1Y-2.85
X6.2Y-2.25
X6.2Y-2.85
X6.3Y-2.25
X6.3Y-2.85
X6.4Y-2.25
X6.4Y-2.85
X6.5Y-2.25
X6.5Y-2.85
X4.3266Y-1.8
X4.425Y-1.8
X8.4425Y-3.5
X8.4636Y-3.4213
X8.4636Y-3.5787
X8.5213Y-3.6364
X8.5213Y-3.3636
X8.6Y-3.3425
X8.6Y-3.6575
X8.6787Y-3.3636
X8.6787Y-3.6364
X8.7364Y-3.4213
X8.7364Y-3.5787
X8.7575Y-3.5
X2.15Y-2.05
X2.2484Y-2.05
X7.4Y-1.525
X7.4Y-1.825
X7.5Y-1.525
X7.5Y-1.825
X7.6Y-1.525
X7.6Y-1.825
X7.7Y-1.525
X7.7Y-1.825
X7.8Y-1.525
X7.8Y-1.825
X7.9Y-1.525
X7.9Y-1.825
X8.0Y-1.525
X8.0Y-1.825
X2.4425Y-3.5
X2.4636Y-3.4213
X2.4636Y-3.5787
X2.5213Y-3.6364
X2.5213Y-3.3636
X2.6Y-3.3425
X2.6Y-3.6575
X2.6787Y-3.3636
X2.6787Y-3.6364
X2.7364Y-3.4213
X2.7364Y-3.5787
X2.7575Y-3.5
X8.35Y-2.075
X8.4484Y-2.075
X5.4425Y-3.5
X5.4636Y-3.4213
X5.4636Y-3.5787
X5.5213Y-3.6364
X5.5213Y-3.3636
X5.6Y-3.3425
X5.6Y-3.6575
X5.6787Y-3.3636
X5.6787Y-3.6364
X5.7364Y-3.4213
X5.7364Y-3.5787
X5.7575Y-3.5
X7.8425Y-3.5
X7.8636Y-3.4213
X7.8636Y-3.5787
X7.9213Y-3.6364
X7.9213Y-3.3636
X8.0Y-3.3425
X8.0Y-3.6575
X8.0787Y-3.3636
X8.0787Y-3.6364
X8.1364Y-3.4213
X8.1364Y-3.5787
X8.1575Y-3.5
X8.35Y-2.25
X8.35Y-2.85
X8.45Y-2.25
X8.45Y-2.85
X8.55Y-2.25
X8.55Y-2.85
X8.65Y-2.25
X8.65Y-2.85
X8.75Y-2.25
X8.75Y-2.85
X8.85Y-2.25
X8.85Y-2.85
X8.95Y-2.25
X8.95Y-2.85
X9.05Y-2.25
X9.05Y-2.85
X9.15Y-2.25
X9.15Y-2.85
X9.25Y-2.25
X9.25Y-2.85
X9.35Y-2.25
X9.35Y-2.85
X9.45Y-2.25
X9.45Y-2.85
X9.55Y-2.25
X9.55Y-2.85
X9.65Y-2.25
X9.65Y-2.85
X9.25Y-2.05
X9.65Y-2.05
X7.175Y-2.05
X7.575Y-2.05
X9.7Y-3.05
X9.7Y-3.1484
X5.925Y-1.625
X5.925Y-1.7234
X8.275Y-1.8
X8.675Y-1.8
X5.2Y-2.075
X5.2984Y-2.075
X5.125Y-1.7
X5.525Y-1.7
X3.675Y-2.05
X3.7734Y-2.05
T4
X4.85Y-1.525
X4.95Y-1.525
X4.85Y-1.775
X4.95Y-1.775
T5
X8.7Y-1.95
X8.7Y-2.05
X8.8Y-1.95
X8.8Y-2.05
X8.9Y-1.95
X8.9Y-2.05
X8.475Y-1.475
X8.475Y-1.575
X8.575Y-1.475
X8.575Y-1.575
X8.675Y-1.475
X8.675Y-1.575
X8.775Y-1.475
X8.775Y-1.575
X8.875Y-1.475
X8.875Y-1.575
X8.975Y-1.475
X8.975Y-1.575
X9.075Y-1.475
X9.075Y-1.575
X9.175Y-1.475
X9.175Y-1.575
T6
X4.125Y-1.65
X4.225Y-1.65
X4.325Y-1.65
T7
X2.7455Y-1.725
X2.9014Y-1.725
X3.0573Y-1.725
X3.2132Y-1.725
X3.3691Y-1.725
X3.525Y-1.725
T8
X9.675Y-1.55
X2.125Y-3.775
X2.125Y-1.55
X9.675Y-3.775
T0
M30
